M48
; DRILL file {KiCad 7.0.5-0} date 2023 December 27, Wednesday 11:16:36
; FORMAT={-:-/ absolute / metric / decimal}
; #@! TF.CreationDate,2023-12-27T11:16:36-05:00
; #@! TF.GenerationSoftware,Kicad,Pcbnew,7.0.5-0
; #@! TF.FileFunction,Plated,1,4,PTH
FMAT,2
METRIC
; #@! TA.AperFunction,Plated,PTH,ViaDrill
T1C0.300
; #@! TA.AperFunction,Plated,PTH,ViaDrill
T2C0.500
; #@! TA.AperFunction,Plated,PTH,ComponentDrill
T3C0.500
; #@! TA.AperFunction,Plated,PTH,ViaDrill
T4C0.600
; #@! TA.AperFunction,Plated,PTH,ComponentDrill
T5C0.840
; #@! TA.AperFunction,Plated,PTH,ComponentDrill
T6C0.900
; #@! TA.AperFunction,Plated,PTH,ComponentDrill
T7C1.000
; #@! TA.AperFunction,Plated,PTH,ComponentDrill
T8C1.100
; #@! TA.AperFunction,Plated,PTH,ComponentDrill
T9C1.300
; #@! TA.AperFunction,Plated,PTH,ComponentDrill
T10C1.500
; #@! TA.AperFunction,Plated,PTH,ComponentDrill
T11C3.500
%
G90
G05
T1
X65.8Y-86.9
X66.1Y-78.9
X66.1Y-121.1
X66.2Y-97.6
X66.298Y-116.019
X66.3Y-103.6
X66.4Y-91.7
X66.467Y-109.58
X66.6Y-145.2
X66.9Y-137.0
X68.9Y-94.5
X69.1Y-101.3
X69.2Y-117.5
X69.3Y-107.1
X69.3Y-112.1
X69.8Y-133.8
X70.4Y-87.6
X71.87Y-113.767
X72.6Y-117.5
X74.4Y-123.3
X75.6Y-81.6
X75.7Y-113.9
X76.286Y-144.744
X77.6Y-124.2
X78.3Y-138.4
X78.4Y-137.5
X78.6Y-117.9
X79.2Y-124.3
X80.6Y-117.8
X81.3Y-78.6
X81.602Y-132.148
X82.2Y-127.9
X82.8Y-116.4
X82.9Y-144.2
X84.4Y-114.5
X86.7Y-143.8
X87.7Y-114.9
X88.7Y-78.6
X91.0Y-131.5
X91.4Y-114.8
X91.5Y-127.8
X93.3Y-85.9
X93.4Y-87.5
X94.1Y-81.4
X94.3Y-89.1
X94.4Y-90.5
X94.5Y-108.7
X94.5Y-117.8
X94.6Y-87.2
X95.1Y-91.5
X95.1Y-111.0
X95.2Y-103.2
X95.8Y-90.5
X95.8Y-102.0
X95.9Y-85.9
X95.9Y-89.0
X96.472Y-114.716
X97.941Y-82.267
X98.1Y-94.1
X99.0Y-78.6
X99.0Y-131.7
X99.3Y-127.6
X99.6Y-117.9
X101.3Y-114.6
X105.1Y-114.7
X105.9Y-94.1
X106.9Y-94.0
X107.018Y-131.809
X107.5Y-117.6
X107.831Y-127.37
X108.287Y-78.529
X108.4Y-114.9
X112.8Y-114.9
X114.0Y-132.0
X114.2Y-127.6
X116.5Y-114.6
X116.8Y-98.4
X118.1Y-124.3
X119.1Y-124.3
X119.186Y-117.543
X119.3Y-78.8
X119.3Y-87.5
X119.7Y-86.4
X120.4Y-132.1
X120.5Y-87.6
X120.5Y-90.4
X120.7Y-89.3
X120.988Y-130.294
X121.4Y-131.5
X121.7Y-83.2
X121.7Y-91.0
X122.4Y-125.3
X122.8Y-108.3
X122.948Y-115.154
X123.5Y-103.0
X123.5Y-125.3
X123.8Y-129.7
X124.0Y-95.0
X124.022Y-97.397
X124.1Y-91.9
X124.1Y-124.5
X124.262Y-79.244
X124.3Y-117.8
X124.7Y-128.8
X125.2Y-129.9
X125.3Y-87.3
X125.7Y-136.4
X126.5Y-102.1
X126.8Y-91.4
X127.185Y-110.335
X127.624Y-114.798
X127.7Y-90.5
X127.7Y-101.8
X127.8Y-89.1
X128.5Y-123.3
X128.6Y-127.8
X128.7Y-102.4
X129.5Y-79.3
X129.5Y-130.1
X129.5Y-131.4
X129.5Y-132.6
X129.5Y-133.9
X130.725Y-118.153
X130.9Y-83.2
X131.9Y-97.3
X131.9Y-140.7
X132.0Y-139.6
X133.6Y-114.7
X134.6Y-122.089
X134.7Y-98.2
X136.8Y-78.8
X137.5Y-117.9
X137.9Y-98.6
X140.2Y-139.7
X141.0Y-139.6
X141.1Y-94.0
X141.9Y-131.4
X142.0Y-79.0
X142.0Y-128.8
X142.0Y-130.1
X142.0Y-132.6
X142.0Y-133.9
X142.1Y-124.8
X142.4Y-93.9
X142.4Y-115.9
X143.3Y-124.9
X143.9Y-130.7
X144.4Y-124.4
X145.2Y-133.5
X145.4Y-128.4
X145.9Y-115.4
X146.5Y-127.5
X146.5Y-128.7
X147.67Y-78.682
X147.8Y-125.1
X148.6Y-139.6
X149.0Y-125.4
X149.1Y-115.1
X149.1Y-127.8
X149.7Y-139.6
X149.8Y-129.7
X149.9Y-123.5
X150.058Y-136.08
X150.9Y-129.4
X151.2Y-134.0
X151.9Y-130.7
X152.3Y-121.9
X153.4Y-127.7
X153.6Y-133.0
X153.773Y-114.885
X154.8Y-120.3
X154.9Y-78.5
X155.0Y-85.8
X155.1Y-87.5
X155.1Y-101.7
X155.2Y-104.2
X155.3Y-98.9
X155.4Y-136.4
X155.8Y-109.8
X155.9Y-128.0
X156.0Y-89.1
X156.0Y-90.5
X156.3Y-86.8
X156.5Y-98.8
X156.5Y-101.6
X156.6Y-91.5
X157.8Y-139.8
X158.2Y-81.9
X158.2Y-93.8
X158.2Y-118.5
X158.8Y-135.4
X158.9Y-114.9
X158.9Y-129.4
X159.0Y-139.7
X160.1Y-135.6
X160.5Y-129.3
X160.6Y-98.2
X162.6Y-78.8
X163.9Y-131.8
X164.2Y-130.7
X164.8Y-114.8
X164.9Y-132.1
X166.4Y-94.1
X166.6Y-139.8
X167.5Y-94.1
X167.7Y-139.7
X168.2Y-114.5
X170.8Y-79.8
X172.6Y-114.1
X173.0Y-133.1
X173.0Y-134.3
X173.7Y-135.3
X175.229Y-127.859
X175.8Y-114.8
X176.8Y-136.5
X178.1Y-81.5
X178.1Y-133.4
X178.7Y-138.0
X178.9Y-128.4
X179.0Y-114.5
X179.0Y-137.0
X180.5Y-98.4
X180.596Y-103.589
X180.596Y-107.55
X180.8Y-86.4
X181.0Y-78.7
X181.1Y-87.5
X181.3Y-142.5
X182.2Y-87.7
X182.3Y-89.4
X182.8Y-82.5
X182.8Y-90.5
X183.7Y-91.1
X183.7Y-114.6
X184.256Y-143.351
X185.8Y-97.7
X185.9Y-145.1
X186.0Y-104.7
X186.1Y-130.4
X186.451Y-85.338
X186.464Y-92.156
X186.8Y-109.3
X188.586Y-79.645
X188.6Y-114.6
X188.7Y-91.3
X188.742Y-140.787
X188.9Y-102.0
X190.0Y-90.5
X190.0Y-101.8
X190.3Y-89.5
X191.1Y-102.0
X191.6Y-86.3
X193.2Y-106.2
X193.9Y-97.8
X194.8Y-82.9
X196.2Y-98.0
X197.4Y-79.1
X198.5Y-114.9
X199.1Y-98.5
X201.6Y-141.5
X201.7Y-115.1
X202.2Y-94.1
X202.5Y-130.7
X202.6Y-145.3
X203.4Y-94.1
X204.6Y-79.1
X204.9Y-115.1
X205.3Y-143.5
X206.6Y-119.8
X209.5Y-115.2
X211.5Y-132.0
X211.596Y-79.188
X211.9Y-126.5
X212.6Y-114.9
X215.0Y-98.7
X215.42Y-126.622
X215.5Y-86.2
X215.7Y-87.515
X216.7Y-142.9
X216.8Y-88.0
X216.9Y-90.5
X216.9Y-101.7
X217.0Y-89.4
X217.4Y-82.2
X217.494Y-137.221
X218.5Y-87.0
X218.678Y-79.934
X218.7Y-122.2
X219.5Y-94.3
X220.0Y-129.1
X220.2Y-143.0
X220.295Y-137.853
X220.8Y-129.9
X220.9Y-128.5
X221.6Y-98.3
X221.9Y-81.5
X224.035Y-98.791
X225.8Y-114.5
X227.7Y-93.9
X227.897Y-120.609
X228.404Y-78.985
X228.7Y-94.0
X229.6Y-114.6
X231.8Y-140.8
X232.6Y-133.2
X233.5Y-145.0
X233.7Y-138.8
X233.8Y-114.1
X235.0Y-117.7
X235.1Y-137.5
X236.7Y-79.2
X236.7Y-123.5
X236.9Y-114.4
X236.9Y-142.1
X237.5Y-134.8
X237.6Y-144.8
X237.7Y-124.8
X239.8Y-115.6
X240.9Y-103.5
X241.391Y-86.593
X241.4Y-107.4
X241.7Y-98.4
X242.1Y-87.5
X242.5Y-133.3
X243.0Y-89.3
X243.1Y-112.1
X243.3Y-88.0
X243.4Y-90.5
X243.6Y-127.5
X244.3Y-91.3
X245.3Y-100.2
X246.0Y-136.1
X246.1Y-93.6
X246.3Y-86.6
X246.3Y-144.6
X246.5Y-111.8
X246.5Y-126.3
X246.698Y-120.283
X246.7Y-105.1
T2
X85.3Y-107.4
X110.4Y-107.4
X119.3Y-135.4
X119.3Y-137.6
X170.8Y-107.5
X207.0Y-107.5
X217.4Y-134.4
X225.0Y-125.4
X228.2Y-130.6
X228.2Y-132.9
X229.3Y-135.4
X232.0Y-107.5
X233.6Y-121.7
X238.2Y-130.7
X240.5Y-130.7
T3
X67.375Y-82.2
X67.375Y-141.1
X68.144Y-80.344
X68.144Y-84.056
X68.144Y-139.244
X68.144Y-142.956
X70.0Y-79.575
X70.0Y-84.825
X70.0Y-138.475
X70.0Y-143.725
X71.856Y-80.344
X71.856Y-84.056
X71.856Y-139.244
X71.856Y-142.956
X72.625Y-82.2
X72.625Y-141.1
X239.875Y-82.2
X239.875Y-141.1
X240.644Y-80.344
X240.644Y-84.056
X240.644Y-139.244
X240.644Y-142.956
X242.5Y-79.575
X242.5Y-84.825
X242.5Y-138.475
X242.5Y-143.725
X244.356Y-80.344
X244.356Y-84.056
X244.356Y-139.244
X244.356Y-142.956
X245.125Y-82.2
X245.125Y-141.1
T4
X145.6Y-107.5
T5
X75.934Y-90.456
X76.291Y-87.515
X76.985Y-93.226
X77.974Y-85.077
X79.202Y-95.191
X80.597Y-83.7
X82.079Y-95.9
X83.56Y-83.7
X84.955Y-95.191
X86.183Y-85.077
X87.173Y-93.226
X87.867Y-87.515
X88.224Y-90.456
X101.256Y-90.456
X101.613Y-87.515
X102.306Y-93.226
X103.296Y-85.077
X104.524Y-95.191
X105.919Y-83.7
X107.401Y-95.9
X108.882Y-83.7
X110.277Y-95.191
X111.505Y-85.077
X112.495Y-93.226
X113.188Y-87.515
X113.545Y-90.456
X136.378Y-90.456
X136.735Y-87.515
X137.429Y-93.226
X138.418Y-85.077
X139.646Y-95.191
X141.041Y-83.7
X142.523Y-95.9
X144.004Y-83.7
X145.399Y-95.191
X146.627Y-85.077
X147.617Y-93.226
X148.31Y-87.515
X148.668Y-90.456
X161.7Y-90.456
X162.057Y-87.515
X162.75Y-93.226
X163.74Y-85.077
X164.968Y-95.191
X166.363Y-83.7
X167.845Y-95.9
X169.326Y-83.7
X170.721Y-95.191
X171.949Y-85.077
X172.939Y-93.226
X173.632Y-87.515
X173.989Y-90.456
X197.455Y-90.456
X197.812Y-87.515
X198.506Y-93.226
X199.495Y-85.077
X200.724Y-95.191
X202.119Y-83.7
X203.6Y-95.9
X205.081Y-83.7
X206.477Y-95.191
X207.705Y-85.077
X208.694Y-93.226
X209.388Y-87.515
X209.745Y-90.456
X222.785Y-90.456
X223.142Y-87.515
X223.835Y-93.226
X224.825Y-85.077
X226.053Y-95.191
X227.448Y-83.7
X228.929Y-95.9
X230.411Y-83.7
X231.806Y-95.191
X233.034Y-85.077
X234.024Y-93.226
X234.717Y-87.515
X235.074Y-90.456
T6
X73.683Y-103.41
X73.683Y-111.03
X76.223Y-103.41
X76.223Y-111.03
X78.763Y-103.41
X78.763Y-111.03
X81.303Y-103.41
X81.303Y-111.03
X83.843Y-103.41
X83.843Y-111.03
X86.383Y-103.41
X86.383Y-111.03
X88.923Y-103.41
X88.923Y-111.03
X91.463Y-103.41
X91.463Y-111.03
X98.765Y-103.41
X98.765Y-111.03
X101.305Y-103.41
X101.305Y-111.03
X103.845Y-103.41
X103.845Y-111.03
X106.385Y-103.41
X106.385Y-111.03
X108.925Y-103.41
X108.925Y-111.03
X111.465Y-103.41
X111.465Y-111.03
X114.005Y-103.41
X114.005Y-111.03
X116.545Y-103.41
X116.545Y-111.03
X133.827Y-103.41
X133.827Y-111.03
X136.367Y-103.41
X136.367Y-111.03
X138.907Y-103.41
X138.907Y-111.03
X141.447Y-103.41
X141.447Y-111.03
X143.987Y-103.41
X143.987Y-111.03
X146.527Y-103.41
X146.527Y-111.03
X149.067Y-103.41
X149.067Y-111.03
X151.607Y-103.41
X151.607Y-111.03
X159.189Y-103.41
X159.189Y-111.03
X161.729Y-103.41
X161.729Y-111.03
X164.269Y-103.41
X164.269Y-111.03
X166.809Y-103.41
X166.809Y-111.03
X169.349Y-103.41
X169.349Y-111.03
X171.889Y-103.41
X171.889Y-111.03
X174.429Y-103.41
X174.429Y-111.03
X176.969Y-103.41
X176.969Y-111.03
X195.226Y-103.41
X195.226Y-111.03
X197.766Y-103.41
X197.766Y-111.03
X200.306Y-103.41
X200.306Y-111.03
X202.846Y-103.41
X202.846Y-111.03
X205.386Y-103.41
X205.386Y-111.03
X207.926Y-103.41
X207.926Y-111.03
X210.466Y-103.41
X210.466Y-111.03
X213.006Y-103.41
X213.006Y-111.03
X220.26Y-103.41
X220.26Y-111.03
X222.8Y-103.41
X222.8Y-111.03
X225.34Y-103.41
X225.34Y-111.03
X227.88Y-103.41
X227.88Y-111.03
X230.42Y-103.41
X230.42Y-111.03
X232.96Y-103.41
X232.96Y-111.03
X235.5Y-103.41
X235.5Y-111.03
X238.04Y-103.41
X238.04Y-111.03
T7
X69.6Y-123.34
X69.6Y-125.88
X69.6Y-128.42
X69.6Y-130.96
T8
X76.68Y-122.1
X76.68Y-139.88
X76.91Y-128.45
X76.91Y-130.99
X76.91Y-133.53
X79.22Y-122.1
X79.22Y-139.88
X81.76Y-122.1
X81.76Y-139.88
X84.3Y-122.1
X84.3Y-139.88
X86.84Y-122.1
X86.84Y-139.88
X89.38Y-122.1
X89.38Y-139.88
X91.92Y-122.1
X91.92Y-139.88
X94.46Y-122.1
X94.46Y-139.88
X97.0Y-122.1
X97.0Y-139.88
X99.54Y-122.1
X99.54Y-139.88
X102.08Y-122.1
X102.08Y-139.88
X104.62Y-122.1
X104.62Y-139.88
X107.16Y-122.1
X107.16Y-139.88
X109.7Y-122.1
X109.7Y-139.88
X112.24Y-122.1
X112.24Y-139.88
X114.78Y-122.1
X114.78Y-139.88
X117.32Y-122.1
X117.32Y-139.88
X119.86Y-122.1
X119.86Y-139.88
X122.4Y-122.1
X122.4Y-139.88
X124.94Y-122.1
X124.94Y-139.88
T9
X210.0Y-141.1
X212.54Y-141.1
X225.0Y-141.1
X227.54Y-141.1
T10
X194.4Y-116.51
X194.4Y-137.0
T11
X70.0Y-82.2
X70.0Y-141.1
X242.5Y-82.2
X242.5Y-141.1
T0
M30
