%TF.GenerationSoftware,KiCad,Pcbnew,7.0.5-0*%
%TF.CreationDate,2023-12-20T20:02:16-05:00*%
%TF.ProjectId,nixie,6e697869-652e-46b6-9963-61645f706362,rev?*%
%TF.SameCoordinates,Original*%
%TF.FileFunction,Drillmap*%
%TF.FilePolarity,Positive*%
%FSLAX45Y45*%
G04 Gerber Fmt 4.5, Leading zero omitted, Abs format (unit mm)*
G04 Created by KiCad (PCBNEW 7.0.5-0) date 2023-12-20 20:02:16*
%MOMM*%
%LPD*%
G01*
G04 APERTURE LIST*
%ADD10C,0.050000*%
%ADD11C,0.200000*%
G04 APERTURE END LIST*
D10*
X24750000Y-14610000D02*
X24750000Y-7782210D01*
X6500000Y-14610000D02*
X24750000Y-14610000D01*
X24750000Y-7782210D02*
X6500000Y-7782210D01*
X6500000Y-7782210D02*
X6500000Y-14610000D01*
D11*
X6758277Y-14923984D02*
X6758277Y-14723984D01*
X6758277Y-14723984D02*
X6805896Y-14723984D01*
X6805896Y-14723984D02*
X6834467Y-14733508D01*
X6834467Y-14733508D02*
X6853515Y-14752555D01*
X6853515Y-14752555D02*
X6863039Y-14771603D01*
X6863039Y-14771603D02*
X6872562Y-14809698D01*
X6872562Y-14809698D02*
X6872562Y-14838269D01*
X6872562Y-14838269D02*
X6863039Y-14876365D01*
X6863039Y-14876365D02*
X6853515Y-14895412D01*
X6853515Y-14895412D02*
X6834467Y-14914460D01*
X6834467Y-14914460D02*
X6805896Y-14923984D01*
X6805896Y-14923984D02*
X6758277Y-14923984D01*
X6958277Y-14923984D02*
X6958277Y-14790650D01*
X6958277Y-14828746D02*
X6967801Y-14809698D01*
X6967801Y-14809698D02*
X6977324Y-14800174D01*
X6977324Y-14800174D02*
X6996372Y-14790650D01*
X6996372Y-14790650D02*
X7015420Y-14790650D01*
X7082086Y-14923984D02*
X7082086Y-14790650D01*
X7082086Y-14723984D02*
X7072562Y-14733508D01*
X7072562Y-14733508D02*
X7082086Y-14743031D01*
X7082086Y-14743031D02*
X7091610Y-14733508D01*
X7091610Y-14733508D02*
X7082086Y-14723984D01*
X7082086Y-14723984D02*
X7082086Y-14743031D01*
X7205896Y-14923984D02*
X7186848Y-14914460D01*
X7186848Y-14914460D02*
X7177324Y-14895412D01*
X7177324Y-14895412D02*
X7177324Y-14723984D01*
X7310658Y-14923984D02*
X7291610Y-14914460D01*
X7291610Y-14914460D02*
X7282086Y-14895412D01*
X7282086Y-14895412D02*
X7282086Y-14723984D01*
X7539229Y-14923984D02*
X7539229Y-14723984D01*
X7539229Y-14723984D02*
X7605896Y-14866841D01*
X7605896Y-14866841D02*
X7672562Y-14723984D01*
X7672562Y-14723984D02*
X7672562Y-14923984D01*
X7853515Y-14923984D02*
X7853515Y-14819222D01*
X7853515Y-14819222D02*
X7843991Y-14800174D01*
X7843991Y-14800174D02*
X7824943Y-14790650D01*
X7824943Y-14790650D02*
X7786848Y-14790650D01*
X7786848Y-14790650D02*
X7767801Y-14800174D01*
X7853515Y-14914460D02*
X7834467Y-14923984D01*
X7834467Y-14923984D02*
X7786848Y-14923984D01*
X7786848Y-14923984D02*
X7767801Y-14914460D01*
X7767801Y-14914460D02*
X7758277Y-14895412D01*
X7758277Y-14895412D02*
X7758277Y-14876365D01*
X7758277Y-14876365D02*
X7767801Y-14857317D01*
X7767801Y-14857317D02*
X7786848Y-14847793D01*
X7786848Y-14847793D02*
X7834467Y-14847793D01*
X7834467Y-14847793D02*
X7853515Y-14838269D01*
X7948753Y-14790650D02*
X7948753Y-14990650D01*
X7948753Y-14800174D02*
X7967801Y-14790650D01*
X7967801Y-14790650D02*
X8005896Y-14790650D01*
X8005896Y-14790650D02*
X8024943Y-14800174D01*
X8024943Y-14800174D02*
X8034467Y-14809698D01*
X8034467Y-14809698D02*
X8043991Y-14828746D01*
X8043991Y-14828746D02*
X8043991Y-14885888D01*
X8043991Y-14885888D02*
X8034467Y-14904936D01*
X8034467Y-14904936D02*
X8024943Y-14914460D01*
X8024943Y-14914460D02*
X8005896Y-14923984D01*
X8005896Y-14923984D02*
X7967801Y-14923984D01*
X7967801Y-14923984D02*
X7948753Y-14914460D01*
X8129705Y-14904936D02*
X8139229Y-14914460D01*
X8139229Y-14914460D02*
X8129705Y-14923984D01*
X8129705Y-14923984D02*
X8120182Y-14914460D01*
X8120182Y-14914460D02*
X8129705Y-14904936D01*
X8129705Y-14904936D02*
X8129705Y-14923984D01*
X8129705Y-14800174D02*
X8139229Y-14809698D01*
X8139229Y-14809698D02*
X8129705Y-14819222D01*
X8129705Y-14819222D02*
X8120182Y-14809698D01*
X8120182Y-14809698D02*
X8129705Y-14800174D01*
X8129705Y-14800174D02*
X8129705Y-14819222D01*
M02*
