%TF.GenerationSoftware,KiCad,Pcbnew,7.0.5-0*%
%TF.CreationDate,2023-12-20T20:01:57-05:00*%
%TF.ProjectId,nixie,6e697869-652e-46b6-9963-61645f706362,rev?*%
%TF.SameCoordinates,Original*%
%TF.FileFunction,Soldermask,Top*%
%TF.FilePolarity,Negative*%
%FSLAX46Y46*%
G04 Gerber Fmt 4.6, Leading zero omitted, Abs format (unit mm)*
G04 Created by KiCad (PCBNEW 7.0.5-0) date 2023-12-20 20:01:57*
%MOMM*%
%LPD*%
G01*
G04 APERTURE LIST*
G04 Aperture macros list*
%AMRoundRect*
0 Rectangle with rounded corners*
0 $1 Rounding radius*
0 $2 $3 $4 $5 $6 $7 $8 $9 X,Y pos of 4 corners*
0 Add a 4 corners polygon primitive as box body*
4,1,4,$2,$3,$4,$5,$6,$7,$8,$9,$2,$3,0*
0 Add four circle primitives for the rounded corners*
1,1,$1+$1,$2,$3*
1,1,$1+$1,$4,$5*
1,1,$1+$1,$6,$7*
1,1,$1+$1,$8,$9*
0 Add four rect primitives between the rounded corners*
20,1,$1+$1,$2,$3,$4,$5,0*
20,1,$1+$1,$4,$5,$6,$7,0*
20,1,$1+$1,$6,$7,$8,$9,0*
20,1,$1+$1,$8,$9,$2,$3,0*%
G04 Aperture macros list end*
%ADD10C,0.800000*%
%ADD11C,7.000000*%
%ADD12RoundRect,0.150000X-0.875000X-0.150000X0.875000X-0.150000X0.875000X0.150000X-0.875000X0.150000X0*%
%ADD13RoundRect,0.250000X0.250000X0.475000X-0.250000X0.475000X-0.250000X-0.475000X0.250000X-0.475000X0*%
%ADD14R,1.550000X1.000000*%
%ADD15RoundRect,0.250000X-0.262500X-0.450000X0.262500X-0.450000X0.262500X0.450000X-0.262500X0.450000X0*%
%ADD16RoundRect,0.250000X0.262500X0.450000X-0.262500X0.450000X-0.262500X-0.450000X0.262500X-0.450000X0*%
%ADD17R,1.700000X1.700000*%
%ADD18O,1.700000X1.700000*%
%ADD19RoundRect,0.101600X-0.700000X-0.700000X0.700000X-0.700000X0.700000X0.700000X-0.700000X0.700000X0*%
%ADD20C,1.603200*%
%ADD21O,1.803200X3.403200*%
%ADD22O,3.403200X1.803200*%
%ADD23RoundRect,0.250000X0.475000X-0.250000X0.475000X0.250000X-0.475000X0.250000X-0.475000X-0.250000X0*%
%ADD24R,3.000000X3.000000*%
%ADD25C,3.000000*%
%ADD26C,1.551200*%
%ADD27C,1.950000*%
G04 APERTURE END LIST*
D10*
%TO.C,H2*%
X67375000Y-141100000D03*
X68143845Y-139243845D03*
X68143845Y-142956155D03*
X70000000Y-138475000D03*
D11*
X70000000Y-141100000D03*
D10*
X70000000Y-143725000D03*
X71856155Y-139243845D03*
X71856155Y-142956155D03*
X72625000Y-141100000D03*
%TD*%
D12*
%TO.C,IC6*%
X131062000Y-125020000D03*
X131062000Y-126290000D03*
X131062000Y-127560000D03*
X131062000Y-128830000D03*
X131062000Y-130100000D03*
X131062000Y-131370000D03*
X131062000Y-132640000D03*
X131062000Y-133910000D03*
X140362000Y-133910000D03*
X140362000Y-132640000D03*
X140362000Y-131370000D03*
X140362000Y-130100000D03*
X140362000Y-128830000D03*
X140362000Y-127560000D03*
X140362000Y-126290000D03*
X140362000Y-125020000D03*
%TD*%
D13*
%TO.C,C7*%
X158850000Y-128000000D03*
X156950000Y-128000000D03*
%TD*%
D14*
%TO.C,S1*%
X133525000Y-139640000D03*
X128275000Y-139640000D03*
X128275000Y-142840000D03*
X133525000Y-142840000D03*
%TD*%
%TO.C,S5*%
X169625000Y-139640000D03*
X164375000Y-139640000D03*
X164375000Y-142840000D03*
X169625000Y-142840000D03*
%TD*%
D15*
%TO.C,R9*%
X156987500Y-133100000D03*
X158812500Y-133100000D03*
%TD*%
D10*
%TO.C,H3*%
X239875000Y-82200000D03*
X240643845Y-80343845D03*
X240643845Y-84056155D03*
X242500000Y-79575000D03*
D11*
X242500000Y-82200000D03*
D10*
X242500000Y-84825000D03*
X244356155Y-80343845D03*
X244356155Y-84056155D03*
X245125000Y-82200000D03*
%TD*%
D16*
%TO.C,R5*%
X142212500Y-122900000D03*
X140387500Y-122900000D03*
%TD*%
D17*
%TO.C,J1*%
X69600000Y-123340000D03*
D18*
X69600000Y-125880000D03*
X69600000Y-128420000D03*
X69600000Y-130960000D03*
%TD*%
D19*
%TO.C,IC3*%
X133826600Y-111030000D03*
D20*
X136366600Y-111030000D03*
X138906600Y-111030000D03*
X141446600Y-111030000D03*
X143986600Y-111030000D03*
X146526600Y-111030000D03*
X149066600Y-111030000D03*
X151606600Y-111030000D03*
X151606600Y-103410000D03*
X149066600Y-103410000D03*
X146526600Y-103410000D03*
X143986600Y-103410000D03*
X141446600Y-103410000D03*
X138906600Y-103410000D03*
X136366600Y-103410000D03*
X133826600Y-103410000D03*
%TD*%
D10*
%TO.C,H1*%
X70000000Y-84825000D03*
X68143845Y-84056155D03*
X71856155Y-84056155D03*
X67375000Y-82200000D03*
D11*
X70000000Y-82200000D03*
D10*
X72625000Y-82200000D03*
X68143845Y-80343845D03*
X71856155Y-80343845D03*
X70000000Y-79575000D03*
%TD*%
%TO.C,H4*%
X239875000Y-141100000D03*
X240643845Y-139243845D03*
X240643845Y-142956155D03*
X242500000Y-138475000D03*
D11*
X242500000Y-141100000D03*
D10*
X242500000Y-143725000D03*
X244356155Y-139243845D03*
X244356155Y-142956155D03*
X245125000Y-141100000D03*
%TD*%
D21*
%TO.C,P1*%
X114780000Y-140680000D03*
X117320000Y-140680000D03*
X112240000Y-140680000D03*
X107160000Y-140680000D03*
X119860000Y-121300000D03*
X107160000Y-121300000D03*
X94460000Y-121300000D03*
X81760000Y-121300000D03*
D22*
X76110000Y-130990000D03*
D21*
X81760000Y-140680000D03*
X94460000Y-140680000D03*
X119860000Y-140680000D03*
X124940000Y-121300000D03*
X122400000Y-121300000D03*
X117320000Y-121300000D03*
X114780000Y-121300000D03*
X112240000Y-121300000D03*
X109700000Y-121300000D03*
X104620000Y-121300000D03*
X102080000Y-121300000D03*
X99540000Y-121300000D03*
X97000000Y-121300000D03*
X91920000Y-121300000D03*
X89380000Y-121300000D03*
X86840000Y-121300000D03*
X84300000Y-121300000D03*
X79220000Y-121300000D03*
X76680000Y-121300000D03*
X76680000Y-140680000D03*
X79220000Y-140680000D03*
X84300000Y-140680000D03*
X86840000Y-140680000D03*
X89380000Y-140680000D03*
X91920000Y-140680000D03*
X97000000Y-140680000D03*
X102080000Y-140680000D03*
X104620000Y-140680000D03*
X109700000Y-140680000D03*
X99540000Y-140680000D03*
D22*
X76110000Y-128450000D03*
X76110000Y-133530000D03*
D21*
X124940000Y-140680000D03*
X122400000Y-140680000D03*
%TD*%
D14*
%TO.C,S3*%
X151550000Y-139640000D03*
X146300000Y-139640000D03*
X146300000Y-142840000D03*
X151550000Y-142840000D03*
%TD*%
%TO.C,S6*%
X178650000Y-139640000D03*
X173400000Y-139640000D03*
X173400000Y-142840000D03*
X178650000Y-142840000D03*
%TD*%
D23*
%TO.C,C5*%
X128500000Y-126250000D03*
X128500000Y-124350000D03*
%TD*%
D24*
%TO.C,BAT1*%
X194400000Y-116510000D03*
D25*
X194400000Y-137000000D03*
%TD*%
D15*
%TO.C,R10*%
X156987500Y-131000000D03*
X158812500Y-131000000D03*
%TD*%
D19*
%TO.C,IC8*%
X220260000Y-111030000D03*
D20*
X222800000Y-111030000D03*
X225340000Y-111030000D03*
X227880000Y-111030000D03*
X230420000Y-111030000D03*
X232960000Y-111030000D03*
X235500000Y-111030000D03*
X238040000Y-111030000D03*
X238040000Y-103410000D03*
X235500000Y-103410000D03*
X232960000Y-103410000D03*
X230420000Y-103410000D03*
X227880000Y-103410000D03*
X225340000Y-103410000D03*
X222800000Y-103410000D03*
X220260000Y-103410000D03*
%TD*%
D19*
%TO.C,IC7*%
X195226000Y-111030000D03*
D20*
X197766000Y-111030000D03*
X200306000Y-111030000D03*
X202846000Y-111030000D03*
X205386000Y-111030000D03*
X207926000Y-111030000D03*
X210466000Y-111030000D03*
X213006000Y-111030000D03*
X213006000Y-103410000D03*
X210466000Y-103410000D03*
X207926000Y-103410000D03*
X205386000Y-103410000D03*
X202846000Y-103410000D03*
X200306000Y-103410000D03*
X197766000Y-103410000D03*
X195226000Y-103410000D03*
%TD*%
D12*
%TO.C,IC5*%
X162025000Y-117830000D03*
X162025000Y-119100000D03*
X162025000Y-120370000D03*
X162025000Y-121640000D03*
X162025000Y-122910000D03*
X162025000Y-124180000D03*
X162025000Y-125450000D03*
X162025000Y-126720000D03*
X162025000Y-127990000D03*
X162025000Y-129260000D03*
X162025000Y-130530000D03*
X162025000Y-131800000D03*
X162025000Y-133070000D03*
X162025000Y-134340000D03*
X171325000Y-134340000D03*
X171325000Y-133070000D03*
X171325000Y-131800000D03*
X171325000Y-130530000D03*
X171325000Y-129260000D03*
X171325000Y-127990000D03*
X171325000Y-126720000D03*
X171325000Y-125450000D03*
X171325000Y-124180000D03*
X171325000Y-122910000D03*
X171325000Y-121640000D03*
X171325000Y-120370000D03*
X171325000Y-119100000D03*
X171325000Y-117830000D03*
%TD*%
D15*
%TO.C,R11*%
X173687500Y-130600000D03*
X175512500Y-130600000D03*
%TD*%
D14*
%TO.C,S2*%
X142550000Y-139640000D03*
X137300000Y-139640000D03*
X137300000Y-142840000D03*
X142550000Y-142840000D03*
%TD*%
D19*
%TO.C,IC4*%
X159188600Y-111030000D03*
D20*
X161728600Y-111030000D03*
X164268600Y-111030000D03*
X166808600Y-111030000D03*
X169348600Y-111030000D03*
X171888600Y-111030000D03*
X174428600Y-111030000D03*
X176968600Y-111030000D03*
X176968600Y-103410000D03*
X174428600Y-103410000D03*
X171888600Y-103410000D03*
X169348600Y-103410000D03*
X166808600Y-103410000D03*
X164268600Y-103410000D03*
X161728600Y-103410000D03*
X159188600Y-103410000D03*
%TD*%
D19*
%TO.C,IC2*%
X98764600Y-111030000D03*
D20*
X101304600Y-111030000D03*
X103844600Y-111030000D03*
X106384600Y-111030000D03*
X108924600Y-111030000D03*
X111464600Y-111030000D03*
X114004600Y-111030000D03*
X116544600Y-111030000D03*
X116544600Y-103410000D03*
X114004600Y-103410000D03*
X111464600Y-103410000D03*
X108924600Y-103410000D03*
X106384600Y-103410000D03*
X103844600Y-103410000D03*
X101304600Y-103410000D03*
X98764600Y-103410000D03*
%TD*%
D15*
%TO.C,R6*%
X143287500Y-126300000D03*
X145112500Y-126300000D03*
%TD*%
D19*
%TO.C,IC1*%
X73682600Y-111030000D03*
D20*
X76222600Y-111030000D03*
X78762600Y-111030000D03*
X81302600Y-111030000D03*
X83842600Y-111030000D03*
X86382600Y-111030000D03*
X88922600Y-111030000D03*
X91462600Y-111030000D03*
X91462600Y-103410000D03*
X88922600Y-103410000D03*
X86382600Y-103410000D03*
X83842600Y-103410000D03*
X81302600Y-103410000D03*
X78762600Y-103410000D03*
X76222600Y-103410000D03*
X73682600Y-103410000D03*
%TD*%
D14*
%TO.C,S4*%
X160625000Y-139640000D03*
X155375000Y-139640000D03*
X155375000Y-142840000D03*
X160625000Y-142840000D03*
%TD*%
D26*
%TO.C,N6*%
X223835200Y-93226300D03*
X234023600Y-93226300D03*
X235074200Y-90456100D03*
X234717100Y-87515000D03*
X233034100Y-85076800D03*
X230410700Y-83699900D03*
X227448100Y-83699900D03*
X224824700Y-85076800D03*
X223141700Y-87515000D03*
X222784600Y-90456100D03*
X228929400Y-95899900D03*
X226052800Y-95190900D03*
X231806000Y-95190900D03*
%TD*%
D27*
%TO.C,J4*%
X225000000Y-141100000D03*
X227540000Y-141100000D03*
%TD*%
D26*
%TO.C,N4*%
X162750400Y-93226300D03*
X172938800Y-93226300D03*
X173989400Y-90456100D03*
X173632300Y-87515000D03*
X171949300Y-85076800D03*
X169325900Y-83699900D03*
X166363300Y-83699900D03*
X163739900Y-85076800D03*
X162056900Y-87515000D03*
X161699800Y-90456100D03*
X167844600Y-95899900D03*
X164968000Y-95190900D03*
X170721200Y-95190900D03*
%TD*%
D27*
%TO.C,J3*%
X210000000Y-141200000D03*
X212540000Y-141200000D03*
%TD*%
D26*
%TO.C,N5*%
X198506000Y-93226300D03*
X208694400Y-93226300D03*
X209745000Y-90456100D03*
X209387900Y-87515000D03*
X207704900Y-85076800D03*
X205081500Y-83699900D03*
X202118900Y-83699900D03*
X199495500Y-85076800D03*
X197812500Y-87515000D03*
X197455400Y-90456100D03*
X203600200Y-95899900D03*
X200723600Y-95190900D03*
X206476800Y-95190900D03*
%TD*%
%TO.C,N3*%
X137428600Y-93226300D03*
X147617000Y-93226300D03*
X148667600Y-90456100D03*
X148310500Y-87515000D03*
X146627500Y-85076800D03*
X144004100Y-83699900D03*
X141041500Y-83699900D03*
X138418100Y-85076800D03*
X136735100Y-87515000D03*
X136378000Y-90456100D03*
X142522800Y-95899900D03*
X139646200Y-95190900D03*
X145399400Y-95190900D03*
%TD*%
%TO.C,N1*%
X76984600Y-93226300D03*
X87173000Y-93226300D03*
X88223600Y-90456100D03*
X87866500Y-87515000D03*
X86183500Y-85076800D03*
X83560100Y-83699900D03*
X80597500Y-83699900D03*
X77974100Y-85076800D03*
X76291100Y-87515000D03*
X75934000Y-90456100D03*
X82078800Y-95899900D03*
X79202200Y-95190900D03*
X84955400Y-95190900D03*
%TD*%
%TO.C,N2*%
X102306400Y-93226300D03*
X112494800Y-93226300D03*
X113545400Y-90456100D03*
X113188300Y-87515000D03*
X111505300Y-85076800D03*
X108881900Y-83699900D03*
X105919300Y-83699900D03*
X103295900Y-85076800D03*
X101612900Y-87515000D03*
X101255800Y-90456100D03*
X107400600Y-95899900D03*
X104524000Y-95190900D03*
X110277200Y-95190900D03*
%TD*%
M02*
