%TF.GenerationSoftware,KiCad,Pcbnew,7.0.5-0*%
%TF.CreationDate,2023-12-20T20:01:57-05:00*%
%TF.ProjectId,nixie,6e697869-652e-46b6-9963-61645f706362,rev?*%
%TF.SameCoordinates,Original*%
%TF.FileFunction,Copper,L1,Top*%
%TF.FilePolarity,Positive*%
%FSLAX46Y46*%
G04 Gerber Fmt 4.6, Leading zero omitted, Abs format (unit mm)*
G04 Created by KiCad (PCBNEW 7.0.5-0) date 2023-12-20 20:01:57*
%MOMM*%
%LPD*%
G01*
G04 APERTURE LIST*
G04 Aperture macros list*
%AMRoundRect*
0 Rectangle with rounded corners*
0 $1 Rounding radius*
0 $2 $3 $4 $5 $6 $7 $8 $9 X,Y pos of 4 corners*
0 Add a 4 corners polygon primitive as box body*
4,1,4,$2,$3,$4,$5,$6,$7,$8,$9,$2,$3,0*
0 Add four circle primitives for the rounded corners*
1,1,$1+$1,$2,$3*
1,1,$1+$1,$4,$5*
1,1,$1+$1,$6,$7*
1,1,$1+$1,$8,$9*
0 Add four rect primitives between the rounded corners*
20,1,$1+$1,$2,$3,$4,$5,0*
20,1,$1+$1,$4,$5,$6,$7,0*
20,1,$1+$1,$6,$7,$8,$9,0*
20,1,$1+$1,$8,$9,$2,$3,0*%
G04 Aperture macros list end*
%TA.AperFunction,ComponentPad*%
%ADD10C,0.800000*%
%TD*%
%TA.AperFunction,ComponentPad*%
%ADD11C,7.000000*%
%TD*%
%TA.AperFunction,SMDPad,CuDef*%
%ADD12RoundRect,0.150000X-0.875000X-0.150000X0.875000X-0.150000X0.875000X0.150000X-0.875000X0.150000X0*%
%TD*%
%TA.AperFunction,SMDPad,CuDef*%
%ADD13RoundRect,0.250000X0.250000X0.475000X-0.250000X0.475000X-0.250000X-0.475000X0.250000X-0.475000X0*%
%TD*%
%TA.AperFunction,SMDPad,CuDef*%
%ADD14R,1.550000X1.000000*%
%TD*%
%TA.AperFunction,SMDPad,CuDef*%
%ADD15RoundRect,0.250000X-0.262500X-0.450000X0.262500X-0.450000X0.262500X0.450000X-0.262500X0.450000X0*%
%TD*%
%TA.AperFunction,SMDPad,CuDef*%
%ADD16RoundRect,0.250000X0.262500X0.450000X-0.262500X0.450000X-0.262500X-0.450000X0.262500X-0.450000X0*%
%TD*%
%TA.AperFunction,ComponentPad*%
%ADD17R,1.700000X1.700000*%
%TD*%
%TA.AperFunction,ComponentPad*%
%ADD18O,1.700000X1.700000*%
%TD*%
%TA.AperFunction,ComponentPad*%
%ADD19R,1.400000X1.400000*%
%TD*%
%TA.AperFunction,ComponentPad*%
%ADD20C,1.400000*%
%TD*%
%TA.AperFunction,ComponentPad*%
%ADD21O,1.600000X3.200000*%
%TD*%
%TA.AperFunction,ComponentPad*%
%ADD22O,3.200000X1.600000*%
%TD*%
%TA.AperFunction,SMDPad,CuDef*%
%ADD23RoundRect,0.250000X0.475000X-0.250000X0.475000X0.250000X-0.475000X0.250000X-0.475000X-0.250000X0*%
%TD*%
%TA.AperFunction,ComponentPad*%
%ADD24R,3.000000X3.000000*%
%TD*%
%TA.AperFunction,ComponentPad*%
%ADD25C,3.000000*%
%TD*%
%TA.AperFunction,ComponentPad*%
%ADD26C,1.348000*%
%TD*%
%TA.AperFunction,ComponentPad*%
%ADD27C,1.950000*%
%TD*%
%TA.AperFunction,ViaPad*%
%ADD28C,0.600000*%
%TD*%
%TA.AperFunction,ViaPad*%
%ADD29C,1.000000*%
%TD*%
%TA.AperFunction,ViaPad*%
%ADD30C,1.200000*%
%TD*%
%TA.AperFunction,Conductor*%
%ADD31C,0.600000*%
%TD*%
%TA.AperFunction,Conductor*%
%ADD32C,0.500000*%
%TD*%
%TA.AperFunction,Conductor*%
%ADD33C,0.200000*%
%TD*%
%TA.AperFunction,Conductor*%
%ADD34C,0.400000*%
%TD*%
G04 APERTURE END LIST*
D10*
%TO.P,H2,1*%
%TO.N,N/C*%
X67375000Y-141100000D03*
X68143845Y-139243845D03*
X68143845Y-142956155D03*
X70000000Y-138475000D03*
D11*
X70000000Y-141100000D03*
D10*
X70000000Y-143725000D03*
X71856155Y-139243845D03*
X71856155Y-142956155D03*
X72625000Y-141100000D03*
%TD*%
D12*
%TO.P,IC6,1,32KHZ*%
%TO.N,unconnected-(IC6-32KHZ-Pad1)*%
X131062000Y-125020000D03*
%TO.P,IC6,2,VCC*%
%TO.N,+5V*%
X131062000Y-126290000D03*
%TO.P,IC6,3,~{INT}/SQW*%
%TO.N,unconnected-(IC6-~{INT}{slash}SQW-Pad3)*%
X131062000Y-127560000D03*
%TO.P,IC6,4,~{RST}*%
%TO.N,/RSTC*%
X131062000Y-128830000D03*
%TO.P,IC6,5,GND*%
%TO.N,GND*%
X131062000Y-130100000D03*
%TO.P,IC6,6,GND*%
X131062000Y-131370000D03*
%TO.P,IC6,7,GND*%
X131062000Y-132640000D03*
%TO.P,IC6,8,GND*%
X131062000Y-133910000D03*
%TO.P,IC6,9,GND*%
X140362000Y-133910000D03*
%TO.P,IC6,10,GND*%
X140362000Y-132640000D03*
%TO.P,IC6,11,GND*%
X140362000Y-131370000D03*
%TO.P,IC6,12,GND*%
X140362000Y-130100000D03*
%TO.P,IC6,13,GND*%
X140362000Y-128830000D03*
%TO.P,IC6,14,VBAT*%
%TO.N,Net-(BAT1-+)*%
X140362000Y-127560000D03*
%TO.P,IC6,15,SDA*%
%TO.N,/SDA1*%
X140362000Y-126290000D03*
%TO.P,IC6,16,SCL*%
%TO.N,/SCL1*%
X140362000Y-125020000D03*
%TD*%
D13*
%TO.P,C7,1*%
%TO.N,+5V*%
X158850000Y-128000000D03*
%TO.P,C7,2*%
%TO.N,GND*%
X156950000Y-128000000D03*
%TD*%
D14*
%TO.P,S1,1,1*%
%TO.N,/S1*%
X133525000Y-139640000D03*
%TO.P,S1,2,2*%
%TO.N,unconnected-(S1-Pad2)*%
X128275000Y-139640000D03*
%TO.P,S1,3,3*%
%TO.N,unconnected-(S1-Pad3)*%
X128275000Y-142840000D03*
%TO.P,S1,4,4*%
%TO.N,+3V3*%
X133525000Y-142840000D03*
%TD*%
%TO.P,S5,1,1*%
%TO.N,/S5*%
X169625000Y-139640000D03*
%TO.P,S5,2,2*%
%TO.N,unconnected-(S5-Pad2)*%
X164375000Y-139640000D03*
%TO.P,S5,3,3*%
%TO.N,unconnected-(S5-Pad3)*%
X164375000Y-142840000D03*
%TO.P,S5,4,4*%
%TO.N,+3V3*%
X169625000Y-142840000D03*
%TD*%
D15*
%TO.P,R9,1*%
%TO.N,+3V3*%
X156987500Y-133100000D03*
%TO.P,R9,2*%
%TO.N,/SDA1*%
X158812500Y-133100000D03*
%TD*%
D10*
%TO.P,H3,1*%
%TO.N,N/C*%
X239875000Y-82200000D03*
X240643845Y-80343845D03*
X240643845Y-84056155D03*
X242500000Y-79575000D03*
D11*
X242500000Y-82200000D03*
D10*
X242500000Y-84825000D03*
X244356155Y-80343845D03*
X244356155Y-84056155D03*
X245125000Y-82200000D03*
%TD*%
D16*
%TO.P,R5,1*%
%TO.N,+3V3*%
X142212500Y-122900000D03*
%TO.P,R5,2*%
%TO.N,/SCL1*%
X140387500Y-122900000D03*
%TD*%
D17*
%TO.P,J1,1,Pin_1*%
%TO.N,+3V3*%
X69600000Y-123340000D03*
D18*
%TO.P,J1,2,Pin_2*%
%TO.N,/RX*%
X69600000Y-125880000D03*
%TO.P,J1,3,Pin_3*%
%TO.N,/TX*%
X69600000Y-128420000D03*
%TO.P,J1,4,Pin_4*%
%TO.N,GND*%
X69600000Y-130960000D03*
%TD*%
D19*
%TO.P,IC3,1,8*%
%TO.N,/N38*%
X133826600Y-111030000D03*
D20*
%TO.P,IC3,2,9*%
%TO.N,/N39*%
X136366600Y-111030000D03*
%TO.P,IC3,3,A*%
%TO.N,/A3*%
X138906600Y-111030000D03*
%TO.P,IC3,4,D*%
%TO.N,/D3*%
X141446600Y-111030000D03*
%TO.P,IC3,5,VCC*%
%TO.N,+5V*%
X143986600Y-111030000D03*
%TO.P,IC3,6,B*%
%TO.N,/B3*%
X146526600Y-111030000D03*
%TO.P,IC3,7,C*%
%TO.N,/C3*%
X149066600Y-111030000D03*
%TO.P,IC3,8,2*%
%TO.N,/N32*%
X151606600Y-111030000D03*
%TO.P,IC3,9,3*%
%TO.N,/N33*%
X151606600Y-103410000D03*
%TO.P,IC3,10,7*%
%TO.N,/N37*%
X149066600Y-103410000D03*
%TO.P,IC3,11,6*%
%TO.N,/N36*%
X146526600Y-103410000D03*
%TO.P,IC3,12,GND*%
%TO.N,GND*%
X143986600Y-103410000D03*
%TO.P,IC3,13,4*%
%TO.N,/N34*%
X141446600Y-103410000D03*
%TO.P,IC3,14,5*%
%TO.N,/N35*%
X138906600Y-103410000D03*
%TO.P,IC3,15,1*%
%TO.N,/N31*%
X136366600Y-103410000D03*
%TO.P,IC3,16,0*%
%TO.N,/N30*%
X133826600Y-103410000D03*
%TD*%
D10*
%TO.P,H1,1*%
%TO.N,N/C*%
X70000000Y-84825000D03*
X68143845Y-84056155D03*
X71856155Y-84056155D03*
X67375000Y-82200000D03*
D11*
X70000000Y-82200000D03*
D10*
X72625000Y-82200000D03*
X68143845Y-80343845D03*
X71856155Y-80343845D03*
X70000000Y-79575000D03*
%TD*%
%TO.P,H4,1*%
%TO.N,N/C*%
X239875000Y-141100000D03*
X240643845Y-139243845D03*
X240643845Y-142956155D03*
X242500000Y-138475000D03*
D11*
X242500000Y-141100000D03*
D10*
X242500000Y-143725000D03*
X244356155Y-139243845D03*
X244356155Y-142956155D03*
X245125000Y-141100000D03*
%TD*%
D21*
%TO.P,P1,3V3,3V3*%
%TO.N,+3V3*%
X114780000Y-140680000D03*
%TO.P,P1,3V3_EN,3V3_EN*%
%TO.N,unconnected-(P1-Pad3V3_EN)*%
X117320000Y-140680000D03*
%TO.P,P1,ADC_VREF,ADC_VREF*%
%TO.N,unconnected-(P1-PadADC_VREF)*%
X112240000Y-140680000D03*
%TO.P,P1,AGND,AGND*%
%TO.N,GND*%
X107160000Y-140680000D03*
%TO.P,P1,GND@1,GND*%
X119860000Y-121300000D03*
%TO.P,P1,GND@2,GND*%
X107160000Y-121300000D03*
%TO.P,P1,GND@3,GND*%
X94460000Y-121300000D03*
%TO.P,P1,GND@4,GND*%
X81760000Y-121300000D03*
D22*
%TO.P,P1,GND@5,GND*%
X76110000Y-130990000D03*
D21*
%TO.P,P1,GND@6,GND*%
X81760000Y-140680000D03*
%TO.P,P1,GND@7,GND*%
X94460000Y-140680000D03*
%TO.P,P1,GND@8,GND*%
X119860000Y-140680000D03*
%TO.P,P1,GP0,GP0*%
%TO.N,/RX*%
X124940000Y-121300000D03*
%TO.P,P1,GP1,GP1*%
%TO.N,/TX*%
X122400000Y-121300000D03*
%TO.P,P1,GP2,GP2*%
%TO.N,/RSTIO*%
X117320000Y-121300000D03*
%TO.P,P1,GP3,GP3*%
%TO.N,/RSTC*%
X114780000Y-121300000D03*
%TO.P,P1,GP4,GP4*%
%TO.N,/C2*%
X112240000Y-121300000D03*
%TO.P,P1,GP5,GP5*%
%TO.N,/B2*%
X109700000Y-121300000D03*
%TO.P,P1,GP6,GP6*%
%TO.N,/D2*%
X104620000Y-121300000D03*
%TO.P,P1,GP7,GP7*%
%TO.N,/A2*%
X102080000Y-121300000D03*
%TO.P,P1,GP8,GP8*%
%TO.N,unconnected-(P1-PadGP8)*%
X99540000Y-121300000D03*
%TO.P,P1,GP9,GP9*%
%TO.N,unconnected-(P1-PadGP9)*%
X97000000Y-121300000D03*
%TO.P,P1,GP10,GP10*%
%TO.N,/C1*%
X91920000Y-121300000D03*
%TO.P,P1,GP11,GP11*%
%TO.N,/B1*%
X89380000Y-121300000D03*
%TO.P,P1,GP12,GP12*%
%TO.N,/D1*%
X86840000Y-121300000D03*
%TO.P,P1,GP13,GP13*%
%TO.N,/A1*%
X84300000Y-121300000D03*
%TO.P,P1,GP14,GP14*%
%TO.N,/SDA1*%
X79220000Y-121300000D03*
%TO.P,P1,GP15,GP15*%
%TO.N,/SCL1*%
X76680000Y-121300000D03*
%TO.P,P1,GP16,GP16*%
%TO.N,/S6*%
X76680000Y-140680000D03*
%TO.P,P1,GP17,GP17*%
%TO.N,/S5*%
X79220000Y-140680000D03*
%TO.P,P1,GP18,GP18*%
%TO.N,/S4*%
X84300000Y-140680000D03*
%TO.P,P1,GP19,GP19*%
%TO.N,/S3*%
X86840000Y-140680000D03*
%TO.P,P1,GP20,GP20*%
%TO.N,/S2*%
X89380000Y-140680000D03*
%TO.P,P1,GP21,GP21*%
%TO.N,/S1*%
X91920000Y-140680000D03*
%TO.P,P1,GP22,GP22*%
%TO.N,unconnected-(P1-PadGP22)*%
X97000000Y-140680000D03*
%TO.P,P1,GP26_A0,GP26_A0*%
%TO.N,unconnected-(P1-PadGP26_A0)*%
X102080000Y-140680000D03*
%TO.P,P1,GP27_A1,GP27_A1*%
%TO.N,unconnected-(P1-PadGP27_A1)*%
X104620000Y-140680000D03*
%TO.P,P1,GP28_A2,GP28_A2*%
%TO.N,unconnected-(P1-PadGP28_A2)*%
X109700000Y-140680000D03*
%TO.P,P1,RUN,RUN*%
%TO.N,unconnected-(P1-PadRUN)*%
X99540000Y-140680000D03*
D22*
%TO.P,P1,SWCLK,SWCLK*%
%TO.N,unconnected-(P1-PadSWCLK)*%
X76110000Y-128450000D03*
%TO.P,P1,SWDIO,SWDIO*%
%TO.N,unconnected-(P1-PadSWDIO)*%
X76110000Y-133530000D03*
D21*
%TO.P,P1,VBUS,VBUS*%
%TO.N,unconnected-(P1-PadVBUS)*%
X124940000Y-140680000D03*
%TO.P,P1,VSYS,VSYS*%
%TO.N,+5V*%
X122400000Y-140680000D03*
%TD*%
D14*
%TO.P,S3,1,1*%
%TO.N,/S3*%
X151550000Y-139640000D03*
%TO.P,S3,2,2*%
%TO.N,unconnected-(S3-Pad2)*%
X146300000Y-139640000D03*
%TO.P,S3,3,3*%
%TO.N,unconnected-(S3-Pad3)*%
X146300000Y-142840000D03*
%TO.P,S3,4,4*%
%TO.N,+3V3*%
X151550000Y-142840000D03*
%TD*%
%TO.P,S6,1,1*%
%TO.N,/S6*%
X178650000Y-139640000D03*
%TO.P,S6,2,2*%
%TO.N,unconnected-(S6-Pad2)*%
X173400000Y-139640000D03*
%TO.P,S6,3,3*%
%TO.N,unconnected-(S6-Pad3)*%
X173400000Y-142840000D03*
%TO.P,S6,4,4*%
%TO.N,+3V3*%
X178650000Y-142840000D03*
%TD*%
D23*
%TO.P,C5,1*%
%TO.N,+5V*%
X128500000Y-126250000D03*
%TO.P,C5,2*%
%TO.N,GND*%
X128500000Y-124350000D03*
%TD*%
D24*
%TO.P,BAT1,1,+*%
%TO.N,Net-(BAT1-+)*%
X194400000Y-116510000D03*
D25*
%TO.P,BAT1,2,-*%
%TO.N,GND*%
X194400000Y-137000000D03*
%TD*%
D15*
%TO.P,R10,1*%
%TO.N,+3V3*%
X156987500Y-131000000D03*
%TO.P,R10,2*%
%TO.N,/SCL1*%
X158812500Y-131000000D03*
%TD*%
D19*
%TO.P,IC8,1,8*%
%TO.N,/N68*%
X220260000Y-111030000D03*
D20*
%TO.P,IC8,2,9*%
%TO.N,/N69*%
X222800000Y-111030000D03*
%TO.P,IC8,3,A*%
%TO.N,/A6*%
X225340000Y-111030000D03*
%TO.P,IC8,4,D*%
%TO.N,/D6*%
X227880000Y-111030000D03*
%TO.P,IC8,5,VCC*%
%TO.N,+5V*%
X230420000Y-111030000D03*
%TO.P,IC8,6,B*%
%TO.N,/B6*%
X232960000Y-111030000D03*
%TO.P,IC8,7,C*%
%TO.N,/C6*%
X235500000Y-111030000D03*
%TO.P,IC8,8,2*%
%TO.N,/N62*%
X238040000Y-111030000D03*
%TO.P,IC8,9,3*%
%TO.N,/N63*%
X238040000Y-103410000D03*
%TO.P,IC8,10,7*%
%TO.N,/N67*%
X235500000Y-103410000D03*
%TO.P,IC8,11,6*%
%TO.N,/N66*%
X232960000Y-103410000D03*
%TO.P,IC8,12,GND*%
%TO.N,GND*%
X230420000Y-103410000D03*
%TO.P,IC8,13,4*%
%TO.N,/N64*%
X227880000Y-103410000D03*
%TO.P,IC8,14,5*%
%TO.N,/N65*%
X225340000Y-103410000D03*
%TO.P,IC8,15,1*%
%TO.N,/N61*%
X222800000Y-103410000D03*
%TO.P,IC8,16,0*%
%TO.N,/N60*%
X220260000Y-103410000D03*
%TD*%
D19*
%TO.P,IC7,1,8*%
%TO.N,/N58*%
X195226000Y-111030000D03*
D20*
%TO.P,IC7,2,9*%
%TO.N,/N59*%
X197766000Y-111030000D03*
%TO.P,IC7,3,A*%
%TO.N,/A5*%
X200306000Y-111030000D03*
%TO.P,IC7,4,D*%
%TO.N,/D5*%
X202846000Y-111030000D03*
%TO.P,IC7,5,VCC*%
%TO.N,+5V*%
X205386000Y-111030000D03*
%TO.P,IC7,6,B*%
%TO.N,/B5*%
X207926000Y-111030000D03*
%TO.P,IC7,7,C*%
%TO.N,/C5*%
X210466000Y-111030000D03*
%TO.P,IC7,8,2*%
%TO.N,/N52*%
X213006000Y-111030000D03*
%TO.P,IC7,9,3*%
%TO.N,/N53*%
X213006000Y-103410000D03*
%TO.P,IC7,10,7*%
%TO.N,/N57*%
X210466000Y-103410000D03*
%TO.P,IC7,11,6*%
%TO.N,/N56*%
X207926000Y-103410000D03*
%TO.P,IC7,12,GND*%
%TO.N,GND*%
X205386000Y-103410000D03*
%TO.P,IC7,13,4*%
%TO.N,/N54*%
X202846000Y-103410000D03*
%TO.P,IC7,14,5*%
%TO.N,/N55*%
X200306000Y-103410000D03*
%TO.P,IC7,15,1*%
%TO.N,/N51*%
X197766000Y-103410000D03*
%TO.P,IC7,16,0*%
%TO.N,/N50*%
X195226000Y-103410000D03*
%TD*%
D12*
%TO.P,IC5,1,GPB0*%
%TO.N,/A4*%
X162025000Y-117830000D03*
%TO.P,IC5,2,GPB1*%
%TO.N,/D4*%
X162025000Y-119100000D03*
%TO.P,IC5,3,GPB2*%
%TO.N,/B4*%
X162025000Y-120370000D03*
%TO.P,IC5,4,GPB3*%
%TO.N,/C4*%
X162025000Y-121640000D03*
%TO.P,IC5,5,GPB4*%
%TO.N,/C3*%
X162025000Y-122910000D03*
%TO.P,IC5,6,GPB5*%
%TO.N,/B3*%
X162025000Y-124180000D03*
%TO.P,IC5,7,GPB6*%
%TO.N,/D3*%
X162025000Y-125450000D03*
%TO.P,IC5,8,GPB7*%
%TO.N,/A3*%
X162025000Y-126720000D03*
%TO.P,IC5,9,VDD*%
%TO.N,+5V*%
X162025000Y-127990000D03*
%TO.P,IC5,10,VSS*%
%TO.N,GND*%
X162025000Y-129260000D03*
%TO.P,IC5,11,NC*%
%TO.N,unconnected-(IC5-NC-Pad11)*%
X162025000Y-130530000D03*
%TO.P,IC5,12,SCK*%
%TO.N,/SCL1*%
X162025000Y-131800000D03*
%TO.P,IC5,13,SDA*%
%TO.N,/SDA1*%
X162025000Y-133070000D03*
%TO.P,IC5,14,NC*%
%TO.N,unconnected-(IC5-NC-Pad14)*%
X162025000Y-134340000D03*
%TO.P,IC5,15,A0*%
%TO.N,GND*%
X171325000Y-134340000D03*
%TO.P,IC5,16,A1*%
X171325000Y-133070000D03*
%TO.P,IC5,17,A2*%
X171325000Y-131800000D03*
%TO.P,IC5,18,~{RESET}*%
%TO.N,/RSTIO*%
X171325000Y-130530000D03*
%TO.P,IC5,19,INTB*%
%TO.N,unconnected-(IC5-INTB-Pad19)*%
X171325000Y-129260000D03*
%TO.P,IC5,20,INTA*%
%TO.N,unconnected-(IC5-INTA-Pad20)*%
X171325000Y-127990000D03*
%TO.P,IC5,21,GPA0*%
%TO.N,/C6*%
X171325000Y-126720000D03*
%TO.P,IC5,22,GPA1*%
%TO.N,/B6*%
X171325000Y-125450000D03*
%TO.P,IC5,23,GPA2*%
%TO.N,/D6*%
X171325000Y-124180000D03*
%TO.P,IC5,24,GPA3*%
%TO.N,/A6*%
X171325000Y-122910000D03*
%TO.P,IC5,25,GPA4*%
%TO.N,/C5*%
X171325000Y-121640000D03*
%TO.P,IC5,26,GPA5*%
%TO.N,/B5*%
X171325000Y-120370000D03*
%TO.P,IC5,27,GPA6*%
%TO.N,/D5*%
X171325000Y-119100000D03*
%TO.P,IC5,28,GPA7*%
%TO.N,/A5*%
X171325000Y-117830000D03*
%TD*%
D15*
%TO.P,R11,1*%
%TO.N,/RSTIO*%
X173687500Y-130600000D03*
%TO.P,R11,2*%
%TO.N,+3V3*%
X175512500Y-130600000D03*
%TD*%
D14*
%TO.P,S2,1,1*%
%TO.N,/S2*%
X142550000Y-139640000D03*
%TO.P,S2,2,2*%
%TO.N,unconnected-(S2-Pad2)*%
X137300000Y-139640000D03*
%TO.P,S2,3,3*%
%TO.N,unconnected-(S2-Pad3)*%
X137300000Y-142840000D03*
%TO.P,S2,4,4*%
%TO.N,+3V3*%
X142550000Y-142840000D03*
%TD*%
D19*
%TO.P,IC4,1,8*%
%TO.N,/N48*%
X159188600Y-111030000D03*
D20*
%TO.P,IC4,2,9*%
%TO.N,/N49*%
X161728600Y-111030000D03*
%TO.P,IC4,3,A*%
%TO.N,/A4*%
X164268600Y-111030000D03*
%TO.P,IC4,4,D*%
%TO.N,/D4*%
X166808600Y-111030000D03*
%TO.P,IC4,5,VCC*%
%TO.N,+5V*%
X169348600Y-111030000D03*
%TO.P,IC4,6,B*%
%TO.N,/B4*%
X171888600Y-111030000D03*
%TO.P,IC4,7,C*%
%TO.N,/C4*%
X174428600Y-111030000D03*
%TO.P,IC4,8,2*%
%TO.N,/N42*%
X176968600Y-111030000D03*
%TO.P,IC4,9,3*%
%TO.N,/N43*%
X176968600Y-103410000D03*
%TO.P,IC4,10,7*%
%TO.N,/N47*%
X174428600Y-103410000D03*
%TO.P,IC4,11,6*%
%TO.N,/N46*%
X171888600Y-103410000D03*
%TO.P,IC4,12,GND*%
%TO.N,GND*%
X169348600Y-103410000D03*
%TO.P,IC4,13,4*%
%TO.N,/N44*%
X166808600Y-103410000D03*
%TO.P,IC4,14,5*%
%TO.N,/N45*%
X164268600Y-103410000D03*
%TO.P,IC4,15,1*%
%TO.N,/N41*%
X161728600Y-103410000D03*
%TO.P,IC4,16,0*%
%TO.N,/N40*%
X159188600Y-103410000D03*
%TD*%
D19*
%TO.P,IC2,1,8*%
%TO.N,/N28*%
X98764600Y-111030000D03*
D20*
%TO.P,IC2,2,9*%
%TO.N,/N29*%
X101304600Y-111030000D03*
%TO.P,IC2,3,A*%
%TO.N,/A2*%
X103844600Y-111030000D03*
%TO.P,IC2,4,D*%
%TO.N,/D2*%
X106384600Y-111030000D03*
%TO.P,IC2,5,VCC*%
%TO.N,+5V*%
X108924600Y-111030000D03*
%TO.P,IC2,6,B*%
%TO.N,/B2*%
X111464600Y-111030000D03*
%TO.P,IC2,7,C*%
%TO.N,/C2*%
X114004600Y-111030000D03*
%TO.P,IC2,8,2*%
%TO.N,/N22*%
X116544600Y-111030000D03*
%TO.P,IC2,9,3*%
%TO.N,/N23*%
X116544600Y-103410000D03*
%TO.P,IC2,10,7*%
%TO.N,/N27*%
X114004600Y-103410000D03*
%TO.P,IC2,11,6*%
%TO.N,/N26*%
X111464600Y-103410000D03*
%TO.P,IC2,12,GND*%
%TO.N,GND*%
X108924600Y-103410000D03*
%TO.P,IC2,13,4*%
%TO.N,/N24*%
X106384600Y-103410000D03*
%TO.P,IC2,14,5*%
%TO.N,/N25*%
X103844600Y-103410000D03*
%TO.P,IC2,15,1*%
%TO.N,/N21*%
X101304600Y-103410000D03*
%TO.P,IC2,16,0*%
%TO.N,/N20*%
X98764600Y-103410000D03*
%TD*%
D15*
%TO.P,R6,1*%
%TO.N,/SDA1*%
X143287500Y-126300000D03*
%TO.P,R6,2*%
%TO.N,+3V3*%
X145112500Y-126300000D03*
%TD*%
D19*
%TO.P,IC1,1,8*%
%TO.N,/N18*%
X73682600Y-111030000D03*
D20*
%TO.P,IC1,2,9*%
%TO.N,/N19*%
X76222600Y-111030000D03*
%TO.P,IC1,3,A*%
%TO.N,/A1*%
X78762600Y-111030000D03*
%TO.P,IC1,4,D*%
%TO.N,/D1*%
X81302600Y-111030000D03*
%TO.P,IC1,5,VCC*%
%TO.N,+5V*%
X83842600Y-111030000D03*
%TO.P,IC1,6,B*%
%TO.N,/B1*%
X86382600Y-111030000D03*
%TO.P,IC1,7,C*%
%TO.N,/C1*%
X88922600Y-111030000D03*
%TO.P,IC1,8,2*%
%TO.N,/N12*%
X91462600Y-111030000D03*
%TO.P,IC1,9,3*%
%TO.N,/N13*%
X91462600Y-103410000D03*
%TO.P,IC1,10,7*%
%TO.N,/N17*%
X88922600Y-103410000D03*
%TO.P,IC1,11,6*%
%TO.N,/N16*%
X86382600Y-103410000D03*
%TO.P,IC1,12,GND*%
%TO.N,GND*%
X83842600Y-103410000D03*
%TO.P,IC1,13,4*%
%TO.N,/N14*%
X81302600Y-103410000D03*
%TO.P,IC1,14,5*%
%TO.N,/N15*%
X78762600Y-103410000D03*
%TO.P,IC1,15,1*%
%TO.N,/N11*%
X76222600Y-103410000D03*
%TO.P,IC1,16,0*%
%TO.N,/N10*%
X73682600Y-103410000D03*
%TD*%
D14*
%TO.P,S4,1,1*%
%TO.N,/S4*%
X160625000Y-139640000D03*
%TO.P,S4,2,2*%
%TO.N,unconnected-(S4-Pad2)*%
X155375000Y-139640000D03*
%TO.P,S4,3,3*%
%TO.N,unconnected-(S4-Pad3)*%
X155375000Y-142840000D03*
%TO.P,S4,4,4*%
%TO.N,+3V3*%
X160625000Y-142840000D03*
%TD*%
D26*
%TO.P,N6,0,0*%
%TO.N,/N60*%
X223835200Y-93226300D03*
%TO.P,N6,1,1*%
%TO.N,/N61*%
X234023600Y-93226300D03*
%TO.P,N6,2,2*%
%TO.N,/N62*%
X235074200Y-90456100D03*
%TO.P,N6,3,3*%
%TO.N,/N63*%
X234717100Y-87515000D03*
%TO.P,N6,4,4*%
%TO.N,/N64*%
X233034100Y-85076800D03*
%TO.P,N6,5,5*%
%TO.N,/N65*%
X230410700Y-83699900D03*
%TO.P,N6,6,6*%
%TO.N,/N66*%
X227448100Y-83699900D03*
%TO.P,N6,7,7*%
%TO.N,/N67*%
X224824700Y-85076800D03*
%TO.P,N6,8,8*%
%TO.N,/N68*%
X223141700Y-87515000D03*
%TO.P,N6,9,9*%
%TO.N,/N69*%
X222784600Y-90456100D03*
%TO.P,N6,A,A*%
%TO.N,/170V6*%
X228929400Y-95899900D03*
%TO.P,N6,LHDP,LHDP*%
%TO.N,unconnected-(N6-PadLHDP)*%
X226052800Y-95190900D03*
%TO.P,N6,RHDP,RHDP*%
%TO.N,unconnected-(N6-PadRHDP)*%
X231806000Y-95190900D03*
%TD*%
D27*
%TO.P,J4,1,1*%
%TO.N,+12V*%
X225000000Y-141100000D03*
%TO.P,J4,2,2*%
%TO.N,GND*%
X227540000Y-141100000D03*
%TD*%
D26*
%TO.P,N4,0,0*%
%TO.N,/N40*%
X162750400Y-93226300D03*
%TO.P,N4,1,1*%
%TO.N,/N41*%
X172938800Y-93226300D03*
%TO.P,N4,2,2*%
%TO.N,/N42*%
X173989400Y-90456100D03*
%TO.P,N4,3,3*%
%TO.N,/N43*%
X173632300Y-87515000D03*
%TO.P,N4,4,4*%
%TO.N,/N44*%
X171949300Y-85076800D03*
%TO.P,N4,5,5*%
%TO.N,/N45*%
X169325900Y-83699900D03*
%TO.P,N4,6,6*%
%TO.N,/N46*%
X166363300Y-83699900D03*
%TO.P,N4,7,7*%
%TO.N,/N47*%
X163739900Y-85076800D03*
%TO.P,N4,8,8*%
%TO.N,/N48*%
X162056900Y-87515000D03*
%TO.P,N4,9,9*%
%TO.N,/N49*%
X161699800Y-90456100D03*
%TO.P,N4,A,A*%
%TO.N,/170V4*%
X167844600Y-95899900D03*
%TO.P,N4,LHDP,LHDP*%
%TO.N,unconnected-(N4-PadLHDP)*%
X164968000Y-95190900D03*
%TO.P,N4,RHDP,RHDP*%
%TO.N,unconnected-(N4-PadRHDP)*%
X170721200Y-95190900D03*
%TD*%
D27*
%TO.P,J3,1,1*%
%TO.N,VCC*%
X210000000Y-141200000D03*
%TO.P,J3,2,2*%
%TO.N,GND*%
X212540000Y-141200000D03*
%TD*%
D26*
%TO.P,N5,0,0*%
%TO.N,/N50*%
X198506000Y-93226300D03*
%TO.P,N5,1,1*%
%TO.N,/N51*%
X208694400Y-93226300D03*
%TO.P,N5,2,2*%
%TO.N,/N52*%
X209745000Y-90456100D03*
%TO.P,N5,3,3*%
%TO.N,/N53*%
X209387900Y-87515000D03*
%TO.P,N5,4,4*%
%TO.N,/N54*%
X207704900Y-85076800D03*
%TO.P,N5,5,5*%
%TO.N,/N55*%
X205081500Y-83699900D03*
%TO.P,N5,6,6*%
%TO.N,/N56*%
X202118900Y-83699900D03*
%TO.P,N5,7,7*%
%TO.N,/N57*%
X199495500Y-85076800D03*
%TO.P,N5,8,8*%
%TO.N,/N58*%
X197812500Y-87515000D03*
%TO.P,N5,9,9*%
%TO.N,/N59*%
X197455400Y-90456100D03*
%TO.P,N5,A,A*%
%TO.N,/170V5*%
X203600200Y-95899900D03*
%TO.P,N5,LHDP,LHDP*%
%TO.N,unconnected-(N5-PadLHDP)*%
X200723600Y-95190900D03*
%TO.P,N5,RHDP,RHDP*%
%TO.N,unconnected-(N5-PadRHDP)*%
X206476800Y-95190900D03*
%TD*%
%TO.P,N3,0,0*%
%TO.N,/N30*%
X137428600Y-93226300D03*
%TO.P,N3,1,1*%
%TO.N,/N31*%
X147617000Y-93226300D03*
%TO.P,N3,2,2*%
%TO.N,/N32*%
X148667600Y-90456100D03*
%TO.P,N3,3,3*%
%TO.N,/N33*%
X148310500Y-87515000D03*
%TO.P,N3,4,4*%
%TO.N,/N34*%
X146627500Y-85076800D03*
%TO.P,N3,5,5*%
%TO.N,/N35*%
X144004100Y-83699900D03*
%TO.P,N3,6,6*%
%TO.N,/N36*%
X141041500Y-83699900D03*
%TO.P,N3,7,7*%
%TO.N,/N37*%
X138418100Y-85076800D03*
%TO.P,N3,8,8*%
%TO.N,/N38*%
X136735100Y-87515000D03*
%TO.P,N3,9,9*%
%TO.N,/N39*%
X136378000Y-90456100D03*
%TO.P,N3,A,A*%
%TO.N,/170V3*%
X142522800Y-95899900D03*
%TO.P,N3,LHDP,LHDP*%
%TO.N,unconnected-(N3-PadLHDP)*%
X139646200Y-95190900D03*
%TO.P,N3,RHDP,RHDP*%
%TO.N,unconnected-(N3-PadRHDP)*%
X145399400Y-95190900D03*
%TD*%
%TO.P,N1,0,0*%
%TO.N,/N10*%
X76984600Y-93226300D03*
%TO.P,N1,1,1*%
%TO.N,/N11*%
X87173000Y-93226300D03*
%TO.P,N1,2,2*%
%TO.N,/N12*%
X88223600Y-90456100D03*
%TO.P,N1,3,3*%
%TO.N,/N13*%
X87866500Y-87515000D03*
%TO.P,N1,4,4*%
%TO.N,/N14*%
X86183500Y-85076800D03*
%TO.P,N1,5,5*%
%TO.N,/N15*%
X83560100Y-83699900D03*
%TO.P,N1,6,6*%
%TO.N,/N16*%
X80597500Y-83699900D03*
%TO.P,N1,7,7*%
%TO.N,/N17*%
X77974100Y-85076800D03*
%TO.P,N1,8,8*%
%TO.N,/N18*%
X76291100Y-87515000D03*
%TO.P,N1,9,9*%
%TO.N,/N19*%
X75934000Y-90456100D03*
%TO.P,N1,A,A*%
%TO.N,/170V1*%
X82078800Y-95899900D03*
%TO.P,N1,LHDP,LHDP*%
%TO.N,unconnected-(N1-PadLHDP)*%
X79202200Y-95190900D03*
%TO.P,N1,RHDP,RHDP*%
%TO.N,unconnected-(N1-PadRHDP)*%
X84955400Y-95190900D03*
%TD*%
%TO.P,N2,0,0*%
%TO.N,/N20*%
X102306400Y-93226300D03*
%TO.P,N2,1,1*%
%TO.N,/N21*%
X112494800Y-93226300D03*
%TO.P,N2,2,2*%
%TO.N,/N22*%
X113545400Y-90456100D03*
%TO.P,N2,3,3*%
%TO.N,/N23*%
X113188300Y-87515000D03*
%TO.P,N2,4,4*%
%TO.N,/N24*%
X111505300Y-85076800D03*
%TO.P,N2,5,5*%
%TO.N,/N25*%
X108881900Y-83699900D03*
%TO.P,N2,6,6*%
%TO.N,/N26*%
X105919300Y-83699900D03*
%TO.P,N2,7,7*%
%TO.N,/N27*%
X103295900Y-85076800D03*
%TO.P,N2,8,8*%
%TO.N,/N28*%
X101612900Y-87515000D03*
%TO.P,N2,9,9*%
%TO.N,/N29*%
X101255800Y-90456100D03*
%TO.P,N2,A,A*%
%TO.N,/170V2*%
X107400600Y-95899900D03*
%TO.P,N2,LHDP,LHDP*%
%TO.N,unconnected-(N2-PadLHDP)*%
X104524000Y-95190900D03*
%TO.P,N2,RHDP,RHDP*%
%TO.N,unconnected-(N2-PadRHDP)*%
X110277200Y-95190900D03*
%TD*%
D28*
%TO.N,GND*%
X125700000Y-136400000D03*
X166600000Y-139800000D03*
X221900000Y-81500000D03*
X188741538Y-140786711D03*
X101300000Y-114600000D03*
X162600000Y-78800000D03*
X125300000Y-87300000D03*
X153772868Y-114884939D03*
X107017605Y-131809300D03*
X120700000Y-89300000D03*
X134599594Y-122088741D03*
X246100000Y-93600000D03*
X119100000Y-124300000D03*
X217400000Y-82200000D03*
X246698118Y-120283057D03*
X75600000Y-81600000D03*
X203400000Y-94100000D03*
X66100000Y-78900000D03*
X81602344Y-132148170D03*
X141900000Y-131400000D03*
X145200000Y-133500000D03*
X237700000Y-124800000D03*
X137900000Y-98600000D03*
X180595791Y-103589038D03*
X240900000Y-103500000D03*
X124022259Y-97397335D03*
X142000000Y-132600000D03*
D29*
X170800000Y-107500000D03*
D28*
X116500000Y-114600000D03*
X123500000Y-125300000D03*
X217494019Y-137220595D03*
X149100000Y-115100000D03*
X96471753Y-114715947D03*
X99600000Y-117900000D03*
X220000000Y-129100000D03*
X228700000Y-94000000D03*
X121700000Y-83200000D03*
X156000000Y-89100000D03*
X180500000Y-98400000D03*
D29*
X217400000Y-134400000D03*
D28*
X206600000Y-119800000D03*
X241700000Y-98400000D03*
X84400000Y-114500000D03*
X78600000Y-117900000D03*
X194800000Y-82900000D03*
X153600000Y-133000000D03*
X71869763Y-113767103D03*
X193900000Y-97800000D03*
X142000000Y-130100000D03*
X87700000Y-114900000D03*
X244300000Y-91300000D03*
X94600000Y-87200000D03*
X179000000Y-137000000D03*
X108287048Y-78528572D03*
X95100000Y-111000000D03*
X246000000Y-136100000D03*
X156300000Y-86800000D03*
X123500000Y-103000000D03*
X94500000Y-117800000D03*
X68900000Y-94500000D03*
X145900000Y-115400000D03*
X66600000Y-145200000D03*
X196200000Y-98000000D03*
X66467445Y-109580076D03*
X125200000Y-129900000D03*
X205300000Y-143500000D03*
X190300000Y-89500000D03*
X211595682Y-79188043D03*
X69100000Y-101300000D03*
X155100000Y-101700000D03*
X186463788Y-92155817D03*
X154800000Y-120300000D03*
X91400000Y-114800000D03*
X128600000Y-127800000D03*
X119300000Y-78800000D03*
X129500000Y-79300000D03*
X131900000Y-140700000D03*
X191100000Y-102000000D03*
X179000000Y-114500000D03*
X94100000Y-81400000D03*
X155300000Y-98900000D03*
X149800000Y-129700000D03*
D29*
X232000000Y-107500000D03*
D28*
X120400000Y-132100000D03*
X215500000Y-86200000D03*
X142400000Y-115900000D03*
X105100000Y-114700000D03*
D29*
X228200000Y-130600000D03*
D28*
X150058465Y-136079730D03*
X82800000Y-116400000D03*
D29*
X85300000Y-107400000D03*
D28*
X134700000Y-98200000D03*
X66200000Y-97600000D03*
X95900000Y-89000000D03*
X216700000Y-142900000D03*
X218678069Y-79933558D03*
D29*
X207000000Y-107500000D03*
D28*
X70400000Y-87600000D03*
X129500000Y-131400000D03*
X158900000Y-114900000D03*
X218700000Y-122200000D03*
X119186374Y-117543187D03*
X232600000Y-133200000D03*
X236700000Y-79200000D03*
X204900000Y-115100000D03*
X140200000Y-139700000D03*
X112800000Y-114900000D03*
X82200000Y-127900000D03*
X151900000Y-130700000D03*
X243000000Y-89300000D03*
X191600000Y-86300000D03*
X175229236Y-127859460D03*
X75700000Y-113900000D03*
X186450830Y-85337879D03*
X236900000Y-114400000D03*
X122947832Y-115154152D03*
X181000000Y-78700000D03*
X237000000Y-144400000D03*
X142400000Y-93900000D03*
X197400000Y-79100000D03*
X211900000Y-126500000D03*
X243100000Y-112100000D03*
X242500000Y-133300000D03*
X184255812Y-143350831D03*
D29*
X228200000Y-132900000D03*
D28*
X220295345Y-137853153D03*
X182300000Y-89400000D03*
X199100000Y-98500000D03*
X178100000Y-133400000D03*
X246500000Y-111800000D03*
X127624240Y-114798338D03*
X116800000Y-98400000D03*
X66900000Y-137000000D03*
X164900000Y-132100000D03*
X114000000Y-132000000D03*
X131900000Y-97300000D03*
X229600000Y-114600000D03*
X119700000Y-86400000D03*
X235000000Y-117700000D03*
X78400000Y-137500000D03*
X241400000Y-107400000D03*
X66298010Y-116018608D03*
X234900000Y-139400000D03*
X107500000Y-117600000D03*
X215419938Y-126621590D03*
X143900000Y-130700000D03*
X123800000Y-129700000D03*
X129500000Y-132600000D03*
X142000000Y-133900000D03*
X198500000Y-114900000D03*
X201600000Y-141500000D03*
X82900000Y-144200000D03*
X241391276Y-86593306D03*
X155900000Y-128000000D03*
X170800000Y-79800000D03*
D29*
X229300000Y-135400000D03*
D28*
X183700000Y-114600000D03*
X128500000Y-123300000D03*
X186000000Y-104700000D03*
X137500000Y-117900000D03*
X246700000Y-105100000D03*
X167500000Y-94100000D03*
X219500000Y-94300000D03*
X94300000Y-89100000D03*
X155000000Y-85800000D03*
X188585712Y-79644861D03*
X188700000Y-91300000D03*
X133600000Y-114700000D03*
X182800000Y-82500000D03*
X80600000Y-117800000D03*
X124000000Y-95000000D03*
X98100000Y-94100000D03*
X172600000Y-114100000D03*
X173000000Y-133100000D03*
X188600000Y-114600000D03*
X239800000Y-115600000D03*
X127185379Y-110334879D03*
X122800000Y-108300000D03*
X81300000Y-78600000D03*
X188900000Y-102000000D03*
X66400000Y-91700000D03*
X130900000Y-83200000D03*
X246300000Y-86600000D03*
X173000000Y-134300000D03*
X158200000Y-118500000D03*
X225800000Y-114500000D03*
X69300000Y-112100000D03*
X76286374Y-144743518D03*
X130724902Y-118153153D03*
D29*
X240500000Y-130700000D03*
D28*
X246500000Y-126300000D03*
X157800000Y-139800000D03*
D29*
X225000000Y-125400000D03*
D28*
X175800000Y-114800000D03*
X185900000Y-145100000D03*
X106900000Y-94000000D03*
X202500000Y-130700000D03*
X95100000Y-91500000D03*
X201700000Y-115100000D03*
X155800000Y-109800000D03*
X217000000Y-89400000D03*
X129500000Y-130100000D03*
X202600000Y-145300000D03*
X220200000Y-143000000D03*
X99000000Y-78600000D03*
X243300000Y-88000000D03*
X181300000Y-142500000D03*
X183700000Y-91100000D03*
X180595791Y-107550054D03*
X72600000Y-117500000D03*
X160600000Y-98200000D03*
X185800000Y-97700000D03*
X180800000Y-86400000D03*
X186800000Y-109300000D03*
X107830893Y-127370101D03*
X136800000Y-78800000D03*
X178900000Y-128400000D03*
D29*
X233600000Y-121700000D03*
D28*
X126500000Y-102100000D03*
X228403642Y-78984721D03*
X88700000Y-78600000D03*
X114200000Y-127600000D03*
X233800000Y-114100000D03*
X178100000Y-81500000D03*
X227897015Y-120608965D03*
X86700000Y-143800000D03*
X246300000Y-144600000D03*
X69300000Y-107100000D03*
X127800000Y-89100000D03*
X66300000Y-103600000D03*
X69200000Y-117500000D03*
X94500000Y-108700000D03*
X176800000Y-136500000D03*
X120987830Y-130294118D03*
X168200000Y-114500000D03*
X124100000Y-91900000D03*
X74400000Y-123300000D03*
D30*
X145600000Y-107500000D03*
D28*
X99300000Y-127600000D03*
X124300000Y-117800000D03*
X245300000Y-100200000D03*
X91500000Y-127800000D03*
D29*
X238200000Y-130700000D03*
D28*
X152300000Y-121900000D03*
X99000000Y-131700000D03*
X211500000Y-132000000D03*
X158200000Y-81900000D03*
X154900000Y-78500000D03*
X158200000Y-93800000D03*
X69800000Y-133800000D03*
X209500000Y-115200000D03*
X221600000Y-98300000D03*
X216800000Y-88000000D03*
X153400000Y-127700000D03*
D29*
X119300000Y-137600000D03*
D28*
X164200000Y-130700000D03*
X65800000Y-86900000D03*
X121700000Y-91000000D03*
X193200000Y-106200000D03*
X160500000Y-129300000D03*
X95200000Y-103200000D03*
X97940859Y-82267110D03*
X237500000Y-134800000D03*
X149100000Y-127800000D03*
X148600000Y-139600000D03*
X212600000Y-114900000D03*
X155200000Y-104200000D03*
D29*
X119300000Y-135400000D03*
D28*
X220800000Y-129900000D03*
X186100000Y-130400000D03*
X108400000Y-114900000D03*
X232979512Y-142088592D03*
X126800000Y-91400000D03*
X128700000Y-102400000D03*
X147670451Y-78681728D03*
X93300000Y-85900000D03*
X156600000Y-91500000D03*
X204600000Y-79100000D03*
X129500000Y-133900000D03*
X77600000Y-124200000D03*
X164800000Y-114800000D03*
X149900000Y-123500000D03*
X224034884Y-98790697D03*
X182200000Y-87700000D03*
D29*
X110400000Y-107400000D03*
D28*
X232100000Y-138200000D03*
X120500000Y-87600000D03*
X66100000Y-121100000D03*
X218500000Y-87000000D03*
X91000000Y-131500000D03*
X95900000Y-85900000D03*
X142000000Y-128800000D03*
%TO.N,+5V*%
X150900000Y-129400000D03*
X158900000Y-129400000D03*
%TO.N,/N13*%
X93400000Y-87500000D03*
%TO.N,/N12*%
X94400000Y-90500000D03*
%TO.N,/N23*%
X119300000Y-87500000D03*
%TO.N,/N25*%
X105900000Y-94100000D03*
%TO.N,/N22*%
X120500000Y-90400000D03*
%TO.N,/N29*%
X95800000Y-90500000D03*
X95800000Y-102000000D03*
%TO.N,/N33*%
X155100000Y-87500000D03*
%TO.N,/N35*%
X141100000Y-94000000D03*
%TO.N,/N32*%
X156000000Y-90500000D03*
%TO.N,/N39*%
X127700000Y-101800000D03*
X127700000Y-90500000D03*
%TO.N,/N43*%
X181100000Y-87500000D03*
%TO.N,/N45*%
X166400000Y-94100000D03*
%TO.N,/N42*%
X182800000Y-90500000D03*
%TO.N,/N49*%
X156500000Y-101600000D03*
X156500000Y-98800000D03*
%TO.N,/RSTIO*%
X173700000Y-135300000D03*
%TO.N,/RSTC*%
X124700000Y-128800000D03*
%TO.N,/S1*%
X132000000Y-139600000D03*
%TO.N,+3V3*%
X78300000Y-138400000D03*
%TO.N,/S2*%
X141000000Y-139600000D03*
%TO.N,/S3*%
X149700000Y-139600000D03*
%TO.N,/S4*%
X159000000Y-139700000D03*
%TO.N,/SCL1*%
X147800000Y-125100000D03*
X163900000Y-131800000D03*
%TO.N,/SDA1*%
X79200000Y-124300000D03*
X158800000Y-135400000D03*
X143300000Y-124900000D03*
X118100000Y-124300000D03*
%TO.N,/N52*%
X215000000Y-98700000D03*
%TO.N,/N53*%
X215700000Y-87515000D03*
%TO.N,/N55*%
X202200000Y-94100000D03*
%TO.N,/N59*%
X190000000Y-101800000D03*
X190000000Y-90500000D03*
%TO.N,/N62*%
X243400000Y-90500000D03*
%TO.N,/N63*%
X242100000Y-87500000D03*
%TO.N,/N65*%
X227700000Y-93900000D03*
%TO.N,/N69*%
X216900000Y-90500000D03*
X216900000Y-101700000D03*
%TO.N,/TX*%
X122400000Y-125300000D03*
%TO.N,/RX*%
X123100000Y-124500000D03*
%TO.N,/S5*%
X167700000Y-139700000D03*
%TO.N,/S6*%
X178700000Y-138000000D03*
X121400000Y-131500000D03*
%TO.N,Net-(IC10-FB)*%
X220900000Y-128500000D03*
X236700000Y-123500000D03*
%TO.N,Net-(BAT1-+)*%
X146500000Y-127500000D03*
%TD*%
D31*
%TO.N,GND*%
X140362000Y-133910000D02*
X141990000Y-133910000D01*
X141990000Y-128810000D02*
X142000000Y-128800000D01*
X140262000Y-131410000D02*
X141890000Y-131410000D01*
X131062000Y-130100000D02*
X129500000Y-130100000D01*
X141890000Y-131410000D02*
X141900000Y-131400000D01*
X172970000Y-133070000D02*
X173000000Y-133100000D01*
X131062000Y-132600000D02*
X129500000Y-132600000D01*
X141990000Y-133910000D02*
X142000000Y-133900000D01*
X140362000Y-130110000D02*
X141990000Y-130110000D01*
X131062000Y-133900000D02*
X129500000Y-133900000D01*
X160540000Y-129260000D02*
X160500000Y-129300000D01*
X171325000Y-133070000D02*
X172970000Y-133070000D01*
X171325000Y-133070000D02*
X171325000Y-134340000D01*
X141990000Y-132610000D02*
X142000000Y-132600000D01*
X172960000Y-134340000D02*
X173000000Y-134300000D01*
X140362000Y-132610000D02*
X141990000Y-132610000D01*
X131062000Y-130100000D02*
X131062000Y-133910000D01*
X156950000Y-128000000D02*
X155900000Y-128000000D01*
X140362000Y-128830000D02*
X140362000Y-133910000D01*
X140362000Y-128810000D02*
X141990000Y-128810000D01*
X171325000Y-131800000D02*
X171325000Y-133070000D01*
X131062000Y-131400000D02*
X129500000Y-131400000D01*
X162025000Y-129260000D02*
X160540000Y-129260000D01*
X141990000Y-130110000D02*
X142000000Y-130100000D01*
X171325000Y-134340000D02*
X172960000Y-134340000D01*
X128500000Y-124350000D02*
X128500000Y-123300000D01*
%TO.N,+5V*%
X128500000Y-126250000D02*
X131022000Y-126250000D01*
D32*
X130000000Y-136200000D02*
X124300000Y-130500000D01*
X124350000Y-126250000D02*
X128500000Y-126250000D01*
X158900000Y-129400000D02*
X158900000Y-128050000D01*
X122400000Y-139880000D02*
X122400000Y-130900000D01*
D31*
X162015000Y-128000000D02*
X162025000Y-127990000D01*
D32*
X122400000Y-128200000D02*
X124350000Y-126250000D01*
X124300000Y-130500000D02*
X122900000Y-130500000D01*
X150900000Y-129400000D02*
X150900000Y-132100000D01*
X150900000Y-132100000D02*
X146800000Y-136200000D01*
X122400000Y-130500000D02*
X122900000Y-130500000D01*
X122900000Y-130500000D02*
X122800000Y-130500000D01*
D31*
X131022000Y-126250000D02*
X131062000Y-126290000D01*
D32*
X122400000Y-130900000D02*
X122400000Y-130500000D01*
D31*
X158850000Y-128000000D02*
X162015000Y-128000000D01*
D32*
X122400000Y-130500000D02*
X122400000Y-130000000D01*
X122900000Y-130500000D02*
X122400000Y-130000000D01*
X122800000Y-130500000D02*
X122400000Y-130900000D01*
X122400000Y-130000000D02*
X122400000Y-128200000D01*
X146800000Y-136200000D02*
X130000000Y-136200000D01*
D33*
%TO.N,/N13*%
X91462600Y-99037400D02*
X91462600Y-103410000D01*
X93400000Y-97100000D02*
X91462600Y-99037400D01*
X93400000Y-87500000D02*
X93400000Y-97100000D01*
%TO.N,/N10*%
X73682600Y-95017400D02*
X75473700Y-93226300D01*
X75473700Y-93226300D02*
X76984600Y-93226300D01*
X73682600Y-103410000D02*
X73682600Y-95017400D01*
%TO.N,/N11*%
X76222600Y-96077400D02*
X79073700Y-93226300D01*
X79073700Y-93226300D02*
X87173000Y-93226300D01*
X76222600Y-103410000D02*
X76222600Y-96077400D01*
%TO.N,/N14*%
X86700000Y-99900000D02*
X90700000Y-95900000D01*
X88676800Y-85076800D02*
X86183500Y-85076800D01*
X82200000Y-99900000D02*
X86700000Y-99900000D01*
X90700000Y-87100000D02*
X88676800Y-85076800D01*
X81302600Y-103410000D02*
X81302600Y-100797400D01*
X81302600Y-100797400D02*
X82200000Y-99900000D01*
X90700000Y-95900000D02*
X90700000Y-87100000D01*
%TO.N,/N16*%
X86382600Y-103410000D02*
X86382600Y-101417400D01*
X81300000Y-81300000D02*
X80597500Y-82002500D01*
X88200000Y-81300000D02*
X81300000Y-81300000D01*
X91700000Y-84800000D02*
X88200000Y-81300000D01*
X91700000Y-96100000D02*
X91700000Y-84800000D01*
X86382600Y-101417400D02*
X91700000Y-96100000D01*
X80597500Y-82002500D02*
X80597500Y-83699900D01*
%TO.N,/N17*%
X79200000Y-80300000D02*
X77974100Y-81525900D01*
X88922600Y-103410000D02*
X88922600Y-100177400D01*
X77974100Y-81525900D02*
X77974100Y-85076800D01*
X92500000Y-82700000D02*
X90100000Y-80300000D01*
X92500000Y-96600000D02*
X92500000Y-82700000D01*
X88922600Y-100177400D02*
X92500000Y-96600000D01*
X90100000Y-80300000D02*
X79200000Y-80300000D01*
%TO.N,/N12*%
X91400000Y-110967400D02*
X91400000Y-108700000D01*
X94400000Y-105700000D02*
X94400000Y-90500000D01*
X91400000Y-108700000D02*
X94400000Y-105700000D01*
X91462600Y-111030000D02*
X91400000Y-110967400D01*
%TO.N,/C1*%
X91920000Y-122100000D02*
X91920000Y-119020000D01*
X91920000Y-119020000D02*
X88922600Y-116022600D01*
X88922600Y-116022600D02*
X88922600Y-111030000D01*
%TO.N,/B1*%
X89380000Y-122100000D02*
X89380000Y-118880000D01*
X89380000Y-118880000D02*
X86382600Y-115882600D01*
X86382600Y-115882600D02*
X86382600Y-111030000D01*
%TO.N,/D1*%
X86840000Y-119240000D02*
X81302600Y-113702600D01*
X81302600Y-113702600D02*
X81302600Y-111030000D01*
X86840000Y-122100000D02*
X86840000Y-119240000D01*
%TO.N,/A1*%
X78762600Y-113662600D02*
X78762600Y-111030000D01*
X84300000Y-119200000D02*
X78762600Y-113662600D01*
X84300000Y-122100000D02*
X84300000Y-119200000D01*
%TO.N,/N18*%
X71700000Y-110400000D02*
X71700000Y-90100000D01*
X74285000Y-87515000D02*
X76291100Y-87515000D01*
X71700000Y-90100000D02*
X74285000Y-87515000D01*
X72330000Y-111030000D02*
X71700000Y-110400000D01*
X73682600Y-111030000D02*
X72330000Y-111030000D01*
%TO.N,/N23*%
X118390000Y-103410000D02*
X119300000Y-102500000D01*
X116544600Y-103410000D02*
X118390000Y-103410000D01*
X119300000Y-102500000D02*
X119300000Y-87500000D01*
%TO.N,/N20*%
X98764600Y-95435400D02*
X100973700Y-93226300D01*
X100973700Y-93226300D02*
X102306400Y-93226300D01*
X98764600Y-103410000D02*
X98764600Y-95435400D01*
%TO.N,/N21*%
X101304600Y-103410000D02*
X101304600Y-96495400D01*
X104573700Y-93226300D02*
X112494800Y-93226300D01*
X101304600Y-96495400D02*
X104573700Y-93226300D01*
%TO.N,/N25*%
X105900000Y-97000000D02*
X105900000Y-94100000D01*
X103844600Y-103410000D02*
X103844600Y-99055400D01*
X103844600Y-99055400D02*
X105900000Y-97000000D01*
%TO.N,/N24*%
X106384600Y-100115400D02*
X106900000Y-99600000D01*
X106384600Y-103410000D02*
X106384600Y-100115400D01*
X110900000Y-99600000D02*
X116300000Y-94200000D01*
X116300000Y-87300000D02*
X114076800Y-85076800D01*
X114076800Y-85076800D02*
X111505300Y-85076800D01*
X116300000Y-94200000D02*
X116300000Y-87300000D01*
X106900000Y-99600000D02*
X110900000Y-99600000D01*
%TO.N,/N26*%
X111464600Y-100635400D02*
X117300000Y-94800000D01*
X117300000Y-85600000D02*
X113500000Y-81800000D01*
X113500000Y-81800000D02*
X106700000Y-81800000D01*
X105919300Y-82580700D02*
X105919300Y-83699900D01*
X111464600Y-103410000D02*
X111464600Y-100635400D01*
X106700000Y-81800000D02*
X105919300Y-82580700D01*
X117300000Y-94800000D02*
X117300000Y-85600000D01*
%TO.N,/N27*%
X114004600Y-103410000D02*
X114004600Y-99595400D01*
X114004600Y-99595400D02*
X118300000Y-95300000D01*
X118300000Y-83500000D02*
X115300000Y-80500000D01*
X103295900Y-82004100D02*
X103295900Y-85076800D01*
X118300000Y-95300000D02*
X118300000Y-83500000D01*
X104800000Y-80500000D02*
X103295900Y-82004100D01*
X115300000Y-80500000D02*
X104800000Y-80500000D01*
%TO.N,/N22*%
X118270000Y-111030000D02*
X116544600Y-111030000D01*
X120500000Y-90400000D02*
X120500000Y-108800000D01*
X120500000Y-108800000D02*
X118270000Y-111030000D01*
%TO.N,/C2*%
X112240000Y-117760000D02*
X114004600Y-115995400D01*
X114004600Y-115995400D02*
X114004600Y-111030000D01*
X112240000Y-122100000D02*
X112240000Y-117760000D01*
%TO.N,/B2*%
X109700000Y-117700000D02*
X111464600Y-115935400D01*
X111464600Y-115935400D02*
X111464600Y-111030000D01*
X109700000Y-122100000D02*
X109700000Y-117700000D01*
%TO.N,/D2*%
X104620000Y-122100000D02*
X104620000Y-117780000D01*
X106384600Y-116015400D02*
X106384600Y-111030000D01*
X104620000Y-117780000D02*
X106384600Y-116015400D01*
%TO.N,/A2*%
X103844600Y-115955400D02*
X103844600Y-111030000D01*
X102080000Y-122100000D02*
X102100000Y-122080000D01*
X102100000Y-117700000D02*
X103844600Y-115955400D01*
X102100000Y-122080000D02*
X102100000Y-117700000D01*
%TO.N,/N29*%
X95800000Y-102000000D02*
X95800000Y-90500000D01*
%TO.N,/N28*%
X98764600Y-111030000D02*
X97330000Y-111030000D01*
X99785000Y-87515000D02*
X101612900Y-87515000D01*
X97000000Y-110700000D02*
X97000000Y-90300000D01*
X97330000Y-111030000D02*
X97000000Y-110700000D01*
X97000000Y-90300000D02*
X99785000Y-87515000D01*
%TO.N,/N33*%
X151606600Y-103410000D02*
X151606600Y-98993400D01*
X155100000Y-95500000D02*
X155100000Y-87500000D01*
X151606600Y-98993400D02*
X155100000Y-95500000D01*
%TO.N,/N30*%
X135573700Y-93226300D02*
X137428600Y-93226300D01*
X133826600Y-94973400D02*
X135573700Y-93226300D01*
X133826600Y-103410000D02*
X133826600Y-94973400D01*
%TO.N,/N31*%
X147490700Y-93100000D02*
X147617000Y-93226300D01*
X136366600Y-103410000D02*
X136366600Y-96533400D01*
X139800000Y-93100000D02*
X147490700Y-93100000D01*
X136366600Y-96533400D02*
X139800000Y-93100000D01*
%TO.N,/N35*%
X141100000Y-98600000D02*
X138906600Y-100793400D01*
X141100000Y-94000000D02*
X141100000Y-98600000D01*
X138906600Y-100793400D02*
X138906600Y-103410000D01*
%TO.N,/N34*%
X141446600Y-103410000D02*
X141446600Y-100553400D01*
X151200000Y-94100000D02*
X151200000Y-86500000D01*
X149776800Y-85076800D02*
X146627500Y-85076800D01*
X151200000Y-86500000D02*
X149776800Y-85076800D01*
X145900000Y-99400000D02*
X151200000Y-94100000D01*
X142600000Y-99400000D02*
X145900000Y-99400000D01*
X141446600Y-100553400D02*
X142600000Y-99400000D01*
%TO.N,/N36*%
X141041500Y-82558500D02*
X141041500Y-83699900D01*
X146526600Y-102473400D02*
X147800000Y-101200000D01*
X147800000Y-101200000D02*
X147800000Y-98900000D01*
X149700000Y-82100000D02*
X141500000Y-82100000D01*
X152800000Y-85200000D02*
X149700000Y-82100000D01*
X147800000Y-98900000D02*
X152800000Y-93900000D01*
X146526600Y-103410000D02*
X146526600Y-102473400D01*
X141500000Y-82100000D02*
X141041500Y-82558500D01*
X152800000Y-93900000D02*
X152800000Y-85200000D01*
%TO.N,/N37*%
X154000000Y-94800000D02*
X154000000Y-82000000D01*
X149066600Y-99733400D02*
X154000000Y-94800000D01*
X138418100Y-81718100D02*
X138418100Y-85076800D01*
X139600000Y-80500000D02*
X138400000Y-81700000D01*
X138400000Y-81700000D02*
X138418100Y-81718100D01*
X152500000Y-80500000D02*
X139600000Y-80500000D01*
X149066600Y-103410000D02*
X149066600Y-99733400D01*
X154000000Y-82000000D02*
X152500000Y-80500000D01*
%TO.N,/N32*%
X153700000Y-110500000D02*
X153700000Y-98500000D01*
X156000000Y-96200000D02*
X156000000Y-90500000D01*
X153700000Y-98500000D02*
X156000000Y-96200000D01*
X153170000Y-111030000D02*
X153700000Y-110500000D01*
X151606600Y-111030000D02*
X153170000Y-111030000D01*
%TO.N,/C3*%
X149000000Y-113200000D02*
X149000000Y-111396600D01*
X162025000Y-122910000D02*
X158710000Y-122910000D01*
X158710000Y-122910000D02*
X149000000Y-113200000D01*
%TO.N,/B3*%
X162025000Y-124180000D02*
X156780000Y-124180000D01*
X156780000Y-124180000D02*
X146500000Y-113900000D01*
X146500000Y-113900000D02*
X146500000Y-111356600D01*
%TO.N,/D3*%
X153350000Y-125450000D02*
X141446600Y-113546600D01*
X141446600Y-113546600D02*
X141446600Y-111030000D01*
X162025000Y-125450000D02*
X153350000Y-125450000D01*
%TO.N,/A3*%
X151520000Y-126720000D02*
X138900000Y-114100000D01*
X162025000Y-126720000D02*
X151520000Y-126720000D01*
X138900000Y-114100000D02*
X138900000Y-111336600D01*
%TO.N,/N39*%
X127700000Y-101800000D02*
X127700000Y-90500000D01*
%TO.N,/N38*%
X133826600Y-111030000D02*
X131930000Y-111030000D01*
X130200000Y-109300000D02*
X130200000Y-88800000D01*
X131485000Y-87515000D02*
X136735100Y-87515000D01*
X131930000Y-111030000D02*
X130200000Y-109300000D01*
X130200000Y-88800000D02*
X131485000Y-87515000D01*
%TO.N,/N43*%
X181100000Y-95600000D02*
X176968600Y-99731400D01*
X176968600Y-99731400D02*
X176968600Y-103410000D01*
X181100000Y-87500000D02*
X181100000Y-95600000D01*
%TO.N,/N40*%
X160973700Y-93226300D02*
X162750400Y-93226300D01*
X159188600Y-103410000D02*
X159188600Y-95011400D01*
X159188600Y-95011400D02*
X160973700Y-93226300D01*
%TO.N,/N41*%
X161728600Y-103410000D02*
X161728600Y-96171400D01*
X161728600Y-96171400D02*
X164673700Y-93226300D01*
X164673700Y-93226300D02*
X172938800Y-93226300D01*
%TO.N,/N45*%
X166400000Y-97100000D02*
X164268600Y-99231400D01*
X166400000Y-94100000D02*
X166400000Y-97100000D01*
X164268600Y-99231400D02*
X164268600Y-103410000D01*
%TO.N,/N44*%
X167500000Y-99600000D02*
X171000000Y-99600000D01*
X171000000Y-99600000D02*
X177000000Y-93600000D01*
X177000000Y-86500000D02*
X175576800Y-85076800D01*
X175576800Y-85076800D02*
X171949300Y-85076800D01*
X166808600Y-100291400D02*
X167500000Y-99600000D01*
X166808600Y-103410000D02*
X166808600Y-100291400D01*
X177000000Y-93600000D02*
X177000000Y-86500000D01*
%TO.N,/N46*%
X178500000Y-84700000D02*
X175100000Y-81300000D01*
X178500000Y-94100000D02*
X178500000Y-84700000D01*
X171888600Y-103410000D02*
X171888600Y-100711400D01*
X171888600Y-100711400D02*
X178500000Y-94100000D01*
X167300000Y-81300000D02*
X166363300Y-82236700D01*
X166363300Y-82236700D02*
X166363300Y-83699900D01*
X175100000Y-81300000D02*
X167300000Y-81300000D01*
%TO.N,/N47*%
X179900000Y-81200000D02*
X177700000Y-79000000D01*
X179900000Y-95000000D02*
X179900000Y-81200000D01*
X174428600Y-103410000D02*
X174428600Y-100471400D01*
X177700000Y-79000000D02*
X165600000Y-79000000D01*
X163739900Y-80860100D02*
X163739900Y-85076800D01*
X174428600Y-100471400D02*
X179900000Y-95000000D01*
X165600000Y-79000000D02*
X163739900Y-80860100D01*
%TO.N,/N42*%
X180270000Y-111030000D02*
X176968600Y-111030000D01*
X182800000Y-108500000D02*
X180270000Y-111030000D01*
X182800000Y-90500000D02*
X182800000Y-108500000D01*
%TO.N,/C4*%
X165260000Y-121640000D02*
X171900000Y-115000000D01*
X171900000Y-115000000D02*
X173300000Y-115000000D01*
X174428600Y-113871400D02*
X174428600Y-111030000D01*
X162025000Y-121640000D02*
X165260000Y-121640000D01*
X173300000Y-115000000D02*
X174428600Y-113871400D01*
%TO.N,/B4*%
X162025000Y-120370000D02*
X165230000Y-120370000D01*
X171888600Y-113711400D02*
X171888600Y-111030000D01*
X165230000Y-120370000D02*
X171888600Y-113711400D01*
%TO.N,/D4*%
X165100000Y-119100000D02*
X166808600Y-117391400D01*
X166808600Y-117391400D02*
X166808600Y-111030000D01*
X162025000Y-119100000D02*
X165100000Y-119100000D01*
%TO.N,/A4*%
X162025000Y-116075000D02*
X164268600Y-113831400D01*
X164268600Y-113831400D02*
X164268600Y-111030000D01*
X162025000Y-117830000D02*
X162025000Y-116075000D01*
%TO.N,/N49*%
X156500000Y-101600000D02*
X156500000Y-98800000D01*
%TO.N,/N48*%
X159485000Y-87515000D02*
X162056900Y-87515000D01*
X157300000Y-89700000D02*
X159485000Y-87515000D01*
X158130000Y-111030000D02*
X157300000Y-110200000D01*
X157300000Y-110200000D02*
X157300000Y-89700000D01*
X159188600Y-111030000D02*
X158130000Y-111030000D01*
%TO.N,/RSTIO*%
X173687500Y-130600000D02*
X173687500Y-135287500D01*
D31*
X171395000Y-130600000D02*
X171325000Y-130530000D01*
D33*
X173687500Y-135287500D02*
X173700000Y-135300000D01*
D31*
X173687500Y-130600000D02*
X171395000Y-130600000D01*
D33*
%TO.N,/RSTC*%
X131062000Y-128830000D02*
X124730000Y-128830000D01*
X124730000Y-128830000D02*
X124700000Y-128800000D01*
%TO.N,/S1*%
X132000000Y-139600000D02*
X133485000Y-139600000D01*
X133485000Y-139600000D02*
X133525000Y-139640000D01*
D31*
%TO.N,+3V3*%
X151550000Y-142840000D02*
X151550000Y-145250000D01*
D32*
X145112500Y-123912500D02*
X145112500Y-126300000D01*
D31*
X149600000Y-126300000D02*
X145112500Y-126300000D01*
X178650000Y-144700000D02*
X178600000Y-144700000D01*
X160625000Y-145275000D02*
X160600000Y-145300000D01*
X151500000Y-145300000D02*
X160600000Y-145300000D01*
X142600000Y-145300000D02*
X151500000Y-145300000D01*
X178800000Y-130600000D02*
X175512500Y-130600000D01*
X151600000Y-144700000D02*
X152200000Y-145300000D01*
X169625000Y-145225000D02*
X169700000Y-145300000D01*
X160600000Y-144700000D02*
X160000000Y-145300000D01*
X158500000Y-136400000D02*
X156987500Y-134887500D01*
X178650000Y-142840000D02*
X178650000Y-144700000D01*
X151550000Y-145250000D02*
X151500000Y-145300000D01*
X182600000Y-144600000D02*
X182600000Y-134400000D01*
X116600000Y-145300000D02*
X133600000Y-145300000D01*
X142500000Y-144700000D02*
X141900000Y-145300000D01*
X182600000Y-134400000D02*
X178800000Y-130600000D01*
D34*
X114780000Y-138680000D02*
X114780000Y-139880000D01*
D31*
X160625000Y-142840000D02*
X160625000Y-145275000D01*
X156987500Y-134887500D02*
X156987500Y-133100000D01*
D32*
X144100000Y-122900000D02*
X145112500Y-123912500D01*
D31*
X142600000Y-144700000D02*
X143200000Y-145300000D01*
X114780000Y-139880000D02*
X114780000Y-143480000D01*
X114780000Y-143480000D02*
X116600000Y-145300000D01*
X175512500Y-130600000D02*
X175512500Y-134987500D01*
X175512500Y-134987500D02*
X174100000Y-136400000D01*
X160700000Y-144700000D02*
X161300000Y-145300000D01*
D32*
X142212500Y-122900000D02*
X144100000Y-122900000D01*
D31*
X181900000Y-145300000D02*
X182600000Y-144600000D01*
X178650000Y-145250000D02*
X178600000Y-145300000D01*
X178650000Y-144700000D02*
X178650000Y-145250000D01*
X178000000Y-145300000D02*
X178600000Y-145300000D01*
X169700000Y-144700000D02*
X170300000Y-145300000D01*
X169700000Y-145300000D02*
X178000000Y-145300000D01*
X133600000Y-145300000D02*
X142600000Y-145300000D01*
X154300000Y-131000000D02*
X149600000Y-126300000D01*
X133500000Y-144700000D02*
X132900000Y-145300000D01*
X133600000Y-144700000D02*
X134200000Y-145300000D01*
X142550000Y-145250000D02*
X142600000Y-145300000D01*
X133525000Y-145225000D02*
X133600000Y-145300000D01*
X178700000Y-144700000D02*
X179300000Y-145300000D01*
X178600000Y-145300000D02*
X179300000Y-145300000D01*
X178600000Y-144700000D02*
X178000000Y-145300000D01*
X179300000Y-145300000D02*
X181900000Y-145300000D01*
X151500000Y-144700000D02*
X150900000Y-145300000D01*
X174100000Y-136400000D02*
X158500000Y-136400000D01*
X169600000Y-144700000D02*
X169000000Y-145300000D01*
X156987500Y-133100000D02*
X156987500Y-131000000D01*
X178650000Y-144700000D02*
X178700000Y-144700000D01*
X169625000Y-142840000D02*
X169625000Y-145225000D01*
X133525000Y-142840000D02*
X133525000Y-145225000D01*
X156987500Y-131000000D02*
X154300000Y-131000000D01*
X142550000Y-142840000D02*
X142550000Y-145250000D01*
D34*
X114500000Y-138400000D02*
X114780000Y-138680000D01*
X78300000Y-138400000D02*
X114500000Y-138400000D01*
D31*
X160600000Y-145300000D02*
X169700000Y-145300000D01*
D33*
%TO.N,/S2*%
X141000000Y-139600000D02*
X142510000Y-139600000D01*
X142510000Y-139600000D02*
X142550000Y-139640000D01*
%TO.N,/S3*%
X151510000Y-139600000D02*
X151550000Y-139640000D01*
X149700000Y-139600000D02*
X151510000Y-139600000D01*
%TO.N,/S4*%
X159000000Y-139700000D02*
X160565000Y-139700000D01*
X160565000Y-139700000D02*
X160625000Y-139640000D01*
%TO.N,/SCL1*%
X130700000Y-122900000D02*
X130447600Y-122647600D01*
X141200000Y-120000000D02*
X143100000Y-120000000D01*
D31*
X160700000Y-131800000D02*
X159900000Y-131000000D01*
X140387500Y-124994500D02*
X140362000Y-125020000D01*
D33*
X127552400Y-122647600D02*
X126600000Y-123600000D01*
X143100000Y-120000000D02*
X147800000Y-124700000D01*
X140387500Y-120812500D02*
X141200000Y-120000000D01*
D31*
X140387500Y-122900000D02*
X140387500Y-124994500D01*
D33*
X163900000Y-131800000D02*
X162025000Y-131800000D01*
X140387500Y-122900000D02*
X140387500Y-120812500D01*
X126600000Y-123600000D02*
X78180000Y-123600000D01*
X140387500Y-122900000D02*
X130700000Y-122900000D01*
X147800000Y-124700000D02*
X147800000Y-125100000D01*
X130447600Y-122647600D02*
X127552400Y-122647600D01*
D31*
X159900000Y-131000000D02*
X158812500Y-131000000D01*
X162025000Y-131800000D02*
X160700000Y-131800000D01*
D33*
X78180000Y-123600000D02*
X76680000Y-122100000D01*
%TO.N,/SDA1*%
X158800000Y-133112500D02*
X158812500Y-133100000D01*
D31*
X143277500Y-126290000D02*
X143287500Y-126300000D01*
X158812500Y-133100000D02*
X161995000Y-133100000D01*
D33*
X143287500Y-126300000D02*
X143287500Y-124912500D01*
X143287500Y-124912500D02*
X143300000Y-124900000D01*
D31*
X161995000Y-133100000D02*
X162025000Y-133070000D01*
X140362000Y-126290000D02*
X143277500Y-126290000D01*
D33*
X158800000Y-135400000D02*
X158800000Y-133112500D01*
X90400000Y-124300000D02*
X79200000Y-124300000D01*
X118100000Y-124300000D02*
X90400000Y-124300000D01*
%TO.N,/N50*%
X195226000Y-103410000D02*
X195226000Y-95074000D01*
X195226000Y-95074000D02*
X197073700Y-93226300D01*
X197073700Y-93226300D02*
X198506000Y-93226300D01*
%TO.N,/N51*%
X197766000Y-103410000D02*
X197766000Y-96034000D01*
X197766000Y-96034000D02*
X200573700Y-93226300D01*
X200573700Y-93226300D02*
X208694400Y-93226300D01*
%TO.N,/N52*%
X215000000Y-110600000D02*
X215000000Y-98700000D01*
X214570000Y-111030000D02*
X215000000Y-110600000D01*
X213006000Y-111030000D02*
X214570000Y-111030000D01*
%TO.N,/N53*%
X215700000Y-87515000D02*
X215700000Y-96100000D01*
X213006000Y-98794000D02*
X213006000Y-103410000D01*
X215700000Y-96100000D02*
X213006000Y-98794000D01*
%TO.N,/N54*%
X211376800Y-85076800D02*
X207704900Y-85076800D01*
X202846000Y-100254000D02*
X203400000Y-99700000D01*
X212800000Y-86500000D02*
X211376800Y-85076800D01*
X203400000Y-99700000D02*
X206200000Y-99700000D01*
X206200000Y-99700000D02*
X212800000Y-93100000D01*
X212800000Y-93100000D02*
X212800000Y-86500000D01*
X202846000Y-103410000D02*
X202846000Y-100254000D01*
%TO.N,/N55*%
X202200000Y-97800000D02*
X202200000Y-94700000D01*
X202200000Y-94700000D02*
X202200000Y-94100000D01*
X201900000Y-98100000D02*
X202200000Y-97800000D01*
X200306000Y-103410000D02*
X200306000Y-99694000D01*
X200306000Y-99694000D02*
X201900000Y-98100000D01*
%TO.N,/N56*%
X207926000Y-99724000D02*
X213800000Y-93850000D01*
X213800000Y-82700000D02*
X212800000Y-81700000D01*
X207926000Y-103410000D02*
X207926000Y-99724000D01*
X212800000Y-81700000D02*
X202800000Y-81700000D01*
X202800000Y-81700000D02*
X202118900Y-82381100D01*
X202118900Y-82381100D02*
X202118900Y-83699900D01*
X213800000Y-93850000D02*
X213800000Y-82700000D01*
%TO.N,/N57*%
X210466000Y-103410000D02*
X210466000Y-98934000D01*
X213200000Y-80600000D02*
X201200000Y-80600000D01*
X199495500Y-82304500D02*
X199495500Y-85076800D01*
X201200000Y-80600000D02*
X199495500Y-82304500D01*
X214700000Y-82100000D02*
X213200000Y-80600000D01*
X214700000Y-94700000D02*
X214700000Y-82100000D01*
X210466000Y-98934000D02*
X214700000Y-94700000D01*
%TO.N,/N58*%
X193830000Y-111030000D02*
X192300000Y-109500000D01*
X192300000Y-109500000D02*
X192300000Y-90900000D01*
X192300000Y-90900000D02*
X195685000Y-87515000D01*
X195226000Y-111030000D02*
X193830000Y-111030000D01*
X195685000Y-87515000D02*
X197812500Y-87515000D01*
%TO.N,/N59*%
X190000000Y-92701632D02*
X190000000Y-90500000D01*
X190000000Y-101800000D02*
X190000000Y-92701632D01*
%TO.N,/N60*%
X220260000Y-103410000D02*
X220260000Y-95340000D01*
X220260000Y-95340000D02*
X222373700Y-93226300D01*
X222373700Y-93226300D02*
X223835200Y-93226300D01*
%TO.N,/N61*%
X233897300Y-93100000D02*
X234023600Y-93226300D01*
X222800000Y-103410000D02*
X222800000Y-96300000D01*
X226000000Y-93100000D02*
X233897300Y-93100000D01*
X222800000Y-96300000D02*
X226000000Y-93100000D01*
%TO.N,/N62*%
X240070000Y-111030000D02*
X238040000Y-111030000D01*
X243400000Y-107700000D02*
X240070000Y-111030000D01*
X243400000Y-90500000D02*
X243400000Y-107700000D01*
%TO.N,/N63*%
X242100000Y-95200000D02*
X242100000Y-87500000D01*
X238040000Y-99260000D02*
X242100000Y-95200000D01*
X238040000Y-103410000D02*
X238040000Y-99260000D01*
%TO.N,/N64*%
X238100000Y-93400000D02*
X238100000Y-87000000D01*
X227880000Y-103410000D02*
X227880000Y-101020000D01*
X231800000Y-99700000D02*
X238100000Y-93400000D01*
X229200000Y-99700000D02*
X231800000Y-99700000D01*
X238100000Y-87000000D02*
X236176800Y-85076800D01*
X227880000Y-101020000D02*
X229200000Y-99700000D01*
X236176800Y-85076800D02*
X233034100Y-85076800D01*
%TO.N,/N65*%
X225340000Y-99160000D02*
X225340000Y-103410000D01*
X227700000Y-96800000D02*
X225340000Y-99160000D01*
X227700000Y-93900000D02*
X227700000Y-96800000D01*
%TO.N,/N66*%
X232960000Y-100540000D02*
X239200000Y-94300000D01*
X239200000Y-86600000D02*
X234300000Y-81700000D01*
X228100000Y-81700000D02*
X227448100Y-82351900D01*
X234300000Y-81700000D02*
X228100000Y-81700000D01*
X227448100Y-82351900D02*
X227448100Y-83699900D01*
X239200000Y-94300000D02*
X239200000Y-86600000D01*
X232960000Y-103410000D02*
X232960000Y-100540000D01*
%TO.N,/N67*%
X226300000Y-80600000D02*
X224800000Y-82100000D01*
X224800000Y-82100000D02*
X224824700Y-82124700D01*
X224824700Y-82124700D02*
X224824700Y-85076800D01*
X240400000Y-86500000D02*
X234500000Y-80600000D01*
X235500000Y-99800000D02*
X240400000Y-94900000D01*
X234500000Y-80600000D02*
X226300000Y-80600000D01*
X235500000Y-103410000D02*
X235500000Y-99800000D01*
X240400000Y-94900000D02*
X240400000Y-86500000D01*
%TO.N,/N68*%
X218200000Y-90200000D02*
X220885000Y-87515000D01*
X220260000Y-111030000D02*
X218630000Y-111030000D01*
X218630000Y-111030000D02*
X218200000Y-110600000D01*
X220885000Y-87515000D02*
X223141700Y-87515000D01*
X218200000Y-110600000D02*
X218200000Y-90200000D01*
%TO.N,/N69*%
X216900000Y-90500000D02*
X216900000Y-101700000D01*
%TO.N,/C5*%
X171325000Y-121640000D02*
X207360000Y-121640000D01*
X210466000Y-118534000D02*
X210466000Y-111030000D01*
X207360000Y-121640000D02*
X210466000Y-118534000D01*
%TO.N,/B5*%
X171395000Y-120300000D02*
X203900000Y-120300000D01*
X203900000Y-120300000D02*
X207926000Y-116274000D01*
X171325000Y-120370000D02*
X171395000Y-120300000D01*
X207926000Y-116274000D02*
X207926000Y-111030000D01*
%TO.N,/D5*%
X185800000Y-119100000D02*
X186300000Y-119600000D01*
X201400000Y-119600000D02*
X202800000Y-118200000D01*
X186300000Y-119600000D02*
X201400000Y-119600000D01*
X202800000Y-111076000D02*
X202846000Y-111030000D01*
X202800000Y-118200000D02*
X202800000Y-111076000D01*
X171325000Y-119100000D02*
X185800000Y-119100000D01*
%TO.N,/A5*%
X187000000Y-118700000D02*
X197800000Y-118700000D01*
X200300000Y-111036000D02*
X200306000Y-111030000D01*
X171325000Y-117830000D02*
X186130000Y-117830000D01*
X200300000Y-116200000D02*
X200300000Y-111036000D01*
X197800000Y-118700000D02*
X200300000Y-116200000D01*
X186130000Y-117830000D02*
X187000000Y-118700000D01*
%TO.N,/C6*%
X235500000Y-114100000D02*
X235500000Y-111030000D01*
X230800000Y-118800000D02*
X235500000Y-114100000D01*
X217700000Y-118800000D02*
X230800000Y-118800000D01*
X171325000Y-126720000D02*
X209780000Y-126720000D01*
X209780000Y-126720000D02*
X217700000Y-118800000D01*
%TO.N,/B6*%
X171325000Y-125450000D02*
X208850000Y-125450000D01*
X232960000Y-114040000D02*
X232960000Y-111030000D01*
X229400000Y-117600000D02*
X232960000Y-114040000D01*
X216700000Y-117600000D02*
X229400000Y-117600000D01*
X208850000Y-125450000D02*
X216700000Y-117600000D01*
%TO.N,/D6*%
X171325000Y-124180000D02*
X208320000Y-124180000D01*
X225600000Y-116200000D02*
X227880000Y-113920000D01*
X227880000Y-113920000D02*
X227880000Y-111030000D01*
X216300000Y-116200000D02*
X225600000Y-116200000D01*
X208320000Y-124180000D02*
X216300000Y-116200000D01*
%TO.N,/A6*%
X216100000Y-114400000D02*
X224700000Y-114400000D01*
X207590000Y-122910000D02*
X216100000Y-114400000D01*
X225340000Y-113760000D02*
X225340000Y-111030000D01*
X224700000Y-114400000D02*
X225340000Y-113760000D01*
X171325000Y-122910000D02*
X207590000Y-122910000D01*
%TO.N,/TX*%
X72780000Y-128420000D02*
X69600000Y-128420000D01*
X122400000Y-125300000D02*
X120500000Y-125300000D01*
X120000000Y-125800000D02*
X75400000Y-125800000D01*
X75400000Y-125800000D02*
X72780000Y-128420000D01*
X120500000Y-125300000D02*
X120000000Y-125800000D01*
%TO.N,/RX*%
X123100000Y-124500000D02*
X120200000Y-124500000D01*
X120200000Y-124500000D02*
X119600000Y-125100000D01*
X74400000Y-125100000D02*
X73620000Y-125880000D01*
X73620000Y-125880000D02*
X69600000Y-125880000D01*
X119600000Y-125100000D02*
X74400000Y-125100000D01*
%TO.N,/S5*%
X169565000Y-139700000D02*
X169625000Y-139640000D01*
X167700000Y-139700000D02*
X169565000Y-139700000D01*
%TO.N,/S6*%
X178700000Y-138000000D02*
X178700000Y-139590000D01*
X119200000Y-131500000D02*
X121400000Y-131500000D01*
X78700000Y-136000000D02*
X114700000Y-136000000D01*
X178700000Y-139590000D02*
X178650000Y-139640000D01*
X76680000Y-139880000D02*
X76680000Y-138020000D01*
X114700000Y-136000000D02*
X119200000Y-131500000D01*
X76680000Y-138020000D02*
X78700000Y-136000000D01*
D31*
%TO.N,Net-(IC10-FB)*%
X232200000Y-122300000D02*
X232800000Y-122900000D01*
X233400000Y-123500000D02*
X236700000Y-123500000D01*
X221700000Y-122300000D02*
X232200000Y-122300000D01*
X220900000Y-123100000D02*
X221700000Y-122300000D01*
X232800000Y-122900000D02*
X233400000Y-123500000D01*
X220900000Y-128500000D02*
X220900000Y-123100000D01*
D32*
%TO.N,Net-(BAT1-+)*%
X146440000Y-127560000D02*
X146500000Y-127500000D01*
X140362000Y-127560000D02*
X146440000Y-127560000D01*
%TD*%
M02*
