%TF.GenerationSoftware,KiCad,Pcbnew,7.0.5-0*%
%TF.CreationDate,2023-12-20T20:01:57-05:00*%
%TF.ProjectId,nixie,6e697869-652e-46b6-9963-61645f706362,rev?*%
%TF.SameCoordinates,Original*%
%TF.FileFunction,Paste,Bot*%
%TF.FilePolarity,Positive*%
%FSLAX46Y46*%
G04 Gerber Fmt 4.6, Leading zero omitted, Abs format (unit mm)*
G04 Created by KiCad (PCBNEW 7.0.5-0) date 2023-12-20 20:01:57*
%MOMM*%
%LPD*%
G01*
G04 APERTURE LIST*
G04 Aperture macros list*
%AMRoundRect*
0 Rectangle with rounded corners*
0 $1 Rounding radius*
0 $2 $3 $4 $5 $6 $7 $8 $9 X,Y pos of 4 corners*
0 Add a 4 corners polygon primitive as box body*
4,1,4,$2,$3,$4,$5,$6,$7,$8,$9,$2,$3,0*
0 Add four circle primitives for the rounded corners*
1,1,$1+$1,$2,$3*
1,1,$1+$1,$4,$5*
1,1,$1+$1,$6,$7*
1,1,$1+$1,$8,$9*
0 Add four rect primitives between the rounded corners*
20,1,$1+$1,$2,$3,$4,$5,0*
20,1,$1+$1,$4,$5,$6,$7,0*
20,1,$1+$1,$6,$7,$8,$9,0*
20,1,$1+$1,$8,$9,$2,$3,0*%
G04 Aperture macros list end*
%ADD10RoundRect,0.250000X0.250000X0.475000X-0.250000X0.475000X-0.250000X-0.475000X0.250000X-0.475000X0*%
%ADD11R,1.800000X1.150000*%
%ADD12RoundRect,0.250000X0.475000X-0.250000X0.475000X0.250000X-0.475000X0.250000X-0.475000X-0.250000X0*%
%ADD13R,1.250000X0.600000*%
%ADD14RoundRect,0.235000X-0.940000X-1.465000X0.940000X-1.465000X0.940000X1.465000X-0.940000X1.465000X0*%
%ADD15RoundRect,0.250000X0.262500X0.450000X-0.262500X0.450000X-0.262500X-0.450000X0.262500X-0.450000X0*%
%ADD16RoundRect,0.250000X0.450000X-0.262500X0.450000X0.262500X-0.450000X0.262500X-0.450000X-0.262500X0*%
%ADD17RoundRect,0.250000X-0.250000X-0.475000X0.250000X-0.475000X0.250000X0.475000X-0.250000X0.475000X0*%
%ADD18RoundRect,0.250000X-0.475000X0.250000X-0.475000X-0.250000X0.475000X-0.250000X0.475000X0.250000X0*%
%ADD19RoundRect,0.250000X-0.262500X-0.450000X0.262500X-0.450000X0.262500X0.450000X-0.262500X0.450000X0*%
G04 APERTURE END LIST*
D10*
%TO.C,C6*%
X122450000Y-137600000D03*
X120550000Y-137600000D03*
%TD*%
%TO.C,C18*%
X240450000Y-121700000D03*
X238550000Y-121700000D03*
%TD*%
D11*
%TO.C,C10*%
X224987500Y-135400000D03*
X227587500Y-135400000D03*
%TD*%
D12*
%TO.C,C1*%
X83842600Y-109350000D03*
X83842600Y-107450000D03*
%TD*%
%TO.C,C4*%
X169300000Y-109350000D03*
X169300000Y-107450000D03*
%TD*%
%TO.C,C9*%
X230434000Y-109350000D03*
X230434000Y-107450000D03*
%TD*%
%TO.C,C2*%
X108934000Y-109350000D03*
X108934000Y-107450000D03*
%TD*%
D13*
%TO.C,IC10*%
X225037500Y-126550000D03*
X225037500Y-127500000D03*
X225037500Y-128450000D03*
X222537500Y-128450000D03*
X222537500Y-127500000D03*
X222537500Y-126550000D03*
%TD*%
D14*
%TO.C,L1*%
X228875000Y-127600000D03*
X234925000Y-127600000D03*
%TD*%
D15*
%TO.C,R12*%
X223100000Y-132900000D03*
X221275000Y-132900000D03*
%TD*%
D16*
%TO.C,R14*%
X240500000Y-125700000D03*
X240500000Y-123875000D03*
%TD*%
D15*
%TO.C,R3*%
X144312500Y-98500000D03*
X142487500Y-98500000D03*
%TD*%
D12*
%TO.C,C3*%
X144000000Y-109350000D03*
X144000000Y-107450000D03*
%TD*%
D17*
%TO.C,C13*%
X225000000Y-130600000D03*
X226900000Y-130600000D03*
%TD*%
D18*
%TO.C,C16*%
X240500000Y-127550000D03*
X240500000Y-129450000D03*
%TD*%
D19*
%TO.C,R8*%
X228987500Y-98500000D03*
X230812500Y-98500000D03*
%TD*%
D10*
%TO.C,C11*%
X122450000Y-135400000D03*
X120550000Y-135400000D03*
%TD*%
D15*
%TO.C,R2*%
X109212500Y-98500000D03*
X107387500Y-98500000D03*
%TD*%
D17*
%TO.C,C14*%
X222550000Y-123800000D03*
X224450000Y-123800000D03*
%TD*%
D18*
%TO.C,C15*%
X238200000Y-127550000D03*
X238200000Y-129450000D03*
%TD*%
D15*
%TO.C,R4*%
X169712500Y-98500000D03*
X167887500Y-98500000D03*
%TD*%
D19*
%TO.C,R7*%
X203587500Y-98500000D03*
X205412500Y-98500000D03*
%TD*%
D15*
%TO.C,R1*%
X83912500Y-98500000D03*
X82087500Y-98500000D03*
%TD*%
D17*
%TO.C,C12*%
X225000000Y-132900000D03*
X226900000Y-132900000D03*
%TD*%
D15*
%TO.C,R15*%
X240412500Y-118400000D03*
X238587500Y-118400000D03*
%TD*%
%TO.C,R16*%
X236712500Y-121700000D03*
X234887500Y-121700000D03*
%TD*%
%TO.C,R13*%
X219200000Y-132900000D03*
X217375000Y-132900000D03*
%TD*%
D12*
%TO.C,C8*%
X205434000Y-109350000D03*
X205434000Y-107450000D03*
%TD*%
M02*
