M48
; DRILL file {KiCad 7.0.5-0} date 2023 July 08, Saturday 10:36:10
; FORMAT={-:-/ absolute / inch / decimal}
; #@! TF.CreationDate,2023-07-08T10:36:10-04:00
; #@! TF.GenerationSoftware,Kicad,Pcbnew,7.0.5-0
; #@! TF.FileFunction,Plated,1,4,PTH
FMAT,2
INCH
; #@! TA.AperFunction,Plated,PTH,ViaDrill
T1C0.0118
; #@! TA.AperFunction,Plated,PTH,ViaDrill
T2C0.0197
; #@! TA.AperFunction,Plated,PTH,ComponentDrill
T3C0.0197
; #@! TA.AperFunction,Plated,PTH,ComponentDrill
T4C0.0331
; #@! TA.AperFunction,Plated,PTH,ComponentDrill
T5C0.0354
; #@! TA.AperFunction,Plated,PTH,ComponentDrill
T6C0.0433
; #@! TA.AperFunction,Plated,PTH,ViaDrill
T7C0.0472
; #@! TA.AperFunction,Plated,PTH,ComponentDrill
T8C0.0500
; #@! TA.AperFunction,Plated,PTH,ComponentDrill
T9C0.0512
; #@! TA.AperFunction,Plated,PTH,ComponentDrill
T10C0.1378
%
G90
G05
T1
X3.1024Y-3.6102
X3.1772Y-3.6929
X3.2835Y-3.4567
X3.2835Y-3.6929
X3.6654Y-3.5591
X3.7165Y-3.4457
X3.7756Y-3.3543
X4.1732Y-3.6929
X4.2795Y-3.6929
X4.3661Y-3.5079
X4.5315Y-4.4961
X4.6457Y-3.5079
X4.6496Y-4.1102
X4.7126Y-3.563
X4.7717Y-3.9528
X5.0551Y-4.4252
X5.0591Y-4.8661
X5.1024Y-3.563
X5.1693Y-3.4449
X5.2283Y-4.8701
X5.5591Y-3.6929
X5.6457Y-5.0079
X5.6614Y-3.689
X5.7087Y-5.0276
X6.0472Y-3.5591
X6.1339Y-3.5591
X6.1693Y-3.4449
X6.2047Y-5.3976
X6.4528Y-4.935
X6.5197Y-5.1339
X6.5354Y-5.4016
X6.5591Y-3.6929
X6.5787Y-5.1063
X6.6614Y-3.689
X6.8386Y-5.4016
X7.0669Y-3.563
X7.4803Y-3.563
X7.563Y-3.4488
X7.9646Y-3.689
X8.0748Y-3.689
X8.4449Y-3.563
X8.4882Y-4.122
X8.5472Y-3.563
X8.7008Y-4.122
X8.9646Y-3.689
X9.0748Y-3.689
X9.5236Y-3.563
T2
X2.626Y-3.5039
X2.6299Y-3.9213
X2.6339Y-3.7205
X2.6339Y-4.1142
X2.6339Y-5.2756
X2.6614Y-4.4488
X2.6732Y-4.3307
X2.8031Y-5.1839
X2.8976Y-4.6181
X2.9173Y-5.5787
X2.9252Y-4.4449
X2.9606Y-3.2126
X3.0945Y-3.5433
X3.1417Y-4.1969
X3.1575Y-5.1575
X3.1654Y-5.5984
X3.2402Y-4.878
X3.3071Y-5.1969
X3.3307Y-5.0906
X3.3443Y-3.5969
X3.4094Y-4.9764
X3.4646Y-4.1575
X3.5118Y-5.0866
X3.5236Y-4.878
X3.5276Y-5.1693
X3.5889Y-3.26
X3.5945Y-5.5984
X3.6339Y-3.3858
X3.6457Y-3.4921
X3.6772Y-4.3937
X3.7087Y-5.0906
X3.7126Y-3.3701
X3.7303Y-3.2431
X3.7638Y-4.874
X3.8346Y-4.4213
X3.8346Y-5.1929
X3.8465Y-3.2559
X3.9646Y-5.122
X4.0276Y-5.5906
X4.0906Y-4.8819
X4.1176Y-3.6202
X4.1378Y-5.189
X4.2441Y-5.0591
X4.315Y-4.8819
X4.3346Y-5.185
X4.3425Y-3.6063
X4.374Y-5.6024
X4.4291Y-3.9449
X4.4724Y-5.0591
X4.5669Y-4.1575
X4.567Y-5.1755
X4.5709Y-4.8858
X4.5984Y-5.5945
X4.6102Y-3.2638
X4.6378Y-5.0709
X4.6535Y-3.6417
X4.6614Y-3.4606
X4.6732Y-3.3701
X4.6811Y-4.3701
X4.689Y-4.8661
X4.8228Y-3.2126
X4.8268Y-4.1575
X4.8346Y-3.4567
X4.8504Y-3.3346
X4.8661Y-5.0079
X4.8701Y-3.6457
X4.878Y-3.9803
X4.8819Y-5.5945
X4.8858Y-4.8937
X4.89Y-5.0877
X4.9055Y-3.7874
X4.9134Y-4.3701
X4.9409Y-4.126
X4.9488Y-3.1339
X4.9498Y-3.3069
X5.0039Y-3.5079
X5.0079Y-3.7795
X5.0118Y-4.0118
X5.0157Y-3.6417
X5.0236Y-4.3346
X5.0394Y-4.6417
X5.0472Y-4.815
X5.0472Y-5.3622
X5.0689Y-3.2751
X5.0787Y-3.378
X5.0787Y-4.7323
X5.0906Y-3.4803
X5.1732Y-4.3701
X5.1772Y-5.5945
X5.2126Y-3.2913
X5.2323Y-4.5787
X5.2402Y-3.1417
X5.2835Y-4.6654
X5.378Y-5.0748
X5.3819Y-4.5906
X5.4094Y-5.3268
X5.4173Y-4.9724
X5.4362Y-4.6844
X5.4449Y-4.1811
X5.4961Y-3.6063
X5.5079Y-3.1339
X5.7126Y-5.3346
X5.7559Y-4.4961
X5.8346Y-3.1535
X5.8661Y-4.8701
X5.9213Y-4.1654
X6.0079Y-4.8701
X6.0315Y-5.3228
X6.0354Y-3.4803
X6.0394Y-4.4291
X6.0512Y-3.3937
X6.0827Y-5.0157
X6.0906Y-3.7047
X6.1063Y-3.2323
X6.1063Y-3.4606
X6.1732Y-3.378
X6.2008Y-4.5039
X6.2913Y-4.9803
X6.315Y-3.1969
X6.3583Y-5.3268
X6.3782Y-3.1163
X6.4449Y-4.1811
X6.4803Y-3.622
X6.5157Y-5.0748
X6.5276Y-5.5118
X6.6575Y-5.3228
X6.6693Y-3.122
X6.811Y-3.7559
X6.8386Y-5.5197
X6.8543Y-5.1339
X6.937Y-4.1614
X6.9488Y-3.2244
X6.9724Y-4.437
X7.0Y-5.4921
X7.0097Y-5.3684
X7.0394Y-3.5118
X7.0394Y-4.9724
X7.1142Y-3.2677
X7.1339Y-3.7087
X7.1496Y-4.3543
X7.1732Y-5.5512
X7.1969Y-3.4803
X7.2047Y-4.0394
X7.2047Y-4.9449
X7.2677Y-3.8346
X7.2717Y-5.3701
X7.315Y-4.5315
X7.3386Y-5.1969
X7.3504Y-3.1299
X7.3543Y-4.1102
X7.3543Y-4.3425
X7.3622Y-3.9724
X7.3701Y-3.4921
X7.4882Y-5.0472
X7.4961Y-3.4882
X7.5Y-3.2756
X7.5276Y-3.3858
X7.5354Y-5.4843
X7.6417Y-5.4606
X7.6496Y-5.2441
X7.7008Y-3.2402
X7.7008Y-5.0276
X7.7835Y-4.5079
X7.8031Y-5.2441
X7.8425Y-5.4094
X7.874Y-4.1693
X7.8756Y-5.5447
X7.9331Y-5.0354
X7.9685Y-5.4016
X7.9947Y-4.5258
X8.0118Y-3.6063
X8.0197Y-3.6929
X8.0787Y-5.4449
X8.1575Y-4.5551
X8.2559Y-5.0276
X8.2677Y-4.6575
X8.315Y-4.1732
X8.4134Y-4.4882
X8.4173Y-4.622
X8.4291Y-3.2439
X8.4331Y-3.4961
X8.4488Y-3.378
X8.4882Y-4.1772
X8.4961Y-4.9331
X8.4961Y-5.0433
X8.5315Y-5.3425
X8.5551Y-5.4843
X8.5669Y-4.5827
X8.5709Y-3.5
X8.6395Y-3.2506
X8.6614Y-4.5039
X8.6811Y-5.4094
X8.7205Y-4.1732
X9.0197Y-3.6181
X9.0197Y-3.7008
X9.126Y-5.3858
X9.2598Y-5.5669
X9.2835Y-3.2008
X9.3033Y-4.1882
X9.3465Y-5.5079
X9.3583Y-4.5551
X9.3604Y-4.4725
X9.4724Y-3.4606
X9.4764Y-4.4291
X9.5157Y-4.2835
X9.5157Y-5.0433
X9.5197Y-4.5906
X9.5906Y-3.5118
X9.6614Y-3.9213
X9.6693Y-3.6102
X9.6772Y-4.2087
X9.6772Y-5.2598
X9.685Y-4.6654
X9.689Y-4.4409
X9.7008Y-4.9488
T3
X2.6526Y-3.2431
X2.6526Y-5.4488
X2.6828Y-3.17
X2.6828Y-3.3162
X2.6828Y-5.3757
X2.6828Y-5.5219
X2.7559Y-3.1398
X2.7559Y-3.3465
X2.7559Y-5.3455
X2.7559Y-5.5522
X2.829Y-3.17
X2.829Y-3.3162
X2.829Y-5.3757
X2.829Y-5.5219
X2.8593Y-3.2431
X2.8593Y-5.4488
X9.4439Y-3.2362
X9.4439Y-5.4488
X9.4742Y-3.1631
X9.4742Y-3.3093
X9.4742Y-5.3757
X9.4742Y-5.5219
X9.5472Y-3.1329
X9.5472Y-3.3396
X9.5472Y-5.3455
X9.5472Y-5.5522
X9.6203Y-3.1631
X9.6203Y-3.3093
X9.6203Y-5.3757
X9.6203Y-5.5219
X9.6506Y-3.2362
X9.6506Y-5.4488
T4
X2.9895Y-3.5615
X3.0036Y-3.4457
X3.0309Y-3.6706
X3.0698Y-3.3498
X3.1182Y-3.7479
X3.1731Y-3.2955
X3.2314Y-3.7759
X3.2898Y-3.2955
X3.3447Y-3.7479
X3.3931Y-3.3498
X3.432Y-3.6706
X3.4593Y-3.4457
X3.4734Y-3.5615
X3.9864Y-3.5615
X4.0005Y-3.4457
X4.0278Y-3.6706
X4.0668Y-3.3498
X4.1151Y-3.7479
X4.1701Y-3.2955
X4.2284Y-3.7759
X4.2867Y-3.2955
X4.3416Y-3.7479
X4.39Y-3.3498
X4.4289Y-3.6706
X4.4562Y-3.4457
X4.4703Y-3.5615
X5.3692Y-3.5615
X5.3833Y-3.4457
X5.4106Y-3.6706
X5.4495Y-3.3498
X5.4979Y-3.7479
X5.5528Y-3.2955
X5.6111Y-3.7759
X5.6695Y-3.2955
X5.7244Y-3.7479
X5.7727Y-3.3498
X5.8117Y-3.6706
X5.839Y-3.4457
X5.8531Y-3.5615
X6.3661Y-3.5615
X6.3802Y-3.4457
X6.4075Y-3.6706
X6.4465Y-3.3498
X6.4948Y-3.7479
X6.5497Y-3.2955
X6.6081Y-3.7759
X6.6664Y-3.2955
X6.7213Y-3.7479
X6.7697Y-3.3498
X6.8086Y-3.6706
X6.8359Y-3.4457
X6.85Y-3.5615
X7.7738Y-3.5615
X7.7879Y-3.4457
X7.8152Y-3.6706
X7.8542Y-3.3498
X7.9025Y-3.7479
X7.9574Y-3.2955
X8.0158Y-3.7759
X8.0741Y-3.2955
X8.129Y-3.7479
X8.1774Y-3.3498
X8.2163Y-3.6706
X8.2436Y-3.4457
X8.2577Y-3.5615
X8.7734Y-3.5623
X8.7875Y-3.4465
X8.8148Y-3.6714
X8.8537Y-3.3505
X8.9021Y-3.7487
X8.957Y-3.2963
X9.0153Y-3.7766
X9.0736Y-3.2963
X9.1286Y-3.7487
X9.1769Y-3.3505
X9.2159Y-3.6714
X9.2432Y-3.4465
X9.2573Y-3.5623
T5
X2.9009Y-4.0322
X2.9009Y-4.3322
X3.0009Y-4.0322
X3.0009Y-4.3322
X3.1009Y-4.0322
X3.1009Y-4.3322
X3.2009Y-4.0322
X3.2009Y-4.3322
X3.3009Y-4.0322
X3.3009Y-4.3322
X3.4009Y-4.0322
X3.4009Y-4.3322
X3.5009Y-4.0322
X3.5009Y-4.3322
X3.6009Y-4.0322
X3.6009Y-4.3322
X3.8884Y-4.0322
X3.8884Y-4.3322
X3.9884Y-4.0322
X3.9884Y-4.3322
X4.0884Y-4.0322
X4.0884Y-4.3322
X4.1884Y-4.0322
X4.1884Y-4.3322
X4.2884Y-4.0322
X4.2884Y-4.3322
X4.3884Y-4.0322
X4.3884Y-4.3322
X4.4884Y-4.0322
X4.4884Y-4.3322
X4.5884Y-4.0322
X4.5884Y-4.3322
X5.2806Y-4.0322
X5.2806Y-4.3322
X5.3806Y-4.0322
X5.3806Y-4.3322
X5.4806Y-4.0322
X5.4806Y-4.3322
X5.5806Y-4.0322
X5.5806Y-4.3322
X5.6806Y-4.0322
X5.6806Y-4.3322
X5.7806Y-4.0322
X5.7806Y-4.3322
X5.8806Y-4.0322
X5.8806Y-4.3322
X5.9806Y-4.0322
X5.9806Y-4.3322
X6.2673Y-4.0314
X6.2673Y-4.3314
X6.3673Y-4.0314
X6.3673Y-4.3314
X6.4673Y-4.0314
X6.4673Y-4.3314
X6.5673Y-4.0314
X6.5673Y-4.3314
X6.6673Y-4.0314
X6.6673Y-4.3314
X6.7673Y-4.0314
X6.7673Y-4.3314
X6.8673Y-4.0314
X6.8673Y-4.3314
X6.9673Y-4.0314
X6.9673Y-4.3314
X7.6861Y-4.0322
X7.6861Y-4.3322
X7.7861Y-4.0322
X7.7861Y-4.3322
X7.8861Y-4.0322
X7.8861Y-4.3322
X7.9861Y-4.0322
X7.9861Y-4.3322
X8.0861Y-4.0322
X8.0861Y-4.3322
X8.1861Y-4.0322
X8.1861Y-4.3322
X8.2861Y-4.0322
X8.2861Y-4.3322
X8.3861Y-4.0322
X8.3861Y-4.3322
X8.6719Y-4.0322
X8.6719Y-4.3322
X8.7719Y-4.0322
X8.7719Y-4.3322
X8.8719Y-4.0322
X8.8719Y-4.3322
X8.9719Y-4.0322
X8.9719Y-4.3322
X9.0719Y-4.0322
X9.0719Y-4.3322
X9.1719Y-4.0322
X9.1719Y-4.3322
X9.2719Y-4.0322
X9.2719Y-4.3322
X9.3719Y-4.0322
X9.3719Y-4.3322
T6
X2.7559Y-4.7031
X2.7559Y-4.8031
X2.7559Y-4.9031
X2.7559Y-5.0031
X3.0189Y-4.6543
X3.0189Y-5.3543
X3.028Y-4.9043
X3.028Y-5.0043
X3.028Y-5.1043
X3.1189Y-4.6543
X3.1189Y-5.3543
X3.2189Y-4.6543
X3.2189Y-5.3543
X3.3189Y-4.6543
X3.3189Y-5.3543
X3.4189Y-4.6543
X3.4189Y-5.3543
X3.5189Y-4.6543
X3.5189Y-5.3543
X3.6189Y-4.6543
X3.6189Y-5.3543
X3.7189Y-4.6543
X3.7189Y-5.3543
X3.8189Y-4.6543
X3.8189Y-5.3543
X3.9189Y-4.6543
X3.9189Y-5.3543
X4.0189Y-4.6543
X4.0189Y-5.3543
X4.1189Y-4.6543
X4.1189Y-5.3543
X4.2189Y-4.6543
X4.2189Y-5.3543
X4.3189Y-4.6543
X4.3189Y-5.3543
X4.4189Y-4.6543
X4.4189Y-5.3543
X4.5189Y-4.6543
X4.5189Y-5.3543
X4.6189Y-4.6543
X4.6189Y-5.3543
X4.7189Y-4.6543
X4.7189Y-5.3543
X4.8189Y-4.6543
X4.8189Y-5.3543
X4.9189Y-4.6543
X4.9189Y-5.3543
T7
X9.2638Y-5.2992
T8
X7.5157Y-4.5248
X7.5157Y-5.3319
T9
X8.2677Y-5.4134
X8.3677Y-5.4134
X8.8583Y-5.4173
X8.9583Y-5.4173
T10
X2.7559Y-3.2431
X2.7559Y-5.4488
X9.5472Y-3.2362
X9.5472Y-5.4488
T0
M30
