%TF.GenerationSoftware,KiCad,Pcbnew,7.0.5-0*%
%TF.CreationDate,2023-07-07T16:59:40-04:00*%
%TF.ProjectId,nixie,6e697869-652e-46b6-9963-61645f706362,rev?*%
%TF.SameCoordinates,Original*%
%TF.FileFunction,Legend,Bot*%
%TF.FilePolarity,Positive*%
%FSLAX46Y46*%
G04 Gerber Fmt 4.6, Leading zero omitted, Abs format (unit mm)*
G04 Created by KiCad (PCBNEW 7.0.5-0) date 2023-07-07 16:59:40*
%MOMM*%
%LPD*%
G01*
G04 APERTURE LIST*
%ADD10C,0.134112*%
%ADD11C,0.100000*%
%ADD12C,0.101600*%
%ADD13C,0.254000*%
%ADD14C,0.200000*%
G04 APERTURE END LIST*
D10*
X237336692Y-78635434D02*
X237483577Y-78561992D01*
X237483577Y-78561992D02*
X237703903Y-78561992D01*
X237703903Y-78561992D02*
X237924230Y-78635434D01*
X237924230Y-78635434D02*
X238071115Y-78782319D01*
X238071115Y-78782319D02*
X238144557Y-78929203D01*
X238144557Y-78929203D02*
X238217999Y-79222972D01*
X238217999Y-79222972D02*
X238217999Y-79443299D01*
X238217999Y-79443299D02*
X238144557Y-79737068D01*
X238144557Y-79737068D02*
X238071115Y-79883953D01*
X238071115Y-79883953D02*
X237924230Y-80030838D01*
X237924230Y-80030838D02*
X237703903Y-80104280D01*
X237703903Y-80104280D02*
X237557019Y-80104280D01*
X237557019Y-80104280D02*
X237336692Y-80030838D01*
X237336692Y-80030838D02*
X237263250Y-79957395D01*
X237263250Y-79957395D02*
X237263250Y-79443299D01*
X237263250Y-79443299D02*
X237557019Y-79443299D01*
X236602269Y-80104280D02*
X236602269Y-79076088D01*
X236602269Y-79369857D02*
X236528827Y-79222972D01*
X236528827Y-79222972D02*
X236455385Y-79149530D01*
X236455385Y-79149530D02*
X236308500Y-79076088D01*
X236308500Y-79076088D02*
X236161615Y-79076088D01*
X235794404Y-79076088D02*
X234986539Y-79076088D01*
X234986539Y-79076088D02*
X235794404Y-80104280D01*
X235794404Y-80104280D02*
X234986539Y-80104280D01*
X233811462Y-80030838D02*
X233958346Y-80104280D01*
X233958346Y-80104280D02*
X234252116Y-80104280D01*
X234252116Y-80104280D02*
X234399000Y-80030838D01*
X234399000Y-80030838D02*
X234472442Y-79883953D01*
X234472442Y-79883953D02*
X234472442Y-79296415D01*
X234472442Y-79296415D02*
X234399000Y-79149530D01*
X234399000Y-79149530D02*
X234252116Y-79076088D01*
X234252116Y-79076088D02*
X233958346Y-79076088D01*
X233958346Y-79076088D02*
X233811462Y-79149530D01*
X233811462Y-79149530D02*
X233738020Y-79296415D01*
X233738020Y-79296415D02*
X233738020Y-79443299D01*
X233738020Y-79443299D02*
X234472442Y-79590184D01*
X232416059Y-79076088D02*
X232416059Y-80324607D01*
X232416059Y-80324607D02*
X232489501Y-80471491D01*
X232489501Y-80471491D02*
X232562943Y-80544934D01*
X232562943Y-80544934D02*
X232709828Y-80618376D01*
X232709828Y-80618376D02*
X232930155Y-80618376D01*
X232930155Y-80618376D02*
X233077039Y-80544934D01*
X232416059Y-80030838D02*
X232562943Y-80104280D01*
X232562943Y-80104280D02*
X232856712Y-80104280D01*
X232856712Y-80104280D02*
X233003597Y-80030838D01*
X233003597Y-80030838D02*
X233077039Y-79957395D01*
X233077039Y-79957395D02*
X233150481Y-79810511D01*
X233150481Y-79810511D02*
X233150481Y-79369857D01*
X233150481Y-79369857D02*
X233077039Y-79222972D01*
X233077039Y-79222972D02*
X233003597Y-79149530D01*
X233003597Y-79149530D02*
X232856712Y-79076088D01*
X232856712Y-79076088D02*
X232562943Y-79076088D01*
X232562943Y-79076088D02*
X232416059Y-79149530D01*
X231461309Y-80104280D02*
X231608194Y-80030838D01*
X231608194Y-80030838D02*
X231681636Y-79957395D01*
X231681636Y-79957395D02*
X231755078Y-79810511D01*
X231755078Y-79810511D02*
X231755078Y-79369857D01*
X231755078Y-79369857D02*
X231681636Y-79222972D01*
X231681636Y-79222972D02*
X231608194Y-79149530D01*
X231608194Y-79149530D02*
X231461309Y-79076088D01*
X231461309Y-79076088D02*
X231240982Y-79076088D01*
X231240982Y-79076088D02*
X231094098Y-79149530D01*
X231094098Y-79149530D02*
X231020656Y-79222972D01*
X231020656Y-79222972D02*
X230947213Y-79369857D01*
X230947213Y-79369857D02*
X230947213Y-79810511D01*
X230947213Y-79810511D02*
X231020656Y-79957395D01*
X231020656Y-79957395D02*
X231094098Y-80030838D01*
X231094098Y-80030838D02*
X231240982Y-80104280D01*
X231240982Y-80104280D02*
X231461309Y-80104280D01*
X230286233Y-80104280D02*
X230286233Y-79076088D01*
X230286233Y-79369857D02*
X230212791Y-79222972D01*
X230212791Y-79222972D02*
X230139349Y-79149530D01*
X230139349Y-79149530D02*
X229992464Y-79076088D01*
X229992464Y-79076088D02*
X229845579Y-79076088D01*
X229478368Y-79076088D02*
X228670503Y-79076088D01*
X228670503Y-79076088D02*
X229478368Y-80104280D01*
X229478368Y-80104280D02*
X228670503Y-80104280D01*
X226393791Y-79296415D02*
X226173464Y-79369857D01*
X226173464Y-79369857D02*
X226100022Y-79443299D01*
X226100022Y-79443299D02*
X226026580Y-79590184D01*
X226026580Y-79590184D02*
X226026580Y-79810511D01*
X226026580Y-79810511D02*
X226100022Y-79957395D01*
X226100022Y-79957395D02*
X226173464Y-80030838D01*
X226173464Y-80030838D02*
X226320349Y-80104280D01*
X226320349Y-80104280D02*
X226907887Y-80104280D01*
X226907887Y-80104280D02*
X226907887Y-78561992D01*
X226907887Y-78561992D02*
X226393791Y-78561992D01*
X226393791Y-78561992D02*
X226246907Y-78635434D01*
X226246907Y-78635434D02*
X226173464Y-78708876D01*
X226173464Y-78708876D02*
X226100022Y-78855761D01*
X226100022Y-78855761D02*
X226100022Y-79002646D01*
X226100022Y-79002646D02*
X226173464Y-79149530D01*
X226173464Y-79149530D02*
X226246907Y-79222972D01*
X226246907Y-79222972D02*
X226393791Y-79296415D01*
X226393791Y-79296415D02*
X226907887Y-79296415D01*
X225365599Y-80104280D02*
X225365599Y-79076088D01*
X225365599Y-79369857D02*
X225292157Y-79222972D01*
X225292157Y-79222972D02*
X225218715Y-79149530D01*
X225218715Y-79149530D02*
X225071830Y-79076088D01*
X225071830Y-79076088D02*
X224924945Y-79076088D01*
X224557734Y-79076088D02*
X223749869Y-79076088D01*
X223749869Y-79076088D02*
X224557734Y-80104280D01*
X224557734Y-80104280D02*
X223749869Y-80104280D01*
X222574792Y-80030838D02*
X222721676Y-80104280D01*
X222721676Y-80104280D02*
X223015446Y-80104280D01*
X223015446Y-80104280D02*
X223162330Y-80030838D01*
X223162330Y-80030838D02*
X223235772Y-79883953D01*
X223235772Y-79883953D02*
X223235772Y-79296415D01*
X223235772Y-79296415D02*
X223162330Y-79149530D01*
X223162330Y-79149530D02*
X223015446Y-79076088D01*
X223015446Y-79076088D02*
X222721676Y-79076088D01*
X222721676Y-79076088D02*
X222574792Y-79149530D01*
X222574792Y-79149530D02*
X222501350Y-79296415D01*
X222501350Y-79296415D02*
X222501350Y-79443299D01*
X222501350Y-79443299D02*
X223235772Y-79590184D01*
X222868561Y-80104280D02*
X223015446Y-80251164D01*
X223015446Y-80251164D02*
X223088888Y-80398049D01*
X223088888Y-80398049D02*
X223015446Y-80544934D01*
X223015446Y-80544934D02*
X222868561Y-80618376D01*
X222868561Y-80618376D02*
X222721676Y-80618376D01*
X221179389Y-80030838D02*
X221326273Y-80104280D01*
X221326273Y-80104280D02*
X221620042Y-80104280D01*
X221620042Y-80104280D02*
X221766927Y-80030838D01*
X221766927Y-80030838D02*
X221840369Y-79957395D01*
X221840369Y-79957395D02*
X221913811Y-79810511D01*
X221913811Y-79810511D02*
X221913811Y-79369857D01*
X221913811Y-79369857D02*
X221840369Y-79222972D01*
X221840369Y-79222972D02*
X221766927Y-79149530D01*
X221766927Y-79149530D02*
X221620042Y-79076088D01*
X221620042Y-79076088D02*
X221326273Y-79076088D01*
X221326273Y-79076088D02*
X221179389Y-79149530D01*
X220665293Y-79076088D02*
X219857428Y-79076088D01*
X219857428Y-79076088D02*
X220665293Y-80104280D01*
X220665293Y-80104280D02*
X219857428Y-80104280D01*
X219416774Y-79076088D02*
X219049562Y-80104280D01*
X218682351Y-79076088D02*
X219049562Y-80104280D01*
X219049562Y-80104280D02*
X219196447Y-80471491D01*
X219196447Y-80471491D02*
X219269889Y-80544934D01*
X219269889Y-80544934D02*
X219416774Y-80618376D01*
X218168254Y-80030838D02*
X218021370Y-80104280D01*
X218021370Y-80104280D02*
X217727601Y-80104280D01*
X217727601Y-80104280D02*
X217580716Y-80030838D01*
X217580716Y-80030838D02*
X217507274Y-79883953D01*
X217507274Y-79883953D02*
X217507274Y-79810511D01*
X217507274Y-79810511D02*
X217580716Y-79663626D01*
X217580716Y-79663626D02*
X217727601Y-79590184D01*
X217727601Y-79590184D02*
X217947928Y-79590184D01*
X217947928Y-79590184D02*
X218094812Y-79516742D01*
X218094812Y-79516742D02*
X218168254Y-79369857D01*
X218168254Y-79369857D02*
X218168254Y-79296415D01*
X218168254Y-79296415D02*
X218094812Y-79149530D01*
X218094812Y-79149530D02*
X217947928Y-79076088D01*
X217947928Y-79076088D02*
X217727601Y-79076088D01*
X217727601Y-79076088D02*
X217580716Y-79149530D01*
X216993178Y-79076088D02*
X216185313Y-79076088D01*
X216185313Y-79076088D02*
X216993178Y-80104280D01*
X216993178Y-80104280D02*
X216185313Y-80104280D01*
X214936794Y-80030838D02*
X215083678Y-80104280D01*
X215083678Y-80104280D02*
X215377447Y-80104280D01*
X215377447Y-80104280D02*
X215524332Y-80030838D01*
X215524332Y-80030838D02*
X215597774Y-79957395D01*
X215597774Y-79957395D02*
X215671216Y-79810511D01*
X215671216Y-79810511D02*
X215671216Y-79369857D01*
X215671216Y-79369857D02*
X215597774Y-79222972D01*
X215597774Y-79222972D02*
X215524332Y-79149530D01*
X215524332Y-79149530D02*
X215377447Y-79076088D01*
X215377447Y-79076088D02*
X215083678Y-79076088D01*
X215083678Y-79076088D02*
X214936794Y-79149530D01*
X214422698Y-79076088D02*
X213614833Y-79076088D01*
X213614833Y-79076088D02*
X214422698Y-80104280D01*
X214422698Y-80104280D02*
X213614833Y-80104280D01*
X213174179Y-79076088D02*
X212806967Y-80104280D01*
X212439756Y-79076088D02*
X212806967Y-80104280D01*
X212806967Y-80104280D02*
X212953852Y-80471491D01*
X212953852Y-80471491D02*
X213027294Y-80544934D01*
X213027294Y-80544934D02*
X213174179Y-80618376D01*
X211852217Y-80104280D02*
X211852217Y-78561992D01*
X211705333Y-79516742D02*
X211264679Y-80104280D01*
X211264679Y-79076088D02*
X211852217Y-79663626D01*
X210603698Y-80104280D02*
X210603698Y-79076088D01*
X210603698Y-78561992D02*
X210677140Y-78635434D01*
X210677140Y-78635434D02*
X210603698Y-78708876D01*
X210603698Y-78708876D02*
X210530256Y-78635434D01*
X210530256Y-78635434D02*
X210603698Y-78561992D01*
X210603698Y-78561992D02*
X210603698Y-78708876D01*
X209281737Y-80030838D02*
X209428621Y-80104280D01*
X209428621Y-80104280D02*
X209722391Y-80104280D01*
X209722391Y-80104280D02*
X209869275Y-80030838D01*
X209869275Y-80030838D02*
X209942717Y-79883953D01*
X209942717Y-79883953D02*
X209942717Y-79296415D01*
X209942717Y-79296415D02*
X209869275Y-79149530D01*
X209869275Y-79149530D02*
X209722391Y-79076088D01*
X209722391Y-79076088D02*
X209428621Y-79076088D01*
X209428621Y-79076088D02*
X209281737Y-79149530D01*
X209281737Y-79149530D02*
X209208295Y-79296415D01*
X209208295Y-79296415D02*
X209208295Y-79443299D01*
X209208295Y-79443299D02*
X209942717Y-79590184D01*
X208694199Y-79076088D02*
X208400430Y-80104280D01*
X208400430Y-80104280D02*
X208106660Y-79369857D01*
X208106660Y-79369857D02*
X207812891Y-80104280D01*
X207812891Y-80104280D02*
X207519122Y-79076088D01*
X206931584Y-80104280D02*
X206931584Y-79076088D01*
X206931584Y-78561992D02*
X207005026Y-78635434D01*
X207005026Y-78635434D02*
X206931584Y-78708876D01*
X206931584Y-78708876D02*
X206858142Y-78635434D01*
X206858142Y-78635434D02*
X206931584Y-78561992D01*
X206931584Y-78561992D02*
X206931584Y-78708876D01*
X205536181Y-80030838D02*
X205683065Y-80104280D01*
X205683065Y-80104280D02*
X205976834Y-80104280D01*
X205976834Y-80104280D02*
X206123719Y-80030838D01*
X206123719Y-80030838D02*
X206197161Y-79957395D01*
X206197161Y-79957395D02*
X206270603Y-79810511D01*
X206270603Y-79810511D02*
X206270603Y-79369857D01*
X206270603Y-79369857D02*
X206197161Y-79222972D01*
X206197161Y-79222972D02*
X206123719Y-79149530D01*
X206123719Y-79149530D02*
X205976834Y-79076088D01*
X205976834Y-79076088D02*
X205683065Y-79076088D01*
X205683065Y-79076088D02*
X205536181Y-79149530D01*
X205022085Y-79076088D02*
X204214220Y-79076088D01*
X204214220Y-79076088D02*
X205022085Y-80104280D01*
X205022085Y-80104280D02*
X204214220Y-80104280D01*
X202598489Y-79076088D02*
X202304720Y-80104280D01*
X202304720Y-80104280D02*
X202010950Y-79369857D01*
X202010950Y-79369857D02*
X201717181Y-80104280D01*
X201717181Y-80104280D02*
X201423412Y-79076088D01*
X200174894Y-80104280D02*
X200174894Y-79296415D01*
X200174894Y-79296415D02*
X200248336Y-79149530D01*
X200248336Y-79149530D02*
X200395220Y-79076088D01*
X200395220Y-79076088D02*
X200688990Y-79076088D01*
X200688990Y-79076088D02*
X200835874Y-79149530D01*
X200174894Y-80030838D02*
X200321778Y-80104280D01*
X200321778Y-80104280D02*
X200688990Y-80104280D01*
X200688990Y-80104280D02*
X200835874Y-80030838D01*
X200835874Y-80030838D02*
X200909316Y-79883953D01*
X200909316Y-79883953D02*
X200909316Y-79737068D01*
X200909316Y-79737068D02*
X200835874Y-79590184D01*
X200835874Y-79590184D02*
X200688990Y-79516742D01*
X200688990Y-79516742D02*
X200321778Y-79516742D01*
X200321778Y-79516742D02*
X200174894Y-79443299D01*
X199513913Y-80030838D02*
X199367029Y-80104280D01*
X199367029Y-80104280D02*
X199073260Y-80104280D01*
X199073260Y-80104280D02*
X198926375Y-80030838D01*
X198926375Y-80030838D02*
X198852933Y-79883953D01*
X198852933Y-79883953D02*
X198852933Y-79810511D01*
X198852933Y-79810511D02*
X198926375Y-79663626D01*
X198926375Y-79663626D02*
X199073260Y-79590184D01*
X199073260Y-79590184D02*
X199293587Y-79590184D01*
X199293587Y-79590184D02*
X199440471Y-79516742D01*
X199440471Y-79516742D02*
X199513913Y-79369857D01*
X199513913Y-79369857D02*
X199513913Y-79296415D01*
X199513913Y-79296415D02*
X199440471Y-79149530D01*
X199440471Y-79149530D02*
X199293587Y-79076088D01*
X199293587Y-79076088D02*
X199073260Y-79076088D01*
X199073260Y-79076088D02*
X198926375Y-79149530D01*
X197016875Y-80104280D02*
X197016875Y-78561992D01*
X196355895Y-80104280D02*
X196355895Y-79296415D01*
X196355895Y-79296415D02*
X196429337Y-79149530D01*
X196429337Y-79149530D02*
X196576221Y-79076088D01*
X196576221Y-79076088D02*
X196796548Y-79076088D01*
X196796548Y-79076088D02*
X196943433Y-79149530D01*
X196943433Y-79149530D02*
X197016875Y-79222972D01*
X195033934Y-80030838D02*
X195180818Y-80104280D01*
X195180818Y-80104280D02*
X195474588Y-80104280D01*
X195474588Y-80104280D02*
X195621472Y-80030838D01*
X195621472Y-80030838D02*
X195694914Y-79883953D01*
X195694914Y-79883953D02*
X195694914Y-79296415D01*
X195694914Y-79296415D02*
X195621472Y-79149530D01*
X195621472Y-79149530D02*
X195474588Y-79076088D01*
X195474588Y-79076088D02*
X195180818Y-79076088D01*
X195180818Y-79076088D02*
X195033934Y-79149530D01*
X195033934Y-79149530D02*
X194960492Y-79296415D01*
X194960492Y-79296415D02*
X194960492Y-79443299D01*
X194960492Y-79443299D02*
X195694914Y-79590184D01*
X194299511Y-80104280D02*
X194299511Y-79076088D01*
X194299511Y-79369857D02*
X194226069Y-79222972D01*
X194226069Y-79222972D02*
X194152627Y-79149530D01*
X194152627Y-79149530D02*
X194005742Y-79076088D01*
X194005742Y-79076088D02*
X193858857Y-79076088D01*
X192757223Y-80030838D02*
X192904107Y-80104280D01*
X192904107Y-80104280D02*
X193197877Y-80104280D01*
X193197877Y-80104280D02*
X193344761Y-80030838D01*
X193344761Y-80030838D02*
X193418203Y-79883953D01*
X193418203Y-79883953D02*
X193418203Y-79296415D01*
X193418203Y-79296415D02*
X193344761Y-79149530D01*
X193344761Y-79149530D02*
X193197877Y-79076088D01*
X193197877Y-79076088D02*
X192904107Y-79076088D01*
X192904107Y-79076088D02*
X192757223Y-79149530D01*
X192757223Y-79149530D02*
X192683781Y-79296415D01*
X192683781Y-79296415D02*
X192683781Y-79443299D01*
X192683781Y-79443299D02*
X193418203Y-79590184D01*
D11*
X205772306Y-141933609D02*
X205772306Y-142290752D01*
X205772306Y-142290752D02*
X205796115Y-142362180D01*
X205796115Y-142362180D02*
X205843734Y-142409800D01*
X205843734Y-142409800D02*
X205915163Y-142433609D01*
X205915163Y-142433609D02*
X205962782Y-142433609D01*
X205296116Y-142433609D02*
X205534211Y-142433609D01*
X205534211Y-142433609D02*
X205534211Y-141933609D01*
X204843735Y-142385990D02*
X204867544Y-142409800D01*
X204867544Y-142409800D02*
X204938973Y-142433609D01*
X204938973Y-142433609D02*
X204986592Y-142433609D01*
X204986592Y-142433609D02*
X205058020Y-142409800D01*
X205058020Y-142409800D02*
X205105639Y-142362180D01*
X205105639Y-142362180D02*
X205129449Y-142314561D01*
X205129449Y-142314561D02*
X205153258Y-142219323D01*
X205153258Y-142219323D02*
X205153258Y-142147895D01*
X205153258Y-142147895D02*
X205129449Y-142052657D01*
X205129449Y-142052657D02*
X205105639Y-142005038D01*
X205105639Y-142005038D02*
X205058020Y-141957419D01*
X205058020Y-141957419D02*
X204986592Y-141933609D01*
X204986592Y-141933609D02*
X204938973Y-141933609D01*
X204938973Y-141933609D02*
X204867544Y-141957419D01*
X204867544Y-141957419D02*
X204843735Y-141981228D01*
X204486592Y-141933609D02*
X204486592Y-142290752D01*
X204486592Y-142290752D02*
X204510401Y-142362180D01*
X204510401Y-142362180D02*
X204558020Y-142409800D01*
X204558020Y-142409800D02*
X204629449Y-142433609D01*
X204629449Y-142433609D02*
X204677068Y-142433609D01*
X204010402Y-142433609D02*
X204248497Y-142433609D01*
X204248497Y-142433609D02*
X204248497Y-141933609D01*
X203558021Y-142385990D02*
X203581830Y-142409800D01*
X203581830Y-142409800D02*
X203653259Y-142433609D01*
X203653259Y-142433609D02*
X203700878Y-142433609D01*
X203700878Y-142433609D02*
X203772306Y-142409800D01*
X203772306Y-142409800D02*
X203819925Y-142362180D01*
X203819925Y-142362180D02*
X203843735Y-142314561D01*
X203843735Y-142314561D02*
X203867544Y-142219323D01*
X203867544Y-142219323D02*
X203867544Y-142147895D01*
X203867544Y-142147895D02*
X203843735Y-142052657D01*
X203843735Y-142052657D02*
X203819925Y-142005038D01*
X203819925Y-142005038D02*
X203772306Y-141957419D01*
X203772306Y-141957419D02*
X203700878Y-141933609D01*
X203700878Y-141933609D02*
X203653259Y-141933609D01*
X203653259Y-141933609D02*
X203581830Y-141957419D01*
X203581830Y-141957419D02*
X203558021Y-141981228D01*
X203200878Y-141933609D02*
X203200878Y-142290752D01*
X203200878Y-142290752D02*
X203224687Y-142362180D01*
X203224687Y-142362180D02*
X203272306Y-142409800D01*
X203272306Y-142409800D02*
X203343735Y-142433609D01*
X203343735Y-142433609D02*
X203391354Y-142433609D01*
X202724688Y-142433609D02*
X202962783Y-142433609D01*
X202962783Y-142433609D02*
X202962783Y-141933609D01*
X202272307Y-142385990D02*
X202296116Y-142409800D01*
X202296116Y-142409800D02*
X202367545Y-142433609D01*
X202367545Y-142433609D02*
X202415164Y-142433609D01*
X202415164Y-142433609D02*
X202486592Y-142409800D01*
X202486592Y-142409800D02*
X202534211Y-142362180D01*
X202534211Y-142362180D02*
X202558021Y-142314561D01*
X202558021Y-142314561D02*
X202581830Y-142219323D01*
X202581830Y-142219323D02*
X202581830Y-142147895D01*
X202581830Y-142147895D02*
X202558021Y-142052657D01*
X202558021Y-142052657D02*
X202534211Y-142005038D01*
X202534211Y-142005038D02*
X202486592Y-141957419D01*
X202486592Y-141957419D02*
X202415164Y-141933609D01*
X202415164Y-141933609D02*
X202367545Y-141933609D01*
X202367545Y-141933609D02*
X202296116Y-141957419D01*
X202296116Y-141957419D02*
X202272307Y-141981228D01*
X201915164Y-141933609D02*
X201915164Y-142290752D01*
X201915164Y-142290752D02*
X201938973Y-142362180D01*
X201938973Y-142362180D02*
X201986592Y-142409800D01*
X201986592Y-142409800D02*
X202058021Y-142433609D01*
X202058021Y-142433609D02*
X202105640Y-142433609D01*
X201438974Y-142433609D02*
X201677069Y-142433609D01*
X201677069Y-142433609D02*
X201677069Y-141933609D01*
X200986593Y-142385990D02*
X201010402Y-142409800D01*
X201010402Y-142409800D02*
X201081831Y-142433609D01*
X201081831Y-142433609D02*
X201129450Y-142433609D01*
X201129450Y-142433609D02*
X201200878Y-142409800D01*
X201200878Y-142409800D02*
X201248497Y-142362180D01*
X201248497Y-142362180D02*
X201272307Y-142314561D01*
X201272307Y-142314561D02*
X201296116Y-142219323D01*
X201296116Y-142219323D02*
X201296116Y-142147895D01*
X201296116Y-142147895D02*
X201272307Y-142052657D01*
X201272307Y-142052657D02*
X201248497Y-142005038D01*
X201248497Y-142005038D02*
X201200878Y-141957419D01*
X201200878Y-141957419D02*
X201129450Y-141933609D01*
X201129450Y-141933609D02*
X201081831Y-141933609D01*
X201081831Y-141933609D02*
X201010402Y-141957419D01*
X201010402Y-141957419D02*
X200986593Y-141981228D01*
D12*
%TO.C,C6*%
X122802156Y-131740449D02*
X122857794Y-131796088D01*
X122857794Y-131796088D02*
X123024708Y-131851726D01*
X123024708Y-131851726D02*
X123135984Y-131851726D01*
X123135984Y-131851726D02*
X123302899Y-131796088D01*
X123302899Y-131796088D02*
X123414175Y-131684811D01*
X123414175Y-131684811D02*
X123469813Y-131573535D01*
X123469813Y-131573535D02*
X123525451Y-131350983D01*
X123525451Y-131350983D02*
X123525451Y-131184068D01*
X123525451Y-131184068D02*
X123469813Y-130961516D01*
X123469813Y-130961516D02*
X123414175Y-130850240D01*
X123414175Y-130850240D02*
X123302899Y-130738964D01*
X123302899Y-130738964D02*
X123135984Y-130683326D01*
X123135984Y-130683326D02*
X123024708Y-130683326D01*
X123024708Y-130683326D02*
X122857794Y-130738964D01*
X122857794Y-130738964D02*
X122802156Y-130794602D01*
X121800670Y-130683326D02*
X122023223Y-130683326D01*
X122023223Y-130683326D02*
X122134499Y-130738964D01*
X122134499Y-130738964D02*
X122190137Y-130794602D01*
X122190137Y-130794602D02*
X122301413Y-130961516D01*
X122301413Y-130961516D02*
X122357051Y-131184068D01*
X122357051Y-131184068D02*
X122357051Y-131629173D01*
X122357051Y-131629173D02*
X122301413Y-131740449D01*
X122301413Y-131740449D02*
X122245775Y-131796088D01*
X122245775Y-131796088D02*
X122134499Y-131851726D01*
X122134499Y-131851726D02*
X121911946Y-131851726D01*
X121911946Y-131851726D02*
X121800670Y-131796088D01*
X121800670Y-131796088D02*
X121745032Y-131740449D01*
X121745032Y-131740449D02*
X121689394Y-131629173D01*
X121689394Y-131629173D02*
X121689394Y-131350983D01*
X121689394Y-131350983D02*
X121745032Y-131239707D01*
X121745032Y-131239707D02*
X121800670Y-131184068D01*
X121800670Y-131184068D02*
X121911946Y-131128430D01*
X121911946Y-131128430D02*
X122134499Y-131128430D01*
X122134499Y-131128430D02*
X122245775Y-131184068D01*
X122245775Y-131184068D02*
X122301413Y-131239707D01*
X122301413Y-131239707D02*
X122357051Y-131350983D01*
%TO.C,C7*%
X167640449Y-125112689D02*
X167696088Y-125057051D01*
X167696088Y-125057051D02*
X167751726Y-124890137D01*
X167751726Y-124890137D02*
X167751726Y-124778861D01*
X167751726Y-124778861D02*
X167696088Y-124611946D01*
X167696088Y-124611946D02*
X167584811Y-124500670D01*
X167584811Y-124500670D02*
X167473535Y-124445032D01*
X167473535Y-124445032D02*
X167250983Y-124389394D01*
X167250983Y-124389394D02*
X167084068Y-124389394D01*
X167084068Y-124389394D02*
X166861516Y-124445032D01*
X166861516Y-124445032D02*
X166750240Y-124500670D01*
X166750240Y-124500670D02*
X166638964Y-124611946D01*
X166638964Y-124611946D02*
X166583326Y-124778861D01*
X166583326Y-124778861D02*
X166583326Y-124890137D01*
X166583326Y-124890137D02*
X166638964Y-125057051D01*
X166638964Y-125057051D02*
X166694602Y-125112689D01*
X166583326Y-125502156D02*
X166583326Y-126281089D01*
X166583326Y-126281089D02*
X167751726Y-125780346D01*
%TO.C,C1*%
X82567049Y-106484843D02*
X82622688Y-106429205D01*
X82622688Y-106429205D02*
X82678326Y-106262291D01*
X82678326Y-106262291D02*
X82678326Y-106151015D01*
X82678326Y-106151015D02*
X82622688Y-105984100D01*
X82622688Y-105984100D02*
X82511411Y-105872824D01*
X82511411Y-105872824D02*
X82400135Y-105817186D01*
X82400135Y-105817186D02*
X82177583Y-105761548D01*
X82177583Y-105761548D02*
X82010668Y-105761548D01*
X82010668Y-105761548D02*
X81788116Y-105817186D01*
X81788116Y-105817186D02*
X81676840Y-105872824D01*
X81676840Y-105872824D02*
X81565564Y-105984100D01*
X81565564Y-105984100D02*
X81509926Y-106151015D01*
X81509926Y-106151015D02*
X81509926Y-106262291D01*
X81509926Y-106262291D02*
X81565564Y-106429205D01*
X81565564Y-106429205D02*
X81621202Y-106484843D01*
X82678326Y-107597605D02*
X82678326Y-106929948D01*
X82678326Y-107263776D02*
X81509926Y-107263776D01*
X81509926Y-107263776D02*
X81676840Y-107152500D01*
X81676840Y-107152500D02*
X81788116Y-107041224D01*
X81788116Y-107041224D02*
X81843754Y-106929948D01*
%TO.C,C4*%
X168024449Y-106434843D02*
X168080088Y-106379205D01*
X168080088Y-106379205D02*
X168135726Y-106212291D01*
X168135726Y-106212291D02*
X168135726Y-106101015D01*
X168135726Y-106101015D02*
X168080088Y-105934100D01*
X168080088Y-105934100D02*
X167968811Y-105822824D01*
X167968811Y-105822824D02*
X167857535Y-105767186D01*
X167857535Y-105767186D02*
X167634983Y-105711548D01*
X167634983Y-105711548D02*
X167468068Y-105711548D01*
X167468068Y-105711548D02*
X167245516Y-105767186D01*
X167245516Y-105767186D02*
X167134240Y-105822824D01*
X167134240Y-105822824D02*
X167022964Y-105934100D01*
X167022964Y-105934100D02*
X166967326Y-106101015D01*
X166967326Y-106101015D02*
X166967326Y-106212291D01*
X166967326Y-106212291D02*
X167022964Y-106379205D01*
X167022964Y-106379205D02*
X167078602Y-106434843D01*
X167356792Y-107436329D02*
X168135726Y-107436329D01*
X166911688Y-107158138D02*
X167746259Y-106879948D01*
X167746259Y-106879948D02*
X167746259Y-107603243D01*
%TO.C,C9*%
X229174449Y-106914843D02*
X229230088Y-106859205D01*
X229230088Y-106859205D02*
X229285726Y-106692291D01*
X229285726Y-106692291D02*
X229285726Y-106581015D01*
X229285726Y-106581015D02*
X229230088Y-106414100D01*
X229230088Y-106414100D02*
X229118811Y-106302824D01*
X229118811Y-106302824D02*
X229007535Y-106247186D01*
X229007535Y-106247186D02*
X228784983Y-106191548D01*
X228784983Y-106191548D02*
X228618068Y-106191548D01*
X228618068Y-106191548D02*
X228395516Y-106247186D01*
X228395516Y-106247186D02*
X228284240Y-106302824D01*
X228284240Y-106302824D02*
X228172964Y-106414100D01*
X228172964Y-106414100D02*
X228117326Y-106581015D01*
X228117326Y-106581015D02*
X228117326Y-106692291D01*
X228117326Y-106692291D02*
X228172964Y-106859205D01*
X228172964Y-106859205D02*
X228228602Y-106914843D01*
X229285726Y-107471224D02*
X229285726Y-107693776D01*
X229285726Y-107693776D02*
X229230088Y-107805053D01*
X229230088Y-107805053D02*
X229174449Y-107860691D01*
X229174449Y-107860691D02*
X229007535Y-107971967D01*
X229007535Y-107971967D02*
X228784983Y-108027605D01*
X228784983Y-108027605D02*
X228339878Y-108027605D01*
X228339878Y-108027605D02*
X228228602Y-107971967D01*
X228228602Y-107971967D02*
X228172964Y-107916329D01*
X228172964Y-107916329D02*
X228117326Y-107805053D01*
X228117326Y-107805053D02*
X228117326Y-107582500D01*
X228117326Y-107582500D02*
X228172964Y-107471224D01*
X228172964Y-107471224D02*
X228228602Y-107415586D01*
X228228602Y-107415586D02*
X228339878Y-107359948D01*
X228339878Y-107359948D02*
X228618068Y-107359948D01*
X228618068Y-107359948D02*
X228729345Y-107415586D01*
X228729345Y-107415586D02*
X228784983Y-107471224D01*
X228784983Y-107471224D02*
X228840621Y-107582500D01*
X228840621Y-107582500D02*
X228840621Y-107805053D01*
X228840621Y-107805053D02*
X228784983Y-107916329D01*
X228784983Y-107916329D02*
X228729345Y-107971967D01*
X228729345Y-107971967D02*
X228618068Y-108027605D01*
D13*
%TO.C,J4*%
X228523332Y-132804318D02*
X228523332Y-133711461D01*
X228523332Y-133711461D02*
X228583809Y-133892889D01*
X228583809Y-133892889D02*
X228704761Y-134013842D01*
X228704761Y-134013842D02*
X228886190Y-134074318D01*
X228886190Y-134074318D02*
X229007142Y-134074318D01*
X227374285Y-133227651D02*
X227374285Y-134074318D01*
X227676666Y-132743842D02*
X227979047Y-133650984D01*
X227979047Y-133650984D02*
X227192856Y-133650984D01*
%TO.C,IC9*%
X242012318Y-122320237D02*
X240742318Y-122320237D01*
X241891365Y-123650714D02*
X241951842Y-123590238D01*
X241951842Y-123590238D02*
X242012318Y-123408809D01*
X242012318Y-123408809D02*
X242012318Y-123287857D01*
X242012318Y-123287857D02*
X241951842Y-123106428D01*
X241951842Y-123106428D02*
X241830889Y-122985476D01*
X241830889Y-122985476D02*
X241709937Y-122924999D01*
X241709937Y-122924999D02*
X241468032Y-122864523D01*
X241468032Y-122864523D02*
X241286603Y-122864523D01*
X241286603Y-122864523D02*
X241044699Y-122924999D01*
X241044699Y-122924999D02*
X240923746Y-122985476D01*
X240923746Y-122985476D02*
X240802794Y-123106428D01*
X240802794Y-123106428D02*
X240742318Y-123287857D01*
X240742318Y-123287857D02*
X240742318Y-123408809D01*
X240742318Y-123408809D02*
X240802794Y-123590238D01*
X240802794Y-123590238D02*
X240863270Y-123650714D01*
X242012318Y-124255476D02*
X242012318Y-124497380D01*
X242012318Y-124497380D02*
X241951842Y-124618333D01*
X241951842Y-124618333D02*
X241891365Y-124678809D01*
X241891365Y-124678809D02*
X241709937Y-124799761D01*
X241709937Y-124799761D02*
X241468032Y-124860238D01*
X241468032Y-124860238D02*
X240984222Y-124860238D01*
X240984222Y-124860238D02*
X240863270Y-124799761D01*
X240863270Y-124799761D02*
X240802794Y-124739285D01*
X240802794Y-124739285D02*
X240742318Y-124618333D01*
X240742318Y-124618333D02*
X240742318Y-124376428D01*
X240742318Y-124376428D02*
X240802794Y-124255476D01*
X240802794Y-124255476D02*
X240863270Y-124194999D01*
X240863270Y-124194999D02*
X240984222Y-124134523D01*
X240984222Y-124134523D02*
X241286603Y-124134523D01*
X241286603Y-124134523D02*
X241407556Y-124194999D01*
X241407556Y-124194999D02*
X241468032Y-124255476D01*
X241468032Y-124255476D02*
X241528508Y-124376428D01*
X241528508Y-124376428D02*
X241528508Y-124618333D01*
X241528508Y-124618333D02*
X241468032Y-124739285D01*
X241468032Y-124739285D02*
X241407556Y-124799761D01*
X241407556Y-124799761D02*
X241286603Y-124860238D01*
D12*
%TO.C,C2*%
X107658449Y-106584843D02*
X107714088Y-106529205D01*
X107714088Y-106529205D02*
X107769726Y-106362291D01*
X107769726Y-106362291D02*
X107769726Y-106251015D01*
X107769726Y-106251015D02*
X107714088Y-106084100D01*
X107714088Y-106084100D02*
X107602811Y-105972824D01*
X107602811Y-105972824D02*
X107491535Y-105917186D01*
X107491535Y-105917186D02*
X107268983Y-105861548D01*
X107268983Y-105861548D02*
X107102068Y-105861548D01*
X107102068Y-105861548D02*
X106879516Y-105917186D01*
X106879516Y-105917186D02*
X106768240Y-105972824D01*
X106768240Y-105972824D02*
X106656964Y-106084100D01*
X106656964Y-106084100D02*
X106601326Y-106251015D01*
X106601326Y-106251015D02*
X106601326Y-106362291D01*
X106601326Y-106362291D02*
X106656964Y-106529205D01*
X106656964Y-106529205D02*
X106712602Y-106584843D01*
X106712602Y-107029948D02*
X106656964Y-107085586D01*
X106656964Y-107085586D02*
X106601326Y-107196862D01*
X106601326Y-107196862D02*
X106601326Y-107475053D01*
X106601326Y-107475053D02*
X106656964Y-107586329D01*
X106656964Y-107586329D02*
X106712602Y-107641967D01*
X106712602Y-107641967D02*
X106823878Y-107697605D01*
X106823878Y-107697605D02*
X106935154Y-107697605D01*
X106935154Y-107697605D02*
X107102068Y-107641967D01*
X107102068Y-107641967D02*
X107769726Y-106974310D01*
X107769726Y-106974310D02*
X107769726Y-107697605D01*
%TO.C,R3*%
X151285726Y-98762689D02*
X150729345Y-98373222D01*
X151285726Y-98095032D02*
X150117326Y-98095032D01*
X150117326Y-98095032D02*
X150117326Y-98540137D01*
X150117326Y-98540137D02*
X150172964Y-98651413D01*
X150172964Y-98651413D02*
X150228602Y-98707051D01*
X150228602Y-98707051D02*
X150339878Y-98762689D01*
X150339878Y-98762689D02*
X150506792Y-98762689D01*
X150506792Y-98762689D02*
X150618068Y-98707051D01*
X150618068Y-98707051D02*
X150673707Y-98651413D01*
X150673707Y-98651413D02*
X150729345Y-98540137D01*
X150729345Y-98540137D02*
X150729345Y-98095032D01*
X150117326Y-99152156D02*
X150117326Y-99875451D01*
X150117326Y-99875451D02*
X150562430Y-99485984D01*
X150562430Y-99485984D02*
X150562430Y-99652899D01*
X150562430Y-99652899D02*
X150618068Y-99764175D01*
X150618068Y-99764175D02*
X150673707Y-99819813D01*
X150673707Y-99819813D02*
X150784983Y-99875451D01*
X150784983Y-99875451D02*
X151063173Y-99875451D01*
X151063173Y-99875451D02*
X151174449Y-99819813D01*
X151174449Y-99819813D02*
X151230088Y-99764175D01*
X151230088Y-99764175D02*
X151285726Y-99652899D01*
X151285726Y-99652899D02*
X151285726Y-99319070D01*
X151285726Y-99319070D02*
X151230088Y-99207794D01*
X151230088Y-99207794D02*
X151174449Y-99152156D01*
%TO.C,C3*%
X143024449Y-106434843D02*
X143080088Y-106379205D01*
X143080088Y-106379205D02*
X143135726Y-106212291D01*
X143135726Y-106212291D02*
X143135726Y-106101015D01*
X143135726Y-106101015D02*
X143080088Y-105934100D01*
X143080088Y-105934100D02*
X142968811Y-105822824D01*
X142968811Y-105822824D02*
X142857535Y-105767186D01*
X142857535Y-105767186D02*
X142634983Y-105711548D01*
X142634983Y-105711548D02*
X142468068Y-105711548D01*
X142468068Y-105711548D02*
X142245516Y-105767186D01*
X142245516Y-105767186D02*
X142134240Y-105822824D01*
X142134240Y-105822824D02*
X142022964Y-105934100D01*
X142022964Y-105934100D02*
X141967326Y-106101015D01*
X141967326Y-106101015D02*
X141967326Y-106212291D01*
X141967326Y-106212291D02*
X142022964Y-106379205D01*
X142022964Y-106379205D02*
X142078602Y-106434843D01*
X141967326Y-106824310D02*
X141967326Y-107547605D01*
X141967326Y-107547605D02*
X142412430Y-107158138D01*
X142412430Y-107158138D02*
X142412430Y-107325053D01*
X142412430Y-107325053D02*
X142468068Y-107436329D01*
X142468068Y-107436329D02*
X142523707Y-107491967D01*
X142523707Y-107491967D02*
X142634983Y-107547605D01*
X142634983Y-107547605D02*
X142913173Y-107547605D01*
X142913173Y-107547605D02*
X143024449Y-107491967D01*
X143024449Y-107491967D02*
X143080088Y-107436329D01*
X143080088Y-107436329D02*
X143135726Y-107325053D01*
X143135726Y-107325053D02*
X143135726Y-106991224D01*
X143135726Y-106991224D02*
X143080088Y-106879948D01*
X143080088Y-106879948D02*
X143024449Y-106824310D01*
%TO.C,C5*%
X132924449Y-122367843D02*
X132980088Y-122312205D01*
X132980088Y-122312205D02*
X133035726Y-122145291D01*
X133035726Y-122145291D02*
X133035726Y-122034015D01*
X133035726Y-122034015D02*
X132980088Y-121867100D01*
X132980088Y-121867100D02*
X132868811Y-121755824D01*
X132868811Y-121755824D02*
X132757535Y-121700186D01*
X132757535Y-121700186D02*
X132534983Y-121644548D01*
X132534983Y-121644548D02*
X132368068Y-121644548D01*
X132368068Y-121644548D02*
X132145516Y-121700186D01*
X132145516Y-121700186D02*
X132034240Y-121755824D01*
X132034240Y-121755824D02*
X131922964Y-121867100D01*
X131922964Y-121867100D02*
X131867326Y-122034015D01*
X131867326Y-122034015D02*
X131867326Y-122145291D01*
X131867326Y-122145291D02*
X131922964Y-122312205D01*
X131922964Y-122312205D02*
X131978602Y-122367843D01*
X131867326Y-123424967D02*
X131867326Y-122868586D01*
X131867326Y-122868586D02*
X132423707Y-122812948D01*
X132423707Y-122812948D02*
X132368068Y-122868586D01*
X132368068Y-122868586D02*
X132312430Y-122979862D01*
X132312430Y-122979862D02*
X132312430Y-123258053D01*
X132312430Y-123258053D02*
X132368068Y-123369329D01*
X132368068Y-123369329D02*
X132423707Y-123424967D01*
X132423707Y-123424967D02*
X132534983Y-123480605D01*
X132534983Y-123480605D02*
X132813173Y-123480605D01*
X132813173Y-123480605D02*
X132924449Y-123424967D01*
X132924449Y-123424967D02*
X132980088Y-123369329D01*
X132980088Y-123369329D02*
X133035726Y-123258053D01*
X133035726Y-123258053D02*
X133035726Y-122979862D01*
X133035726Y-122979862D02*
X132980088Y-122868586D01*
X132980088Y-122868586D02*
X132924449Y-122812948D01*
%TO.C,R8*%
X237915726Y-98427689D02*
X237359345Y-98038222D01*
X237915726Y-97760032D02*
X236747326Y-97760032D01*
X236747326Y-97760032D02*
X236747326Y-98205137D01*
X236747326Y-98205137D02*
X236802964Y-98316413D01*
X236802964Y-98316413D02*
X236858602Y-98372051D01*
X236858602Y-98372051D02*
X236969878Y-98427689D01*
X236969878Y-98427689D02*
X237136792Y-98427689D01*
X237136792Y-98427689D02*
X237248068Y-98372051D01*
X237248068Y-98372051D02*
X237303707Y-98316413D01*
X237303707Y-98316413D02*
X237359345Y-98205137D01*
X237359345Y-98205137D02*
X237359345Y-97760032D01*
X237248068Y-99095346D02*
X237192430Y-98984070D01*
X237192430Y-98984070D02*
X237136792Y-98928432D01*
X237136792Y-98928432D02*
X237025516Y-98872794D01*
X237025516Y-98872794D02*
X236969878Y-98872794D01*
X236969878Y-98872794D02*
X236858602Y-98928432D01*
X236858602Y-98928432D02*
X236802964Y-98984070D01*
X236802964Y-98984070D02*
X236747326Y-99095346D01*
X236747326Y-99095346D02*
X236747326Y-99317899D01*
X236747326Y-99317899D02*
X236802964Y-99429175D01*
X236802964Y-99429175D02*
X236858602Y-99484813D01*
X236858602Y-99484813D02*
X236969878Y-99540451D01*
X236969878Y-99540451D02*
X237025516Y-99540451D01*
X237025516Y-99540451D02*
X237136792Y-99484813D01*
X237136792Y-99484813D02*
X237192430Y-99429175D01*
X237192430Y-99429175D02*
X237248068Y-99317899D01*
X237248068Y-99317899D02*
X237248068Y-99095346D01*
X237248068Y-99095346D02*
X237303707Y-98984070D01*
X237303707Y-98984070D02*
X237359345Y-98928432D01*
X237359345Y-98928432D02*
X237470621Y-98872794D01*
X237470621Y-98872794D02*
X237693173Y-98872794D01*
X237693173Y-98872794D02*
X237804449Y-98928432D01*
X237804449Y-98928432D02*
X237860088Y-98984070D01*
X237860088Y-98984070D02*
X237915726Y-99095346D01*
X237915726Y-99095346D02*
X237915726Y-99317899D01*
X237915726Y-99317899D02*
X237860088Y-99429175D01*
X237860088Y-99429175D02*
X237804449Y-99484813D01*
X237804449Y-99484813D02*
X237693173Y-99540451D01*
X237693173Y-99540451D02*
X237470621Y-99540451D01*
X237470621Y-99540451D02*
X237359345Y-99484813D01*
X237359345Y-99484813D02*
X237303707Y-99429175D01*
X237303707Y-99429175D02*
X237248068Y-99317899D01*
%TO.C,R2*%
X116285726Y-98554689D02*
X115729345Y-98165222D01*
X116285726Y-97887032D02*
X115117326Y-97887032D01*
X115117326Y-97887032D02*
X115117326Y-98332137D01*
X115117326Y-98332137D02*
X115172964Y-98443413D01*
X115172964Y-98443413D02*
X115228602Y-98499051D01*
X115228602Y-98499051D02*
X115339878Y-98554689D01*
X115339878Y-98554689D02*
X115506792Y-98554689D01*
X115506792Y-98554689D02*
X115618068Y-98499051D01*
X115618068Y-98499051D02*
X115673707Y-98443413D01*
X115673707Y-98443413D02*
X115729345Y-98332137D01*
X115729345Y-98332137D02*
X115729345Y-97887032D01*
X115228602Y-98999794D02*
X115172964Y-99055432D01*
X115172964Y-99055432D02*
X115117326Y-99166708D01*
X115117326Y-99166708D02*
X115117326Y-99444899D01*
X115117326Y-99444899D02*
X115172964Y-99556175D01*
X115172964Y-99556175D02*
X115228602Y-99611813D01*
X115228602Y-99611813D02*
X115339878Y-99667451D01*
X115339878Y-99667451D02*
X115451154Y-99667451D01*
X115451154Y-99667451D02*
X115618068Y-99611813D01*
X115618068Y-99611813D02*
X116285726Y-98944156D01*
X116285726Y-98944156D02*
X116285726Y-99667451D01*
%TO.C,C10*%
X217940449Y-126702689D02*
X217996088Y-126647051D01*
X217996088Y-126647051D02*
X218051726Y-126480137D01*
X218051726Y-126480137D02*
X218051726Y-126368861D01*
X218051726Y-126368861D02*
X217996088Y-126201946D01*
X217996088Y-126201946D02*
X217884811Y-126090670D01*
X217884811Y-126090670D02*
X217773535Y-126035032D01*
X217773535Y-126035032D02*
X217550983Y-125979394D01*
X217550983Y-125979394D02*
X217384068Y-125979394D01*
X217384068Y-125979394D02*
X217161516Y-126035032D01*
X217161516Y-126035032D02*
X217050240Y-126090670D01*
X217050240Y-126090670D02*
X216938964Y-126201946D01*
X216938964Y-126201946D02*
X216883326Y-126368861D01*
X216883326Y-126368861D02*
X216883326Y-126480137D01*
X216883326Y-126480137D02*
X216938964Y-126647051D01*
X216938964Y-126647051D02*
X216994602Y-126702689D01*
X218051726Y-127815451D02*
X218051726Y-127147794D01*
X218051726Y-127481622D02*
X216883326Y-127481622D01*
X216883326Y-127481622D02*
X217050240Y-127370346D01*
X217050240Y-127370346D02*
X217161516Y-127259070D01*
X217161516Y-127259070D02*
X217217154Y-127147794D01*
X216883326Y-128538746D02*
X216883326Y-128650023D01*
X216883326Y-128650023D02*
X216938964Y-128761299D01*
X216938964Y-128761299D02*
X216994602Y-128816937D01*
X216994602Y-128816937D02*
X217105878Y-128872575D01*
X217105878Y-128872575D02*
X217328430Y-128928213D01*
X217328430Y-128928213D02*
X217606621Y-128928213D01*
X217606621Y-128928213D02*
X217829173Y-128872575D01*
X217829173Y-128872575D02*
X217940449Y-128816937D01*
X217940449Y-128816937D02*
X217996088Y-128761299D01*
X217996088Y-128761299D02*
X218051726Y-128650023D01*
X218051726Y-128650023D02*
X218051726Y-128538746D01*
X218051726Y-128538746D02*
X217996088Y-128427470D01*
X217996088Y-128427470D02*
X217940449Y-128371832D01*
X217940449Y-128371832D02*
X217829173Y-128316194D01*
X217829173Y-128316194D02*
X217606621Y-128260556D01*
X217606621Y-128260556D02*
X217328430Y-128260556D01*
X217328430Y-128260556D02*
X217105878Y-128316194D01*
X217105878Y-128316194D02*
X216994602Y-128371832D01*
X216994602Y-128371832D02*
X216938964Y-128427470D01*
X216938964Y-128427470D02*
X216883326Y-128538746D01*
%TO.C,R4*%
X176485726Y-98562689D02*
X175929345Y-98173222D01*
X176485726Y-97895032D02*
X175317326Y-97895032D01*
X175317326Y-97895032D02*
X175317326Y-98340137D01*
X175317326Y-98340137D02*
X175372964Y-98451413D01*
X175372964Y-98451413D02*
X175428602Y-98507051D01*
X175428602Y-98507051D02*
X175539878Y-98562689D01*
X175539878Y-98562689D02*
X175706792Y-98562689D01*
X175706792Y-98562689D02*
X175818068Y-98507051D01*
X175818068Y-98507051D02*
X175873707Y-98451413D01*
X175873707Y-98451413D02*
X175929345Y-98340137D01*
X175929345Y-98340137D02*
X175929345Y-97895032D01*
X175706792Y-99564175D02*
X176485726Y-99564175D01*
X175261688Y-99285984D02*
X176096259Y-99007794D01*
X176096259Y-99007794D02*
X176096259Y-99731089D01*
%TO.C,R7*%
X212115726Y-98427689D02*
X211559345Y-98038222D01*
X212115726Y-97760032D02*
X210947326Y-97760032D01*
X210947326Y-97760032D02*
X210947326Y-98205137D01*
X210947326Y-98205137D02*
X211002964Y-98316413D01*
X211002964Y-98316413D02*
X211058602Y-98372051D01*
X211058602Y-98372051D02*
X211169878Y-98427689D01*
X211169878Y-98427689D02*
X211336792Y-98427689D01*
X211336792Y-98427689D02*
X211448068Y-98372051D01*
X211448068Y-98372051D02*
X211503707Y-98316413D01*
X211503707Y-98316413D02*
X211559345Y-98205137D01*
X211559345Y-98205137D02*
X211559345Y-97760032D01*
X210947326Y-98817156D02*
X210947326Y-99596089D01*
X210947326Y-99596089D02*
X212115726Y-99095346D01*
%TO.C,R1*%
X90761126Y-98554689D02*
X90204745Y-98165222D01*
X90761126Y-97887032D02*
X89592726Y-97887032D01*
X89592726Y-97887032D02*
X89592726Y-98332137D01*
X89592726Y-98332137D02*
X89648364Y-98443413D01*
X89648364Y-98443413D02*
X89704002Y-98499051D01*
X89704002Y-98499051D02*
X89815278Y-98554689D01*
X89815278Y-98554689D02*
X89982192Y-98554689D01*
X89982192Y-98554689D02*
X90093468Y-98499051D01*
X90093468Y-98499051D02*
X90149107Y-98443413D01*
X90149107Y-98443413D02*
X90204745Y-98332137D01*
X90204745Y-98332137D02*
X90204745Y-97887032D01*
X90761126Y-99667451D02*
X90761126Y-98999794D01*
X90761126Y-99333622D02*
X89592726Y-99333622D01*
X89592726Y-99333622D02*
X89759640Y-99222346D01*
X89759640Y-99222346D02*
X89870916Y-99111070D01*
X89870916Y-99111070D02*
X89926554Y-98999794D01*
D13*
%TO.C,J3*%
X213423332Y-132704318D02*
X213423332Y-133611461D01*
X213423332Y-133611461D02*
X213483809Y-133792889D01*
X213483809Y-133792889D02*
X213604761Y-133913842D01*
X213604761Y-133913842D02*
X213786190Y-133974318D01*
X213786190Y-133974318D02*
X213907142Y-133974318D01*
X212939523Y-132704318D02*
X212153332Y-132704318D01*
X212153332Y-132704318D02*
X212576666Y-133188127D01*
X212576666Y-133188127D02*
X212395237Y-133188127D01*
X212395237Y-133188127D02*
X212274285Y-133248603D01*
X212274285Y-133248603D02*
X212213809Y-133309080D01*
X212213809Y-133309080D02*
X212153332Y-133430032D01*
X212153332Y-133430032D02*
X212153332Y-133732413D01*
X212153332Y-133732413D02*
X212213809Y-133853365D01*
X212213809Y-133853365D02*
X212274285Y-133913842D01*
X212274285Y-133913842D02*
X212395237Y-133974318D01*
X212395237Y-133974318D02*
X212758094Y-133974318D01*
X212758094Y-133974318D02*
X212879047Y-133913842D01*
X212879047Y-133913842D02*
X212939523Y-133853365D01*
D12*
%TO.C,C11*%
X218240449Y-121612689D02*
X218296088Y-121557051D01*
X218296088Y-121557051D02*
X218351726Y-121390137D01*
X218351726Y-121390137D02*
X218351726Y-121278861D01*
X218351726Y-121278861D02*
X218296088Y-121111946D01*
X218296088Y-121111946D02*
X218184811Y-121000670D01*
X218184811Y-121000670D02*
X218073535Y-120945032D01*
X218073535Y-120945032D02*
X217850983Y-120889394D01*
X217850983Y-120889394D02*
X217684068Y-120889394D01*
X217684068Y-120889394D02*
X217461516Y-120945032D01*
X217461516Y-120945032D02*
X217350240Y-121000670D01*
X217350240Y-121000670D02*
X217238964Y-121111946D01*
X217238964Y-121111946D02*
X217183326Y-121278861D01*
X217183326Y-121278861D02*
X217183326Y-121390137D01*
X217183326Y-121390137D02*
X217238964Y-121557051D01*
X217238964Y-121557051D02*
X217294602Y-121612689D01*
X218351726Y-122725451D02*
X218351726Y-122057794D01*
X218351726Y-122391622D02*
X217183326Y-122391622D01*
X217183326Y-122391622D02*
X217350240Y-122280346D01*
X217350240Y-122280346D02*
X217461516Y-122169070D01*
X217461516Y-122169070D02*
X217517154Y-122057794D01*
X218351726Y-123838213D02*
X218351726Y-123170556D01*
X218351726Y-123504384D02*
X217183326Y-123504384D01*
X217183326Y-123504384D02*
X217350240Y-123393108D01*
X217350240Y-123393108D02*
X217461516Y-123281832D01*
X217461516Y-123281832D02*
X217517154Y-123170556D01*
%TO.C,C8*%
X204174449Y-107114843D02*
X204230088Y-107059205D01*
X204230088Y-107059205D02*
X204285726Y-106892291D01*
X204285726Y-106892291D02*
X204285726Y-106781015D01*
X204285726Y-106781015D02*
X204230088Y-106614100D01*
X204230088Y-106614100D02*
X204118811Y-106502824D01*
X204118811Y-106502824D02*
X204007535Y-106447186D01*
X204007535Y-106447186D02*
X203784983Y-106391548D01*
X203784983Y-106391548D02*
X203618068Y-106391548D01*
X203618068Y-106391548D02*
X203395516Y-106447186D01*
X203395516Y-106447186D02*
X203284240Y-106502824D01*
X203284240Y-106502824D02*
X203172964Y-106614100D01*
X203172964Y-106614100D02*
X203117326Y-106781015D01*
X203117326Y-106781015D02*
X203117326Y-106892291D01*
X203117326Y-106892291D02*
X203172964Y-107059205D01*
X203172964Y-107059205D02*
X203228602Y-107114843D01*
X203618068Y-107782500D02*
X203562430Y-107671224D01*
X203562430Y-107671224D02*
X203506792Y-107615586D01*
X203506792Y-107615586D02*
X203395516Y-107559948D01*
X203395516Y-107559948D02*
X203339878Y-107559948D01*
X203339878Y-107559948D02*
X203228602Y-107615586D01*
X203228602Y-107615586D02*
X203172964Y-107671224D01*
X203172964Y-107671224D02*
X203117326Y-107782500D01*
X203117326Y-107782500D02*
X203117326Y-108005053D01*
X203117326Y-108005053D02*
X203172964Y-108116329D01*
X203172964Y-108116329D02*
X203228602Y-108171967D01*
X203228602Y-108171967D02*
X203339878Y-108227605D01*
X203339878Y-108227605D02*
X203395516Y-108227605D01*
X203395516Y-108227605D02*
X203506792Y-108171967D01*
X203506792Y-108171967D02*
X203562430Y-108116329D01*
X203562430Y-108116329D02*
X203618068Y-108005053D01*
X203618068Y-108005053D02*
X203618068Y-107782500D01*
X203618068Y-107782500D02*
X203673707Y-107671224D01*
X203673707Y-107671224D02*
X203729345Y-107615586D01*
X203729345Y-107615586D02*
X203840621Y-107559948D01*
X203840621Y-107559948D02*
X204063173Y-107559948D01*
X204063173Y-107559948D02*
X204174449Y-107615586D01*
X204174449Y-107615586D02*
X204230088Y-107671224D01*
X204230088Y-107671224D02*
X204285726Y-107782500D01*
X204285726Y-107782500D02*
X204285726Y-108005053D01*
X204285726Y-108005053D02*
X204230088Y-108116329D01*
X204230088Y-108116329D02*
X204174449Y-108171967D01*
X204174449Y-108171967D02*
X204063173Y-108227605D01*
X204063173Y-108227605D02*
X203840621Y-108227605D01*
X203840621Y-108227605D02*
X203729345Y-108171967D01*
X203729345Y-108171967D02*
X203673707Y-108116329D01*
X203673707Y-108116329D02*
X203618068Y-108005053D01*
%TO.C,G\u002A\u002A\u002A*%
G36*
X178687564Y-128066578D02*
G01*
X178851260Y-128301214D01*
X178842578Y-128558291D01*
X178601563Y-128741845D01*
X178382561Y-128778713D01*
X178133993Y-128680128D01*
X178004218Y-128467154D01*
X178029293Y-128214985D01*
X178245275Y-127998814D01*
X178458621Y-127937368D01*
X178687564Y-128066578D01*
G37*
G36*
X134205972Y-128066578D02*
G01*
X134369668Y-128301214D01*
X134360986Y-128558291D01*
X134119971Y-128741845D01*
X133900969Y-128778713D01*
X133652401Y-128680128D01*
X133522626Y-128467154D01*
X133547701Y-128214985D01*
X133763683Y-127998814D01*
X133977029Y-127937368D01*
X134205972Y-128066578D01*
G37*
G36*
X159011097Y-110125811D02*
G01*
X159121971Y-110371354D01*
X159148510Y-110605334D01*
X159031602Y-110819676D01*
X158880200Y-110892688D01*
X158572428Y-110901418D01*
X158359284Y-110729444D01*
X158308417Y-110414652D01*
X158414277Y-110176274D01*
X158694171Y-110073462D01*
X158794938Y-110065439D01*
X159011097Y-110125811D01*
G37*
G36*
X154614870Y-104803097D02*
G01*
X154841473Y-104983425D01*
X154925386Y-105250943D01*
X154830620Y-105495359D01*
X154708796Y-105576135D01*
X154421655Y-105610310D01*
X154154525Y-105509496D01*
X154016858Y-105299975D01*
X154072831Y-105005536D01*
X154295108Y-104811119D01*
X154603497Y-104799305D01*
X154614870Y-104803097D01*
G37*
G36*
X167950025Y-118151901D02*
G01*
X167971106Y-118204231D01*
X167877429Y-118412810D01*
X167602513Y-118721767D01*
X167490832Y-118832830D01*
X167231354Y-119147384D01*
X167123647Y-119439258D01*
X167125693Y-119803805D01*
X167083384Y-119964640D01*
X166887509Y-120155763D01*
X166728621Y-120279867D01*
X166628180Y-120479658D01*
X166567754Y-120644046D01*
X166420990Y-120623657D01*
X166253547Y-120420383D01*
X166216683Y-120347187D01*
X166192640Y-120248270D01*
X166214839Y-120117986D01*
X166300000Y-119919241D01*
X166464840Y-119614942D01*
X166726077Y-119167993D01*
X167100429Y-118541300D01*
X167178740Y-118431323D01*
X167445177Y-118204533D01*
X167731276Y-118098099D01*
X167950025Y-118151901D01*
G37*
G36*
X147232509Y-93920634D02*
G01*
X147305710Y-94009373D01*
X147444598Y-94088571D01*
X147668796Y-94082879D01*
X148057111Y-93999871D01*
X148294898Y-93945718D01*
X148603505Y-93905399D01*
X148820448Y-93951699D01*
X149043648Y-94093957D01*
X149163924Y-94192632D01*
X149351955Y-94444119D01*
X149318608Y-94635084D01*
X149063006Y-94736441D01*
X148864768Y-94775201D01*
X148325652Y-94949154D01*
X147636053Y-95236311D01*
X146836370Y-95619137D01*
X145967002Y-96080099D01*
X145861808Y-96137994D01*
X145172965Y-96489095D01*
X144641130Y-96706604D01*
X144288658Y-96781182D01*
X144101322Y-96768046D01*
X143850256Y-96659877D01*
X143794128Y-96464305D01*
X143916471Y-96207738D01*
X144200818Y-95916587D01*
X144630702Y-95617261D01*
X145189656Y-95336171D01*
X145299647Y-95289206D01*
X145943887Y-95005592D01*
X146390648Y-94787136D01*
X146674230Y-94613266D01*
X146828934Y-94463412D01*
X146889063Y-94317003D01*
X146922588Y-94125076D01*
X147000918Y-93848121D01*
X147097082Y-93788216D01*
X147232509Y-93920634D01*
G37*
G36*
X178671194Y-129883352D02*
G01*
X179010393Y-129962004D01*
X179280897Y-130058085D01*
X179391364Y-130149812D01*
X179350890Y-130216271D01*
X179143269Y-130286488D01*
X178850148Y-130282325D01*
X178816765Y-130373480D01*
X178791627Y-130670476D01*
X178780950Y-131125512D01*
X178786964Y-131689002D01*
X178808349Y-132276046D01*
X178847084Y-132759541D01*
X178903432Y-133035365D01*
X178980668Y-133127824D01*
X179226907Y-133157902D01*
X179363445Y-133207213D01*
X179391364Y-133301580D01*
X179390477Y-133307506D01*
X179254012Y-133369823D01*
X178921156Y-133412268D01*
X178443603Y-133427948D01*
X178399158Y-133427830D01*
X177931779Y-133409634D01*
X177613442Y-133365253D01*
X177495842Y-133301580D01*
X177497237Y-133284128D01*
X177625878Y-133169831D01*
X177906538Y-133160247D01*
X177914888Y-133161229D01*
X177959775Y-133141889D01*
X177991008Y-133051963D01*
X178010849Y-132855023D01*
X178021559Y-132514643D01*
X178025398Y-131994392D01*
X178024629Y-131257845D01*
X178025591Y-130968943D01*
X178046097Y-130365420D01*
X178093569Y-129998755D01*
X178169106Y-129858330D01*
X178354643Y-129843914D01*
X178671194Y-129883352D01*
G37*
G36*
X134188124Y-129883671D02*
G01*
X134528282Y-129961561D01*
X134799210Y-130057429D01*
X134909772Y-130149812D01*
X134871481Y-130214495D01*
X134665970Y-130286012D01*
X134372707Y-130283709D01*
X134325225Y-130333797D01*
X134291468Y-130523023D01*
X134270489Y-130879847D01*
X134260635Y-131432608D01*
X134260252Y-132209645D01*
X134267553Y-132559963D01*
X134305912Y-132893892D01*
X134391707Y-133065464D01*
X134541198Y-133127824D01*
X134548869Y-133128867D01*
X134783404Y-133159416D01*
X134811996Y-133166274D01*
X134909772Y-133301580D01*
X134905567Y-133314140D01*
X134745958Y-133373509D01*
X134389554Y-133413374D01*
X133883354Y-133427948D01*
X133701052Y-133427524D01*
X133268995Y-133417976D01*
X133037008Y-133389275D01*
X132965054Y-133332765D01*
X133013095Y-133239787D01*
X133118936Y-133145091D01*
X133272573Y-133115480D01*
X133378852Y-133130781D01*
X133463106Y-132994859D01*
X133516159Y-132676220D01*
X133541645Y-132151795D01*
X133543202Y-131398517D01*
X133543591Y-130767299D01*
X133564748Y-130266990D01*
X133610029Y-129972861D01*
X133681623Y-129860590D01*
X133869872Y-129845220D01*
X134188124Y-129883671D01*
G37*
G36*
X165490867Y-120829527D02*
G01*
X165476479Y-120895981D01*
X165304107Y-121149128D01*
X164969101Y-121478388D01*
X164512277Y-121846443D01*
X163974449Y-122215978D01*
X163638134Y-122441229D01*
X163274453Y-122713091D01*
X163041078Y-122921617D01*
X162920433Y-123064543D01*
X162880331Y-123188366D01*
X163009486Y-123266196D01*
X163156658Y-123366185D01*
X163197243Y-123584725D01*
X163018401Y-123830845D01*
X162926920Y-123894540D01*
X162739416Y-123915061D01*
X162461838Y-123783134D01*
X162419381Y-123758480D01*
X162106832Y-123620131D01*
X161805066Y-123600634D01*
X161441015Y-123708023D01*
X160941613Y-123950336D01*
X160718861Y-124067070D01*
X160363062Y-124241406D01*
X160163603Y-124306170D01*
X160076316Y-124271134D01*
X160057036Y-124146073D01*
X160061192Y-124125680D01*
X160202272Y-123964139D01*
X160503550Y-123739369D01*
X160910021Y-123493454D01*
X160921346Y-123487222D01*
X161816490Y-122983707D01*
X162656604Y-122490678D01*
X163407885Y-122029427D01*
X164036528Y-121621246D01*
X164508727Y-121287426D01*
X164790678Y-121049258D01*
X164929855Y-120914203D01*
X165217078Y-120710625D01*
X165416307Y-120678563D01*
X165490867Y-120829527D01*
G37*
G36*
X140154051Y-129636903D02*
G01*
X140320721Y-129804150D01*
X140620758Y-130142333D01*
X140723956Y-130335578D01*
X140627931Y-130380147D01*
X140542249Y-130369401D01*
X140393692Y-130387431D01*
X140298744Y-130497034D01*
X140245573Y-130738482D01*
X140222347Y-131152046D01*
X140217235Y-131777996D01*
X140217007Y-131987290D01*
X140210422Y-132533098D01*
X140187863Y-132892544D01*
X140140187Y-133116575D01*
X140058249Y-133256139D01*
X139932906Y-133362182D01*
X139580211Y-133496345D01*
X139094767Y-133486451D01*
X138598032Y-133314201D01*
X138437802Y-133214882D01*
X138332122Y-133073587D01*
X138457217Y-132999445D01*
X138800836Y-133010789D01*
X138946545Y-133026724D01*
X139234543Y-133011624D01*
X139421643Y-132888547D01*
X139525961Y-132621702D01*
X139565612Y-132175303D01*
X139558712Y-131513561D01*
X139522210Y-130331928D01*
X138985145Y-130339518D01*
X138729708Y-130333661D01*
X138509410Y-130276051D01*
X138448081Y-130141860D01*
X138450383Y-130106616D01*
X138557621Y-129979001D01*
X138858777Y-129950807D01*
X139092937Y-129953442D01*
X139403627Y-129905895D01*
X139549228Y-129757240D01*
X139585394Y-129470704D01*
X139585394Y-129078809D01*
X140154051Y-129636903D01*
G37*
G36*
X142636679Y-129894357D02*
G01*
X143095090Y-130109744D01*
X143388682Y-130434485D01*
X143488172Y-130830149D01*
X143364277Y-131258309D01*
X143205128Y-131440584D01*
X142871561Y-131701552D01*
X142460270Y-131949689D01*
X142413162Y-131974452D01*
X142007618Y-132214528D01*
X141795134Y-132413723D01*
X141733653Y-132610273D01*
X141750197Y-132751508D01*
X141916480Y-133022160D01*
X142202731Y-133162440D01*
X142535826Y-133165537D01*
X142842640Y-133024635D01*
X143050049Y-132732923D01*
X143208901Y-132411851D01*
X143359757Y-132312541D01*
X143460873Y-132450941D01*
X143478601Y-132820202D01*
X143437676Y-133136238D01*
X143333076Y-133342026D01*
X143123702Y-133445972D01*
X142655276Y-133521340D01*
X142102549Y-133466350D01*
X141626026Y-133272204D01*
X141281710Y-132963590D01*
X141125601Y-132565192D01*
X141123668Y-132544946D01*
X141134977Y-132183772D01*
X141270558Y-131896924D01*
X141569298Y-131634175D01*
X142070080Y-131345303D01*
X142512532Y-131085836D01*
X142784256Y-130831378D01*
X142835184Y-130592502D01*
X142678700Y-130347266D01*
X142555020Y-130242704D01*
X142219303Y-130130403D01*
X141910546Y-130254403D01*
X141670506Y-130604067D01*
X141548675Y-130853255D01*
X141420669Y-130968073D01*
X141329595Y-130834063D01*
X141273050Y-130450298D01*
X141283129Y-130193196D01*
X141427360Y-129948007D01*
X141749576Y-129833385D01*
X142277619Y-129832201D01*
X142636679Y-129894357D01*
G37*
G36*
X127805014Y-129867075D02*
G01*
X128177633Y-129973567D01*
X128294223Y-130034731D01*
X128676572Y-130352187D01*
X128823207Y-130717783D01*
X128737923Y-131106932D01*
X128424517Y-131495045D01*
X127886783Y-131857538D01*
X127831263Y-131887002D01*
X127413568Y-132137020D01*
X127184953Y-132349858D01*
X127100149Y-132566303D01*
X127099049Y-132575894D01*
X127161072Y-132916540D01*
X127419195Y-133114967D01*
X127849212Y-133152242D01*
X128036207Y-133123257D01*
X128247912Y-132996051D01*
X128366553Y-132701331D01*
X128401672Y-132588058D01*
X128526464Y-132357246D01*
X128654309Y-132275583D01*
X128735728Y-132385411D01*
X128739542Y-132405694D01*
X128798206Y-132926835D01*
X128736574Y-133254449D01*
X128549094Y-133419304D01*
X128276326Y-133489311D01*
X127765530Y-133507572D01*
X127256365Y-133417924D01*
X126830569Y-133238244D01*
X126569875Y-132986410D01*
X126561752Y-132971060D01*
X126406646Y-132465399D01*
X126494594Y-132018539D01*
X126820809Y-131640203D01*
X127380504Y-131340114D01*
X127679974Y-131205155D01*
X128025117Y-130944811D01*
X128139276Y-130665353D01*
X128011753Y-130383007D01*
X127940800Y-130314092D01*
X127620632Y-130159518D01*
X127297904Y-130181649D01*
X127048568Y-130359759D01*
X126948578Y-130673122D01*
X126917891Y-130796821D01*
X126759026Y-130900585D01*
X126696153Y-130876331D01*
X126599629Y-130690547D01*
X126564264Y-130406117D01*
X126596210Y-130125024D01*
X126701622Y-129949251D01*
X126927999Y-129869711D01*
X127349425Y-129831813D01*
X127805014Y-129867075D01*
G37*
G36*
X158602384Y-127995517D02*
G01*
X159102048Y-128016742D01*
X159432270Y-128059935D01*
X159551563Y-128120485D01*
X159548279Y-128149488D01*
X159425195Y-128262649D01*
X159415978Y-128263841D01*
X159172459Y-128310037D01*
X159163242Y-128312303D01*
X158919722Y-128357426D01*
X158892605Y-128398189D01*
X158850655Y-128658221D01*
X158819475Y-129142557D01*
X158800048Y-129832920D01*
X158793354Y-130711033D01*
X158793473Y-130922378D01*
X158797470Y-131705450D01*
X158809046Y-132275269D01*
X158830790Y-132663966D01*
X158865290Y-132903672D01*
X158915133Y-133026519D01*
X158982906Y-133064639D01*
X159060393Y-133071329D01*
X159319888Y-133096232D01*
X159375109Y-133111925D01*
X159519971Y-133269988D01*
X159502805Y-133332840D01*
X159339402Y-133388691D01*
X158987099Y-133418887D01*
X158414250Y-133427948D01*
X157955067Y-133422750D01*
X157553763Y-133397929D01*
X157348798Y-133348515D01*
X157308528Y-133269988D01*
X157336506Y-133213430D01*
X157508611Y-133096232D01*
X157573845Y-133089542D01*
X157845593Y-133064639D01*
X157862728Y-133061742D01*
X157926194Y-133007163D01*
X157972317Y-132860544D01*
X158003686Y-132589753D01*
X158022889Y-132162658D01*
X158032512Y-131547128D01*
X158035145Y-130711033D01*
X158033125Y-130209109D01*
X158019353Y-129431308D01*
X157993383Y-128851242D01*
X157956197Y-128487189D01*
X157908777Y-128357426D01*
X157899560Y-128356234D01*
X157656041Y-128310037D01*
X157646824Y-128307772D01*
X157403304Y-128262649D01*
X157374713Y-128255791D01*
X157276936Y-128120485D01*
X157289534Y-128099581D01*
X157480562Y-128044063D01*
X157869296Y-128007372D01*
X158414250Y-127994117D01*
X158602384Y-127995517D01*
G37*
G36*
X132479958Y-131470387D02*
G01*
X132488531Y-132046360D01*
X132347869Y-132588282D01*
X132050792Y-133045401D01*
X131590119Y-133366964D01*
X131589119Y-133367399D01*
X131199884Y-133493895D01*
X130836956Y-133549370D01*
X130637621Y-133535363D01*
X130246001Y-133443200D01*
X129870019Y-133293817D01*
X129587418Y-133120972D01*
X129475941Y-132958418D01*
X129515142Y-132843808D01*
X129697086Y-132867266D01*
X129742777Y-132884925D01*
X130048544Y-132960764D01*
X130435303Y-133018289D01*
X130744162Y-133016336D01*
X131209321Y-132854696D01*
X131530785Y-132519719D01*
X131665515Y-132045440D01*
X131687384Y-131614373D01*
X130676439Y-131604293D01*
X130558094Y-131602456D01*
X130077499Y-131581121D01*
X129704505Y-131543116D01*
X129511672Y-131495235D01*
X129431814Y-131353120D01*
X129431174Y-131172178D01*
X130107782Y-131172178D01*
X130215028Y-131225130D01*
X130510873Y-131264603D01*
X130929175Y-131279689D01*
X131310806Y-131274141D01*
X131591719Y-131243605D01*
X131720006Y-131172141D01*
X131750568Y-131043995D01*
X131716142Y-130851097D01*
X131531677Y-130529214D01*
X131255469Y-130286805D01*
X130965007Y-130206483D01*
X130768075Y-130227149D01*
X130530841Y-130252616D01*
X130419873Y-130349898D01*
X130277031Y-130601918D01*
X130157730Y-130909205D01*
X130107782Y-131172178D01*
X129431174Y-131172178D01*
X129430719Y-131043616D01*
X129524152Y-130665140D01*
X129698777Y-130302688D01*
X129785613Y-130198247D01*
X130145330Y-129970603D01*
X130614013Y-129840064D01*
X131091110Y-129840041D01*
X131096936Y-129841047D01*
X131630639Y-130045694D01*
X132043831Y-130419301D01*
X132329331Y-130911117D01*
X132365119Y-131043995D01*
X132479958Y-131470387D01*
G37*
G36*
X135907087Y-129914841D02*
G01*
X136331811Y-130228225D01*
X136439213Y-130323249D01*
X136610455Y-130437059D01*
X136649448Y-130395112D01*
X136632506Y-130274480D01*
X136693614Y-129997185D01*
X136766102Y-129898408D01*
X136944256Y-129845139D01*
X137276787Y-129896226D01*
X137364166Y-129915654D01*
X137662478Y-129977196D01*
X137813081Y-130000347D01*
X137889466Y-130042193D01*
X137912703Y-130187884D01*
X137826770Y-130284540D01*
X137790639Y-130288642D01*
X137531911Y-130316132D01*
X137531864Y-130316137D01*
X137461300Y-130439170D01*
X137402832Y-130750890D01*
X137358725Y-131188456D01*
X137331243Y-131689032D01*
X137322651Y-132189777D01*
X137335213Y-132627852D01*
X137371195Y-132940420D01*
X137432860Y-133064639D01*
X137459173Y-133067787D01*
X137710933Y-133096232D01*
X137766154Y-133111925D01*
X137911016Y-133269988D01*
X137909690Y-133315686D01*
X137785973Y-133381522D01*
X137474111Y-133417209D01*
X136942193Y-133427948D01*
X136843886Y-133427462D01*
X136362529Y-133407894D01*
X136039049Y-133363984D01*
X135920717Y-133301580D01*
X135924001Y-133272577D01*
X136047086Y-133159416D01*
X136056303Y-133158224D01*
X136299822Y-133112028D01*
X136312630Y-133108880D01*
X136535561Y-133064639D01*
X136549577Y-133054529D01*
X136599908Y-132875767D01*
X136637495Y-132521565D01*
X136655065Y-132053478D01*
X136656323Y-131883731D01*
X136647293Y-131429157D01*
X136605157Y-131137986D01*
X136513870Y-130940991D01*
X136357392Y-130768943D01*
X136218546Y-130648725D01*
X135997917Y-130551264D01*
X135752622Y-130615079D01*
X135579306Y-130676315D01*
X135413530Y-130627977D01*
X135242467Y-130389479D01*
X135109766Y-130141245D01*
X135111367Y-130009801D01*
X135253852Y-129912333D01*
X135529870Y-129830176D01*
X135907087Y-129914841D01*
G37*
G36*
X147167484Y-129863770D02*
G01*
X147403474Y-129895138D01*
X147736140Y-129948877D01*
X147891566Y-129976887D01*
X148083653Y-130006339D01*
X148138912Y-130017521D01*
X148188441Y-130102565D01*
X148069860Y-130217856D01*
X147830916Y-130306658D01*
X147483404Y-130376164D01*
X147474055Y-131649090D01*
X147467981Y-132096120D01*
X147446441Y-132548635D01*
X147400361Y-132846935D01*
X147319396Y-133048553D01*
X147193200Y-133211022D01*
X147176194Y-133228633D01*
X146770688Y-133470595D01*
X146269418Y-133519597D01*
X145745415Y-133367732D01*
X145664028Y-133327761D01*
X145346851Y-133198736D01*
X145188618Y-133207687D01*
X145145593Y-133353582D01*
X145110769Y-133445743D01*
X144924449Y-133489619D01*
X144645626Y-133456969D01*
X144282077Y-133437617D01*
X143981412Y-133390906D01*
X143914186Y-133269988D01*
X144000675Y-133178542D01*
X144240637Y-133127158D01*
X144246490Y-133127468D01*
X144419323Y-133101019D01*
X144499120Y-132954392D01*
X144522649Y-132621686D01*
X144534009Y-131941647D01*
X144547317Y-131193810D01*
X144561468Y-130646328D01*
X144580549Y-130268797D01*
X144608643Y-130030816D01*
X144649836Y-129901982D01*
X144708213Y-129851892D01*
X144787858Y-129850143D01*
X144892857Y-129866334D01*
X145440570Y-129946007D01*
X145775900Y-130024780D01*
X145912060Y-130110399D01*
X145875963Y-130212338D01*
X145786321Y-130256420D01*
X145538981Y-130302413D01*
X145377645Y-130340443D01*
X145261451Y-130453596D01*
X145259182Y-130495923D01*
X145250890Y-130754082D01*
X145240544Y-131172587D01*
X145229859Y-131684642D01*
X145223023Y-132205221D01*
X145235660Y-132538705D01*
X145281300Y-132725515D01*
X145373219Y-132819178D01*
X145524698Y-132873221D01*
X145596239Y-132892922D01*
X146040900Y-132985444D01*
X146359853Y-132966359D01*
X146574941Y-132807547D01*
X146708005Y-132480891D01*
X146780886Y-131958274D01*
X146815425Y-131211578D01*
X146851563Y-129826455D01*
X147167484Y-129863770D01*
G37*
G36*
X152114804Y-131930158D02*
G01*
X152009858Y-132514104D01*
X151758381Y-133010957D01*
X151367636Y-133356501D01*
X151156444Y-133452492D01*
X150604194Y-133532434D01*
X150073951Y-133364764D01*
X149765169Y-133210787D01*
X149610273Y-133206722D01*
X149568479Y-133353582D01*
X149533655Y-133445743D01*
X149347334Y-133489619D01*
X149068512Y-133456969D01*
X148704963Y-133437617D01*
X148404300Y-133390859D01*
X148336389Y-133269988D01*
X148364367Y-133213430D01*
X148536472Y-133096232D01*
X148566433Y-133092981D01*
X148810270Y-133064639D01*
X148848124Y-132975481D01*
X148885767Y-132649203D01*
X148913548Y-132098219D01*
X148926537Y-131523910D01*
X149568479Y-131523910D01*
X149568527Y-131630407D01*
X149573422Y-132169142D01*
X149593795Y-132512780D01*
X149640148Y-132711061D01*
X149722985Y-132813727D01*
X149852807Y-132870518D01*
X150361309Y-132976422D01*
X150815572Y-132907243D01*
X151135354Y-132627643D01*
X151330561Y-132132674D01*
X151384343Y-131701228D01*
X151319818Y-131140396D01*
X151113632Y-130677152D01*
X150790309Y-130360097D01*
X150374376Y-130237833D01*
X150061332Y-130232142D01*
X149809065Y-130253956D01*
X149661712Y-130349253D01*
X149591206Y-130562820D01*
X149569483Y-130939443D01*
X149568479Y-131523910D01*
X148926537Y-131523910D01*
X148930745Y-131337828D01*
X148936638Y-130383330D01*
X148936638Y-127717817D01*
X149473702Y-127786362D01*
X149596762Y-127801693D01*
X149953976Y-127842036D01*
X150179258Y-127861327D01*
X150247423Y-127880033D01*
X150295096Y-128025709D01*
X150291767Y-128035499D01*
X150226448Y-128141599D01*
X150074102Y-128196358D01*
X149752001Y-128231057D01*
X149702485Y-128241490D01*
X149617352Y-128340569D01*
X149584667Y-128585468D01*
X149594041Y-129028650D01*
X149631663Y-129810446D01*
X150225418Y-129831255D01*
X150586031Y-129874770D01*
X151206967Y-130108883D01*
X151689465Y-130511985D01*
X151856036Y-130757860D01*
X152065951Y-131323338D01*
X152096374Y-131701228D01*
X152114804Y-131930158D01*
G37*
G36*
X170331128Y-129583880D02*
G01*
X170320919Y-130213800D01*
X170323000Y-130879617D01*
X170337002Y-131533259D01*
X170362559Y-132126655D01*
X170399302Y-132611731D01*
X170446864Y-132940417D01*
X170504878Y-133064639D01*
X170733527Y-133091147D01*
X170922168Y-133148461D01*
X171070021Y-133269988D01*
X171090654Y-133294086D01*
X171079703Y-133359870D01*
X170914794Y-133400900D01*
X170563071Y-133421988D01*
X169991679Y-133427948D01*
X169441287Y-133421139D01*
X169048240Y-133395364D01*
X168847609Y-133346375D01*
X168808031Y-133269988D01*
X168816857Y-133245049D01*
X168887539Y-133146422D01*
X169052354Y-133095597D01*
X169390539Y-133064639D01*
X169432630Y-133059815D01*
X169534320Y-133004787D01*
X169591928Y-132850278D01*
X169616899Y-132545264D01*
X169620679Y-132038725D01*
X169615824Y-131028607D01*
X169023134Y-131078125D01*
X168389612Y-131043611D01*
X167798438Y-130841395D01*
X167319317Y-130502236D01*
X166998170Y-130059008D01*
X166880916Y-129544583D01*
X166887184Y-129510535D01*
X167707960Y-129510535D01*
X167740443Y-129851062D01*
X167917464Y-130246074D01*
X168190111Y-130512023D01*
X168390266Y-130589286D01*
X168743841Y-130668905D01*
X169119520Y-130715090D01*
X169428370Y-130717906D01*
X169581456Y-130667422D01*
X169590434Y-130630706D01*
X169609216Y-130389716D01*
X169621588Y-129984784D01*
X169625229Y-129478943D01*
X169622133Y-128373222D01*
X169104510Y-128373694D01*
X169059091Y-128374482D01*
X168610847Y-128450349D01*
X168193542Y-128622394D01*
X167880800Y-128851358D01*
X167746246Y-129097981D01*
X167736011Y-129213471D01*
X167707960Y-129510535D01*
X166887184Y-129510535D01*
X166982475Y-128992952D01*
X167296540Y-128511889D01*
X167793116Y-128187361D01*
X168080291Y-128108636D01*
X168533924Y-128042234D01*
X169070737Y-128000180D01*
X169634974Y-127982820D01*
X170170881Y-127990497D01*
X170622702Y-128023558D01*
X170934682Y-128082347D01*
X171051066Y-128167208D01*
X171017006Y-128259083D01*
X170829921Y-128339438D01*
X170713522Y-128340965D01*
X170468889Y-128355899D01*
X170439160Y-128390226D01*
X170389881Y-128624021D01*
X170353992Y-129037930D01*
X170335523Y-129478943D01*
X170331128Y-129583880D01*
G37*
G36*
X165644218Y-128455871D02*
G01*
X165618596Y-128608611D01*
X165597341Y-128963735D01*
X165581726Y-129469157D01*
X165571831Y-130074507D01*
X165567735Y-130729416D01*
X165569518Y-131383514D01*
X165577261Y-131986431D01*
X165591043Y-132487799D01*
X165610944Y-132837247D01*
X165637043Y-132984406D01*
X165741519Y-133031645D01*
X165997340Y-133089152D01*
X166198185Y-133151007D01*
X166347710Y-133281562D01*
X166335927Y-133326103D01*
X166165588Y-133384446D01*
X165785653Y-133417513D01*
X165174946Y-133427948D01*
X164641694Y-133421447D01*
X164247151Y-133395837D01*
X164045740Y-133346766D01*
X164006041Y-133269988D01*
X164017655Y-133237887D01*
X164090874Y-133143002D01*
X164261158Y-133094123D01*
X164606290Y-133064639D01*
X164664400Y-133058198D01*
X164769016Y-133003635D01*
X164827674Y-132852423D01*
X164853351Y-132552566D01*
X164859026Y-132052066D01*
X164859026Y-131055289D01*
X164122267Y-131072109D01*
X164071012Y-131073124D01*
X163596199Y-131053237D01*
X163232525Y-130952290D01*
X162853496Y-130736859D01*
X162837152Y-130725970D01*
X162368016Y-130309035D01*
X162135729Y-129834206D01*
X162134279Y-129746206D01*
X162938192Y-129746206D01*
X163113472Y-130206965D01*
X163503629Y-130540026D01*
X163593653Y-130579186D01*
X163911937Y-130661392D01*
X164283140Y-130712214D01*
X164608053Y-130721046D01*
X164787469Y-130677283D01*
X164801848Y-130640104D01*
X164831128Y-130400231D01*
X164851430Y-129996060D01*
X164859026Y-129489474D01*
X164859026Y-128373222D01*
X164347278Y-128373222D01*
X164130835Y-128384675D01*
X163629192Y-128502062D01*
X163237954Y-128719474D01*
X163027197Y-129003456D01*
X162981029Y-129168202D01*
X162938192Y-129746206D01*
X162134279Y-129746206D01*
X162126495Y-129273717D01*
X162174467Y-129067762D01*
X162460690Y-128563448D01*
X162963205Y-128184797D01*
X163053469Y-128151775D01*
X163378836Y-128091220D01*
X163840876Y-128044311D01*
X164384093Y-128012202D01*
X164952989Y-127996044D01*
X165492068Y-127996990D01*
X165945835Y-128016190D01*
X166258792Y-128054797D01*
X166375444Y-128113964D01*
X166354449Y-128176319D01*
X166185892Y-128262649D01*
X165902051Y-128293404D01*
X165737967Y-128347645D01*
X165715811Y-128373222D01*
X165644218Y-128455871D01*
G37*
G36*
X154734116Y-129875429D02*
G01*
X155072577Y-129987124D01*
X155243349Y-130047257D01*
X155463823Y-129951651D01*
X155535217Y-129896828D01*
X155770637Y-129849558D01*
X156164011Y-129909188D01*
X156306036Y-129942614D01*
X156609928Y-130026312D01*
X156757327Y-130086116D01*
X156784251Y-130141171D01*
X156679619Y-130243800D01*
X156402758Y-130302706D01*
X156331747Y-130310724D01*
X156238012Y-130353783D01*
X156182104Y-130471514D01*
X156156623Y-130708401D01*
X156154165Y-131108925D01*
X156167330Y-131717570D01*
X156187342Y-132267665D01*
X156226026Y-132755616D01*
X156282732Y-133034300D01*
X156360767Y-133127824D01*
X156607006Y-133157902D01*
X156743544Y-133207213D01*
X156771464Y-133301580D01*
X156770577Y-133307506D01*
X156634112Y-133369823D01*
X156301255Y-133412268D01*
X155823702Y-133427948D01*
X155779258Y-133427830D01*
X155311879Y-133409634D01*
X154993541Y-133365253D01*
X154875941Y-133301580D01*
X154877336Y-133284128D01*
X155005978Y-133169831D01*
X155286638Y-133160247D01*
X155328214Y-133165808D01*
X155364426Y-133143040D01*
X155387372Y-133045678D01*
X155401743Y-132829199D01*
X155412228Y-132449085D01*
X155423516Y-131860815D01*
X155425225Y-131660824D01*
X155409964Y-131150863D01*
X155369856Y-130759210D01*
X155310685Y-130552905D01*
X155286195Y-130525188D01*
X155030553Y-130409293D01*
X154663761Y-130374526D01*
X154295516Y-130421178D01*
X154035518Y-130549537D01*
X154007516Y-130592788D01*
X153936635Y-130844722D01*
X153877983Y-131239675D01*
X153835203Y-131712074D01*
X153811941Y-132196344D01*
X153811842Y-132626911D01*
X153838550Y-132938201D01*
X153895712Y-133064639D01*
X153921054Y-133068604D01*
X154138794Y-133096232D01*
X154194014Y-133111925D01*
X154338877Y-133269988D01*
X154317210Y-133317287D01*
X154122324Y-133381437D01*
X153789883Y-133420580D01*
X153392565Y-133433440D01*
X153003048Y-133418744D01*
X152694011Y-133375215D01*
X152538130Y-133301580D01*
X152551117Y-133218742D01*
X152729113Y-133154646D01*
X153012011Y-133160247D01*
X153036261Y-133124270D01*
X153072536Y-132893236D01*
X153097498Y-132494743D01*
X153106787Y-131982941D01*
X153107498Y-131822993D01*
X153138686Y-131083453D01*
X153222396Y-130548783D01*
X153367373Y-130181497D01*
X153582360Y-129944112D01*
X153593299Y-129936548D01*
X153884680Y-129846972D01*
X154301551Y-129827655D01*
X154734116Y-129875429D01*
G37*
G36*
X161237486Y-105480302D02*
G01*
X161537906Y-105856876D01*
X161747460Y-106141628D01*
X161826190Y-106287317D01*
X161757407Y-106383791D01*
X161578497Y-106329485D01*
X161357907Y-106136311D01*
X161265526Y-106033228D01*
X161140625Y-105961978D01*
X160977931Y-106021957D01*
X160695711Y-106223987D01*
X160602216Y-106294738D01*
X160258158Y-106564705D01*
X159993852Y-106785274D01*
X159845325Y-106912346D01*
X159524930Y-107179053D01*
X159101755Y-107526961D01*
X158627683Y-107913232D01*
X158598632Y-107936827D01*
X158093150Y-108362035D01*
X157772810Y-108668870D01*
X157615595Y-108881086D01*
X157599482Y-109022439D01*
X157648379Y-109149587D01*
X157752725Y-109466508D01*
X157773545Y-109555406D01*
X157742356Y-109662819D01*
X157578236Y-109560546D01*
X157279973Y-109247595D01*
X156846358Y-108722973D01*
X156691163Y-108522159D01*
X156438299Y-108161705D01*
X156292200Y-107902979D01*
X156280749Y-107791885D01*
X156447347Y-107831382D01*
X156676984Y-108003673D01*
X156848987Y-108157252D01*
X157014268Y-108185755D01*
X157254281Y-108052956D01*
X157375853Y-107967536D01*
X157710585Y-107705498D01*
X158064658Y-107402821D01*
X158137010Y-107337194D01*
X158379188Y-107090777D01*
X158449859Y-106937493D01*
X158375005Y-106829329D01*
X158278687Y-106751874D01*
X157895694Y-106284052D01*
X157629460Y-105695017D01*
X157578153Y-105382486D01*
X158035145Y-105382486D01*
X158051951Y-105518202D01*
X158178655Y-105894189D01*
X158383514Y-106293842D01*
X158611162Y-106600127D01*
X158623830Y-106612774D01*
X158777646Y-106739436D01*
X158914185Y-106719940D01*
X159136278Y-106543122D01*
X159175559Y-106509514D01*
X159470057Y-106269114D01*
X159807466Y-106006057D01*
X160062491Y-105810140D01*
X160351758Y-105566007D01*
X160483842Y-105393916D01*
X160488943Y-105246202D01*
X160397261Y-105075201D01*
X160250708Y-104887621D01*
X159871033Y-104565895D01*
X159449043Y-104357300D01*
X159072742Y-104312510D01*
X159060345Y-104314736D01*
X158725981Y-104465357D01*
X158392922Y-104745843D01*
X158137274Y-105077714D01*
X158035145Y-105382486D01*
X157578153Y-105382486D01*
X157529673Y-105087175D01*
X157530513Y-104977338D01*
X157567663Y-104603484D01*
X157697454Y-104331586D01*
X157971236Y-104039850D01*
X158290897Y-103776268D01*
X158579382Y-103663559D01*
X158959345Y-103654256D01*
X159068803Y-103663892D01*
X159484629Y-103752003D01*
X159798880Y-103890327D01*
X159926264Y-104000639D01*
X160190588Y-104272075D01*
X160523870Y-104640659D01*
X160886155Y-105059149D01*
X161042197Y-105246202D01*
X161237486Y-105480302D01*
G37*
G36*
X183462128Y-128455871D02*
G01*
X183436506Y-128608611D01*
X183415251Y-128963735D01*
X183399636Y-129469157D01*
X183389741Y-130074507D01*
X183386259Y-130631247D01*
X183385645Y-130729416D01*
X183387429Y-131383514D01*
X183395172Y-131986431D01*
X183408954Y-132487799D01*
X183428854Y-132837247D01*
X183454953Y-132984406D01*
X183559429Y-133031645D01*
X183815250Y-133089152D01*
X184016341Y-133152239D01*
X184167596Y-133287488D01*
X184159361Y-133317273D01*
X183985277Y-133377013D01*
X183633650Y-133414174D01*
X183157687Y-133429796D01*
X182610593Y-133424919D01*
X182045574Y-133400581D01*
X181515835Y-133357822D01*
X181074582Y-133297683D01*
X180775021Y-133221202D01*
X180314530Y-132917360D01*
X180006231Y-132441805D01*
X179896837Y-131847804D01*
X179903994Y-131742744D01*
X180715572Y-131742744D01*
X180723434Y-132256231D01*
X180929694Y-132660426D01*
X181317677Y-132914273D01*
X181340514Y-132921959D01*
X181749809Y-133011829D01*
X182190321Y-133048843D01*
X182676936Y-133048843D01*
X182676936Y-131840045D01*
X182676936Y-130631247D01*
X182139872Y-130690643D01*
X181802658Y-130739538D01*
X181288609Y-130897697D01*
X180955915Y-131157974D01*
X180762209Y-131546695D01*
X180715572Y-131742744D01*
X179903994Y-131742744D01*
X179911343Y-131634871D01*
X180034513Y-131300899D01*
X180326489Y-130951132D01*
X180466882Y-130821553D01*
X180765736Y-130605624D01*
X180989921Y-130519351D01*
X181073527Y-130506794D01*
X181050917Y-130426186D01*
X180813481Y-130254507D01*
X180546010Y-130030045D01*
X180292508Y-129598493D01*
X180274623Y-129430643D01*
X180973984Y-129430643D01*
X181109304Y-129849705D01*
X181428478Y-130150523D01*
X181718100Y-130259219D01*
X182082964Y-130332646D01*
X182410857Y-130351642D01*
X182600526Y-130303031D01*
X182605253Y-130296537D01*
X182641547Y-130116160D01*
X182667207Y-129760785D01*
X182676936Y-129299921D01*
X182676936Y-128373222D01*
X182242874Y-128373222D01*
X181752616Y-128420131D01*
X181312235Y-128615617D01*
X181048178Y-128971196D01*
X181047867Y-128971948D01*
X180973984Y-129430643D01*
X180274623Y-129430643D01*
X180241904Y-129123581D01*
X180396001Y-128667471D01*
X180756601Y-128292323D01*
X180768019Y-128284653D01*
X180972347Y-128169042D01*
X181210494Y-128091269D01*
X181537178Y-128043058D01*
X182007118Y-128016137D01*
X182675031Y-128002231D01*
X183109507Y-128000092D01*
X183704350Y-128015176D01*
X184069280Y-128053656D01*
X184193354Y-128114721D01*
X184172363Y-128176727D01*
X184003802Y-128262649D01*
X183719961Y-128293404D01*
X183555877Y-128347645D01*
X183533721Y-128373222D01*
X183462128Y-128455871D01*
G37*
G36*
X156978046Y-100248001D02*
G01*
X157254401Y-100589395D01*
X157285716Y-100628660D01*
X157444138Y-100897046D01*
X157464306Y-101070318D01*
X157360239Y-101102277D01*
X157145959Y-100946722D01*
X156980737Y-100794928D01*
X156799770Y-100719211D01*
X156594440Y-100799890D01*
X156285602Y-101046107D01*
X156230289Y-101093347D01*
X155872489Y-101391730D01*
X155555599Y-101646356D01*
X155264592Y-101880164D01*
X154938125Y-102155923D01*
X154905871Y-102184003D01*
X154587840Y-102448473D01*
X154238463Y-102724580D01*
X154162190Y-102783072D01*
X153718917Y-103130960D01*
X153445750Y-103372573D01*
X153312637Y-103545258D01*
X153289528Y-103686360D01*
X153346371Y-103833224D01*
X153430121Y-104018978D01*
X153485892Y-104239126D01*
X153478084Y-104287987D01*
X153367024Y-104342210D01*
X153288725Y-104283320D01*
X153080502Y-104064620D01*
X152805256Y-103741851D01*
X152509758Y-103373796D01*
X152240781Y-103019238D01*
X152045096Y-102736961D01*
X151969474Y-102585747D01*
X152010625Y-102482934D01*
X152169172Y-102510096D01*
X152404050Y-102711963D01*
X152429648Y-102739098D01*
X152684259Y-102882515D01*
X152973510Y-102805874D01*
X153327931Y-102502246D01*
X153356811Y-102472138D01*
X153538142Y-102305037D01*
X153612260Y-102277430D01*
X153618605Y-102285716D01*
X153733184Y-102214498D01*
X153946097Y-102019031D01*
X154279935Y-101685194D01*
X153947047Y-101399152D01*
X153595597Y-100975743D01*
X153330525Y-100369644D01*
X153292738Y-100113829D01*
X153766682Y-100113829D01*
X153788710Y-100351642D01*
X153924444Y-100690309D01*
X154026064Y-100900827D01*
X154277674Y-101293730D01*
X154506510Y-101469537D01*
X154696714Y-101413400D01*
X154729739Y-101380400D01*
X154951619Y-101187692D01*
X155250633Y-100951331D01*
X155336911Y-100885689D01*
X155847739Y-100478460D01*
X156160096Y-100190446D01*
X156265991Y-100028906D01*
X156265975Y-100027693D01*
X156172512Y-99866281D01*
X155943908Y-99622272D01*
X155650226Y-99358622D01*
X155361527Y-99138284D01*
X155147874Y-99024214D01*
X154926945Y-99013863D01*
X154532047Y-99146143D01*
X154158644Y-99414919D01*
X153894495Y-99768104D01*
X153854373Y-99854063D01*
X153766682Y-100113829D01*
X153292738Y-100113829D01*
X153233155Y-99710450D01*
X153237255Y-99582858D01*
X153337566Y-99190499D01*
X153613359Y-98821814D01*
X153854091Y-98575818D01*
X154037019Y-98443914D01*
X154257678Y-98389762D01*
X154623205Y-98364884D01*
X154839007Y-98368561D01*
X155235630Y-98474213D01*
X155641144Y-98730410D01*
X156090507Y-99162197D01*
X156618676Y-99794622D01*
X156672446Y-99863214D01*
X156804040Y-100028906D01*
X156978046Y-100248001D01*
G37*
G36*
X170088806Y-100972415D02*
G01*
X170100928Y-101014897D01*
X170175873Y-101285198D01*
X170274248Y-101646356D01*
X170288403Y-101693926D01*
X170445367Y-102070561D01*
X170694147Y-102546199D01*
X170987701Y-103029634D01*
X171074346Y-103164837D01*
X171311436Y-103577294D01*
X171461201Y-103906306D01*
X171494303Y-104090446D01*
X171496981Y-104258019D01*
X171632002Y-104503208D01*
X171638224Y-104510131D01*
X171763650Y-104718708D01*
X171730990Y-104946949D01*
X171529723Y-105274168D01*
X171458755Y-105413215D01*
X171444322Y-105666366D01*
X171528919Y-106065782D01*
X171581199Y-106305230D01*
X171654238Y-106844278D01*
X171682906Y-107378335D01*
X171703398Y-107836096D01*
X171780910Y-108139242D01*
X171935643Y-108343868D01*
X172054687Y-108460330D01*
X172173196Y-108660249D01*
X172061180Y-108759689D01*
X171715607Y-108764447D01*
X171564738Y-108752503D01*
X171335663Y-108770378D01*
X171230430Y-108907014D01*
X171171620Y-109228445D01*
X171160645Y-109299051D01*
X171066458Y-109702115D01*
X170948306Y-110011924D01*
X170909781Y-110118972D01*
X170846918Y-110484211D01*
X170801737Y-111015066D01*
X170780060Y-111654710D01*
X170778289Y-111759147D01*
X170730731Y-112555918D01*
X170630780Y-113298972D01*
X170489124Y-113938600D01*
X170316450Y-114425094D01*
X170123445Y-114708745D01*
X170106341Y-114725516D01*
X169964697Y-114931543D01*
X169762479Y-115288516D01*
X169537521Y-115730466D01*
X169481906Y-115842900D01*
X169266558Y-116233388D01*
X169085144Y-116496981D01*
X168972173Y-116581720D01*
X168895835Y-116536326D01*
X168796266Y-116286967D01*
X168822456Y-115871032D01*
X168969643Y-115323268D01*
X169233065Y-114678423D01*
X169435857Y-114223384D01*
X169618374Y-113704068D01*
X169727368Y-113177284D01*
X169794732Y-112520492D01*
X169809772Y-112285249D01*
X169824041Y-111777396D01*
X169810500Y-111379865D01*
X169770412Y-111163229D01*
X169733689Y-110983878D01*
X169836597Y-110841575D01*
X170041013Y-110871783D01*
X170091777Y-110903692D01*
X170135852Y-110906007D01*
X170180902Y-110840560D01*
X170238984Y-110671864D01*
X170322157Y-110364431D01*
X170442481Y-109882776D01*
X170612014Y-109191410D01*
X170631968Y-109109823D01*
X170779593Y-108474105D01*
X170868247Y-107982363D01*
X170906222Y-107544947D01*
X170901810Y-107072207D01*
X170863303Y-106474494D01*
X170839629Y-106140459D01*
X170805526Y-105538167D01*
X170786264Y-105017325D01*
X170785502Y-104663090D01*
X170786007Y-104648099D01*
X170729880Y-104129635D01*
X170554932Y-103484660D01*
X170286687Y-102790763D01*
X169950672Y-102125532D01*
X169886867Y-102007048D01*
X169725263Y-101589152D01*
X169683703Y-101250700D01*
X169714866Y-101107161D01*
X169835014Y-100899757D01*
X169980171Y-100840752D01*
X170088806Y-100972415D01*
G37*
G36*
X176736053Y-131415920D02*
G01*
X176516285Y-131896102D01*
X176490330Y-131931249D01*
X176347713Y-132149419D01*
X176357213Y-132279201D01*
X176519444Y-132422867D01*
X176651546Y-132579475D01*
X176756824Y-132895911D01*
X176744856Y-133215854D01*
X176606311Y-133431010D01*
X176548153Y-133491555D01*
X176576616Y-133653604D01*
X176780067Y-133931806D01*
X176843167Y-134010097D01*
X176973737Y-134252810D01*
X177076266Y-134443400D01*
X177064059Y-134816841D01*
X176807293Y-135128143D01*
X176306718Y-135375026D01*
X176215868Y-135402716D01*
X175733369Y-135484855D01*
X175248862Y-135491248D01*
X174536796Y-135340255D01*
X174012653Y-135042776D01*
X173689055Y-134609540D01*
X173675040Y-134538813D01*
X174241307Y-134538813D01*
X174462286Y-134880530D01*
X174521410Y-134925776D01*
X174851630Y-135075373D01*
X175254373Y-135162499D01*
X175316697Y-135167544D01*
X175809976Y-135114434D01*
X176180612Y-134916000D01*
X176396373Y-134614655D01*
X176425030Y-134252810D01*
X176234355Y-133872881D01*
X176215133Y-133852449D01*
X175944857Y-133726999D01*
X175537095Y-133672201D01*
X175084898Y-133686062D01*
X174681318Y-133766586D01*
X174419407Y-133911779D01*
X174260670Y-134165074D01*
X174241307Y-134538813D01*
X173675040Y-134538813D01*
X173578429Y-134051257D01*
X173594327Y-133813373D01*
X173713839Y-133491088D01*
X173979724Y-133272698D01*
X174426601Y-133135404D01*
X175089090Y-133056406D01*
X175206082Y-133047183D01*
X175671536Y-132997314D01*
X176021238Y-132939174D01*
X176186870Y-132883520D01*
X176227231Y-132803919D01*
X176172438Y-132610451D01*
X176000126Y-132444476D01*
X175784273Y-132395642D01*
X175447619Y-132410447D01*
X174960674Y-132294927D01*
X174523559Y-132055800D01*
X174203907Y-131733565D01*
X174069350Y-131368721D01*
X174085329Y-130982332D01*
X174768537Y-130982332D01*
X174775610Y-131402174D01*
X174922856Y-131771886D01*
X175018815Y-131883238D01*
X175326958Y-132032947D01*
X175645594Y-131966531D01*
X175898179Y-131690386D01*
X176007929Y-131384970D01*
X176035579Y-130939903D01*
X175931475Y-130540640D01*
X175716308Y-130252894D01*
X175410767Y-130142376D01*
X175372125Y-130144189D01*
X175088418Y-130281124D01*
X174880014Y-130584577D01*
X174768537Y-130982332D01*
X174085329Y-130982332D01*
X174093398Y-130787208D01*
X174238073Y-130426704D01*
X174249577Y-130412150D01*
X174269557Y-130296836D01*
X174067783Y-130253779D01*
X173863038Y-130247760D01*
X173673205Y-130253779D01*
X173629041Y-130238773D01*
X173578429Y-130079192D01*
X173578931Y-130068225D01*
X173644317Y-129976401D01*
X173840690Y-129912643D01*
X174198388Y-129873442D01*
X174747754Y-129855287D01*
X175519126Y-129854668D01*
X175784801Y-129884978D01*
X176241653Y-130095603D01*
X176570982Y-130458850D01*
X176745034Y-130917896D01*
X176744637Y-130939903D01*
X176736053Y-131415920D01*
G37*
G36*
X165726185Y-111039530D02*
G01*
X166004630Y-111436724D01*
X166124701Y-111679722D01*
X166081461Y-111758566D01*
X165869971Y-111663298D01*
X165711966Y-111543416D01*
X165617235Y-111409491D01*
X165599991Y-111342695D01*
X165452388Y-111321858D01*
X165183036Y-111462717D01*
X164827434Y-111749970D01*
X164648748Y-111909875D01*
X164436374Y-112084352D01*
X164353553Y-112128470D01*
X164333601Y-112134913D01*
X164295395Y-112147251D01*
X164126262Y-112292873D01*
X163956489Y-112451193D01*
X163539943Y-112814213D01*
X163053059Y-113216988D01*
X162580982Y-113588147D01*
X162305239Y-113800323D01*
X162026483Y-114038790D01*
X161904004Y-114209679D01*
X161908467Y-114362232D01*
X162010535Y-114545696D01*
X162143241Y-114766472D01*
X162205295Y-114910567D01*
X162181636Y-114979854D01*
X162033192Y-114936365D01*
X161754458Y-114691817D01*
X161352387Y-114251580D01*
X161284500Y-114172240D01*
X160653110Y-113373336D01*
X160227049Y-112693096D01*
X160032165Y-112191255D01*
X160562508Y-112191255D01*
X160578549Y-112316978D01*
X160701741Y-112674967D01*
X160906665Y-113057379D01*
X161032984Y-113243861D01*
X161223882Y-113491245D01*
X161335132Y-113588147D01*
X161378189Y-113568987D01*
X161586801Y-113428203D01*
X161918138Y-113180502D01*
X162323705Y-112861530D01*
X163227966Y-112134913D01*
X162662256Y-111616893D01*
X162349756Y-111347877D01*
X162059851Y-111181912D01*
X161740331Y-111135715D01*
X161283091Y-111174617D01*
X161272595Y-111176307D01*
X161059481Y-111312369D01*
X160826740Y-111588049D01*
X160639405Y-111911594D01*
X160562508Y-112191255D01*
X160032165Y-112191255D01*
X160001477Y-112112231D01*
X159971552Y-111611454D01*
X160132434Y-111171478D01*
X160479280Y-110773014D01*
X160594406Y-110690740D01*
X162754785Y-110690740D01*
X162783995Y-110839995D01*
X162899293Y-111101436D01*
X162904407Y-111111347D01*
X163005351Y-111343723D01*
X163010167Y-111439888D01*
X163010664Y-111480144D01*
X163135003Y-111629440D01*
X163186606Y-111678181D01*
X163376216Y-111787303D01*
X163593736Y-111764446D01*
X163889289Y-111593888D01*
X164312995Y-111259907D01*
X164967461Y-110713835D01*
X164628915Y-110330594D01*
X164528751Y-110220493D01*
X164154934Y-109892656D01*
X163818241Y-109766167D01*
X163465079Y-109817396D01*
X163287989Y-109906559D01*
X163014125Y-110195118D01*
X162754785Y-110690740D01*
X160594406Y-110690740D01*
X160712828Y-110606111D01*
X161221801Y-110457328D01*
X161820707Y-110538739D01*
X161915859Y-110566924D01*
X162207845Y-110648767D01*
X162352541Y-110681679D01*
X162357830Y-110679522D01*
X162376862Y-110543398D01*
X162358108Y-110260475D01*
X162348295Y-110075292D01*
X162428471Y-109777070D01*
X162679952Y-109468254D01*
X163008537Y-109200468D01*
X163375340Y-109067047D01*
X163762709Y-109120002D01*
X164194705Y-109368770D01*
X164695388Y-109822789D01*
X165288818Y-110491495D01*
X165294305Y-110498097D01*
X165466391Y-110713835D01*
X165726185Y-111039530D01*
G37*
G36*
X158795479Y-92373032D02*
G01*
X159398341Y-92480495D01*
X160152023Y-92583607D01*
X161015989Y-92675633D01*
X161295793Y-92700966D01*
X161646355Y-92721590D01*
X161828215Y-92697514D01*
X161895057Y-92615884D01*
X161900566Y-92463849D01*
X161906340Y-92319076D01*
X162001891Y-92208957D01*
X162268479Y-92212302D01*
X162548544Y-92281188D01*
X162695671Y-92388157D01*
X162736733Y-92460187D01*
X162913258Y-92693268D01*
X163169551Y-92991755D01*
X163222145Y-93054047D01*
X163311892Y-93160342D01*
X163456451Y-93369241D01*
X163515397Y-93454423D01*
X163595344Y-93653906D01*
X163616900Y-93717577D01*
X163820597Y-93887640D01*
X164195593Y-94056407D01*
X164581870Y-94189376D01*
X165074537Y-94338479D01*
X165419921Y-94402048D01*
X165671655Y-94387955D01*
X165883373Y-94304070D01*
X166219843Y-94160627D01*
X166446336Y-94160898D01*
X166501749Y-94297344D01*
X166374627Y-94534182D01*
X166053517Y-94835624D01*
X165929524Y-94938768D01*
X165721292Y-95172360D01*
X165667559Y-95340005D01*
X165733163Y-95450505D01*
X165930942Y-95731982D01*
X166223385Y-96125061D01*
X166575050Y-96581264D01*
X167420203Y-97660073D01*
X167778512Y-97448415D01*
X167923475Y-97370558D01*
X168166370Y-97312571D01*
X168243716Y-97445496D01*
X168154423Y-97768407D01*
X168130225Y-97829178D01*
X168083159Y-98024712D01*
X168119899Y-98224091D01*
X168262702Y-98493694D01*
X168533827Y-98899899D01*
X168782603Y-99292100D01*
X168956843Y-99652616D01*
X168987266Y-99867328D01*
X168939090Y-99966768D01*
X168836024Y-100066754D01*
X168827548Y-100064555D01*
X168682038Y-99959824D01*
X168413884Y-99729399D01*
X168073849Y-99416582D01*
X167813709Y-99156561D01*
X167494814Y-98758723D01*
X167386389Y-98472066D01*
X167325320Y-98247955D01*
X167038877Y-97996931D01*
X166843129Y-97880589D01*
X166329672Y-97401500D01*
X165887199Y-96697256D01*
X165839637Y-96608315D01*
X165464419Y-96079747D01*
X164935416Y-95515052D01*
X164315319Y-94975624D01*
X163666823Y-94522857D01*
X163539271Y-94447498D01*
X162954190Y-94148267D01*
X162277686Y-93878358D01*
X161469678Y-93624856D01*
X160490086Y-93374847D01*
X160464344Y-93369241D01*
X162710767Y-93369241D01*
X162715910Y-93403878D01*
X162844593Y-93495610D01*
X162890300Y-93485688D01*
X162900319Y-93369241D01*
X162874383Y-93331424D01*
X162766493Y-93242873D01*
X162753882Y-93246159D01*
X162710767Y-93369241D01*
X160464344Y-93369241D01*
X159338073Y-93123963D01*
X161826190Y-93123963D01*
X161846111Y-93177400D01*
X162011776Y-93242873D01*
X162104844Y-93216553D01*
X162124903Y-93054047D01*
X162052049Y-92956536D01*
X161903489Y-92955829D01*
X161826190Y-93123963D01*
X159338073Y-93123963D01*
X159298827Y-93115416D01*
X158583327Y-92972536D01*
X157939505Y-92858902D01*
X157390531Y-92788148D01*
X156856229Y-92752695D01*
X156256423Y-92744965D01*
X155510938Y-92757379D01*
X154881291Y-92770355D01*
X154347268Y-92773412D01*
X153994475Y-92760076D01*
X153784478Y-92726839D01*
X153678841Y-92670198D01*
X153639129Y-92586645D01*
X153635012Y-92560010D01*
X153657972Y-92455037D01*
X153773104Y-92372006D01*
X154012457Y-92303998D01*
X154071144Y-92295112D01*
X157529673Y-92295112D01*
X157592857Y-92358296D01*
X157656041Y-92295112D01*
X157592857Y-92231928D01*
X157529673Y-92295112D01*
X154071144Y-92295112D01*
X154408081Y-92244095D01*
X154992026Y-92185376D01*
X155796340Y-92120924D01*
X155818955Y-92119218D01*
X156429287Y-92067632D01*
X156846209Y-92012850D01*
X157126991Y-91940226D01*
X157328906Y-91835112D01*
X157509225Y-91682862D01*
X157741575Y-91482104D01*
X157991677Y-91353311D01*
X158114298Y-91432012D01*
X158100259Y-91717669D01*
X158085722Y-91790680D01*
X158093683Y-92057820D01*
X158261469Y-92217792D01*
X158383974Y-92267957D01*
X158490321Y-92295112D01*
X158795479Y-92373032D01*
G37*
G36*
X174825814Y-110593526D02*
G01*
X174649227Y-111134135D01*
X174299643Y-111768800D01*
X173771443Y-112537000D01*
X173484983Y-112943703D01*
X173215858Y-113394699D01*
X173099089Y-113732171D01*
X173122496Y-113997627D01*
X173273898Y-114232573D01*
X173364522Y-114357122D01*
X173407517Y-114598146D01*
X173272396Y-114872242D01*
X172942867Y-115205428D01*
X172402636Y-115623719D01*
X171841700Y-116041618D01*
X171241599Y-116534073D01*
X170836575Y-116931326D01*
X170635403Y-117224478D01*
X170646854Y-117404632D01*
X170724607Y-117537929D01*
X170790265Y-117899190D01*
X170781602Y-118361905D01*
X170702762Y-118840189D01*
X170557891Y-119248156D01*
X170388597Y-119543151D01*
X170123115Y-119871034D01*
X169768473Y-120153268D01*
X169273465Y-120428489D01*
X168586887Y-120735332D01*
X168291369Y-120860940D01*
X167828048Y-121064782D01*
X167480950Y-121226410D01*
X167308877Y-121318971D01*
X167245504Y-121420902D01*
X167154772Y-121722167D01*
X167085529Y-122128496D01*
X166939697Y-122823725D01*
X166647820Y-123504830D01*
X166249869Y-124013520D01*
X166172885Y-124075133D01*
X165915827Y-124197616D01*
X165528108Y-124277458D01*
X164948860Y-124329440D01*
X163926689Y-124392625D01*
X163771561Y-125002863D01*
X163715719Y-125195011D01*
X163560925Y-125587063D01*
X163402035Y-125850010D01*
X163315704Y-125924048D01*
X162974755Y-126125865D01*
X162449899Y-126375543D01*
X161780219Y-126655198D01*
X161004797Y-126946948D01*
X160945544Y-126967593D01*
X160289175Y-127101674D01*
X159727919Y-127015875D01*
X159226428Y-126705393D01*
X159043858Y-126540235D01*
X158863747Y-126320714D01*
X158814134Y-126085890D01*
X158853202Y-125726040D01*
X158874614Y-125577630D01*
X158921156Y-125069744D01*
X158897821Y-124623290D01*
X158787477Y-124186143D01*
X158572990Y-123706173D01*
X158237226Y-123131255D01*
X157763054Y-122409260D01*
X157761639Y-122407164D01*
X157517432Y-122028253D01*
X157343329Y-121725278D01*
X157276936Y-121563661D01*
X157273160Y-121548284D01*
X157145722Y-121392608D01*
X156873722Y-121142789D01*
X156506794Y-120845134D01*
X156259333Y-120649047D01*
X155769496Y-120195873D01*
X155461376Y-119769461D01*
X155300586Y-119312890D01*
X155252743Y-118769241D01*
X155246714Y-118601520D01*
X155166618Y-118041867D01*
X155018457Y-117568744D01*
X154900435Y-117336728D01*
X154562101Y-116781213D01*
X154114437Y-116132926D01*
X153600835Y-115450723D01*
X153064690Y-114793459D01*
X152549396Y-114219988D01*
X152048723Y-113662483D01*
X151565135Y-113060413D01*
X151143550Y-112474205D01*
X150822933Y-111958080D01*
X150642251Y-111566256D01*
X150640668Y-111561302D01*
X150544147Y-111321184D01*
X150361066Y-110913024D01*
X150117096Y-110392682D01*
X149837906Y-109816014D01*
X149473151Y-109128086D01*
X148902757Y-108228663D01*
X148309151Y-107478550D01*
X147718908Y-106910089D01*
X147158607Y-106555621D01*
X147061341Y-106508333D01*
X146692099Y-106258967D01*
X146431340Y-105981643D01*
X146314330Y-105834356D01*
X146027445Y-105523893D01*
X145617755Y-105107135D01*
X145120659Y-104619932D01*
X144571557Y-104098137D01*
X144122245Y-103672915D01*
X143625030Y-103190334D01*
X143213376Y-102777427D01*
X142920814Y-102467950D01*
X142780879Y-102295656D01*
X142734160Y-102200231D01*
X142597678Y-101868049D01*
X142423022Y-101400240D01*
X142236536Y-100865988D01*
X142133757Y-100572130D01*
X141951297Y-100098693D01*
X141793260Y-99745766D01*
X141685359Y-99573639D01*
X141677171Y-99567421D01*
X141462436Y-99474368D01*
X141082363Y-99360486D01*
X140613595Y-99248991D01*
X140169138Y-99146956D01*
X139547819Y-98946212D01*
X139125099Y-98692168D01*
X138866206Y-98348416D01*
X138736369Y-97878548D01*
X138700817Y-97246156D01*
X138706359Y-97079231D01*
X139206762Y-97079231D01*
X139240187Y-97267732D01*
X139407104Y-97663083D01*
X139673790Y-98105916D01*
X139994675Y-98513295D01*
X140078916Y-98588386D01*
X140447322Y-98786933D01*
X140933609Y-98933873D01*
X141324879Y-99037828D01*
X141825211Y-99298253D01*
X142175569Y-99709042D01*
X142429158Y-100319490D01*
X142546609Y-100644230D01*
X142705661Y-100940939D01*
X142942946Y-101258312D01*
X143295253Y-101645544D01*
X143799368Y-102151829D01*
X144223336Y-102576874D01*
X144797407Y-103172468D01*
X145340964Y-103755915D01*
X145777593Y-104246310D01*
X145898035Y-104383569D01*
X146431853Y-104946722D01*
X147030494Y-105525990D01*
X147585717Y-106015465D01*
X147862237Y-106255725D01*
X148662074Y-107081227D01*
X149439300Y-108058259D01*
X150145422Y-109116375D01*
X150731946Y-110185125D01*
X151150382Y-111194062D01*
X151260915Y-111503543D01*
X151607953Y-112229090D01*
X152070432Y-112866125D01*
X152409274Y-113262484D01*
X152939873Y-113889982D01*
X153368799Y-114410237D01*
X153739001Y-114876772D01*
X154093428Y-115343110D01*
X154475026Y-115862774D01*
X154708336Y-116181051D01*
X155039904Y-116622692D01*
X155310035Y-116969999D01*
X155476009Y-117167300D01*
X155584957Y-117324311D01*
X155647556Y-117556940D01*
X155669508Y-117922041D01*
X155659128Y-118479175D01*
X155620921Y-119560652D01*
X156213737Y-120112708D01*
X156489223Y-120346289D01*
X156840480Y-120577705D01*
X157095224Y-120664764D01*
X157174597Y-120674787D01*
X157380215Y-120792554D01*
X157632647Y-121069508D01*
X157965107Y-121539031D01*
X157984777Y-121568538D01*
X158341683Y-122083897D01*
X158720650Y-122601739D01*
X159042856Y-123014177D01*
X159281260Y-123321553D01*
X159444834Y-123613625D01*
X159424214Y-123774620D01*
X159223739Y-123823968D01*
X159177763Y-123826071D01*
X159101140Y-123891880D01*
X159183563Y-124097452D01*
X159223088Y-124197501D01*
X159275605Y-124629326D01*
X159247050Y-125285519D01*
X159224065Y-125548693D01*
X159204829Y-125926782D01*
X159234515Y-126158685D01*
X159328279Y-126314736D01*
X159501278Y-126465268D01*
X159728611Y-126609524D01*
X160062207Y-126702093D01*
X160479511Y-126682826D01*
X161026353Y-126548249D01*
X161748563Y-126294887D01*
X161975091Y-126207298D01*
X162581795Y-125945713D01*
X162992531Y-125702870D01*
X163244630Y-125444084D01*
X163375424Y-125134671D01*
X163422247Y-124739948D01*
X163429975Y-124549636D01*
X163445653Y-124218466D01*
X163457161Y-124045112D01*
X163496604Y-124021752D01*
X163733835Y-123985047D01*
X164136953Y-123959756D01*
X164649888Y-123950336D01*
X164744707Y-123950197D01*
X165299127Y-123939080D01*
X165662658Y-123903975D01*
X165889284Y-123836161D01*
X166032989Y-123726919D01*
X166171434Y-123550195D01*
X166466151Y-122992995D01*
X166672622Y-122340707D01*
X166751773Y-121703335D01*
X166770781Y-121303649D01*
X166839322Y-121067693D01*
X166975693Y-120964542D01*
X167220584Y-120881772D01*
X167757730Y-120683102D01*
X168327877Y-120455408D01*
X168863237Y-120227097D01*
X169296020Y-120026575D01*
X169558437Y-119882249D01*
X169721749Y-119731877D01*
X169989712Y-119383234D01*
X170231068Y-118967255D01*
X170410337Y-118583460D01*
X170487248Y-118331170D01*
X170468611Y-118132764D01*
X170365238Y-117902451D01*
X170359204Y-117890678D01*
X170222890Y-117558317D01*
X170166489Y-117291486D01*
X170174238Y-117259194D01*
X170309508Y-117054183D01*
X170580952Y-116736375D01*
X170946491Y-116347232D01*
X171364044Y-115928215D01*
X171791530Y-115520786D01*
X172186870Y-115166405D01*
X172507983Y-114906534D01*
X172712790Y-114782634D01*
X172771896Y-114760587D01*
X172872125Y-114641457D01*
X172814540Y-114394601D01*
X172755714Y-114223143D01*
X172689158Y-113815640D01*
X172760215Y-113415438D01*
X172985632Y-112963745D01*
X173382155Y-112401767D01*
X173611766Y-112093299D01*
X174089611Y-111358643D01*
X174370891Y-110749168D01*
X174463006Y-110250142D01*
X174462117Y-110231061D01*
X174369506Y-109956129D01*
X174148902Y-109560449D01*
X173834962Y-109107093D01*
X173206918Y-108277332D01*
X173582225Y-107259442D01*
X173757620Y-106753366D01*
X173915263Y-106150419D01*
X173945874Y-105707011D01*
X173850235Y-105388182D01*
X173629126Y-105158972D01*
X173441642Y-105024619D01*
X173022461Y-104691990D01*
X172662102Y-104365622D01*
X172409790Y-104092004D01*
X172314747Y-103917625D01*
X172314769Y-103915818D01*
X172367985Y-103721785D01*
X172503948Y-103376316D01*
X172693752Y-102952976D01*
X172839854Y-102631778D01*
X173039180Y-102078803D01*
X173075003Y-101676996D01*
X172935630Y-101388963D01*
X172609368Y-101177310D01*
X172084525Y-101004642D01*
X172068058Y-101000296D01*
X171644991Y-100886157D01*
X171334055Y-100797746D01*
X171201517Y-100753883D01*
X171200909Y-100726993D01*
X171273175Y-100539812D01*
X171422661Y-100240138D01*
X171603059Y-99764686D01*
X171676078Y-99256445D01*
X171636031Y-98804387D01*
X171480170Y-98492021D01*
X171430053Y-98446690D01*
X171146275Y-98245181D01*
X170789371Y-98040293D01*
X170683754Y-97982203D01*
X170360635Y-97752189D01*
X170162649Y-97532216D01*
X170034763Y-97361912D01*
X169701890Y-97085530D01*
X169309279Y-96869268D01*
X168965991Y-96781543D01*
X168937769Y-96780929D01*
X168816916Y-96745158D01*
X168746772Y-96615958D01*
X168711705Y-96340237D01*
X168696080Y-95864901D01*
X168676008Y-95374797D01*
X168598317Y-94845736D01*
X168434115Y-94452715D01*
X168151448Y-94128433D01*
X167718362Y-93805588D01*
X167430217Y-93620392D01*
X167138866Y-93468221D01*
X166936165Y-93433514D01*
X166755886Y-93494894D01*
X166547285Y-93571546D01*
X166308222Y-93574730D01*
X166225893Y-93495274D01*
X166043520Y-93224135D01*
X165808514Y-92811926D01*
X165551491Y-92309823D01*
X165460246Y-92122675D01*
X165174485Y-91555375D01*
X164953716Y-91182361D01*
X164764471Y-90976379D01*
X164573278Y-90910172D01*
X164346668Y-90956485D01*
X164051171Y-91088061D01*
X163921938Y-91148332D01*
X163293151Y-91372498D01*
X162758573Y-91447792D01*
X162366848Y-91366181D01*
X162298538Y-91315043D01*
X162105872Y-91040142D01*
X161949867Y-90642715D01*
X161783603Y-90198201D01*
X161514208Y-89749381D01*
X161208004Y-89440450D01*
X160907753Y-89325460D01*
X160750724Y-89342434D01*
X160358359Y-89427279D01*
X159855308Y-89563244D01*
X159318580Y-89727591D01*
X158825181Y-89897583D01*
X158452122Y-90050485D01*
X158365862Y-90090902D01*
X158122068Y-90172187D01*
X157927505Y-90121856D01*
X157664292Y-89920451D01*
X157252999Y-89645271D01*
X156608113Y-89353567D01*
X155913060Y-89149529D01*
X155279163Y-89072724D01*
X154894446Y-89101438D01*
X154348172Y-89189374D01*
X153804030Y-89315878D01*
X153549638Y-89390291D01*
X153096200Y-89565288D01*
X152743920Y-89794120D01*
X152388573Y-90137271D01*
X152129473Y-90408968D01*
X151904622Y-90630501D01*
X151798804Y-90715510D01*
X151780836Y-90712062D01*
X151595899Y-90647149D01*
X151293940Y-90525958D01*
X151133840Y-90468808D01*
X150519261Y-90357368D01*
X149832318Y-90353747D01*
X149193359Y-90461631D01*
X149107028Y-90493406D01*
X148774034Y-90689185D01*
X148382629Y-90993023D01*
X147985860Y-91354257D01*
X147636776Y-91722225D01*
X147388424Y-92046265D01*
X147293852Y-92275715D01*
X147293028Y-92314869D01*
X147249797Y-92438843D01*
X147093027Y-92467415D01*
X146756787Y-92418059D01*
X146661574Y-92401719D01*
X146217805Y-92348596D01*
X145849017Y-92335456D01*
X145577781Y-92396310D01*
X145165857Y-92549122D01*
X144680619Y-92763192D01*
X144183865Y-93008016D01*
X143737397Y-93253090D01*
X143403014Y-93467912D01*
X143242516Y-93621978D01*
X143182973Y-93784092D01*
X143075429Y-94135570D01*
X142955893Y-94569739D01*
X142864168Y-94908261D01*
X142720151Y-95404698D01*
X142598299Y-95787637D01*
X142438903Y-96247327D01*
X141359661Y-96305488D01*
X140938173Y-96337845D01*
X140219240Y-96449393D01*
X139673736Y-96616355D01*
X139327597Y-96829408D01*
X139206762Y-97079231D01*
X138706359Y-97079231D01*
X138707445Y-97046522D01*
X138819292Y-96544124D01*
X139072470Y-96247046D01*
X139471153Y-96149341D01*
X139729510Y-96115974D01*
X139901314Y-96022973D01*
X139959414Y-95982136D01*
X140216714Y-95920762D01*
X140589059Y-95896605D01*
X140651977Y-95896374D01*
X141004435Y-95873533D01*
X141186315Y-95793323D01*
X141269087Y-95627456D01*
X141355795Y-95455333D01*
X141546604Y-95437791D01*
X141659583Y-95474060D01*
X142037252Y-95462229D01*
X142334742Y-95212333D01*
X142554152Y-94722880D01*
X142618623Y-94488944D01*
X142709086Y-94081906D01*
X142744598Y-93797794D01*
X142753994Y-93720359D01*
X142928908Y-93414533D01*
X143287765Y-93084371D01*
X143781975Y-92755892D01*
X144362951Y-92455115D01*
X144982106Y-92208059D01*
X145590851Y-92040745D01*
X146140599Y-91979192D01*
X146322146Y-91977209D01*
X146603901Y-91946357D01*
X146834055Y-91846600D01*
X147086149Y-91638272D01*
X147433724Y-91281706D01*
X147446229Y-91268514D01*
X147828487Y-90888946D01*
X148200506Y-90557310D01*
X148483415Y-90344057D01*
X148811523Y-90201035D01*
X149375225Y-90069376D01*
X150022168Y-89999348D01*
X150660315Y-89999904D01*
X151197632Y-90079998D01*
X151751772Y-90229213D01*
X152334503Y-89655657D01*
X152633135Y-89379420D01*
X152950104Y-89161036D01*
X153319923Y-89014007D01*
X153841665Y-88887860D01*
X154418780Y-88778724D01*
X155090548Y-88708753D01*
X155693256Y-88741764D01*
X156322932Y-88885468D01*
X157075602Y-89147578D01*
X158261612Y-89601536D01*
X159254100Y-89328549D01*
X159805233Y-89180823D01*
X160389480Y-89043112D01*
X160810000Y-88980015D01*
X161111172Y-88989352D01*
X161337374Y-89068941D01*
X161532985Y-89216604D01*
X161670846Y-89369374D01*
X161931306Y-89742982D01*
X162166622Y-90168861D01*
X162310621Y-90443212D01*
X162509092Y-90746402D01*
X162659965Y-90892328D01*
X162691285Y-90899886D01*
X162937775Y-90858865D01*
X163249958Y-90712832D01*
X163491614Y-90596235D01*
X164016855Y-90479406D01*
X164542636Y-90501335D01*
X164965034Y-90664925D01*
X164986253Y-90681211D01*
X165190370Y-90916427D01*
X165439852Y-91298978D01*
X165685537Y-91754518D01*
X165752621Y-91891879D01*
X166008468Y-92394425D01*
X166205061Y-92715334D01*
X166378734Y-92894795D01*
X166565824Y-92973000D01*
X166802668Y-92990137D01*
X166975511Y-93012732D01*
X167425823Y-93182328D01*
X167979361Y-93500061D01*
X168084107Y-93569236D01*
X168463909Y-93848788D01*
X168723677Y-94125818D01*
X168898843Y-94463908D01*
X169024838Y-94926638D01*
X169137095Y-95577591D01*
X169172526Y-95782350D01*
X169305369Y-96238087D01*
X169481532Y-96462168D01*
X169634108Y-96566566D01*
X169937904Y-96807077D01*
X170285994Y-97106319D01*
X170537837Y-97321274D01*
X170968451Y-97656027D01*
X171336993Y-97907415D01*
X171539979Y-98037675D01*
X171832299Y-98296825D01*
X171991148Y-98606616D01*
X172041842Y-99032203D01*
X172009694Y-99638738D01*
X171926277Y-100559275D01*
X172468025Y-100714244D01*
X172848320Y-100835685D01*
X173146527Y-100992555D01*
X173309519Y-101207892D01*
X173400499Y-101537496D01*
X173415945Y-101646697D01*
X173401572Y-101964798D01*
X173291671Y-102365598D01*
X173070039Y-102916729D01*
X172908341Y-103292442D01*
X172780716Y-103626045D01*
X172740309Y-103834033D01*
X172777855Y-103975937D01*
X172884085Y-104111287D01*
X172971178Y-104195793D01*
X173279908Y-104436755D01*
X173651793Y-104678477D01*
X173826335Y-104791535D01*
X174122300Y-105040894D01*
X174275917Y-105255609D01*
X174297928Y-105351890D01*
X174309033Y-105772810D01*
X174244683Y-106310596D01*
X174118743Y-106876202D01*
X173945076Y-107380579D01*
X173873761Y-107552703D01*
X173752673Y-107894323D01*
X173704797Y-108109550D01*
X173705364Y-108118147D01*
X173791000Y-108312156D01*
X173993904Y-108630803D01*
X174273374Y-109009655D01*
X174373763Y-109141250D01*
X174682464Y-109636562D01*
X174835020Y-110107495D01*
X174832318Y-110250142D01*
X174825814Y-110593526D01*
G37*
D11*
%TO.C,J4*%
X223530000Y-134350000D02*
X223530000Y-140850000D01*
X223530000Y-140850000D02*
X229010000Y-140850000D01*
X229010000Y-134350000D02*
X223530000Y-134350000D01*
X229010000Y-140850000D02*
X229010000Y-134350000D01*
%TO.C,IC9*%
X228938000Y-128635000D02*
X228930000Y-118285000D01*
X230138000Y-128635000D02*
X228938000Y-128635000D01*
D14*
X222138000Y-126460000D02*
X222138000Y-126460000D01*
X222138000Y-126260000D02*
X222138000Y-126260000D01*
D11*
X228930000Y-118285000D02*
X230138000Y-118285000D01*
D14*
X222138000Y-126260000D02*
G75*
G03*
X222138000Y-126460000I0J-100000D01*
G01*
X222138000Y-126460000D02*
G75*
G03*
X222138000Y-126260000I0J100000D01*
G01*
D11*
%TO.C,J3*%
X208530000Y-134250000D02*
X208530000Y-140750000D01*
X208530000Y-140750000D02*
X214010000Y-140750000D01*
X214010000Y-134250000D02*
X208530000Y-134250000D01*
X214010000Y-140750000D02*
X214010000Y-134250000D01*
%TD*%
M02*
