%TF.GenerationSoftware,KiCad,Pcbnew,7.0.5-0*%
%TF.CreationDate,2023-07-08T10:36:10-04:00*%
%TF.ProjectId,nixie,6e697869-652e-46b6-9963-61645f706362,rev?*%
%TF.SameCoordinates,Original*%
%TF.FileFunction,Drillmap*%
%TF.FilePolarity,Positive*%
%FSLAX45Y45*%
G04 Gerber Fmt 4.5, Leading zero omitted, Abs format (unit mm)*
G04 Created by KiCad (PCBNEW 7.0.5-0) date 2023-07-08 10:36:10*
%MOMM*%
%LPD*%
G01*
G04 APERTURE LIST*
%ADD10C,0.050000*%
%ADD11C,0.200000*%
%ADD12C,0.030000*%
%ADD13C,0.084000*%
%ADD14C,0.090000*%
%ADD15C,0.110000*%
%ADD16C,0.120000*%
%ADD17C,0.127000*%
%ADD18C,0.130000*%
%ADD19C,0.350000*%
G04 APERTURE END LIST*
D10*
X24750000Y-14305700D02*
X24750000Y-7782210D01*
X6500000Y-14305700D02*
X24750000Y-14305700D01*
X24750000Y-7782210D02*
X6500000Y-7782210D01*
X6500000Y-7782210D02*
X6500000Y-14305700D01*
D11*
D12*
X7865000Y-9155000D02*
X7895000Y-9185000D01*
X7895000Y-9155000D02*
X7865000Y-9185000D01*
X8055000Y-9365000D02*
X8085000Y-9395000D01*
X8085000Y-9365000D02*
X8055000Y-9395000D01*
X8325000Y-8765000D02*
X8355000Y-8795000D01*
X8355000Y-8765000D02*
X8325000Y-8795000D01*
X8325000Y-9365000D02*
X8355000Y-9395000D01*
X8355000Y-9365000D02*
X8325000Y-9395000D01*
X9295000Y-9025000D02*
X9325000Y-9055000D01*
X9325000Y-9025000D02*
X9295000Y-9055000D01*
X9425000Y-8737200D02*
X9455000Y-8767200D01*
X9455000Y-8737200D02*
X9425000Y-8767200D01*
X9575000Y-8505000D02*
X9605000Y-8535000D01*
X9605000Y-8505000D02*
X9575000Y-8535000D01*
X10585000Y-9365000D02*
X10615000Y-9395000D01*
X10615000Y-9365000D02*
X10585000Y-9395000D01*
X10855000Y-9365000D02*
X10885000Y-9395000D01*
X10885000Y-9365000D02*
X10855000Y-9395000D01*
X11075000Y-8895000D02*
X11105000Y-8925000D01*
X11105000Y-8895000D02*
X11075000Y-8925000D01*
X11495000Y-11405000D02*
X11525000Y-11435000D01*
X11525000Y-11405000D02*
X11495000Y-11435000D01*
X11785000Y-8895000D02*
X11815000Y-8925000D01*
X11815000Y-8895000D02*
X11785000Y-8925000D01*
X11795000Y-10425000D02*
X11825000Y-10455000D01*
X11825000Y-10425000D02*
X11795000Y-10455000D01*
X11955000Y-9035000D02*
X11985000Y-9065000D01*
X11985000Y-9035000D02*
X11955000Y-9065000D01*
X12105000Y-10025000D02*
X12135000Y-10055000D01*
X12135000Y-10025000D02*
X12105000Y-10055000D01*
X12825000Y-11225000D02*
X12855000Y-11255000D01*
X12855000Y-11225000D02*
X12825000Y-11255000D01*
X12835000Y-12345000D02*
X12865000Y-12375000D01*
X12865000Y-12345000D02*
X12835000Y-12375000D01*
X12945000Y-9035000D02*
X12975000Y-9065000D01*
X12975000Y-9035000D02*
X12945000Y-9065000D01*
X13115000Y-8735000D02*
X13145000Y-8765000D01*
X13145000Y-8735000D02*
X13115000Y-8765000D01*
X13265000Y-12355000D02*
X13295000Y-12385000D01*
X13295000Y-12355000D02*
X13265000Y-12385000D01*
X14105000Y-9365000D02*
X14135000Y-9395000D01*
X14135000Y-9365000D02*
X14105000Y-9395000D01*
X14325000Y-12705000D02*
X14355000Y-12735000D01*
X14355000Y-12705000D02*
X14325000Y-12735000D01*
X14365000Y-9355000D02*
X14395000Y-9385000D01*
X14395000Y-9355000D02*
X14365000Y-9385000D01*
X14485000Y-12755000D02*
X14515000Y-12785000D01*
X14515000Y-12755000D02*
X14485000Y-12785000D01*
X15345000Y-9025000D02*
X15375000Y-9055000D01*
X15375000Y-9025000D02*
X15345000Y-9055000D01*
X15565000Y-9025000D02*
X15595000Y-9055000D01*
X15595000Y-9025000D02*
X15565000Y-9055000D01*
X15655000Y-8735000D02*
X15685000Y-8765000D01*
X15685000Y-8735000D02*
X15655000Y-8765000D01*
X15745000Y-13695000D02*
X15775000Y-13725000D01*
X15775000Y-13695000D02*
X15745000Y-13725000D01*
X16375000Y-12520000D02*
X16405000Y-12550000D01*
X16405000Y-12520000D02*
X16375000Y-12550000D01*
X16545000Y-13025000D02*
X16575000Y-13055000D01*
X16575000Y-13025000D02*
X16545000Y-13055000D01*
X16585000Y-13705000D02*
X16615000Y-13735000D01*
X16615000Y-13705000D02*
X16585000Y-13735000D01*
X16645000Y-9365000D02*
X16675000Y-9395000D01*
X16675000Y-9365000D02*
X16645000Y-9395000D01*
X16695000Y-12955000D02*
X16725000Y-12985000D01*
X16725000Y-12955000D02*
X16695000Y-12985000D01*
X16905000Y-9355000D02*
X16935000Y-9385000D01*
X16935000Y-9355000D02*
X16905000Y-9385000D01*
X17355000Y-13705000D02*
X17385000Y-13735000D01*
X17385000Y-13705000D02*
X17355000Y-13735000D01*
X17935000Y-9035000D02*
X17965000Y-9065000D01*
X17965000Y-9035000D02*
X17935000Y-9065000D01*
X18985000Y-9035000D02*
X19015000Y-9065000D01*
X19015000Y-9035000D02*
X18985000Y-9065000D01*
X19195000Y-8745000D02*
X19225000Y-8775000D01*
X19225000Y-8745000D02*
X19195000Y-8775000D01*
X20215000Y-9355000D02*
X20245000Y-9385000D01*
X20245000Y-9355000D02*
X20215000Y-9385000D01*
X20495000Y-9355000D02*
X20525000Y-9385000D01*
X20525000Y-9355000D02*
X20495000Y-9385000D01*
X21435000Y-9035000D02*
X21465000Y-9065000D01*
X21465000Y-9035000D02*
X21435000Y-9065000D01*
X21545000Y-10455000D02*
X21575000Y-10485000D01*
X21575000Y-10455000D02*
X21545000Y-10485000D01*
X21695000Y-9035000D02*
X21725000Y-9065000D01*
X21725000Y-9035000D02*
X21695000Y-9065000D01*
X22085000Y-10455000D02*
X22115000Y-10485000D01*
X22115000Y-10455000D02*
X22085000Y-10485000D01*
X22755000Y-9355000D02*
X22785000Y-9385000D01*
X22785000Y-9355000D02*
X22755000Y-9385000D01*
X23035000Y-9355000D02*
X23065000Y-9385000D01*
X23065000Y-9355000D02*
X23035000Y-9385000D01*
X24175000Y-9035000D02*
X24205000Y-9065000D01*
X24205000Y-9035000D02*
X24175000Y-9065000D01*
D10*
X6695000Y-8900000D02*
G75*
G03*
X6695000Y-8900000I-25000J0D01*
G01*
X6705000Y-9960000D02*
G75*
G03*
X6705000Y-9960000I-25000J0D01*
G01*
X6715000Y-9450000D02*
G75*
G03*
X6715000Y-9450000I-25000J0D01*
G01*
X6715000Y-10450000D02*
G75*
G03*
X6715000Y-10450000I-25000J0D01*
G01*
X6715000Y-13400000D02*
G75*
G03*
X6715000Y-13400000I-25000J0D01*
G01*
X6785000Y-11300000D02*
G75*
G03*
X6785000Y-11300000I-25000J0D01*
G01*
X6815000Y-11000000D02*
G75*
G03*
X6815000Y-11000000I-25000J0D01*
G01*
X7144887Y-13167109D02*
G75*
G03*
X7144887Y-13167109I-25000J0D01*
G01*
X7385000Y-11730000D02*
G75*
G03*
X7385000Y-11730000I-25000J0D01*
G01*
X7435000Y-14170000D02*
G75*
G03*
X7435000Y-14170000I-25000J0D01*
G01*
X7455000Y-11290000D02*
G75*
G03*
X7455000Y-11290000I-25000J0D01*
G01*
X7545000Y-8160000D02*
G75*
G03*
X7545000Y-8160000I-25000J0D01*
G01*
X7885000Y-9000000D02*
G75*
G03*
X7885000Y-9000000I-25000J0D01*
G01*
X8005000Y-10660000D02*
G75*
G03*
X8005000Y-10660000I-25000J0D01*
G01*
X8045000Y-13100000D02*
G75*
G03*
X8045000Y-13100000I-25000J0D01*
G01*
X8065000Y-14220000D02*
G75*
G03*
X8065000Y-14220000I-25000J0D01*
G01*
X8255000Y-12390000D02*
G75*
G03*
X8255000Y-12390000I-25000J0D01*
G01*
X8425000Y-13200000D02*
G75*
G03*
X8425000Y-13200000I-25000J0D01*
G01*
X8485000Y-12930000D02*
G75*
G03*
X8485000Y-12930000I-25000J0D01*
G01*
X8519465Y-9136207D02*
G75*
G03*
X8519465Y-9136207I-25000J0D01*
G01*
X8685000Y-12640000D02*
G75*
G03*
X8685000Y-12640000I-25000J0D01*
G01*
X8825000Y-10560000D02*
G75*
G03*
X8825000Y-10560000I-25000J0D01*
G01*
X8945000Y-12920000D02*
G75*
G03*
X8945000Y-12920000I-25000J0D01*
G01*
X8975000Y-12390000D02*
G75*
G03*
X8975000Y-12390000I-25000J0D01*
G01*
X8985000Y-13130000D02*
G75*
G03*
X8985000Y-13130000I-25000J0D01*
G01*
X9140859Y-8280447D02*
G75*
G03*
X9140859Y-8280447I-25000J0D01*
G01*
X9155000Y-14220000D02*
G75*
G03*
X9155000Y-14220000I-25000J0D01*
G01*
X9255000Y-8600000D02*
G75*
G03*
X9255000Y-8600000I-25000J0D01*
G01*
X9285000Y-8870000D02*
G75*
G03*
X9285000Y-8870000I-25000J0D01*
G01*
X9365000Y-11160000D02*
G75*
G03*
X9365000Y-11160000I-25000J0D01*
G01*
X9445000Y-12930000D02*
G75*
G03*
X9445000Y-12930000I-25000J0D01*
G01*
X9455000Y-8560000D02*
G75*
G03*
X9455000Y-8560000I-25000J0D01*
G01*
X9499908Y-8237361D02*
G75*
G03*
X9499908Y-8237361I-25000J0D01*
G01*
X9585000Y-12380000D02*
G75*
G03*
X9585000Y-12380000I-25000J0D01*
G01*
X9765000Y-11230000D02*
G75*
G03*
X9765000Y-11230000I-25000J0D01*
G01*
X9765000Y-13190000D02*
G75*
G03*
X9765000Y-13190000I-25000J0D01*
G01*
X9795000Y-8270000D02*
G75*
G03*
X9795000Y-8270000I-25000J0D01*
G01*
X10095000Y-13010000D02*
G75*
G03*
X10095000Y-13010000I-25000J0D01*
G01*
X10255000Y-14200000D02*
G75*
G03*
X10255000Y-14200000I-25000J0D01*
G01*
X10415000Y-12400000D02*
G75*
G03*
X10415000Y-12400000I-25000J0D01*
G01*
X10483641Y-9195374D02*
G75*
G03*
X10483641Y-9195374I-25000J0D01*
G01*
X10535000Y-13180000D02*
G75*
G03*
X10535000Y-13180000I-25000J0D01*
G01*
X10805000Y-12850000D02*
G75*
G03*
X10805000Y-12850000I-25000J0D01*
G01*
X10985000Y-12400000D02*
G75*
G03*
X10985000Y-12400000I-25000J0D01*
G01*
X11035000Y-13170000D02*
G75*
G03*
X11035000Y-13170000I-25000J0D01*
G01*
X11055000Y-9160000D02*
G75*
G03*
X11055000Y-9160000I-25000J0D01*
G01*
X11135000Y-14230000D02*
G75*
G03*
X11135000Y-14230000I-25000J0D01*
G01*
X11275000Y-10020000D02*
G75*
G03*
X11275000Y-10020000I-25000J0D01*
G01*
X11385000Y-12850000D02*
G75*
G03*
X11385000Y-12850000I-25000J0D01*
G01*
X11625000Y-10560000D02*
G75*
G03*
X11625000Y-10560000I-25000J0D01*
G01*
X11625157Y-13145667D02*
G75*
G03*
X11625157Y-13145667I-25000J0D01*
G01*
X11635000Y-12410000D02*
G75*
G03*
X11635000Y-12410000I-25000J0D01*
G01*
X11705000Y-14210000D02*
G75*
G03*
X11705000Y-14210000I-25000J0D01*
G01*
X11735000Y-8290000D02*
G75*
G03*
X11735000Y-8290000I-25000J0D01*
G01*
X11805000Y-12880000D02*
G75*
G03*
X11805000Y-12880000I-25000J0D01*
G01*
X11845000Y-9250000D02*
G75*
G03*
X11845000Y-9250000I-25000J0D01*
G01*
X11865000Y-8790000D02*
G75*
G03*
X11865000Y-8790000I-25000J0D01*
G01*
X11895000Y-8560000D02*
G75*
G03*
X11895000Y-8560000I-25000J0D01*
G01*
X11915000Y-11100000D02*
G75*
G03*
X11915000Y-11100000I-25000J0D01*
G01*
X11935000Y-12360000D02*
G75*
G03*
X11935000Y-12360000I-25000J0D01*
G01*
X12275000Y-8160000D02*
G75*
G03*
X12275000Y-8160000I-25000J0D01*
G01*
X12285000Y-10560000D02*
G75*
G03*
X12285000Y-10560000I-25000J0D01*
G01*
X12305000Y-8780000D02*
G75*
G03*
X12305000Y-8780000I-25000J0D01*
G01*
X12345000Y-8470000D02*
G75*
G03*
X12345000Y-8470000I-25000J0D01*
G01*
X12385000Y-12720000D02*
G75*
G03*
X12385000Y-12720000I-25000J0D01*
G01*
X12395000Y-9260000D02*
G75*
G03*
X12395000Y-9260000I-25000J0D01*
G01*
X12415000Y-10110000D02*
G75*
G03*
X12415000Y-10110000I-25000J0D01*
G01*
X12425000Y-14210000D02*
G75*
G03*
X12425000Y-14210000I-25000J0D01*
G01*
X12435000Y-12430000D02*
G75*
G03*
X12435000Y-12430000I-25000J0D01*
G01*
X12445500Y-12922864D02*
G75*
G03*
X12445500Y-12922864I-25000J0D01*
G01*
X12485000Y-9620000D02*
G75*
G03*
X12485000Y-9620000I-25000J0D01*
G01*
X12505000Y-11100000D02*
G75*
G03*
X12505000Y-11100000I-25000J0D01*
G01*
X12575000Y-10480000D02*
G75*
G03*
X12575000Y-10480000I-25000J0D01*
G01*
X12595000Y-7960000D02*
G75*
G03*
X12595000Y-7960000I-25000J0D01*
G01*
X12597473Y-8399469D02*
G75*
G03*
X12597473Y-8399469I-25000J0D01*
G01*
X12735000Y-8910000D02*
G75*
G03*
X12735000Y-8910000I-25000J0D01*
G01*
X12745000Y-9600000D02*
G75*
G03*
X12745000Y-9600000I-25000J0D01*
G01*
X12755000Y-10190000D02*
G75*
G03*
X12755000Y-10190000I-25000J0D01*
G01*
X12765000Y-9250000D02*
G75*
G03*
X12765000Y-9250000I-25000J0D01*
G01*
X12785000Y-11010000D02*
G75*
G03*
X12785000Y-11010000I-25000J0D01*
G01*
X12825000Y-11790000D02*
G75*
G03*
X12825000Y-11790000I-25000J0D01*
G01*
X12845000Y-12230000D02*
G75*
G03*
X12845000Y-12230000I-25000J0D01*
G01*
X12845000Y-13620000D02*
G75*
G03*
X12845000Y-13620000I-25000J0D01*
G01*
X12900087Y-8318772D02*
G75*
G03*
X12900087Y-8318772I-25000J0D01*
G01*
X12925000Y-8580000D02*
G75*
G03*
X12925000Y-8580000I-25000J0D01*
G01*
X12925000Y-12020000D02*
G75*
G03*
X12925000Y-12020000I-25000J0D01*
G01*
X12955000Y-8840000D02*
G75*
G03*
X12955000Y-8840000I-25000J0D01*
G01*
X13165000Y-11100000D02*
G75*
G03*
X13165000Y-11100000I-25000J0D01*
G01*
X13175000Y-14210000D02*
G75*
G03*
X13175000Y-14210000I-25000J0D01*
G01*
X13265000Y-8360000D02*
G75*
G03*
X13265000Y-8360000I-25000J0D01*
G01*
X13315000Y-11630000D02*
G75*
G03*
X13315000Y-11630000I-25000J0D01*
G01*
X13335000Y-7980000D02*
G75*
G03*
X13335000Y-7980000I-25000J0D01*
G01*
X13445000Y-11850000D02*
G75*
G03*
X13445000Y-11850000I-25000J0D01*
G01*
X13685000Y-12890000D02*
G75*
G03*
X13685000Y-12890000I-25000J0D01*
G01*
X13695000Y-11660000D02*
G75*
G03*
X13695000Y-11660000I-25000J0D01*
G01*
X13765000Y-13530000D02*
G75*
G03*
X13765000Y-13530000I-25000J0D01*
G01*
X13785000Y-12630000D02*
G75*
G03*
X13785000Y-12630000I-25000J0D01*
G01*
X13832844Y-11898450D02*
G75*
G03*
X13832844Y-11898450I-25000J0D01*
G01*
X13855000Y-10620000D02*
G75*
G03*
X13855000Y-10620000I-25000J0D01*
G01*
X13985000Y-9160000D02*
G75*
G03*
X13985000Y-9160000I-25000J0D01*
G01*
X14015000Y-7960000D02*
G75*
G03*
X14015000Y-7960000I-25000J0D01*
G01*
X14535000Y-13550000D02*
G75*
G03*
X14535000Y-13550000I-25000J0D01*
G01*
X14645000Y-11420000D02*
G75*
G03*
X14645000Y-11420000I-25000J0D01*
G01*
X14845000Y-8010000D02*
G75*
G03*
X14845000Y-8010000I-25000J0D01*
G01*
X14925000Y-12370000D02*
G75*
G03*
X14925000Y-12370000I-25000J0D01*
G01*
X15065000Y-10580000D02*
G75*
G03*
X15065000Y-10580000I-25000J0D01*
G01*
X15285000Y-12370000D02*
G75*
G03*
X15285000Y-12370000I-25000J0D01*
G01*
X15345000Y-13520000D02*
G75*
G03*
X15345000Y-13520000I-25000J0D01*
G01*
X15355000Y-8840000D02*
G75*
G03*
X15355000Y-8840000I-25000J0D01*
G01*
X15365000Y-11250000D02*
G75*
G03*
X15365000Y-11250000I-25000J0D01*
G01*
X15395000Y-8620000D02*
G75*
G03*
X15395000Y-8620000I-25000J0D01*
G01*
X15475000Y-12740000D02*
G75*
G03*
X15475000Y-12740000I-25000J0D01*
G01*
X15495000Y-9410000D02*
G75*
G03*
X15495000Y-9410000I-25000J0D01*
G01*
X15535000Y-8210000D02*
G75*
G03*
X15535000Y-8210000I-25000J0D01*
G01*
X15535000Y-8790000D02*
G75*
G03*
X15535000Y-8790000I-25000J0D01*
G01*
X15705000Y-8580000D02*
G75*
G03*
X15705000Y-8580000I-25000J0D01*
G01*
X15775000Y-11440000D02*
G75*
G03*
X15775000Y-11440000I-25000J0D01*
G01*
X16005000Y-12650000D02*
G75*
G03*
X16005000Y-12650000I-25000J0D01*
G01*
X16065000Y-8120000D02*
G75*
G03*
X16065000Y-8120000I-25000J0D01*
G01*
X16175000Y-13530000D02*
G75*
G03*
X16175000Y-13530000I-25000J0D01*
G01*
X16225663Y-7915321D02*
G75*
G03*
X16225663Y-7915321I-25000J0D01*
G01*
X16395000Y-10620000D02*
G75*
G03*
X16395000Y-10620000I-25000J0D01*
G01*
X16485000Y-9200000D02*
G75*
G03*
X16485000Y-9200000I-25000J0D01*
G01*
X16575000Y-12890000D02*
G75*
G03*
X16575000Y-12890000I-25000J0D01*
G01*
X16605000Y-14000000D02*
G75*
G03*
X16605000Y-14000000I-25000J0D01*
G01*
X16935000Y-13520000D02*
G75*
G03*
X16935000Y-13520000I-25000J0D01*
G01*
X16965000Y-7930000D02*
G75*
G03*
X16965000Y-7930000I-25000J0D01*
G01*
X17325000Y-9540000D02*
G75*
G03*
X17325000Y-9540000I-25000J0D01*
G01*
X17395000Y-14020000D02*
G75*
G03*
X17395000Y-14020000I-25000J0D01*
G01*
X17435000Y-13040000D02*
G75*
G03*
X17435000Y-13040000I-25000J0D01*
G01*
X17645000Y-10570000D02*
G75*
G03*
X17645000Y-10570000I-25000J0D01*
G01*
X17675000Y-8190000D02*
G75*
G03*
X17675000Y-8190000I-25000J0D01*
G01*
X17735000Y-11270000D02*
G75*
G03*
X17735000Y-11270000I-25000J0D01*
G01*
X17805000Y-13950000D02*
G75*
G03*
X17805000Y-13950000I-25000J0D01*
G01*
X17829590Y-13635648D02*
G75*
G03*
X17829590Y-13635648I-25000J0D01*
G01*
X17905000Y-8920000D02*
G75*
G03*
X17905000Y-8920000I-25000J0D01*
G01*
X17905000Y-12630000D02*
G75*
G03*
X17905000Y-12630000I-25000J0D01*
G01*
X18095000Y-8300000D02*
G75*
G03*
X18095000Y-8300000I-25000J0D01*
G01*
X18145000Y-9420000D02*
G75*
G03*
X18145000Y-9420000I-25000J0D01*
G01*
X18185000Y-11060000D02*
G75*
G03*
X18185000Y-11060000I-25000J0D01*
G01*
X18245000Y-14100000D02*
G75*
G03*
X18245000Y-14100000I-25000J0D01*
G01*
X18305000Y-8840000D02*
G75*
G03*
X18305000Y-8840000I-25000J0D01*
G01*
X18325000Y-10260000D02*
G75*
G03*
X18325000Y-10260000I-25000J0D01*
G01*
X18325000Y-12560000D02*
G75*
G03*
X18325000Y-12560000I-25000J0D01*
G01*
X18485000Y-9740000D02*
G75*
G03*
X18485000Y-9740000I-25000J0D01*
G01*
X18495000Y-13640000D02*
G75*
G03*
X18495000Y-13640000I-25000J0D01*
G01*
X18605000Y-11510000D02*
G75*
G03*
X18605000Y-11510000I-25000J0D01*
G01*
X18665000Y-13200000D02*
G75*
G03*
X18665000Y-13200000I-25000J0D01*
G01*
X18695000Y-7950000D02*
G75*
G03*
X18695000Y-7950000I-25000J0D01*
G01*
X18705000Y-10440000D02*
G75*
G03*
X18705000Y-10440000I-25000J0D01*
G01*
X18705000Y-11030000D02*
G75*
G03*
X18705000Y-11030000I-25000J0D01*
G01*
X18725000Y-10090000D02*
G75*
G03*
X18725000Y-10090000I-25000J0D01*
G01*
X18745000Y-8870000D02*
G75*
G03*
X18745000Y-8870000I-25000J0D01*
G01*
X19045000Y-12820000D02*
G75*
G03*
X19045000Y-12820000I-25000J0D01*
G01*
X19065000Y-8860000D02*
G75*
G03*
X19065000Y-8860000I-25000J0D01*
G01*
X19075000Y-8320000D02*
G75*
G03*
X19075000Y-8320000I-25000J0D01*
G01*
X19145000Y-8600000D02*
G75*
G03*
X19145000Y-8600000I-25000J0D01*
G01*
X19165000Y-13930000D02*
G75*
G03*
X19165000Y-13930000I-25000J0D01*
G01*
X19435000Y-13870000D02*
G75*
G03*
X19435000Y-13870000I-25000J0D01*
G01*
X19455000Y-13320000D02*
G75*
G03*
X19455000Y-13320000I-25000J0D01*
G01*
X19585000Y-8230000D02*
G75*
G03*
X19585000Y-8230000I-25000J0D01*
G01*
X19585000Y-12770000D02*
G75*
G03*
X19585000Y-12770000I-25000J0D01*
G01*
X19795000Y-11450000D02*
G75*
G03*
X19795000Y-11450000I-25000J0D01*
G01*
X19845000Y-13320000D02*
G75*
G03*
X19845000Y-13320000I-25000J0D01*
G01*
X19945000Y-13740000D02*
G75*
G03*
X19945000Y-13740000I-25000J0D01*
G01*
X20025000Y-10590000D02*
G75*
G03*
X20025000Y-10590000I-25000J0D01*
G01*
X20028969Y-14083575D02*
G75*
G03*
X20028969Y-14083575I-25000J0D01*
G01*
X20175000Y-12790000D02*
G75*
G03*
X20175000Y-12790000I-25000J0D01*
G01*
X20265000Y-13720000D02*
G75*
G03*
X20265000Y-13720000I-25000J0D01*
G01*
X20331525Y-11495443D02*
G75*
G03*
X20331525Y-11495443I-25000J0D01*
G01*
X20375000Y-9160000D02*
G75*
G03*
X20375000Y-9160000I-25000J0D01*
G01*
X20395000Y-9380000D02*
G75*
G03*
X20395000Y-9380000I-25000J0D01*
G01*
X20545000Y-13830000D02*
G75*
G03*
X20545000Y-13830000I-25000J0D01*
G01*
X20745000Y-11570000D02*
G75*
G03*
X20745000Y-11570000I-25000J0D01*
G01*
X20995000Y-12770000D02*
G75*
G03*
X20995000Y-12770000I-25000J0D01*
G01*
X21025000Y-11830000D02*
G75*
G03*
X21025000Y-11830000I-25000J0D01*
G01*
X21145000Y-10600000D02*
G75*
G03*
X21145000Y-10600000I-25000J0D01*
G01*
X21395000Y-11400000D02*
G75*
G03*
X21395000Y-11400000I-25000J0D01*
G01*
X21405000Y-11740000D02*
G75*
G03*
X21405000Y-11740000I-25000J0D01*
G01*
X21434954Y-8239553D02*
G75*
G03*
X21434954Y-8239553I-25000J0D01*
G01*
X21445000Y-8880000D02*
G75*
G03*
X21445000Y-8880000I-25000J0D01*
G01*
X21485000Y-8580000D02*
G75*
G03*
X21485000Y-8580000I-25000J0D01*
G01*
X21585000Y-10610000D02*
G75*
G03*
X21585000Y-10610000I-25000J0D01*
G01*
X21605000Y-12530000D02*
G75*
G03*
X21605000Y-12530000I-25000J0D01*
G01*
X21605000Y-12810000D02*
G75*
G03*
X21605000Y-12810000I-25000J0D01*
G01*
X21695000Y-13570000D02*
G75*
G03*
X21695000Y-13570000I-25000J0D01*
G01*
X21755000Y-13930000D02*
G75*
G03*
X21755000Y-13930000I-25000J0D01*
G01*
X21785000Y-11640000D02*
G75*
G03*
X21785000Y-11640000I-25000J0D01*
G01*
X21795000Y-8890000D02*
G75*
G03*
X21795000Y-8890000I-25000J0D01*
G01*
X21969294Y-8256606D02*
G75*
G03*
X21969294Y-8256606I-25000J0D01*
G01*
X22025000Y-11440000D02*
G75*
G03*
X22025000Y-11440000I-25000J0D01*
G01*
X22075000Y-13740000D02*
G75*
G03*
X22075000Y-13740000I-25000J0D01*
G01*
X22175000Y-10600000D02*
G75*
G03*
X22175000Y-10600000I-25000J0D01*
G01*
X22935000Y-9190000D02*
G75*
G03*
X22935000Y-9190000I-25000J0D01*
G01*
X22935000Y-9400000D02*
G75*
G03*
X22935000Y-9400000I-25000J0D01*
G01*
X23205000Y-13680000D02*
G75*
G03*
X23205000Y-13680000I-25000J0D01*
G01*
X23545000Y-14140000D02*
G75*
G03*
X23545000Y-14140000I-25000J0D01*
G01*
X23605000Y-8130000D02*
G75*
G03*
X23605000Y-8130000I-25000J0D01*
G01*
X23655310Y-10638123D02*
G75*
G03*
X23655310Y-10638123I-25000J0D01*
G01*
X23765000Y-13990000D02*
G75*
G03*
X23765000Y-13990000I-25000J0D01*
G01*
X23795000Y-11570000D02*
G75*
G03*
X23795000Y-11570000I-25000J0D01*
G01*
X23800355Y-11360194D02*
G75*
G03*
X23800355Y-11360194I-25000J0D01*
G01*
X24085000Y-8790000D02*
G75*
G03*
X24085000Y-8790000I-25000J0D01*
G01*
X24095000Y-11250000D02*
G75*
G03*
X24095000Y-11250000I-25000J0D01*
G01*
X24195000Y-10880000D02*
G75*
G03*
X24195000Y-10880000I-25000J0D01*
G01*
X24195000Y-12810000D02*
G75*
G03*
X24195000Y-12810000I-25000J0D01*
G01*
X24205000Y-11660000D02*
G75*
G03*
X24205000Y-11660000I-25000J0D01*
G01*
X24385000Y-8920000D02*
G75*
G03*
X24385000Y-8920000I-25000J0D01*
G01*
X24565000Y-9960000D02*
G75*
G03*
X24565000Y-9960000I-25000J0D01*
G01*
X24585000Y-9170000D02*
G75*
G03*
X24585000Y-9170000I-25000J0D01*
G01*
X24605000Y-10690000D02*
G75*
G03*
X24605000Y-10690000I-25000J0D01*
G01*
X24605000Y-13360000D02*
G75*
G03*
X24605000Y-13360000I-25000J0D01*
G01*
X24625000Y-11850000D02*
G75*
G03*
X24625000Y-11850000I-25000J0D01*
G01*
X24635000Y-11280000D02*
G75*
G03*
X24635000Y-11280000I-25000J0D01*
G01*
X24665000Y-12570000D02*
G75*
G03*
X24665000Y-12570000I-25000J0D01*
G01*
X6737500Y-8212500D02*
X6737500Y-8262500D01*
X6712500Y-8237500D02*
X6762500Y-8237500D01*
X6737500Y-13815000D02*
X6737500Y-13865000D01*
X6712500Y-13840000D02*
X6762500Y-13840000D01*
X6814384Y-8026884D02*
X6814384Y-8076884D01*
X6789384Y-8051884D02*
X6839384Y-8051884D01*
X6814384Y-8398116D02*
X6814384Y-8448116D01*
X6789384Y-8423116D02*
X6839384Y-8423116D01*
X6814384Y-13629384D02*
X6814384Y-13679384D01*
X6789384Y-13654384D02*
X6839384Y-13654384D01*
X6814384Y-14000615D02*
X6814384Y-14050615D01*
X6789384Y-14025615D02*
X6839384Y-14025615D01*
X7000000Y-7950000D02*
X7000000Y-8000000D01*
X6975000Y-7975000D02*
X7025000Y-7975000D01*
X7000000Y-8475000D02*
X7000000Y-8525000D01*
X6975000Y-8500000D02*
X7025000Y-8500000D01*
X7000000Y-13552500D02*
X7000000Y-13602500D01*
X6975000Y-13577500D02*
X7025000Y-13577500D01*
X7000000Y-14077500D02*
X7000000Y-14127500D01*
X6975000Y-14102500D02*
X7025000Y-14102500D01*
X7185615Y-8026884D02*
X7185615Y-8076884D01*
X7160615Y-8051884D02*
X7210615Y-8051884D01*
X7185615Y-8398116D02*
X7185615Y-8448116D01*
X7160615Y-8423116D02*
X7210615Y-8423116D01*
X7185615Y-13629384D02*
X7185615Y-13679384D01*
X7160615Y-13654384D02*
X7210615Y-13654384D01*
X7185615Y-14000615D02*
X7185615Y-14050615D01*
X7160615Y-14025615D02*
X7210615Y-14025615D01*
X7262500Y-8212500D02*
X7262500Y-8262500D01*
X7237500Y-8237500D02*
X7287500Y-8237500D01*
X7262500Y-13815000D02*
X7262500Y-13865000D01*
X7237500Y-13840000D02*
X7287500Y-13840000D01*
X23987500Y-8195000D02*
X23987500Y-8245000D01*
X23962500Y-8220000D02*
X24012500Y-8220000D01*
X23987500Y-13815000D02*
X23987500Y-13865000D01*
X23962500Y-13840000D02*
X24012500Y-13840000D01*
X24064384Y-8009384D02*
X24064384Y-8059384D01*
X24039384Y-8034384D02*
X24089384Y-8034384D01*
X24064384Y-8380615D02*
X24064384Y-8430616D01*
X24039384Y-8405616D02*
X24089384Y-8405616D01*
X24064384Y-13629384D02*
X24064384Y-13679384D01*
X24039384Y-13654384D02*
X24089384Y-13654384D01*
X24064384Y-14000615D02*
X24064384Y-14050615D01*
X24039384Y-14025615D02*
X24089384Y-14025615D01*
X24250000Y-7932500D02*
X24250000Y-7982500D01*
X24225000Y-7957500D02*
X24275000Y-7957500D01*
X24250000Y-8457500D02*
X24250000Y-8507500D01*
X24225000Y-8482500D02*
X24275000Y-8482500D01*
X24250000Y-13552500D02*
X24250000Y-13602500D01*
X24225000Y-13577500D02*
X24275000Y-13577500D01*
X24250000Y-14077500D02*
X24250000Y-14127500D01*
X24225000Y-14102500D02*
X24275000Y-14102500D01*
X24435615Y-8009384D02*
X24435615Y-8059384D01*
X24410615Y-8034384D02*
X24460615Y-8034384D01*
X24435615Y-8380615D02*
X24435615Y-8430616D01*
X24410615Y-8405616D02*
X24460615Y-8405616D01*
X24435615Y-13629384D02*
X24435615Y-13679384D01*
X24410615Y-13654384D02*
X24460615Y-13654384D01*
X24435615Y-14000615D02*
X24435615Y-14050615D01*
X24410615Y-14025615D02*
X24460615Y-14025615D01*
X24512500Y-8195000D02*
X24512500Y-8245000D01*
X24487500Y-8220000D02*
X24537500Y-8220000D01*
X24512500Y-13815000D02*
X24512500Y-13865000D01*
X24487500Y-13840000D02*
X24537500Y-13840000D01*
D13*
X7623099Y-9076009D02*
X7623099Y-9016611D01*
X7563701Y-9016611D01*
X7563701Y-9076009D01*
X7623099Y-9076009D01*
X7658809Y-8781899D02*
X7658809Y-8722501D01*
X7599411Y-8722501D01*
X7599411Y-8781899D01*
X7658809Y-8781899D01*
X7728159Y-9353029D02*
X7728159Y-9293631D01*
X7668761Y-9293631D01*
X7668761Y-9353029D01*
X7728159Y-9353029D01*
X7827109Y-8538079D02*
X7827109Y-8478681D01*
X7767711Y-8478681D01*
X7767711Y-8538079D01*
X7827109Y-8538079D01*
X7949919Y-9549489D02*
X7949919Y-9490091D01*
X7890521Y-9490091D01*
X7890521Y-9549489D01*
X7949919Y-9549489D01*
X8089449Y-8400389D02*
X8089449Y-8340991D01*
X8030051Y-8340991D01*
X8030051Y-8400389D01*
X8089449Y-8400389D01*
X8237579Y-9620389D02*
X8237579Y-9560991D01*
X8178181Y-9560991D01*
X8178181Y-9620389D01*
X8237579Y-9620389D01*
X8385709Y-8400389D02*
X8385709Y-8340991D01*
X8326311Y-8340991D01*
X8326311Y-8400389D01*
X8385709Y-8400389D01*
X8525239Y-9549489D02*
X8525239Y-9490091D01*
X8465841Y-9490091D01*
X8465841Y-9549489D01*
X8525239Y-9549489D01*
X8648049Y-8538079D02*
X8648049Y-8478681D01*
X8588651Y-8478681D01*
X8588651Y-8538079D01*
X8648049Y-8538079D01*
X8746999Y-9353029D02*
X8746999Y-9293631D01*
X8687601Y-9293631D01*
X8687601Y-9353029D01*
X8746999Y-9353029D01*
X8816349Y-8781899D02*
X8816349Y-8722501D01*
X8756951Y-8722501D01*
X8756951Y-8781899D01*
X8816349Y-8781899D01*
X8852059Y-9076009D02*
X8852059Y-9016611D01*
X8792661Y-9016611D01*
X8792661Y-9076009D01*
X8852059Y-9076009D01*
X10155279Y-9076009D02*
X10155279Y-9016611D01*
X10095881Y-9016611D01*
X10095881Y-9076009D01*
X10155279Y-9076009D01*
X10190989Y-8781899D02*
X10190989Y-8722501D01*
X10131591Y-8722501D01*
X10131591Y-8781899D01*
X10190989Y-8781899D01*
X10260339Y-9353029D02*
X10260339Y-9293631D01*
X10200941Y-9293631D01*
X10200941Y-9353029D01*
X10260339Y-9353029D01*
X10359289Y-8538079D02*
X10359289Y-8478681D01*
X10299891Y-8478681D01*
X10299891Y-8538079D01*
X10359289Y-8538079D01*
X10482099Y-9549489D02*
X10482099Y-9490091D01*
X10422701Y-9490091D01*
X10422701Y-9549489D01*
X10482099Y-9549489D01*
X10621629Y-8400389D02*
X10621629Y-8340991D01*
X10562231Y-8340991D01*
X10562231Y-8400389D01*
X10621629Y-8400389D01*
X10769759Y-9620389D02*
X10769759Y-9560991D01*
X10710361Y-9560991D01*
X10710361Y-9620389D01*
X10769759Y-9620389D01*
X10917889Y-8400389D02*
X10917889Y-8340991D01*
X10858491Y-8340991D01*
X10858491Y-8400389D01*
X10917889Y-8400389D01*
X11057419Y-9549489D02*
X11057419Y-9490091D01*
X10998021Y-9490091D01*
X10998021Y-9549489D01*
X11057419Y-9549489D01*
X11180229Y-8538079D02*
X11180229Y-8478681D01*
X11120831Y-8478681D01*
X11120831Y-8538079D01*
X11180229Y-8538079D01*
X11279179Y-9353029D02*
X11279179Y-9293631D01*
X11219781Y-9293631D01*
X11219781Y-9353029D01*
X11279179Y-9353029D01*
X11348529Y-8781899D02*
X11348529Y-8722501D01*
X11289131Y-8722501D01*
X11289131Y-8781899D01*
X11348529Y-8781899D01*
X11384239Y-9076009D02*
X11384239Y-9016611D01*
X11324841Y-9016611D01*
X11324841Y-9076009D01*
X11384239Y-9076009D01*
X13667499Y-9076009D02*
X13667499Y-9016611D01*
X13608101Y-9016611D01*
X13608101Y-9076009D01*
X13667499Y-9076009D01*
X13703209Y-8781899D02*
X13703209Y-8722501D01*
X13643811Y-8722501D01*
X13643811Y-8781899D01*
X13703209Y-8781899D01*
X13772559Y-9353029D02*
X13772559Y-9293631D01*
X13713161Y-9293631D01*
X13713161Y-9353029D01*
X13772559Y-9353029D01*
X13871509Y-8538079D02*
X13871509Y-8478681D01*
X13812111Y-8478681D01*
X13812111Y-8538079D01*
X13871509Y-8538079D01*
X13994319Y-9549489D02*
X13994319Y-9490091D01*
X13934921Y-9490091D01*
X13934921Y-9549489D01*
X13994319Y-9549489D01*
X14133849Y-8400389D02*
X14133849Y-8340991D01*
X14074451Y-8340991D01*
X14074451Y-8400389D01*
X14133849Y-8400389D01*
X14281979Y-9620389D02*
X14281979Y-9560991D01*
X14222581Y-9560991D01*
X14222581Y-9620389D01*
X14281979Y-9620389D01*
X14430109Y-8400389D02*
X14430109Y-8340991D01*
X14370711Y-8340991D01*
X14370711Y-8400389D01*
X14430109Y-8400389D01*
X14569639Y-9549489D02*
X14569639Y-9490091D01*
X14510241Y-9490091D01*
X14510241Y-9549489D01*
X14569639Y-9549489D01*
X14692449Y-8538079D02*
X14692449Y-8478681D01*
X14633051Y-8478681D01*
X14633051Y-8538079D01*
X14692449Y-8538079D01*
X14791399Y-9353029D02*
X14791399Y-9293631D01*
X14732001Y-9293631D01*
X14732001Y-9353029D01*
X14791399Y-9353029D01*
X14860749Y-8781899D02*
X14860749Y-8722501D01*
X14801351Y-8722501D01*
X14801351Y-8781899D01*
X14860749Y-8781899D01*
X14896459Y-9076009D02*
X14896459Y-9016611D01*
X14837061Y-9016611D01*
X14837061Y-9076009D01*
X14896459Y-9076009D01*
X16199679Y-9076009D02*
X16199679Y-9016611D01*
X16140281Y-9016611D01*
X16140281Y-9076009D01*
X16199679Y-9076009D01*
X16235389Y-8781899D02*
X16235389Y-8722501D01*
X16175991Y-8722501D01*
X16175991Y-8781899D01*
X16235389Y-8781899D01*
X16304739Y-9353029D02*
X16304739Y-9293631D01*
X16245341Y-9293631D01*
X16245341Y-9353029D01*
X16304739Y-9353029D01*
X16403689Y-8538079D02*
X16403689Y-8478681D01*
X16344291Y-8478681D01*
X16344291Y-8538079D01*
X16403689Y-8538079D01*
X16526499Y-9549489D02*
X16526499Y-9490091D01*
X16467101Y-9490091D01*
X16467101Y-9549489D01*
X16526499Y-9549489D01*
X16666029Y-8400389D02*
X16666029Y-8340991D01*
X16606631Y-8340991D01*
X16606631Y-8400389D01*
X16666029Y-8400389D01*
X16814159Y-9620389D02*
X16814159Y-9560991D01*
X16754761Y-9560991D01*
X16754761Y-9620389D01*
X16814159Y-9620389D01*
X16962289Y-8400389D02*
X16962289Y-8340991D01*
X16902891Y-8340991D01*
X16902891Y-8400389D01*
X16962289Y-8400389D01*
X17101819Y-9549489D02*
X17101819Y-9490091D01*
X17042421Y-9490091D01*
X17042421Y-9549489D01*
X17101819Y-9549489D01*
X17224629Y-8538079D02*
X17224629Y-8478681D01*
X17165231Y-8478681D01*
X17165231Y-8538079D01*
X17224629Y-8538079D01*
X17323579Y-9353029D02*
X17323579Y-9293631D01*
X17264181Y-9293631D01*
X17264181Y-9353029D01*
X17323579Y-9353029D01*
X17392929Y-8781899D02*
X17392929Y-8722501D01*
X17333531Y-8722501D01*
X17333531Y-8781899D01*
X17392929Y-8781899D01*
X17428639Y-9076009D02*
X17428639Y-9016611D01*
X17369241Y-9016611D01*
X17369241Y-9076009D01*
X17428639Y-9076009D01*
X19775239Y-9076009D02*
X19775239Y-9016611D01*
X19715841Y-9016611D01*
X19715841Y-9076009D01*
X19775239Y-9076009D01*
X19810949Y-8781899D02*
X19810949Y-8722501D01*
X19751551Y-8722501D01*
X19751551Y-8781899D01*
X19810949Y-8781899D01*
X19880299Y-9353029D02*
X19880299Y-9293631D01*
X19820901Y-9293631D01*
X19820901Y-9353029D01*
X19880299Y-9353029D01*
X19979249Y-8538079D02*
X19979249Y-8478681D01*
X19919851Y-8478681D01*
X19919851Y-8538079D01*
X19979249Y-8538079D01*
X20102059Y-9549489D02*
X20102059Y-9490091D01*
X20042661Y-9490091D01*
X20042661Y-9549489D01*
X20102059Y-9549489D01*
X20241589Y-8400389D02*
X20241589Y-8340991D01*
X20182191Y-8340991D01*
X20182191Y-8400389D01*
X20241589Y-8400389D01*
X20389719Y-9620389D02*
X20389719Y-9560991D01*
X20330321Y-9560991D01*
X20330321Y-9620389D01*
X20389719Y-9620389D01*
X20537849Y-8400389D02*
X20537849Y-8340991D01*
X20478451Y-8340991D01*
X20478451Y-8400389D01*
X20537849Y-8400389D01*
X20677379Y-9549489D02*
X20677379Y-9490091D01*
X20617981Y-9490091D01*
X20617981Y-9549489D01*
X20677379Y-9549489D01*
X20800189Y-8538079D02*
X20800189Y-8478681D01*
X20740791Y-8478681D01*
X20740791Y-8538079D01*
X20800189Y-8538079D01*
X20899139Y-9353029D02*
X20899139Y-9293631D01*
X20839741Y-9293631D01*
X20839741Y-9353029D01*
X20899139Y-9353029D01*
X20968489Y-8781899D02*
X20968489Y-8722501D01*
X20909091Y-8722501D01*
X20909091Y-8781899D01*
X20968489Y-8781899D01*
X21004199Y-9076009D02*
X21004199Y-9016611D01*
X20944801Y-9016611D01*
X20944801Y-9076009D01*
X21004199Y-9076009D01*
X22314159Y-9077919D02*
X22314159Y-9018521D01*
X22254761Y-9018521D01*
X22254761Y-9077919D01*
X22314159Y-9077919D01*
X22349869Y-8783809D02*
X22349869Y-8724411D01*
X22290471Y-8724411D01*
X22290471Y-8783809D01*
X22349869Y-8783809D01*
X22419219Y-9354939D02*
X22419219Y-9295541D01*
X22359821Y-9295541D01*
X22359821Y-9354939D01*
X22419219Y-9354939D01*
X22518169Y-8539989D02*
X22518169Y-8480591D01*
X22458771Y-8480591D01*
X22458771Y-8539989D01*
X22518169Y-8539989D01*
X22640979Y-9551399D02*
X22640979Y-9492001D01*
X22581581Y-9492001D01*
X22581581Y-9551399D01*
X22640979Y-9551399D01*
X22780509Y-8402299D02*
X22780509Y-8342901D01*
X22721111Y-8342901D01*
X22721111Y-8402299D01*
X22780509Y-8402299D01*
X22928639Y-9622299D02*
X22928639Y-9562901D01*
X22869241Y-9562901D01*
X22869241Y-9622299D01*
X22928639Y-9622299D01*
X23076769Y-8402299D02*
X23076769Y-8342901D01*
X23017371Y-8342901D01*
X23017371Y-8402299D01*
X23076769Y-8402299D01*
X23216299Y-9551399D02*
X23216299Y-9492001D01*
X23156901Y-9492001D01*
X23156901Y-9551399D01*
X23216299Y-9551399D01*
X23339109Y-8539989D02*
X23339109Y-8480591D01*
X23279711Y-8480591D01*
X23279711Y-8539989D01*
X23339109Y-8539989D01*
X23438059Y-9354939D02*
X23438059Y-9295541D01*
X23378661Y-9295541D01*
X23378661Y-9354939D01*
X23438059Y-9354939D01*
X23507409Y-8783809D02*
X23507409Y-8724411D01*
X23448011Y-8724411D01*
X23448011Y-8783809D01*
X23507409Y-8783809D01*
X23543119Y-9077919D02*
X23543119Y-9018521D01*
X23483721Y-9018521D01*
X23483721Y-9077919D01*
X23543119Y-9077919D01*
D14*
X7368260Y-10286700D02*
X7413260Y-10241700D01*
X7368260Y-10196700D01*
X7323260Y-10241700D01*
X7368260Y-10286700D01*
X7368260Y-11048700D02*
X7413260Y-11003700D01*
X7368260Y-10958700D01*
X7323260Y-11003700D01*
X7368260Y-11048700D01*
X7622260Y-10286700D02*
X7667260Y-10241700D01*
X7622260Y-10196700D01*
X7577260Y-10241700D01*
X7622260Y-10286700D01*
X7622260Y-11048700D02*
X7667260Y-11003700D01*
X7622260Y-10958700D01*
X7577260Y-11003700D01*
X7622260Y-11048700D01*
X7876260Y-10286700D02*
X7921260Y-10241700D01*
X7876260Y-10196700D01*
X7831260Y-10241700D01*
X7876260Y-10286700D01*
X7876260Y-11048700D02*
X7921260Y-11003700D01*
X7876260Y-10958700D01*
X7831260Y-11003700D01*
X7876260Y-11048700D01*
X8130260Y-10286700D02*
X8175260Y-10241700D01*
X8130260Y-10196700D01*
X8085260Y-10241700D01*
X8130260Y-10286700D01*
X8130260Y-11048700D02*
X8175260Y-11003700D01*
X8130260Y-10958700D01*
X8085260Y-11003700D01*
X8130260Y-11048700D01*
X8384260Y-10286700D02*
X8429260Y-10241700D01*
X8384260Y-10196700D01*
X8339260Y-10241700D01*
X8384260Y-10286700D01*
X8384260Y-11048700D02*
X8429260Y-11003700D01*
X8384260Y-10958700D01*
X8339260Y-11003700D01*
X8384260Y-11048700D01*
X8638260Y-10286700D02*
X8683260Y-10241700D01*
X8638260Y-10196700D01*
X8593260Y-10241700D01*
X8638260Y-10286700D01*
X8638260Y-11048700D02*
X8683260Y-11003700D01*
X8638260Y-10958700D01*
X8593260Y-11003700D01*
X8638260Y-11048700D01*
X8892260Y-10286700D02*
X8937260Y-10241700D01*
X8892260Y-10196700D01*
X8847260Y-10241700D01*
X8892260Y-10286700D01*
X8892260Y-11048700D02*
X8937260Y-11003700D01*
X8892260Y-10958700D01*
X8847260Y-11003700D01*
X8892260Y-11048700D01*
X9146260Y-10286700D02*
X9191260Y-10241700D01*
X9146260Y-10196700D01*
X9101260Y-10241700D01*
X9146260Y-10286700D01*
X9146260Y-11048700D02*
X9191260Y-11003700D01*
X9146260Y-10958700D01*
X9101260Y-11003700D01*
X9146260Y-11048700D01*
X9876460Y-10286700D02*
X9921460Y-10241700D01*
X9876460Y-10196700D01*
X9831460Y-10241700D01*
X9876460Y-10286700D01*
X9876460Y-11048700D02*
X9921460Y-11003700D01*
X9876460Y-10958700D01*
X9831460Y-11003700D01*
X9876460Y-11048700D01*
X10130460Y-10286700D02*
X10175460Y-10241700D01*
X10130460Y-10196700D01*
X10085460Y-10241700D01*
X10130460Y-10286700D01*
X10130460Y-11048700D02*
X10175460Y-11003700D01*
X10130460Y-10958700D01*
X10085460Y-11003700D01*
X10130460Y-11048700D01*
X10384460Y-10286700D02*
X10429460Y-10241700D01*
X10384460Y-10196700D01*
X10339460Y-10241700D01*
X10384460Y-10286700D01*
X10384460Y-11048700D02*
X10429460Y-11003700D01*
X10384460Y-10958700D01*
X10339460Y-11003700D01*
X10384460Y-11048700D01*
X10638460Y-10286700D02*
X10683460Y-10241700D01*
X10638460Y-10196700D01*
X10593460Y-10241700D01*
X10638460Y-10286700D01*
X10638460Y-11048700D02*
X10683460Y-11003700D01*
X10638460Y-10958700D01*
X10593460Y-11003700D01*
X10638460Y-11048700D01*
X10892460Y-10286700D02*
X10937460Y-10241700D01*
X10892460Y-10196700D01*
X10847460Y-10241700D01*
X10892460Y-10286700D01*
X10892460Y-11048700D02*
X10937460Y-11003700D01*
X10892460Y-10958700D01*
X10847460Y-11003700D01*
X10892460Y-11048700D01*
X11146460Y-10286700D02*
X11191460Y-10241700D01*
X11146460Y-10196700D01*
X11101460Y-10241700D01*
X11146460Y-10286700D01*
X11146460Y-11048700D02*
X11191460Y-11003700D01*
X11146460Y-10958700D01*
X11101460Y-11003700D01*
X11146460Y-11048700D01*
X11400460Y-10286700D02*
X11445460Y-10241700D01*
X11400460Y-10196700D01*
X11355460Y-10241700D01*
X11400460Y-10286700D01*
X11400460Y-11048700D02*
X11445460Y-11003700D01*
X11400460Y-10958700D01*
X11355460Y-11003700D01*
X11400460Y-11048700D01*
X11654460Y-10286700D02*
X11699460Y-10241700D01*
X11654460Y-10196700D01*
X11609460Y-10241700D01*
X11654460Y-10286700D01*
X11654460Y-11048700D02*
X11699460Y-11003700D01*
X11654460Y-10958700D01*
X11609460Y-11003700D01*
X11654460Y-11048700D01*
X13412660Y-10286700D02*
X13457660Y-10241700D01*
X13412660Y-10196700D01*
X13367660Y-10241700D01*
X13412660Y-10286700D01*
X13412660Y-11048700D02*
X13457660Y-11003700D01*
X13412660Y-10958700D01*
X13367660Y-11003700D01*
X13412660Y-11048700D01*
X13666660Y-10286700D02*
X13711660Y-10241700D01*
X13666660Y-10196700D01*
X13621660Y-10241700D01*
X13666660Y-10286700D01*
X13666660Y-11048700D02*
X13711660Y-11003700D01*
X13666660Y-10958700D01*
X13621660Y-11003700D01*
X13666660Y-11048700D01*
X13920660Y-10286700D02*
X13965660Y-10241700D01*
X13920660Y-10196700D01*
X13875660Y-10241700D01*
X13920660Y-10286700D01*
X13920660Y-11048700D02*
X13965660Y-11003700D01*
X13920660Y-10958700D01*
X13875660Y-11003700D01*
X13920660Y-11048700D01*
X14174660Y-10286700D02*
X14219660Y-10241700D01*
X14174660Y-10196700D01*
X14129660Y-10241700D01*
X14174660Y-10286700D01*
X14174660Y-11048700D02*
X14219660Y-11003700D01*
X14174660Y-10958700D01*
X14129660Y-11003700D01*
X14174660Y-11048700D01*
X14428660Y-10286700D02*
X14473660Y-10241700D01*
X14428660Y-10196700D01*
X14383660Y-10241700D01*
X14428660Y-10286700D01*
X14428660Y-11048700D02*
X14473660Y-11003700D01*
X14428660Y-10958700D01*
X14383660Y-11003700D01*
X14428660Y-11048700D01*
X14682660Y-10286700D02*
X14727660Y-10241700D01*
X14682660Y-10196700D01*
X14637660Y-10241700D01*
X14682660Y-10286700D01*
X14682660Y-11048700D02*
X14727660Y-11003700D01*
X14682660Y-10958700D01*
X14637660Y-11003700D01*
X14682660Y-11048700D01*
X14936660Y-10286700D02*
X14981660Y-10241700D01*
X14936660Y-10196700D01*
X14891660Y-10241700D01*
X14936660Y-10286700D01*
X14936660Y-11048700D02*
X14981660Y-11003700D01*
X14936660Y-10958700D01*
X14891660Y-11003700D01*
X14936660Y-11048700D01*
X15190660Y-10286700D02*
X15235660Y-10241700D01*
X15190660Y-10196700D01*
X15145660Y-10241700D01*
X15190660Y-10286700D01*
X15190660Y-11048700D02*
X15235660Y-11003700D01*
X15190660Y-10958700D01*
X15145660Y-11003700D01*
X15190660Y-11048700D01*
X15918860Y-10284700D02*
X15963860Y-10239700D01*
X15918860Y-10194700D01*
X15873860Y-10239700D01*
X15918860Y-10284700D01*
X15918860Y-11046700D02*
X15963860Y-11001700D01*
X15918860Y-10956700D01*
X15873860Y-11001700D01*
X15918860Y-11046700D01*
X16172860Y-10284700D02*
X16217860Y-10239700D01*
X16172860Y-10194700D01*
X16127860Y-10239700D01*
X16172860Y-10284700D01*
X16172860Y-11046700D02*
X16217860Y-11001700D01*
X16172860Y-10956700D01*
X16127860Y-11001700D01*
X16172860Y-11046700D01*
X16426860Y-10284700D02*
X16471860Y-10239700D01*
X16426860Y-10194700D01*
X16381860Y-10239700D01*
X16426860Y-10284700D01*
X16426860Y-11046700D02*
X16471860Y-11001700D01*
X16426860Y-10956700D01*
X16381860Y-11001700D01*
X16426860Y-11046700D01*
X16680860Y-10284700D02*
X16725860Y-10239700D01*
X16680860Y-10194700D01*
X16635860Y-10239700D01*
X16680860Y-10284700D01*
X16680860Y-11046700D02*
X16725860Y-11001700D01*
X16680860Y-10956700D01*
X16635860Y-11001700D01*
X16680860Y-11046700D01*
X16934860Y-10284700D02*
X16979860Y-10239700D01*
X16934860Y-10194700D01*
X16889860Y-10239700D01*
X16934860Y-10284700D01*
X16934860Y-11046700D02*
X16979860Y-11001700D01*
X16934860Y-10956700D01*
X16889860Y-11001700D01*
X16934860Y-11046700D01*
X17188860Y-10284700D02*
X17233860Y-10239700D01*
X17188860Y-10194700D01*
X17143860Y-10239700D01*
X17188860Y-10284700D01*
X17188860Y-11046700D02*
X17233860Y-11001700D01*
X17188860Y-10956700D01*
X17143860Y-11001700D01*
X17188860Y-11046700D01*
X17442860Y-10284700D02*
X17487860Y-10239700D01*
X17442860Y-10194700D01*
X17397860Y-10239700D01*
X17442860Y-10284700D01*
X17442860Y-11046700D02*
X17487860Y-11001700D01*
X17442860Y-10956700D01*
X17397860Y-11001700D01*
X17442860Y-11046700D01*
X17696860Y-10284700D02*
X17741860Y-10239700D01*
X17696860Y-10194700D01*
X17651860Y-10239700D01*
X17696860Y-10284700D01*
X17696860Y-11046700D02*
X17741860Y-11001700D01*
X17696860Y-10956700D01*
X17651860Y-11001700D01*
X17696860Y-11046700D01*
X19522600Y-10286700D02*
X19567600Y-10241700D01*
X19522600Y-10196700D01*
X19477600Y-10241700D01*
X19522600Y-10286700D01*
X19522600Y-11048700D02*
X19567600Y-11003700D01*
X19522600Y-10958700D01*
X19477600Y-11003700D01*
X19522600Y-11048700D01*
X19776600Y-10286700D02*
X19821600Y-10241700D01*
X19776600Y-10196700D01*
X19731600Y-10241700D01*
X19776600Y-10286700D01*
X19776600Y-11048700D02*
X19821600Y-11003700D01*
X19776600Y-10958700D01*
X19731600Y-11003700D01*
X19776600Y-11048700D01*
X20030600Y-10286700D02*
X20075600Y-10241700D01*
X20030600Y-10196700D01*
X19985600Y-10241700D01*
X20030600Y-10286700D01*
X20030600Y-11048700D02*
X20075600Y-11003700D01*
X20030600Y-10958700D01*
X19985600Y-11003700D01*
X20030600Y-11048700D01*
X20284600Y-10286700D02*
X20329600Y-10241700D01*
X20284600Y-10196700D01*
X20239600Y-10241700D01*
X20284600Y-10286700D01*
X20284600Y-11048700D02*
X20329600Y-11003700D01*
X20284600Y-10958700D01*
X20239600Y-11003700D01*
X20284600Y-11048700D01*
X20538600Y-10286700D02*
X20583600Y-10241700D01*
X20538600Y-10196700D01*
X20493600Y-10241700D01*
X20538600Y-10286700D01*
X20538600Y-11048700D02*
X20583600Y-11003700D01*
X20538600Y-10958700D01*
X20493600Y-11003700D01*
X20538600Y-11048700D01*
X20792600Y-10286700D02*
X20837600Y-10241700D01*
X20792600Y-10196700D01*
X20747600Y-10241700D01*
X20792600Y-10286700D01*
X20792600Y-11048700D02*
X20837600Y-11003700D01*
X20792600Y-10958700D01*
X20747600Y-11003700D01*
X20792600Y-11048700D01*
X21046600Y-10286700D02*
X21091600Y-10241700D01*
X21046600Y-10196700D01*
X21001600Y-10241700D01*
X21046600Y-10286700D01*
X21046600Y-11048700D02*
X21091600Y-11003700D01*
X21046600Y-10958700D01*
X21001600Y-11003700D01*
X21046600Y-11048700D01*
X21300600Y-10286700D02*
X21345600Y-10241700D01*
X21300600Y-10196700D01*
X21255600Y-10241700D01*
X21300600Y-10286700D01*
X21300600Y-11048700D02*
X21345600Y-11003700D01*
X21300600Y-10958700D01*
X21255600Y-11003700D01*
X21300600Y-11048700D01*
X22026600Y-10286700D02*
X22071600Y-10241700D01*
X22026600Y-10196700D01*
X21981600Y-10241700D01*
X22026600Y-10286700D01*
X22026600Y-11048700D02*
X22071600Y-11003700D01*
X22026600Y-10958700D01*
X21981600Y-11003700D01*
X22026600Y-11048700D01*
X22280600Y-10286700D02*
X22325600Y-10241700D01*
X22280600Y-10196700D01*
X22235600Y-10241700D01*
X22280600Y-10286700D01*
X22280600Y-11048700D02*
X22325600Y-11003700D01*
X22280600Y-10958700D01*
X22235600Y-11003700D01*
X22280600Y-11048700D01*
X22534600Y-10286700D02*
X22579600Y-10241700D01*
X22534600Y-10196700D01*
X22489600Y-10241700D01*
X22534600Y-10286700D01*
X22534600Y-11048700D02*
X22579600Y-11003700D01*
X22534600Y-10958700D01*
X22489600Y-11003700D01*
X22534600Y-11048700D01*
X22788600Y-10286700D02*
X22833600Y-10241700D01*
X22788600Y-10196700D01*
X22743600Y-10241700D01*
X22788600Y-10286700D01*
X22788600Y-11048700D02*
X22833600Y-11003700D01*
X22788600Y-10958700D01*
X22743600Y-11003700D01*
X22788600Y-11048700D01*
X23042600Y-10286700D02*
X23087600Y-10241700D01*
X23042600Y-10196700D01*
X22997600Y-10241700D01*
X23042600Y-10286700D01*
X23042600Y-11048700D02*
X23087600Y-11003700D01*
X23042600Y-10958700D01*
X22997600Y-11003700D01*
X23042600Y-11048700D01*
X23296600Y-10286700D02*
X23341600Y-10241700D01*
X23296600Y-10196700D01*
X23251600Y-10241700D01*
X23296600Y-10286700D01*
X23296600Y-11048700D02*
X23341600Y-11003700D01*
X23296600Y-10958700D01*
X23251600Y-11003700D01*
X23296600Y-11048700D01*
X23550600Y-10286700D02*
X23595600Y-10241700D01*
X23550600Y-10196700D01*
X23505600Y-10241700D01*
X23550600Y-10286700D01*
X23550600Y-11048700D02*
X23595600Y-11003700D01*
X23550600Y-10958700D01*
X23505600Y-11003700D01*
X23550600Y-11048700D01*
X23804600Y-10286700D02*
X23849600Y-10241700D01*
X23804600Y-10196700D01*
X23759600Y-10241700D01*
X23804600Y-10286700D01*
X23804600Y-11048700D02*
X23849600Y-11003700D01*
X23804600Y-10958700D01*
X23759600Y-11003700D01*
X23804600Y-11048700D01*
D15*
X6945000Y-11891000D02*
X7055000Y-12001000D01*
X7055000Y-11891000D02*
X6945000Y-12001000D01*
X7055000Y-11946000D02*
G75*
G03*
X7055000Y-11946000I-55000J0D01*
G01*
X6945000Y-12145000D02*
X7055000Y-12255000D01*
X7055000Y-12145000D02*
X6945000Y-12255000D01*
X7055000Y-12200000D02*
G75*
G03*
X7055000Y-12200000I-55000J0D01*
G01*
X6945000Y-12399000D02*
X7055000Y-12509000D01*
X7055000Y-12399000D02*
X6945000Y-12509000D01*
X7055000Y-12454000D02*
G75*
G03*
X7055000Y-12454000I-55000J0D01*
G01*
X6945000Y-12653000D02*
X7055000Y-12763000D01*
X7055000Y-12653000D02*
X6945000Y-12763000D01*
X7055000Y-12708000D02*
G75*
G03*
X7055000Y-12708000I-55000J0D01*
G01*
X7613000Y-11767000D02*
X7723000Y-11877000D01*
X7723000Y-11767000D02*
X7613000Y-11877000D01*
X7723000Y-11822000D02*
G75*
G03*
X7723000Y-11822000I-55000J0D01*
G01*
X7613000Y-13545000D02*
X7723000Y-13655000D01*
X7723000Y-13545000D02*
X7613000Y-13655000D01*
X7723000Y-13600000D02*
G75*
G03*
X7723000Y-13600000I-55000J0D01*
G01*
X7636000Y-12402000D02*
X7746000Y-12512000D01*
X7746000Y-12402000D02*
X7636000Y-12512000D01*
X7746000Y-12457000D02*
G75*
G03*
X7746000Y-12457000I-55000J0D01*
G01*
X7636000Y-12656000D02*
X7746000Y-12766000D01*
X7746000Y-12656000D02*
X7636000Y-12766000D01*
X7746000Y-12711000D02*
G75*
G03*
X7746000Y-12711000I-55000J0D01*
G01*
X7636000Y-12910000D02*
X7746000Y-13020000D01*
X7746000Y-12910000D02*
X7636000Y-13020000D01*
X7746000Y-12965000D02*
G75*
G03*
X7746000Y-12965000I-55000J0D01*
G01*
X7867000Y-11767000D02*
X7977000Y-11877000D01*
X7977000Y-11767000D02*
X7867000Y-11877000D01*
X7977000Y-11822000D02*
G75*
G03*
X7977000Y-11822000I-55000J0D01*
G01*
X7867000Y-13545000D02*
X7977000Y-13655000D01*
X7977000Y-13545000D02*
X7867000Y-13655000D01*
X7977000Y-13600000D02*
G75*
G03*
X7977000Y-13600000I-55000J0D01*
G01*
X8121000Y-11767000D02*
X8231000Y-11877000D01*
X8231000Y-11767000D02*
X8121000Y-11877000D01*
X8231000Y-11822000D02*
G75*
G03*
X8231000Y-11822000I-55000J0D01*
G01*
X8121000Y-13545000D02*
X8231000Y-13655000D01*
X8231000Y-13545000D02*
X8121000Y-13655000D01*
X8231000Y-13600000D02*
G75*
G03*
X8231000Y-13600000I-55000J0D01*
G01*
X8375000Y-11767000D02*
X8485000Y-11877000D01*
X8485000Y-11767000D02*
X8375000Y-11877000D01*
X8485000Y-11822000D02*
G75*
G03*
X8485000Y-11822000I-55000J0D01*
G01*
X8375000Y-13545000D02*
X8485000Y-13655000D01*
X8485000Y-13545000D02*
X8375000Y-13655000D01*
X8485000Y-13600000D02*
G75*
G03*
X8485000Y-13600000I-55000J0D01*
G01*
X8629000Y-11767000D02*
X8739000Y-11877000D01*
X8739000Y-11767000D02*
X8629000Y-11877000D01*
X8739000Y-11822000D02*
G75*
G03*
X8739000Y-11822000I-55000J0D01*
G01*
X8629000Y-13545000D02*
X8739000Y-13655000D01*
X8739000Y-13545000D02*
X8629000Y-13655000D01*
X8739000Y-13600000D02*
G75*
G03*
X8739000Y-13600000I-55000J0D01*
G01*
X8883000Y-11767000D02*
X8993000Y-11877000D01*
X8993000Y-11767000D02*
X8883000Y-11877000D01*
X8993000Y-11822000D02*
G75*
G03*
X8993000Y-11822000I-55000J0D01*
G01*
X8883000Y-13545000D02*
X8993000Y-13655000D01*
X8993000Y-13545000D02*
X8883000Y-13655000D01*
X8993000Y-13600000D02*
G75*
G03*
X8993000Y-13600000I-55000J0D01*
G01*
X9137000Y-11767000D02*
X9247000Y-11877000D01*
X9247000Y-11767000D02*
X9137000Y-11877000D01*
X9247000Y-11822000D02*
G75*
G03*
X9247000Y-11822000I-55000J0D01*
G01*
X9137000Y-13545000D02*
X9247000Y-13655000D01*
X9247000Y-13545000D02*
X9137000Y-13655000D01*
X9247000Y-13600000D02*
G75*
G03*
X9247000Y-13600000I-55000J0D01*
G01*
X9391000Y-11767000D02*
X9501000Y-11877000D01*
X9501000Y-11767000D02*
X9391000Y-11877000D01*
X9501000Y-11822000D02*
G75*
G03*
X9501000Y-11822000I-55000J0D01*
G01*
X9391000Y-13545000D02*
X9501000Y-13655000D01*
X9501000Y-13545000D02*
X9391000Y-13655000D01*
X9501000Y-13600000D02*
G75*
G03*
X9501000Y-13600000I-55000J0D01*
G01*
X9645000Y-11767000D02*
X9755000Y-11877000D01*
X9755000Y-11767000D02*
X9645000Y-11877000D01*
X9755000Y-11822000D02*
G75*
G03*
X9755000Y-11822000I-55000J0D01*
G01*
X9645000Y-13545000D02*
X9755000Y-13655000D01*
X9755000Y-13545000D02*
X9645000Y-13655000D01*
X9755000Y-13600000D02*
G75*
G03*
X9755000Y-13600000I-55000J0D01*
G01*
X9899000Y-11767000D02*
X10009000Y-11877000D01*
X10009000Y-11767000D02*
X9899000Y-11877000D01*
X10009000Y-11822000D02*
G75*
G03*
X10009000Y-11822000I-55000J0D01*
G01*
X9899000Y-13545000D02*
X10009000Y-13655000D01*
X10009000Y-13545000D02*
X9899000Y-13655000D01*
X10009000Y-13600000D02*
G75*
G03*
X10009000Y-13600000I-55000J0D01*
G01*
X10153000Y-11767000D02*
X10263000Y-11877000D01*
X10263000Y-11767000D02*
X10153000Y-11877000D01*
X10263000Y-11822000D02*
G75*
G03*
X10263000Y-11822000I-55000J0D01*
G01*
X10153000Y-13545000D02*
X10263000Y-13655000D01*
X10263000Y-13545000D02*
X10153000Y-13655000D01*
X10263000Y-13600000D02*
G75*
G03*
X10263000Y-13600000I-55000J0D01*
G01*
X10407000Y-11767000D02*
X10517000Y-11877000D01*
X10517000Y-11767000D02*
X10407000Y-11877000D01*
X10517000Y-11822000D02*
G75*
G03*
X10517000Y-11822000I-55000J0D01*
G01*
X10407000Y-13545000D02*
X10517000Y-13655000D01*
X10517000Y-13545000D02*
X10407000Y-13655000D01*
X10517000Y-13600000D02*
G75*
G03*
X10517000Y-13600000I-55000J0D01*
G01*
X10661000Y-11767000D02*
X10771000Y-11877000D01*
X10771000Y-11767000D02*
X10661000Y-11877000D01*
X10771000Y-11822000D02*
G75*
G03*
X10771000Y-11822000I-55000J0D01*
G01*
X10661000Y-13545000D02*
X10771000Y-13655000D01*
X10771000Y-13545000D02*
X10661000Y-13655000D01*
X10771000Y-13600000D02*
G75*
G03*
X10771000Y-13600000I-55000J0D01*
G01*
X10915000Y-11767000D02*
X11025000Y-11877000D01*
X11025000Y-11767000D02*
X10915000Y-11877000D01*
X11025000Y-11822000D02*
G75*
G03*
X11025000Y-11822000I-55000J0D01*
G01*
X10915000Y-13545000D02*
X11025000Y-13655000D01*
X11025000Y-13545000D02*
X10915000Y-13655000D01*
X11025000Y-13600000D02*
G75*
G03*
X11025000Y-13600000I-55000J0D01*
G01*
X11169000Y-11767000D02*
X11279000Y-11877000D01*
X11279000Y-11767000D02*
X11169000Y-11877000D01*
X11279000Y-11822000D02*
G75*
G03*
X11279000Y-11822000I-55000J0D01*
G01*
X11169000Y-13545000D02*
X11279000Y-13655000D01*
X11279000Y-13545000D02*
X11169000Y-13655000D01*
X11279000Y-13600000D02*
G75*
G03*
X11279000Y-13600000I-55000J0D01*
G01*
X11423000Y-11767000D02*
X11533000Y-11877000D01*
X11533000Y-11767000D02*
X11423000Y-11877000D01*
X11533000Y-11822000D02*
G75*
G03*
X11533000Y-11822000I-55000J0D01*
G01*
X11423000Y-13545000D02*
X11533000Y-13655000D01*
X11533000Y-13545000D02*
X11423000Y-13655000D01*
X11533000Y-13600000D02*
G75*
G03*
X11533000Y-13600000I-55000J0D01*
G01*
X11677000Y-11767000D02*
X11787000Y-11877000D01*
X11787000Y-11767000D02*
X11677000Y-11877000D01*
X11787000Y-11822000D02*
G75*
G03*
X11787000Y-11822000I-55000J0D01*
G01*
X11677000Y-13545000D02*
X11787000Y-13655000D01*
X11787000Y-13545000D02*
X11677000Y-13655000D01*
X11787000Y-13600000D02*
G75*
G03*
X11787000Y-13600000I-55000J0D01*
G01*
X11931000Y-11767000D02*
X12041000Y-11877000D01*
X12041000Y-11767000D02*
X11931000Y-11877000D01*
X12041000Y-11822000D02*
G75*
G03*
X12041000Y-11822000I-55000J0D01*
G01*
X11931000Y-13545000D02*
X12041000Y-13655000D01*
X12041000Y-13545000D02*
X11931000Y-13655000D01*
X12041000Y-13600000D02*
G75*
G03*
X12041000Y-13600000I-55000J0D01*
G01*
X12185000Y-11767000D02*
X12295000Y-11877000D01*
X12295000Y-11767000D02*
X12185000Y-11877000D01*
X12295000Y-11822000D02*
G75*
G03*
X12295000Y-11822000I-55000J0D01*
G01*
X12185000Y-13545000D02*
X12295000Y-13655000D01*
X12295000Y-13545000D02*
X12185000Y-13655000D01*
X12295000Y-13600000D02*
G75*
G03*
X12295000Y-13600000I-55000J0D01*
G01*
X12439000Y-11767000D02*
X12549000Y-11877000D01*
X12549000Y-11767000D02*
X12439000Y-11877000D01*
X12549000Y-11822000D02*
G75*
G03*
X12549000Y-11822000I-55000J0D01*
G01*
X12439000Y-13545000D02*
X12549000Y-13655000D01*
X12549000Y-13545000D02*
X12439000Y-13655000D01*
X12549000Y-13600000D02*
G75*
G03*
X12549000Y-13600000I-55000J0D01*
G01*
D16*
X23470000Y-13400000D02*
X23590000Y-13520000D01*
X23590000Y-13400000D02*
X23470000Y-13520000D01*
X23530000Y-13400000D02*
X23530000Y-13520000D01*
X23470000Y-13460000D02*
X23590000Y-13460000D01*
D17*
X19026500Y-11429500D02*
X19153500Y-11556500D01*
X19153500Y-11429500D02*
X19026500Y-11556500D01*
X19134902Y-11537902D02*
X19134902Y-11448098D01*
X19045098Y-11448098D01*
X19045098Y-11537902D01*
X19134902Y-11537902D01*
X19026500Y-13479500D02*
X19153500Y-13606500D01*
X19153500Y-13479500D02*
X19026500Y-13606500D01*
X19134902Y-13587902D02*
X19134902Y-13498098D01*
X19045098Y-13498098D01*
X19045098Y-13587902D01*
X19134902Y-13587902D01*
D18*
X20935000Y-13685000D02*
X21065000Y-13815000D01*
X21065000Y-13685000D02*
X20935000Y-13815000D01*
X21000000Y-13815000D02*
X21065000Y-13750000D01*
X21000000Y-13685000D01*
X20935000Y-13750000D01*
X21000000Y-13815000D01*
X21189000Y-13685000D02*
X21319000Y-13815000D01*
X21319000Y-13685000D02*
X21189000Y-13815000D01*
X21254000Y-13815000D02*
X21319000Y-13750000D01*
X21254000Y-13685000D01*
X21189000Y-13750000D01*
X21254000Y-13815000D01*
X22435000Y-13695000D02*
X22565000Y-13825000D01*
X22565000Y-13695000D02*
X22435000Y-13825000D01*
X22500000Y-13825000D02*
X22565000Y-13760000D01*
X22500000Y-13695000D01*
X22435000Y-13760000D01*
X22500000Y-13825000D01*
X22689000Y-13695000D02*
X22819000Y-13825000D01*
X22819000Y-13695000D02*
X22689000Y-13825000D01*
X22754000Y-13825000D02*
X22819000Y-13760000D01*
X22754000Y-13695000D01*
X22689000Y-13760000D01*
X22754000Y-13825000D01*
D19*
X7000000Y-8062500D02*
X7000000Y-8412500D01*
X6825000Y-8237500D02*
X7175000Y-8237500D01*
X7175000Y-8237500D02*
G75*
G03*
X7175000Y-8237500I-175000J0D01*
G01*
X7000000Y-13665000D02*
X7000000Y-14015000D01*
X6825000Y-13840000D02*
X7175000Y-13840000D01*
X7175000Y-13840000D02*
G75*
G03*
X7175000Y-13840000I-175000J0D01*
G01*
X24250000Y-8045000D02*
X24250000Y-8395000D01*
X24075000Y-8220000D02*
X24425000Y-8220000D01*
X24425000Y-8220000D02*
G75*
G03*
X24425000Y-8220000I-175000J0D01*
G01*
X24250000Y-13665000D02*
X24250000Y-14015000D01*
X24075000Y-13840000D02*
X24425000Y-13840000D01*
X24425000Y-13840000D02*
G75*
G03*
X24425000Y-13840000I-175000J0D01*
G01*
D11*
X6758277Y-14619684D02*
X6758277Y-14419684D01*
X6758277Y-14419684D02*
X6805896Y-14419684D01*
X6805896Y-14419684D02*
X6834467Y-14429208D01*
X6834467Y-14429208D02*
X6853515Y-14448255D01*
X6853515Y-14448255D02*
X6863039Y-14467303D01*
X6863039Y-14467303D02*
X6872562Y-14505398D01*
X6872562Y-14505398D02*
X6872562Y-14533969D01*
X6872562Y-14533969D02*
X6863039Y-14572065D01*
X6863039Y-14572065D02*
X6853515Y-14591112D01*
X6853515Y-14591112D02*
X6834467Y-14610160D01*
X6834467Y-14610160D02*
X6805896Y-14619684D01*
X6805896Y-14619684D02*
X6758277Y-14619684D01*
X6958277Y-14619684D02*
X6958277Y-14486350D01*
X6958277Y-14524446D02*
X6967801Y-14505398D01*
X6967801Y-14505398D02*
X6977324Y-14495874D01*
X6977324Y-14495874D02*
X6996372Y-14486350D01*
X6996372Y-14486350D02*
X7015420Y-14486350D01*
X7082086Y-14619684D02*
X7082086Y-14486350D01*
X7082086Y-14419684D02*
X7072562Y-14429208D01*
X7072562Y-14429208D02*
X7082086Y-14438731D01*
X7082086Y-14438731D02*
X7091610Y-14429208D01*
X7091610Y-14429208D02*
X7082086Y-14419684D01*
X7082086Y-14419684D02*
X7082086Y-14438731D01*
X7205896Y-14619684D02*
X7186848Y-14610160D01*
X7186848Y-14610160D02*
X7177324Y-14591112D01*
X7177324Y-14591112D02*
X7177324Y-14419684D01*
X7310658Y-14619684D02*
X7291610Y-14610160D01*
X7291610Y-14610160D02*
X7282086Y-14591112D01*
X7282086Y-14591112D02*
X7282086Y-14419684D01*
X7539229Y-14619684D02*
X7539229Y-14419684D01*
X7539229Y-14419684D02*
X7605896Y-14562541D01*
X7605896Y-14562541D02*
X7672562Y-14419684D01*
X7672562Y-14419684D02*
X7672562Y-14619684D01*
X7853515Y-14619684D02*
X7853515Y-14514922D01*
X7853515Y-14514922D02*
X7843991Y-14495874D01*
X7843991Y-14495874D02*
X7824943Y-14486350D01*
X7824943Y-14486350D02*
X7786848Y-14486350D01*
X7786848Y-14486350D02*
X7767801Y-14495874D01*
X7853515Y-14610160D02*
X7834467Y-14619684D01*
X7834467Y-14619684D02*
X7786848Y-14619684D01*
X7786848Y-14619684D02*
X7767801Y-14610160D01*
X7767801Y-14610160D02*
X7758277Y-14591112D01*
X7758277Y-14591112D02*
X7758277Y-14572065D01*
X7758277Y-14572065D02*
X7767801Y-14553017D01*
X7767801Y-14553017D02*
X7786848Y-14543493D01*
X7786848Y-14543493D02*
X7834467Y-14543493D01*
X7834467Y-14543493D02*
X7853515Y-14533969D01*
X7948753Y-14486350D02*
X7948753Y-14686350D01*
X7948753Y-14495874D02*
X7967801Y-14486350D01*
X7967801Y-14486350D02*
X8005896Y-14486350D01*
X8005896Y-14486350D02*
X8024943Y-14495874D01*
X8024943Y-14495874D02*
X8034467Y-14505398D01*
X8034467Y-14505398D02*
X8043991Y-14524446D01*
X8043991Y-14524446D02*
X8043991Y-14581588D01*
X8043991Y-14581588D02*
X8034467Y-14600636D01*
X8034467Y-14600636D02*
X8024943Y-14610160D01*
X8024943Y-14610160D02*
X8005896Y-14619684D01*
X8005896Y-14619684D02*
X7967801Y-14619684D01*
X7967801Y-14619684D02*
X7948753Y-14610160D01*
X8129705Y-14600636D02*
X8139229Y-14610160D01*
X8139229Y-14610160D02*
X8129705Y-14619684D01*
X8129705Y-14619684D02*
X8120182Y-14610160D01*
X8120182Y-14610160D02*
X8129705Y-14600636D01*
X8129705Y-14600636D02*
X8129705Y-14619684D01*
X8129705Y-14495874D02*
X8139229Y-14505398D01*
X8139229Y-14505398D02*
X8129705Y-14514922D01*
X8129705Y-14514922D02*
X8120182Y-14505398D01*
X8120182Y-14505398D02*
X8129705Y-14495874D01*
X8129705Y-14495874D02*
X8129705Y-14514922D01*
D12*
X6467500Y-14933200D02*
X6497500Y-14963200D01*
X6497500Y-14933200D02*
X6467500Y-14963200D01*
D11*
X6796372Y-14839684D02*
X6815420Y-14839684D01*
X6815420Y-14839684D02*
X6834467Y-14849208D01*
X6834467Y-14849208D02*
X6843991Y-14858731D01*
X6843991Y-14858731D02*
X6853515Y-14877779D01*
X6853515Y-14877779D02*
X6863039Y-14915874D01*
X6863039Y-14915874D02*
X6863039Y-14963493D01*
X6863039Y-14963493D02*
X6853515Y-15001588D01*
X6853515Y-15001588D02*
X6843991Y-15020636D01*
X6843991Y-15020636D02*
X6834467Y-15030160D01*
X6834467Y-15030160D02*
X6815420Y-15039684D01*
X6815420Y-15039684D02*
X6796372Y-15039684D01*
X6796372Y-15039684D02*
X6777324Y-15030160D01*
X6777324Y-15030160D02*
X6767801Y-15020636D01*
X6767801Y-15020636D02*
X6758277Y-15001588D01*
X6758277Y-15001588D02*
X6748753Y-14963493D01*
X6748753Y-14963493D02*
X6748753Y-14915874D01*
X6748753Y-14915874D02*
X6758277Y-14877779D01*
X6758277Y-14877779D02*
X6767801Y-14858731D01*
X6767801Y-14858731D02*
X6777324Y-14849208D01*
X6777324Y-14849208D02*
X6796372Y-14839684D01*
X6948753Y-15020636D02*
X6958277Y-15030160D01*
X6958277Y-15030160D02*
X6948753Y-15039684D01*
X6948753Y-15039684D02*
X6939229Y-15030160D01*
X6939229Y-15030160D02*
X6948753Y-15020636D01*
X6948753Y-15020636D02*
X6948753Y-15039684D01*
X7024943Y-14839684D02*
X7148753Y-14839684D01*
X7148753Y-14839684D02*
X7082086Y-14915874D01*
X7082086Y-14915874D02*
X7110658Y-14915874D01*
X7110658Y-14915874D02*
X7129705Y-14925398D01*
X7129705Y-14925398D02*
X7139229Y-14934922D01*
X7139229Y-14934922D02*
X7148753Y-14953969D01*
X7148753Y-14953969D02*
X7148753Y-15001588D01*
X7148753Y-15001588D02*
X7139229Y-15020636D01*
X7139229Y-15020636D02*
X7129705Y-15030160D01*
X7129705Y-15030160D02*
X7110658Y-15039684D01*
X7110658Y-15039684D02*
X7053515Y-15039684D01*
X7053515Y-15039684D02*
X7034467Y-15030160D01*
X7034467Y-15030160D02*
X7024943Y-15020636D01*
X7272562Y-14839684D02*
X7291610Y-14839684D01*
X7291610Y-14839684D02*
X7310658Y-14849208D01*
X7310658Y-14849208D02*
X7320182Y-14858731D01*
X7320182Y-14858731D02*
X7329705Y-14877779D01*
X7329705Y-14877779D02*
X7339229Y-14915874D01*
X7339229Y-14915874D02*
X7339229Y-14963493D01*
X7339229Y-14963493D02*
X7329705Y-15001588D01*
X7329705Y-15001588D02*
X7320182Y-15020636D01*
X7320182Y-15020636D02*
X7310658Y-15030160D01*
X7310658Y-15030160D02*
X7291610Y-15039684D01*
X7291610Y-15039684D02*
X7272562Y-15039684D01*
X7272562Y-15039684D02*
X7253515Y-15030160D01*
X7253515Y-15030160D02*
X7243991Y-15020636D01*
X7243991Y-15020636D02*
X7234467Y-15001588D01*
X7234467Y-15001588D02*
X7224943Y-14963493D01*
X7224943Y-14963493D02*
X7224943Y-14915874D01*
X7224943Y-14915874D02*
X7234467Y-14877779D01*
X7234467Y-14877779D02*
X7243991Y-14858731D01*
X7243991Y-14858731D02*
X7253515Y-14849208D01*
X7253515Y-14849208D02*
X7272562Y-14839684D01*
X7463039Y-14839684D02*
X7482086Y-14839684D01*
X7482086Y-14839684D02*
X7501134Y-14849208D01*
X7501134Y-14849208D02*
X7510658Y-14858731D01*
X7510658Y-14858731D02*
X7520182Y-14877779D01*
X7520182Y-14877779D02*
X7529705Y-14915874D01*
X7529705Y-14915874D02*
X7529705Y-14963493D01*
X7529705Y-14963493D02*
X7520182Y-15001588D01*
X7520182Y-15001588D02*
X7510658Y-15020636D01*
X7510658Y-15020636D02*
X7501134Y-15030160D01*
X7501134Y-15030160D02*
X7482086Y-15039684D01*
X7482086Y-15039684D02*
X7463039Y-15039684D01*
X7463039Y-15039684D02*
X7443991Y-15030160D01*
X7443991Y-15030160D02*
X7434467Y-15020636D01*
X7434467Y-15020636D02*
X7424943Y-15001588D01*
X7424943Y-15001588D02*
X7415420Y-14963493D01*
X7415420Y-14963493D02*
X7415420Y-14915874D01*
X7415420Y-14915874D02*
X7424943Y-14877779D01*
X7424943Y-14877779D02*
X7434467Y-14858731D01*
X7434467Y-14858731D02*
X7443991Y-14849208D01*
X7443991Y-14849208D02*
X7463039Y-14839684D01*
X7615420Y-15039684D02*
X7615420Y-14906350D01*
X7615420Y-14925398D02*
X7624943Y-14915874D01*
X7624943Y-14915874D02*
X7643991Y-14906350D01*
X7643991Y-14906350D02*
X7672563Y-14906350D01*
X7672563Y-14906350D02*
X7691610Y-14915874D01*
X7691610Y-14915874D02*
X7701134Y-14934922D01*
X7701134Y-14934922D02*
X7701134Y-15039684D01*
X7701134Y-14934922D02*
X7710658Y-14915874D01*
X7710658Y-14915874D02*
X7729705Y-14906350D01*
X7729705Y-14906350D02*
X7758277Y-14906350D01*
X7758277Y-14906350D02*
X7777324Y-14915874D01*
X7777324Y-14915874D02*
X7786848Y-14934922D01*
X7786848Y-14934922D02*
X7786848Y-15039684D01*
X7882086Y-15039684D02*
X7882086Y-14906350D01*
X7882086Y-14925398D02*
X7891610Y-14915874D01*
X7891610Y-14915874D02*
X7910658Y-14906350D01*
X7910658Y-14906350D02*
X7939229Y-14906350D01*
X7939229Y-14906350D02*
X7958277Y-14915874D01*
X7958277Y-14915874D02*
X7967801Y-14934922D01*
X7967801Y-14934922D02*
X7967801Y-15039684D01*
X7967801Y-14934922D02*
X7977324Y-14915874D01*
X7977324Y-14915874D02*
X7996372Y-14906350D01*
X7996372Y-14906350D02*
X8024943Y-14906350D01*
X8024943Y-14906350D02*
X8043991Y-14915874D01*
X8043991Y-14915874D02*
X8053515Y-14934922D01*
X8053515Y-14934922D02*
X8053515Y-15039684D01*
X8443991Y-14830160D02*
X8272563Y-15087303D01*
X8701134Y-14839684D02*
X8720182Y-14839684D01*
X8720182Y-14839684D02*
X8739229Y-14849208D01*
X8739229Y-14849208D02*
X8748753Y-14858731D01*
X8748753Y-14858731D02*
X8758277Y-14877779D01*
X8758277Y-14877779D02*
X8767801Y-14915874D01*
X8767801Y-14915874D02*
X8767801Y-14963493D01*
X8767801Y-14963493D02*
X8758277Y-15001588D01*
X8758277Y-15001588D02*
X8748753Y-15020636D01*
X8748753Y-15020636D02*
X8739229Y-15030160D01*
X8739229Y-15030160D02*
X8720182Y-15039684D01*
X8720182Y-15039684D02*
X8701134Y-15039684D01*
X8701134Y-15039684D02*
X8682087Y-15030160D01*
X8682087Y-15030160D02*
X8672563Y-15020636D01*
X8672563Y-15020636D02*
X8663039Y-15001588D01*
X8663039Y-15001588D02*
X8653515Y-14963493D01*
X8653515Y-14963493D02*
X8653515Y-14915874D01*
X8653515Y-14915874D02*
X8663039Y-14877779D01*
X8663039Y-14877779D02*
X8672563Y-14858731D01*
X8672563Y-14858731D02*
X8682087Y-14849208D01*
X8682087Y-14849208D02*
X8701134Y-14839684D01*
X8853515Y-15020636D02*
X8863039Y-15030160D01*
X8863039Y-15030160D02*
X8853515Y-15039684D01*
X8853515Y-15039684D02*
X8843991Y-15030160D01*
X8843991Y-15030160D02*
X8853515Y-15020636D01*
X8853515Y-15020636D02*
X8853515Y-15039684D01*
X8986848Y-14839684D02*
X9005896Y-14839684D01*
X9005896Y-14839684D02*
X9024944Y-14849208D01*
X9024944Y-14849208D02*
X9034468Y-14858731D01*
X9034468Y-14858731D02*
X9043991Y-14877779D01*
X9043991Y-14877779D02*
X9053515Y-14915874D01*
X9053515Y-14915874D02*
X9053515Y-14963493D01*
X9053515Y-14963493D02*
X9043991Y-15001588D01*
X9043991Y-15001588D02*
X9034468Y-15020636D01*
X9034468Y-15020636D02*
X9024944Y-15030160D01*
X9024944Y-15030160D02*
X9005896Y-15039684D01*
X9005896Y-15039684D02*
X8986848Y-15039684D01*
X8986848Y-15039684D02*
X8967801Y-15030160D01*
X8967801Y-15030160D02*
X8958277Y-15020636D01*
X8958277Y-15020636D02*
X8948753Y-15001588D01*
X8948753Y-15001588D02*
X8939229Y-14963493D01*
X8939229Y-14963493D02*
X8939229Y-14915874D01*
X8939229Y-14915874D02*
X8948753Y-14877779D01*
X8948753Y-14877779D02*
X8958277Y-14858731D01*
X8958277Y-14858731D02*
X8967801Y-14849208D01*
X8967801Y-14849208D02*
X8986848Y-14839684D01*
X9243991Y-15039684D02*
X9129706Y-15039684D01*
X9186848Y-15039684D02*
X9186848Y-14839684D01*
X9186848Y-14839684D02*
X9167801Y-14868255D01*
X9167801Y-14868255D02*
X9148753Y-14887303D01*
X9148753Y-14887303D02*
X9129706Y-14896827D01*
X9434468Y-15039684D02*
X9320182Y-15039684D01*
X9377325Y-15039684D02*
X9377325Y-14839684D01*
X9377325Y-14839684D02*
X9358277Y-14868255D01*
X9358277Y-14868255D02*
X9339229Y-14887303D01*
X9339229Y-14887303D02*
X9320182Y-14896827D01*
X9548753Y-14925398D02*
X9529706Y-14915874D01*
X9529706Y-14915874D02*
X9520182Y-14906350D01*
X9520182Y-14906350D02*
X9510658Y-14887303D01*
X9510658Y-14887303D02*
X9510658Y-14877779D01*
X9510658Y-14877779D02*
X9520182Y-14858731D01*
X9520182Y-14858731D02*
X9529706Y-14849208D01*
X9529706Y-14849208D02*
X9548753Y-14839684D01*
X9548753Y-14839684D02*
X9586849Y-14839684D01*
X9586849Y-14839684D02*
X9605896Y-14849208D01*
X9605896Y-14849208D02*
X9615420Y-14858731D01*
X9615420Y-14858731D02*
X9624944Y-14877779D01*
X9624944Y-14877779D02*
X9624944Y-14887303D01*
X9624944Y-14887303D02*
X9615420Y-14906350D01*
X9615420Y-14906350D02*
X9605896Y-14915874D01*
X9605896Y-14915874D02*
X9586849Y-14925398D01*
X9586849Y-14925398D02*
X9548753Y-14925398D01*
X9548753Y-14925398D02*
X9529706Y-14934922D01*
X9529706Y-14934922D02*
X9520182Y-14944446D01*
X9520182Y-14944446D02*
X9510658Y-14963493D01*
X9510658Y-14963493D02*
X9510658Y-15001588D01*
X9510658Y-15001588D02*
X9520182Y-15020636D01*
X9520182Y-15020636D02*
X9529706Y-15030160D01*
X9529706Y-15030160D02*
X9548753Y-15039684D01*
X9548753Y-15039684D02*
X9586849Y-15039684D01*
X9586849Y-15039684D02*
X9605896Y-15030160D01*
X9605896Y-15030160D02*
X9615420Y-15020636D01*
X9615420Y-15020636D02*
X9624944Y-15001588D01*
X9624944Y-15001588D02*
X9624944Y-14963493D01*
X9624944Y-14963493D02*
X9615420Y-14944446D01*
X9615420Y-14944446D02*
X9605896Y-14934922D01*
X9605896Y-14934922D02*
X9586849Y-14925398D01*
X9701134Y-14839684D02*
X9701134Y-14877779D01*
X9777325Y-14839684D02*
X9777325Y-14877779D01*
X10072563Y-15115874D02*
X10063039Y-15106350D01*
X10063039Y-15106350D02*
X10043991Y-15077779D01*
X10043991Y-15077779D02*
X10034468Y-15058731D01*
X10034468Y-15058731D02*
X10024944Y-15030160D01*
X10024944Y-15030160D02*
X10015420Y-14982541D01*
X10015420Y-14982541D02*
X10015420Y-14944446D01*
X10015420Y-14944446D02*
X10024944Y-14896827D01*
X10024944Y-14896827D02*
X10034468Y-14868255D01*
X10034468Y-14868255D02*
X10043991Y-14849208D01*
X10043991Y-14849208D02*
X10063039Y-14820636D01*
X10063039Y-14820636D02*
X10072563Y-14811112D01*
X10234468Y-14906350D02*
X10234468Y-15039684D01*
X10186849Y-14830160D02*
X10139230Y-14973017D01*
X10139230Y-14973017D02*
X10263039Y-14973017D01*
X10320182Y-14839684D02*
X10453515Y-14839684D01*
X10453515Y-14839684D02*
X10367801Y-15039684D01*
X10682087Y-15039684D02*
X10682087Y-14839684D01*
X10767801Y-15039684D02*
X10767801Y-14934922D01*
X10767801Y-14934922D02*
X10758277Y-14915874D01*
X10758277Y-14915874D02*
X10739230Y-14906350D01*
X10739230Y-14906350D02*
X10710658Y-14906350D01*
X10710658Y-14906350D02*
X10691611Y-14915874D01*
X10691611Y-14915874D02*
X10682087Y-14925398D01*
X10891611Y-15039684D02*
X10872563Y-15030160D01*
X10872563Y-15030160D02*
X10863039Y-15020636D01*
X10863039Y-15020636D02*
X10853515Y-15001588D01*
X10853515Y-15001588D02*
X10853515Y-14944446D01*
X10853515Y-14944446D02*
X10863039Y-14925398D01*
X10863039Y-14925398D02*
X10872563Y-14915874D01*
X10872563Y-14915874D02*
X10891611Y-14906350D01*
X10891611Y-14906350D02*
X10920182Y-14906350D01*
X10920182Y-14906350D02*
X10939230Y-14915874D01*
X10939230Y-14915874D02*
X10948753Y-14925398D01*
X10948753Y-14925398D02*
X10958277Y-14944446D01*
X10958277Y-14944446D02*
X10958277Y-15001588D01*
X10958277Y-15001588D02*
X10948753Y-15020636D01*
X10948753Y-15020636D02*
X10939230Y-15030160D01*
X10939230Y-15030160D02*
X10920182Y-15039684D01*
X10920182Y-15039684D02*
X10891611Y-15039684D01*
X11072563Y-15039684D02*
X11053515Y-15030160D01*
X11053515Y-15030160D02*
X11043992Y-15011112D01*
X11043992Y-15011112D02*
X11043992Y-14839684D01*
X11224944Y-15030160D02*
X11205896Y-15039684D01*
X11205896Y-15039684D02*
X11167801Y-15039684D01*
X11167801Y-15039684D02*
X11148753Y-15030160D01*
X11148753Y-15030160D02*
X11139230Y-15011112D01*
X11139230Y-15011112D02*
X11139230Y-14934922D01*
X11139230Y-14934922D02*
X11148753Y-14915874D01*
X11148753Y-14915874D02*
X11167801Y-14906350D01*
X11167801Y-14906350D02*
X11205896Y-14906350D01*
X11205896Y-14906350D02*
X11224944Y-14915874D01*
X11224944Y-14915874D02*
X11234468Y-14934922D01*
X11234468Y-14934922D02*
X11234468Y-14953969D01*
X11234468Y-14953969D02*
X11139230Y-14973017D01*
X11310658Y-15030160D02*
X11329706Y-15039684D01*
X11329706Y-15039684D02*
X11367801Y-15039684D01*
X11367801Y-15039684D02*
X11386849Y-15030160D01*
X11386849Y-15030160D02*
X11396372Y-15011112D01*
X11396372Y-15011112D02*
X11396372Y-15001588D01*
X11396372Y-15001588D02*
X11386849Y-14982541D01*
X11386849Y-14982541D02*
X11367801Y-14973017D01*
X11367801Y-14973017D02*
X11339230Y-14973017D01*
X11339230Y-14973017D02*
X11320182Y-14963493D01*
X11320182Y-14963493D02*
X11310658Y-14944446D01*
X11310658Y-14944446D02*
X11310658Y-14934922D01*
X11310658Y-14934922D02*
X11320182Y-14915874D01*
X11320182Y-14915874D02*
X11339230Y-14906350D01*
X11339230Y-14906350D02*
X11367801Y-14906350D01*
X11367801Y-14906350D02*
X11386849Y-14915874D01*
X11463039Y-15115874D02*
X11472563Y-15106350D01*
X11472563Y-15106350D02*
X11491611Y-15077779D01*
X11491611Y-15077779D02*
X11501134Y-15058731D01*
X11501134Y-15058731D02*
X11510658Y-15030160D01*
X11510658Y-15030160D02*
X11520182Y-14982541D01*
X11520182Y-14982541D02*
X11520182Y-14944446D01*
X11520182Y-14944446D02*
X11510658Y-14896827D01*
X11510658Y-14896827D02*
X11501134Y-14868255D01*
X11501134Y-14868255D02*
X11491611Y-14849208D01*
X11491611Y-14849208D02*
X11472563Y-14820636D01*
X11472563Y-14820636D02*
X11463039Y-14811112D01*
D10*
X6497500Y-15212200D02*
G75*
G03*
X6497500Y-15212200I-25000J0D01*
G01*
D11*
X6796372Y-15103684D02*
X6815420Y-15103684D01*
X6815420Y-15103684D02*
X6834467Y-15113208D01*
X6834467Y-15113208D02*
X6843991Y-15122731D01*
X6843991Y-15122731D02*
X6853515Y-15141779D01*
X6853515Y-15141779D02*
X6863039Y-15179874D01*
X6863039Y-15179874D02*
X6863039Y-15227493D01*
X6863039Y-15227493D02*
X6853515Y-15265588D01*
X6853515Y-15265588D02*
X6843991Y-15284636D01*
X6843991Y-15284636D02*
X6834467Y-15294160D01*
X6834467Y-15294160D02*
X6815420Y-15303684D01*
X6815420Y-15303684D02*
X6796372Y-15303684D01*
X6796372Y-15303684D02*
X6777324Y-15294160D01*
X6777324Y-15294160D02*
X6767801Y-15284636D01*
X6767801Y-15284636D02*
X6758277Y-15265588D01*
X6758277Y-15265588D02*
X6748753Y-15227493D01*
X6748753Y-15227493D02*
X6748753Y-15179874D01*
X6748753Y-15179874D02*
X6758277Y-15141779D01*
X6758277Y-15141779D02*
X6767801Y-15122731D01*
X6767801Y-15122731D02*
X6777324Y-15113208D01*
X6777324Y-15113208D02*
X6796372Y-15103684D01*
X6948753Y-15284636D02*
X6958277Y-15294160D01*
X6958277Y-15294160D02*
X6948753Y-15303684D01*
X6948753Y-15303684D02*
X6939229Y-15294160D01*
X6939229Y-15294160D02*
X6948753Y-15284636D01*
X6948753Y-15284636D02*
X6948753Y-15303684D01*
X7139229Y-15103684D02*
X7043991Y-15103684D01*
X7043991Y-15103684D02*
X7034467Y-15198922D01*
X7034467Y-15198922D02*
X7043991Y-15189398D01*
X7043991Y-15189398D02*
X7063039Y-15179874D01*
X7063039Y-15179874D02*
X7110658Y-15179874D01*
X7110658Y-15179874D02*
X7129705Y-15189398D01*
X7129705Y-15189398D02*
X7139229Y-15198922D01*
X7139229Y-15198922D02*
X7148753Y-15217969D01*
X7148753Y-15217969D02*
X7148753Y-15265588D01*
X7148753Y-15265588D02*
X7139229Y-15284636D01*
X7139229Y-15284636D02*
X7129705Y-15294160D01*
X7129705Y-15294160D02*
X7110658Y-15303684D01*
X7110658Y-15303684D02*
X7063039Y-15303684D01*
X7063039Y-15303684D02*
X7043991Y-15294160D01*
X7043991Y-15294160D02*
X7034467Y-15284636D01*
X7272562Y-15103684D02*
X7291610Y-15103684D01*
X7291610Y-15103684D02*
X7310658Y-15113208D01*
X7310658Y-15113208D02*
X7320182Y-15122731D01*
X7320182Y-15122731D02*
X7329705Y-15141779D01*
X7329705Y-15141779D02*
X7339229Y-15179874D01*
X7339229Y-15179874D02*
X7339229Y-15227493D01*
X7339229Y-15227493D02*
X7329705Y-15265588D01*
X7329705Y-15265588D02*
X7320182Y-15284636D01*
X7320182Y-15284636D02*
X7310658Y-15294160D01*
X7310658Y-15294160D02*
X7291610Y-15303684D01*
X7291610Y-15303684D02*
X7272562Y-15303684D01*
X7272562Y-15303684D02*
X7253515Y-15294160D01*
X7253515Y-15294160D02*
X7243991Y-15284636D01*
X7243991Y-15284636D02*
X7234467Y-15265588D01*
X7234467Y-15265588D02*
X7224943Y-15227493D01*
X7224943Y-15227493D02*
X7224943Y-15179874D01*
X7224943Y-15179874D02*
X7234467Y-15141779D01*
X7234467Y-15141779D02*
X7243991Y-15122731D01*
X7243991Y-15122731D02*
X7253515Y-15113208D01*
X7253515Y-15113208D02*
X7272562Y-15103684D01*
X7463039Y-15103684D02*
X7482086Y-15103684D01*
X7482086Y-15103684D02*
X7501134Y-15113208D01*
X7501134Y-15113208D02*
X7510658Y-15122731D01*
X7510658Y-15122731D02*
X7520182Y-15141779D01*
X7520182Y-15141779D02*
X7529705Y-15179874D01*
X7529705Y-15179874D02*
X7529705Y-15227493D01*
X7529705Y-15227493D02*
X7520182Y-15265588D01*
X7520182Y-15265588D02*
X7510658Y-15284636D01*
X7510658Y-15284636D02*
X7501134Y-15294160D01*
X7501134Y-15294160D02*
X7482086Y-15303684D01*
X7482086Y-15303684D02*
X7463039Y-15303684D01*
X7463039Y-15303684D02*
X7443991Y-15294160D01*
X7443991Y-15294160D02*
X7434467Y-15284636D01*
X7434467Y-15284636D02*
X7424943Y-15265588D01*
X7424943Y-15265588D02*
X7415420Y-15227493D01*
X7415420Y-15227493D02*
X7415420Y-15179874D01*
X7415420Y-15179874D02*
X7424943Y-15141779D01*
X7424943Y-15141779D02*
X7434467Y-15122731D01*
X7434467Y-15122731D02*
X7443991Y-15113208D01*
X7443991Y-15113208D02*
X7463039Y-15103684D01*
X7615420Y-15303684D02*
X7615420Y-15170350D01*
X7615420Y-15189398D02*
X7624943Y-15179874D01*
X7624943Y-15179874D02*
X7643991Y-15170350D01*
X7643991Y-15170350D02*
X7672563Y-15170350D01*
X7672563Y-15170350D02*
X7691610Y-15179874D01*
X7691610Y-15179874D02*
X7701134Y-15198922D01*
X7701134Y-15198922D02*
X7701134Y-15303684D01*
X7701134Y-15198922D02*
X7710658Y-15179874D01*
X7710658Y-15179874D02*
X7729705Y-15170350D01*
X7729705Y-15170350D02*
X7758277Y-15170350D01*
X7758277Y-15170350D02*
X7777324Y-15179874D01*
X7777324Y-15179874D02*
X7786848Y-15198922D01*
X7786848Y-15198922D02*
X7786848Y-15303684D01*
X7882086Y-15303684D02*
X7882086Y-15170350D01*
X7882086Y-15189398D02*
X7891610Y-15179874D01*
X7891610Y-15179874D02*
X7910658Y-15170350D01*
X7910658Y-15170350D02*
X7939229Y-15170350D01*
X7939229Y-15170350D02*
X7958277Y-15179874D01*
X7958277Y-15179874D02*
X7967801Y-15198922D01*
X7967801Y-15198922D02*
X7967801Y-15303684D01*
X7967801Y-15198922D02*
X7977324Y-15179874D01*
X7977324Y-15179874D02*
X7996372Y-15170350D01*
X7996372Y-15170350D02*
X8024943Y-15170350D01*
X8024943Y-15170350D02*
X8043991Y-15179874D01*
X8043991Y-15179874D02*
X8053515Y-15198922D01*
X8053515Y-15198922D02*
X8053515Y-15303684D01*
X8443991Y-15094160D02*
X8272563Y-15351303D01*
X8701134Y-15103684D02*
X8720182Y-15103684D01*
X8720182Y-15103684D02*
X8739229Y-15113208D01*
X8739229Y-15113208D02*
X8748753Y-15122731D01*
X8748753Y-15122731D02*
X8758277Y-15141779D01*
X8758277Y-15141779D02*
X8767801Y-15179874D01*
X8767801Y-15179874D02*
X8767801Y-15227493D01*
X8767801Y-15227493D02*
X8758277Y-15265588D01*
X8758277Y-15265588D02*
X8748753Y-15284636D01*
X8748753Y-15284636D02*
X8739229Y-15294160D01*
X8739229Y-15294160D02*
X8720182Y-15303684D01*
X8720182Y-15303684D02*
X8701134Y-15303684D01*
X8701134Y-15303684D02*
X8682087Y-15294160D01*
X8682087Y-15294160D02*
X8672563Y-15284636D01*
X8672563Y-15284636D02*
X8663039Y-15265588D01*
X8663039Y-15265588D02*
X8653515Y-15227493D01*
X8653515Y-15227493D02*
X8653515Y-15179874D01*
X8653515Y-15179874D02*
X8663039Y-15141779D01*
X8663039Y-15141779D02*
X8672563Y-15122731D01*
X8672563Y-15122731D02*
X8682087Y-15113208D01*
X8682087Y-15113208D02*
X8701134Y-15103684D01*
X8853515Y-15284636D02*
X8863039Y-15294160D01*
X8863039Y-15294160D02*
X8853515Y-15303684D01*
X8853515Y-15303684D02*
X8843991Y-15294160D01*
X8843991Y-15294160D02*
X8853515Y-15284636D01*
X8853515Y-15284636D02*
X8853515Y-15303684D01*
X8986848Y-15103684D02*
X9005896Y-15103684D01*
X9005896Y-15103684D02*
X9024944Y-15113208D01*
X9024944Y-15113208D02*
X9034468Y-15122731D01*
X9034468Y-15122731D02*
X9043991Y-15141779D01*
X9043991Y-15141779D02*
X9053515Y-15179874D01*
X9053515Y-15179874D02*
X9053515Y-15227493D01*
X9053515Y-15227493D02*
X9043991Y-15265588D01*
X9043991Y-15265588D02*
X9034468Y-15284636D01*
X9034468Y-15284636D02*
X9024944Y-15294160D01*
X9024944Y-15294160D02*
X9005896Y-15303684D01*
X9005896Y-15303684D02*
X8986848Y-15303684D01*
X8986848Y-15303684D02*
X8967801Y-15294160D01*
X8967801Y-15294160D02*
X8958277Y-15284636D01*
X8958277Y-15284636D02*
X8948753Y-15265588D01*
X8948753Y-15265588D02*
X8939229Y-15227493D01*
X8939229Y-15227493D02*
X8939229Y-15179874D01*
X8939229Y-15179874D02*
X8948753Y-15141779D01*
X8948753Y-15141779D02*
X8958277Y-15122731D01*
X8958277Y-15122731D02*
X8967801Y-15113208D01*
X8967801Y-15113208D02*
X8986848Y-15103684D01*
X9243991Y-15303684D02*
X9129706Y-15303684D01*
X9186848Y-15303684D02*
X9186848Y-15103684D01*
X9186848Y-15103684D02*
X9167801Y-15132255D01*
X9167801Y-15132255D02*
X9148753Y-15151303D01*
X9148753Y-15151303D02*
X9129706Y-15160827D01*
X9339229Y-15303684D02*
X9377325Y-15303684D01*
X9377325Y-15303684D02*
X9396372Y-15294160D01*
X9396372Y-15294160D02*
X9405896Y-15284636D01*
X9405896Y-15284636D02*
X9424944Y-15256065D01*
X9424944Y-15256065D02*
X9434468Y-15217969D01*
X9434468Y-15217969D02*
X9434468Y-15141779D01*
X9434468Y-15141779D02*
X9424944Y-15122731D01*
X9424944Y-15122731D02*
X9415420Y-15113208D01*
X9415420Y-15113208D02*
X9396372Y-15103684D01*
X9396372Y-15103684D02*
X9358277Y-15103684D01*
X9358277Y-15103684D02*
X9339229Y-15113208D01*
X9339229Y-15113208D02*
X9329706Y-15122731D01*
X9329706Y-15122731D02*
X9320182Y-15141779D01*
X9320182Y-15141779D02*
X9320182Y-15189398D01*
X9320182Y-15189398D02*
X9329706Y-15208446D01*
X9329706Y-15208446D02*
X9339229Y-15217969D01*
X9339229Y-15217969D02*
X9358277Y-15227493D01*
X9358277Y-15227493D02*
X9396372Y-15227493D01*
X9396372Y-15227493D02*
X9415420Y-15217969D01*
X9415420Y-15217969D02*
X9424944Y-15208446D01*
X9424944Y-15208446D02*
X9434468Y-15189398D01*
X9501134Y-15103684D02*
X9634468Y-15103684D01*
X9634468Y-15103684D02*
X9548753Y-15303684D01*
X9701134Y-15103684D02*
X9701134Y-15141779D01*
X9777325Y-15103684D02*
X9777325Y-15141779D01*
X10072563Y-15379874D02*
X10063039Y-15370350D01*
X10063039Y-15370350D02*
X10043991Y-15341779D01*
X10043991Y-15341779D02*
X10034468Y-15322731D01*
X10034468Y-15322731D02*
X10024944Y-15294160D01*
X10024944Y-15294160D02*
X10015420Y-15246541D01*
X10015420Y-15246541D02*
X10015420Y-15208446D01*
X10015420Y-15208446D02*
X10024944Y-15160827D01*
X10024944Y-15160827D02*
X10034468Y-15132255D01*
X10034468Y-15132255D02*
X10043991Y-15113208D01*
X10043991Y-15113208D02*
X10063039Y-15084636D01*
X10063039Y-15084636D02*
X10072563Y-15075112D01*
X10139230Y-15122731D02*
X10148753Y-15113208D01*
X10148753Y-15113208D02*
X10167801Y-15103684D01*
X10167801Y-15103684D02*
X10215420Y-15103684D01*
X10215420Y-15103684D02*
X10234468Y-15113208D01*
X10234468Y-15113208D02*
X10243991Y-15122731D01*
X10243991Y-15122731D02*
X10253515Y-15141779D01*
X10253515Y-15141779D02*
X10253515Y-15160827D01*
X10253515Y-15160827D02*
X10243991Y-15189398D01*
X10243991Y-15189398D02*
X10129706Y-15303684D01*
X10129706Y-15303684D02*
X10253515Y-15303684D01*
X10443991Y-15303684D02*
X10329706Y-15303684D01*
X10386849Y-15303684D02*
X10386849Y-15103684D01*
X10386849Y-15103684D02*
X10367801Y-15132255D01*
X10367801Y-15132255D02*
X10348753Y-15151303D01*
X10348753Y-15151303D02*
X10329706Y-15160827D01*
X10624944Y-15103684D02*
X10529706Y-15103684D01*
X10529706Y-15103684D02*
X10520182Y-15198922D01*
X10520182Y-15198922D02*
X10529706Y-15189398D01*
X10529706Y-15189398D02*
X10548753Y-15179874D01*
X10548753Y-15179874D02*
X10596372Y-15179874D01*
X10596372Y-15179874D02*
X10615420Y-15189398D01*
X10615420Y-15189398D02*
X10624944Y-15198922D01*
X10624944Y-15198922D02*
X10634468Y-15217969D01*
X10634468Y-15217969D02*
X10634468Y-15265588D01*
X10634468Y-15265588D02*
X10624944Y-15284636D01*
X10624944Y-15284636D02*
X10615420Y-15294160D01*
X10615420Y-15294160D02*
X10596372Y-15303684D01*
X10596372Y-15303684D02*
X10548753Y-15303684D01*
X10548753Y-15303684D02*
X10529706Y-15294160D01*
X10529706Y-15294160D02*
X10520182Y-15284636D01*
X10872563Y-15303684D02*
X10872563Y-15103684D01*
X10958277Y-15303684D02*
X10958277Y-15198922D01*
X10958277Y-15198922D02*
X10948753Y-15179874D01*
X10948753Y-15179874D02*
X10929706Y-15170350D01*
X10929706Y-15170350D02*
X10901134Y-15170350D01*
X10901134Y-15170350D02*
X10882087Y-15179874D01*
X10882087Y-15179874D02*
X10872563Y-15189398D01*
X11082087Y-15303684D02*
X11063039Y-15294160D01*
X11063039Y-15294160D02*
X11053515Y-15284636D01*
X11053515Y-15284636D02*
X11043992Y-15265588D01*
X11043992Y-15265588D02*
X11043992Y-15208446D01*
X11043992Y-15208446D02*
X11053515Y-15189398D01*
X11053515Y-15189398D02*
X11063039Y-15179874D01*
X11063039Y-15179874D02*
X11082087Y-15170350D01*
X11082087Y-15170350D02*
X11110658Y-15170350D01*
X11110658Y-15170350D02*
X11129706Y-15179874D01*
X11129706Y-15179874D02*
X11139230Y-15189398D01*
X11139230Y-15189398D02*
X11148753Y-15208446D01*
X11148753Y-15208446D02*
X11148753Y-15265588D01*
X11148753Y-15265588D02*
X11139230Y-15284636D01*
X11139230Y-15284636D02*
X11129706Y-15294160D01*
X11129706Y-15294160D02*
X11110658Y-15303684D01*
X11110658Y-15303684D02*
X11082087Y-15303684D01*
X11263039Y-15303684D02*
X11243991Y-15294160D01*
X11243991Y-15294160D02*
X11234468Y-15275112D01*
X11234468Y-15275112D02*
X11234468Y-15103684D01*
X11415420Y-15294160D02*
X11396372Y-15303684D01*
X11396372Y-15303684D02*
X11358277Y-15303684D01*
X11358277Y-15303684D02*
X11339230Y-15294160D01*
X11339230Y-15294160D02*
X11329706Y-15275112D01*
X11329706Y-15275112D02*
X11329706Y-15198922D01*
X11329706Y-15198922D02*
X11339230Y-15179874D01*
X11339230Y-15179874D02*
X11358277Y-15170350D01*
X11358277Y-15170350D02*
X11396372Y-15170350D01*
X11396372Y-15170350D02*
X11415420Y-15179874D01*
X11415420Y-15179874D02*
X11424944Y-15198922D01*
X11424944Y-15198922D02*
X11424944Y-15217969D01*
X11424944Y-15217969D02*
X11329706Y-15237017D01*
X11501134Y-15294160D02*
X11520182Y-15303684D01*
X11520182Y-15303684D02*
X11558277Y-15303684D01*
X11558277Y-15303684D02*
X11577325Y-15294160D01*
X11577325Y-15294160D02*
X11586849Y-15275112D01*
X11586849Y-15275112D02*
X11586849Y-15265588D01*
X11586849Y-15265588D02*
X11577325Y-15246541D01*
X11577325Y-15246541D02*
X11558277Y-15237017D01*
X11558277Y-15237017D02*
X11529706Y-15237017D01*
X11529706Y-15237017D02*
X11510658Y-15227493D01*
X11510658Y-15227493D02*
X11501134Y-15208446D01*
X11501134Y-15208446D02*
X11501134Y-15198922D01*
X11501134Y-15198922D02*
X11510658Y-15179874D01*
X11510658Y-15179874D02*
X11529706Y-15170350D01*
X11529706Y-15170350D02*
X11558277Y-15170350D01*
X11558277Y-15170350D02*
X11577325Y-15179874D01*
X11653515Y-15379874D02*
X11663039Y-15370350D01*
X11663039Y-15370350D02*
X11682087Y-15341779D01*
X11682087Y-15341779D02*
X11691611Y-15322731D01*
X11691611Y-15322731D02*
X11701134Y-15294160D01*
X11701134Y-15294160D02*
X11710658Y-15246541D01*
X11710658Y-15246541D02*
X11710658Y-15208446D01*
X11710658Y-15208446D02*
X11701134Y-15160827D01*
X11701134Y-15160827D02*
X11691611Y-15132255D01*
X11691611Y-15132255D02*
X11682087Y-15113208D01*
X11682087Y-15113208D02*
X11663039Y-15084636D01*
X11663039Y-15084636D02*
X11653515Y-15075112D01*
D10*
X6472500Y-15451200D02*
X6472500Y-15501200D01*
X6447500Y-15476200D02*
X6497500Y-15476200D01*
D11*
X6796372Y-15367684D02*
X6815420Y-15367684D01*
X6815420Y-15367684D02*
X6834467Y-15377208D01*
X6834467Y-15377208D02*
X6843991Y-15386731D01*
X6843991Y-15386731D02*
X6853515Y-15405779D01*
X6853515Y-15405779D02*
X6863039Y-15443874D01*
X6863039Y-15443874D02*
X6863039Y-15491493D01*
X6863039Y-15491493D02*
X6853515Y-15529588D01*
X6853515Y-15529588D02*
X6843991Y-15548636D01*
X6843991Y-15548636D02*
X6834467Y-15558160D01*
X6834467Y-15558160D02*
X6815420Y-15567684D01*
X6815420Y-15567684D02*
X6796372Y-15567684D01*
X6796372Y-15567684D02*
X6777324Y-15558160D01*
X6777324Y-15558160D02*
X6767801Y-15548636D01*
X6767801Y-15548636D02*
X6758277Y-15529588D01*
X6758277Y-15529588D02*
X6748753Y-15491493D01*
X6748753Y-15491493D02*
X6748753Y-15443874D01*
X6748753Y-15443874D02*
X6758277Y-15405779D01*
X6758277Y-15405779D02*
X6767801Y-15386731D01*
X6767801Y-15386731D02*
X6777324Y-15377208D01*
X6777324Y-15377208D02*
X6796372Y-15367684D01*
X6948753Y-15548636D02*
X6958277Y-15558160D01*
X6958277Y-15558160D02*
X6948753Y-15567684D01*
X6948753Y-15567684D02*
X6939229Y-15558160D01*
X6939229Y-15558160D02*
X6948753Y-15548636D01*
X6948753Y-15548636D02*
X6948753Y-15567684D01*
X7139229Y-15367684D02*
X7043991Y-15367684D01*
X7043991Y-15367684D02*
X7034467Y-15462922D01*
X7034467Y-15462922D02*
X7043991Y-15453398D01*
X7043991Y-15453398D02*
X7063039Y-15443874D01*
X7063039Y-15443874D02*
X7110658Y-15443874D01*
X7110658Y-15443874D02*
X7129705Y-15453398D01*
X7129705Y-15453398D02*
X7139229Y-15462922D01*
X7139229Y-15462922D02*
X7148753Y-15481969D01*
X7148753Y-15481969D02*
X7148753Y-15529588D01*
X7148753Y-15529588D02*
X7139229Y-15548636D01*
X7139229Y-15548636D02*
X7129705Y-15558160D01*
X7129705Y-15558160D02*
X7110658Y-15567684D01*
X7110658Y-15567684D02*
X7063039Y-15567684D01*
X7063039Y-15567684D02*
X7043991Y-15558160D01*
X7043991Y-15558160D02*
X7034467Y-15548636D01*
X7272562Y-15367684D02*
X7291610Y-15367684D01*
X7291610Y-15367684D02*
X7310658Y-15377208D01*
X7310658Y-15377208D02*
X7320182Y-15386731D01*
X7320182Y-15386731D02*
X7329705Y-15405779D01*
X7329705Y-15405779D02*
X7339229Y-15443874D01*
X7339229Y-15443874D02*
X7339229Y-15491493D01*
X7339229Y-15491493D02*
X7329705Y-15529588D01*
X7329705Y-15529588D02*
X7320182Y-15548636D01*
X7320182Y-15548636D02*
X7310658Y-15558160D01*
X7310658Y-15558160D02*
X7291610Y-15567684D01*
X7291610Y-15567684D02*
X7272562Y-15567684D01*
X7272562Y-15567684D02*
X7253515Y-15558160D01*
X7253515Y-15558160D02*
X7243991Y-15548636D01*
X7243991Y-15548636D02*
X7234467Y-15529588D01*
X7234467Y-15529588D02*
X7224943Y-15491493D01*
X7224943Y-15491493D02*
X7224943Y-15443874D01*
X7224943Y-15443874D02*
X7234467Y-15405779D01*
X7234467Y-15405779D02*
X7243991Y-15386731D01*
X7243991Y-15386731D02*
X7253515Y-15377208D01*
X7253515Y-15377208D02*
X7272562Y-15367684D01*
X7463039Y-15367684D02*
X7482086Y-15367684D01*
X7482086Y-15367684D02*
X7501134Y-15377208D01*
X7501134Y-15377208D02*
X7510658Y-15386731D01*
X7510658Y-15386731D02*
X7520182Y-15405779D01*
X7520182Y-15405779D02*
X7529705Y-15443874D01*
X7529705Y-15443874D02*
X7529705Y-15491493D01*
X7529705Y-15491493D02*
X7520182Y-15529588D01*
X7520182Y-15529588D02*
X7510658Y-15548636D01*
X7510658Y-15548636D02*
X7501134Y-15558160D01*
X7501134Y-15558160D02*
X7482086Y-15567684D01*
X7482086Y-15567684D02*
X7463039Y-15567684D01*
X7463039Y-15567684D02*
X7443991Y-15558160D01*
X7443991Y-15558160D02*
X7434467Y-15548636D01*
X7434467Y-15548636D02*
X7424943Y-15529588D01*
X7424943Y-15529588D02*
X7415420Y-15491493D01*
X7415420Y-15491493D02*
X7415420Y-15443874D01*
X7415420Y-15443874D02*
X7424943Y-15405779D01*
X7424943Y-15405779D02*
X7434467Y-15386731D01*
X7434467Y-15386731D02*
X7443991Y-15377208D01*
X7443991Y-15377208D02*
X7463039Y-15367684D01*
X7615420Y-15567684D02*
X7615420Y-15434350D01*
X7615420Y-15453398D02*
X7624943Y-15443874D01*
X7624943Y-15443874D02*
X7643991Y-15434350D01*
X7643991Y-15434350D02*
X7672563Y-15434350D01*
X7672563Y-15434350D02*
X7691610Y-15443874D01*
X7691610Y-15443874D02*
X7701134Y-15462922D01*
X7701134Y-15462922D02*
X7701134Y-15567684D01*
X7701134Y-15462922D02*
X7710658Y-15443874D01*
X7710658Y-15443874D02*
X7729705Y-15434350D01*
X7729705Y-15434350D02*
X7758277Y-15434350D01*
X7758277Y-15434350D02*
X7777324Y-15443874D01*
X7777324Y-15443874D02*
X7786848Y-15462922D01*
X7786848Y-15462922D02*
X7786848Y-15567684D01*
X7882086Y-15567684D02*
X7882086Y-15434350D01*
X7882086Y-15453398D02*
X7891610Y-15443874D01*
X7891610Y-15443874D02*
X7910658Y-15434350D01*
X7910658Y-15434350D02*
X7939229Y-15434350D01*
X7939229Y-15434350D02*
X7958277Y-15443874D01*
X7958277Y-15443874D02*
X7967801Y-15462922D01*
X7967801Y-15462922D02*
X7967801Y-15567684D01*
X7967801Y-15462922D02*
X7977324Y-15443874D01*
X7977324Y-15443874D02*
X7996372Y-15434350D01*
X7996372Y-15434350D02*
X8024943Y-15434350D01*
X8024943Y-15434350D02*
X8043991Y-15443874D01*
X8043991Y-15443874D02*
X8053515Y-15462922D01*
X8053515Y-15462922D02*
X8053515Y-15567684D01*
X8443991Y-15358160D02*
X8272563Y-15615303D01*
X8701134Y-15367684D02*
X8720182Y-15367684D01*
X8720182Y-15367684D02*
X8739229Y-15377208D01*
X8739229Y-15377208D02*
X8748753Y-15386731D01*
X8748753Y-15386731D02*
X8758277Y-15405779D01*
X8758277Y-15405779D02*
X8767801Y-15443874D01*
X8767801Y-15443874D02*
X8767801Y-15491493D01*
X8767801Y-15491493D02*
X8758277Y-15529588D01*
X8758277Y-15529588D02*
X8748753Y-15548636D01*
X8748753Y-15548636D02*
X8739229Y-15558160D01*
X8739229Y-15558160D02*
X8720182Y-15567684D01*
X8720182Y-15567684D02*
X8701134Y-15567684D01*
X8701134Y-15567684D02*
X8682087Y-15558160D01*
X8682087Y-15558160D02*
X8672563Y-15548636D01*
X8672563Y-15548636D02*
X8663039Y-15529588D01*
X8663039Y-15529588D02*
X8653515Y-15491493D01*
X8653515Y-15491493D02*
X8653515Y-15443874D01*
X8653515Y-15443874D02*
X8663039Y-15405779D01*
X8663039Y-15405779D02*
X8672563Y-15386731D01*
X8672563Y-15386731D02*
X8682087Y-15377208D01*
X8682087Y-15377208D02*
X8701134Y-15367684D01*
X8853515Y-15548636D02*
X8863039Y-15558160D01*
X8863039Y-15558160D02*
X8853515Y-15567684D01*
X8853515Y-15567684D02*
X8843991Y-15558160D01*
X8843991Y-15558160D02*
X8853515Y-15548636D01*
X8853515Y-15548636D02*
X8853515Y-15567684D01*
X8986848Y-15367684D02*
X9005896Y-15367684D01*
X9005896Y-15367684D02*
X9024944Y-15377208D01*
X9024944Y-15377208D02*
X9034468Y-15386731D01*
X9034468Y-15386731D02*
X9043991Y-15405779D01*
X9043991Y-15405779D02*
X9053515Y-15443874D01*
X9053515Y-15443874D02*
X9053515Y-15491493D01*
X9053515Y-15491493D02*
X9043991Y-15529588D01*
X9043991Y-15529588D02*
X9034468Y-15548636D01*
X9034468Y-15548636D02*
X9024944Y-15558160D01*
X9024944Y-15558160D02*
X9005896Y-15567684D01*
X9005896Y-15567684D02*
X8986848Y-15567684D01*
X8986848Y-15567684D02*
X8967801Y-15558160D01*
X8967801Y-15558160D02*
X8958277Y-15548636D01*
X8958277Y-15548636D02*
X8948753Y-15529588D01*
X8948753Y-15529588D02*
X8939229Y-15491493D01*
X8939229Y-15491493D02*
X8939229Y-15443874D01*
X8939229Y-15443874D02*
X8948753Y-15405779D01*
X8948753Y-15405779D02*
X8958277Y-15386731D01*
X8958277Y-15386731D02*
X8967801Y-15377208D01*
X8967801Y-15377208D02*
X8986848Y-15367684D01*
X9243991Y-15567684D02*
X9129706Y-15567684D01*
X9186848Y-15567684D02*
X9186848Y-15367684D01*
X9186848Y-15367684D02*
X9167801Y-15396255D01*
X9167801Y-15396255D02*
X9148753Y-15415303D01*
X9148753Y-15415303D02*
X9129706Y-15424827D01*
X9339229Y-15567684D02*
X9377325Y-15567684D01*
X9377325Y-15567684D02*
X9396372Y-15558160D01*
X9396372Y-15558160D02*
X9405896Y-15548636D01*
X9405896Y-15548636D02*
X9424944Y-15520065D01*
X9424944Y-15520065D02*
X9434468Y-15481969D01*
X9434468Y-15481969D02*
X9434468Y-15405779D01*
X9434468Y-15405779D02*
X9424944Y-15386731D01*
X9424944Y-15386731D02*
X9415420Y-15377208D01*
X9415420Y-15377208D02*
X9396372Y-15367684D01*
X9396372Y-15367684D02*
X9358277Y-15367684D01*
X9358277Y-15367684D02*
X9339229Y-15377208D01*
X9339229Y-15377208D02*
X9329706Y-15386731D01*
X9329706Y-15386731D02*
X9320182Y-15405779D01*
X9320182Y-15405779D02*
X9320182Y-15453398D01*
X9320182Y-15453398D02*
X9329706Y-15472446D01*
X9329706Y-15472446D02*
X9339229Y-15481969D01*
X9339229Y-15481969D02*
X9358277Y-15491493D01*
X9358277Y-15491493D02*
X9396372Y-15491493D01*
X9396372Y-15491493D02*
X9415420Y-15481969D01*
X9415420Y-15481969D02*
X9424944Y-15472446D01*
X9424944Y-15472446D02*
X9434468Y-15453398D01*
X9501134Y-15367684D02*
X9634468Y-15367684D01*
X9634468Y-15367684D02*
X9548753Y-15567684D01*
X9701134Y-15367684D02*
X9701134Y-15405779D01*
X9777325Y-15367684D02*
X9777325Y-15405779D01*
X10072563Y-15643874D02*
X10063039Y-15634350D01*
X10063039Y-15634350D02*
X10043991Y-15605779D01*
X10043991Y-15605779D02*
X10034468Y-15586731D01*
X10034468Y-15586731D02*
X10024944Y-15558160D01*
X10024944Y-15558160D02*
X10015420Y-15510541D01*
X10015420Y-15510541D02*
X10015420Y-15472446D01*
X10015420Y-15472446D02*
X10024944Y-15424827D01*
X10024944Y-15424827D02*
X10034468Y-15396255D01*
X10034468Y-15396255D02*
X10043991Y-15377208D01*
X10043991Y-15377208D02*
X10063039Y-15348636D01*
X10063039Y-15348636D02*
X10072563Y-15339112D01*
X10129706Y-15367684D02*
X10253515Y-15367684D01*
X10253515Y-15367684D02*
X10186849Y-15443874D01*
X10186849Y-15443874D02*
X10215420Y-15443874D01*
X10215420Y-15443874D02*
X10234468Y-15453398D01*
X10234468Y-15453398D02*
X10243991Y-15462922D01*
X10243991Y-15462922D02*
X10253515Y-15481969D01*
X10253515Y-15481969D02*
X10253515Y-15529588D01*
X10253515Y-15529588D02*
X10243991Y-15548636D01*
X10243991Y-15548636D02*
X10234468Y-15558160D01*
X10234468Y-15558160D02*
X10215420Y-15567684D01*
X10215420Y-15567684D02*
X10158277Y-15567684D01*
X10158277Y-15567684D02*
X10139230Y-15558160D01*
X10139230Y-15558160D02*
X10129706Y-15548636D01*
X10329706Y-15386731D02*
X10339230Y-15377208D01*
X10339230Y-15377208D02*
X10358277Y-15367684D01*
X10358277Y-15367684D02*
X10405896Y-15367684D01*
X10405896Y-15367684D02*
X10424944Y-15377208D01*
X10424944Y-15377208D02*
X10434468Y-15386731D01*
X10434468Y-15386731D02*
X10443991Y-15405779D01*
X10443991Y-15405779D02*
X10443991Y-15424827D01*
X10443991Y-15424827D02*
X10434468Y-15453398D01*
X10434468Y-15453398D02*
X10320182Y-15567684D01*
X10320182Y-15567684D02*
X10443991Y-15567684D01*
X10682087Y-15567684D02*
X10682087Y-15367684D01*
X10767801Y-15567684D02*
X10767801Y-15462922D01*
X10767801Y-15462922D02*
X10758277Y-15443874D01*
X10758277Y-15443874D02*
X10739230Y-15434350D01*
X10739230Y-15434350D02*
X10710658Y-15434350D01*
X10710658Y-15434350D02*
X10691611Y-15443874D01*
X10691611Y-15443874D02*
X10682087Y-15453398D01*
X10891611Y-15567684D02*
X10872563Y-15558160D01*
X10872563Y-15558160D02*
X10863039Y-15548636D01*
X10863039Y-15548636D02*
X10853515Y-15529588D01*
X10853515Y-15529588D02*
X10853515Y-15472446D01*
X10853515Y-15472446D02*
X10863039Y-15453398D01*
X10863039Y-15453398D02*
X10872563Y-15443874D01*
X10872563Y-15443874D02*
X10891611Y-15434350D01*
X10891611Y-15434350D02*
X10920182Y-15434350D01*
X10920182Y-15434350D02*
X10939230Y-15443874D01*
X10939230Y-15443874D02*
X10948753Y-15453398D01*
X10948753Y-15453398D02*
X10958277Y-15472446D01*
X10958277Y-15472446D02*
X10958277Y-15529588D01*
X10958277Y-15529588D02*
X10948753Y-15548636D01*
X10948753Y-15548636D02*
X10939230Y-15558160D01*
X10939230Y-15558160D02*
X10920182Y-15567684D01*
X10920182Y-15567684D02*
X10891611Y-15567684D01*
X11072563Y-15567684D02*
X11053515Y-15558160D01*
X11053515Y-15558160D02*
X11043992Y-15539112D01*
X11043992Y-15539112D02*
X11043992Y-15367684D01*
X11224944Y-15558160D02*
X11205896Y-15567684D01*
X11205896Y-15567684D02*
X11167801Y-15567684D01*
X11167801Y-15567684D02*
X11148753Y-15558160D01*
X11148753Y-15558160D02*
X11139230Y-15539112D01*
X11139230Y-15539112D02*
X11139230Y-15462922D01*
X11139230Y-15462922D02*
X11148753Y-15443874D01*
X11148753Y-15443874D02*
X11167801Y-15434350D01*
X11167801Y-15434350D02*
X11205896Y-15434350D01*
X11205896Y-15434350D02*
X11224944Y-15443874D01*
X11224944Y-15443874D02*
X11234468Y-15462922D01*
X11234468Y-15462922D02*
X11234468Y-15481969D01*
X11234468Y-15481969D02*
X11139230Y-15501017D01*
X11310658Y-15558160D02*
X11329706Y-15567684D01*
X11329706Y-15567684D02*
X11367801Y-15567684D01*
X11367801Y-15567684D02*
X11386849Y-15558160D01*
X11386849Y-15558160D02*
X11396372Y-15539112D01*
X11396372Y-15539112D02*
X11396372Y-15529588D01*
X11396372Y-15529588D02*
X11386849Y-15510541D01*
X11386849Y-15510541D02*
X11367801Y-15501017D01*
X11367801Y-15501017D02*
X11339230Y-15501017D01*
X11339230Y-15501017D02*
X11320182Y-15491493D01*
X11320182Y-15491493D02*
X11310658Y-15472446D01*
X11310658Y-15472446D02*
X11310658Y-15462922D01*
X11310658Y-15462922D02*
X11320182Y-15443874D01*
X11320182Y-15443874D02*
X11339230Y-15434350D01*
X11339230Y-15434350D02*
X11367801Y-15434350D01*
X11367801Y-15434350D02*
X11386849Y-15443874D01*
X11463039Y-15643874D02*
X11472563Y-15634350D01*
X11472563Y-15634350D02*
X11491611Y-15605779D01*
X11491611Y-15605779D02*
X11501134Y-15586731D01*
X11501134Y-15586731D02*
X11510658Y-15558160D01*
X11510658Y-15558160D02*
X11520182Y-15510541D01*
X11520182Y-15510541D02*
X11520182Y-15472446D01*
X11520182Y-15472446D02*
X11510658Y-15424827D01*
X11510658Y-15424827D02*
X11501134Y-15396255D01*
X11501134Y-15396255D02*
X11491611Y-15377208D01*
X11491611Y-15377208D02*
X11472563Y-15348636D01*
X11472563Y-15348636D02*
X11463039Y-15339112D01*
D13*
X6485199Y-15769899D02*
X6485199Y-15710501D01*
X6425801Y-15710501D01*
X6425801Y-15769899D01*
X6485199Y-15769899D01*
D11*
X6796372Y-15631684D02*
X6815420Y-15631684D01*
X6815420Y-15631684D02*
X6834467Y-15641208D01*
X6834467Y-15641208D02*
X6843991Y-15650731D01*
X6843991Y-15650731D02*
X6853515Y-15669779D01*
X6853515Y-15669779D02*
X6863039Y-15707874D01*
X6863039Y-15707874D02*
X6863039Y-15755493D01*
X6863039Y-15755493D02*
X6853515Y-15793588D01*
X6853515Y-15793588D02*
X6843991Y-15812636D01*
X6843991Y-15812636D02*
X6834467Y-15822160D01*
X6834467Y-15822160D02*
X6815420Y-15831684D01*
X6815420Y-15831684D02*
X6796372Y-15831684D01*
X6796372Y-15831684D02*
X6777324Y-15822160D01*
X6777324Y-15822160D02*
X6767801Y-15812636D01*
X6767801Y-15812636D02*
X6758277Y-15793588D01*
X6758277Y-15793588D02*
X6748753Y-15755493D01*
X6748753Y-15755493D02*
X6748753Y-15707874D01*
X6748753Y-15707874D02*
X6758277Y-15669779D01*
X6758277Y-15669779D02*
X6767801Y-15650731D01*
X6767801Y-15650731D02*
X6777324Y-15641208D01*
X6777324Y-15641208D02*
X6796372Y-15631684D01*
X6948753Y-15812636D02*
X6958277Y-15822160D01*
X6958277Y-15822160D02*
X6948753Y-15831684D01*
X6948753Y-15831684D02*
X6939229Y-15822160D01*
X6939229Y-15822160D02*
X6948753Y-15812636D01*
X6948753Y-15812636D02*
X6948753Y-15831684D01*
X7072562Y-15717398D02*
X7053515Y-15707874D01*
X7053515Y-15707874D02*
X7043991Y-15698350D01*
X7043991Y-15698350D02*
X7034467Y-15679303D01*
X7034467Y-15679303D02*
X7034467Y-15669779D01*
X7034467Y-15669779D02*
X7043991Y-15650731D01*
X7043991Y-15650731D02*
X7053515Y-15641208D01*
X7053515Y-15641208D02*
X7072562Y-15631684D01*
X7072562Y-15631684D02*
X7110658Y-15631684D01*
X7110658Y-15631684D02*
X7129705Y-15641208D01*
X7129705Y-15641208D02*
X7139229Y-15650731D01*
X7139229Y-15650731D02*
X7148753Y-15669779D01*
X7148753Y-15669779D02*
X7148753Y-15679303D01*
X7148753Y-15679303D02*
X7139229Y-15698350D01*
X7139229Y-15698350D02*
X7129705Y-15707874D01*
X7129705Y-15707874D02*
X7110658Y-15717398D01*
X7110658Y-15717398D02*
X7072562Y-15717398D01*
X7072562Y-15717398D02*
X7053515Y-15726922D01*
X7053515Y-15726922D02*
X7043991Y-15736446D01*
X7043991Y-15736446D02*
X7034467Y-15755493D01*
X7034467Y-15755493D02*
X7034467Y-15793588D01*
X7034467Y-15793588D02*
X7043991Y-15812636D01*
X7043991Y-15812636D02*
X7053515Y-15822160D01*
X7053515Y-15822160D02*
X7072562Y-15831684D01*
X7072562Y-15831684D02*
X7110658Y-15831684D01*
X7110658Y-15831684D02*
X7129705Y-15822160D01*
X7129705Y-15822160D02*
X7139229Y-15812636D01*
X7139229Y-15812636D02*
X7148753Y-15793588D01*
X7148753Y-15793588D02*
X7148753Y-15755493D01*
X7148753Y-15755493D02*
X7139229Y-15736446D01*
X7139229Y-15736446D02*
X7129705Y-15726922D01*
X7129705Y-15726922D02*
X7110658Y-15717398D01*
X7320182Y-15698350D02*
X7320182Y-15831684D01*
X7272562Y-15622160D02*
X7224943Y-15765017D01*
X7224943Y-15765017D02*
X7348753Y-15765017D01*
X7463039Y-15631684D02*
X7482086Y-15631684D01*
X7482086Y-15631684D02*
X7501134Y-15641208D01*
X7501134Y-15641208D02*
X7510658Y-15650731D01*
X7510658Y-15650731D02*
X7520182Y-15669779D01*
X7520182Y-15669779D02*
X7529705Y-15707874D01*
X7529705Y-15707874D02*
X7529705Y-15755493D01*
X7529705Y-15755493D02*
X7520182Y-15793588D01*
X7520182Y-15793588D02*
X7510658Y-15812636D01*
X7510658Y-15812636D02*
X7501134Y-15822160D01*
X7501134Y-15822160D02*
X7482086Y-15831684D01*
X7482086Y-15831684D02*
X7463039Y-15831684D01*
X7463039Y-15831684D02*
X7443991Y-15822160D01*
X7443991Y-15822160D02*
X7434467Y-15812636D01*
X7434467Y-15812636D02*
X7424943Y-15793588D01*
X7424943Y-15793588D02*
X7415420Y-15755493D01*
X7415420Y-15755493D02*
X7415420Y-15707874D01*
X7415420Y-15707874D02*
X7424943Y-15669779D01*
X7424943Y-15669779D02*
X7434467Y-15650731D01*
X7434467Y-15650731D02*
X7443991Y-15641208D01*
X7443991Y-15641208D02*
X7463039Y-15631684D01*
X7615420Y-15831684D02*
X7615420Y-15698350D01*
X7615420Y-15717398D02*
X7624943Y-15707874D01*
X7624943Y-15707874D02*
X7643991Y-15698350D01*
X7643991Y-15698350D02*
X7672563Y-15698350D01*
X7672563Y-15698350D02*
X7691610Y-15707874D01*
X7691610Y-15707874D02*
X7701134Y-15726922D01*
X7701134Y-15726922D02*
X7701134Y-15831684D01*
X7701134Y-15726922D02*
X7710658Y-15707874D01*
X7710658Y-15707874D02*
X7729705Y-15698350D01*
X7729705Y-15698350D02*
X7758277Y-15698350D01*
X7758277Y-15698350D02*
X7777324Y-15707874D01*
X7777324Y-15707874D02*
X7786848Y-15726922D01*
X7786848Y-15726922D02*
X7786848Y-15831684D01*
X7882086Y-15831684D02*
X7882086Y-15698350D01*
X7882086Y-15717398D02*
X7891610Y-15707874D01*
X7891610Y-15707874D02*
X7910658Y-15698350D01*
X7910658Y-15698350D02*
X7939229Y-15698350D01*
X7939229Y-15698350D02*
X7958277Y-15707874D01*
X7958277Y-15707874D02*
X7967801Y-15726922D01*
X7967801Y-15726922D02*
X7967801Y-15831684D01*
X7967801Y-15726922D02*
X7977324Y-15707874D01*
X7977324Y-15707874D02*
X7996372Y-15698350D01*
X7996372Y-15698350D02*
X8024943Y-15698350D01*
X8024943Y-15698350D02*
X8043991Y-15707874D01*
X8043991Y-15707874D02*
X8053515Y-15726922D01*
X8053515Y-15726922D02*
X8053515Y-15831684D01*
X8443991Y-15622160D02*
X8272563Y-15879303D01*
X8701134Y-15631684D02*
X8720182Y-15631684D01*
X8720182Y-15631684D02*
X8739229Y-15641208D01*
X8739229Y-15641208D02*
X8748753Y-15650731D01*
X8748753Y-15650731D02*
X8758277Y-15669779D01*
X8758277Y-15669779D02*
X8767801Y-15707874D01*
X8767801Y-15707874D02*
X8767801Y-15755493D01*
X8767801Y-15755493D02*
X8758277Y-15793588D01*
X8758277Y-15793588D02*
X8748753Y-15812636D01*
X8748753Y-15812636D02*
X8739229Y-15822160D01*
X8739229Y-15822160D02*
X8720182Y-15831684D01*
X8720182Y-15831684D02*
X8701134Y-15831684D01*
X8701134Y-15831684D02*
X8682087Y-15822160D01*
X8682087Y-15822160D02*
X8672563Y-15812636D01*
X8672563Y-15812636D02*
X8663039Y-15793588D01*
X8663039Y-15793588D02*
X8653515Y-15755493D01*
X8653515Y-15755493D02*
X8653515Y-15707874D01*
X8653515Y-15707874D02*
X8663039Y-15669779D01*
X8663039Y-15669779D02*
X8672563Y-15650731D01*
X8672563Y-15650731D02*
X8682087Y-15641208D01*
X8682087Y-15641208D02*
X8701134Y-15631684D01*
X8853515Y-15812636D02*
X8863039Y-15822160D01*
X8863039Y-15822160D02*
X8853515Y-15831684D01*
X8853515Y-15831684D02*
X8843991Y-15822160D01*
X8843991Y-15822160D02*
X8853515Y-15812636D01*
X8853515Y-15812636D02*
X8853515Y-15831684D01*
X8986848Y-15631684D02*
X9005896Y-15631684D01*
X9005896Y-15631684D02*
X9024944Y-15641208D01*
X9024944Y-15641208D02*
X9034468Y-15650731D01*
X9034468Y-15650731D02*
X9043991Y-15669779D01*
X9043991Y-15669779D02*
X9053515Y-15707874D01*
X9053515Y-15707874D02*
X9053515Y-15755493D01*
X9053515Y-15755493D02*
X9043991Y-15793588D01*
X9043991Y-15793588D02*
X9034468Y-15812636D01*
X9034468Y-15812636D02*
X9024944Y-15822160D01*
X9024944Y-15822160D02*
X9005896Y-15831684D01*
X9005896Y-15831684D02*
X8986848Y-15831684D01*
X8986848Y-15831684D02*
X8967801Y-15822160D01*
X8967801Y-15822160D02*
X8958277Y-15812636D01*
X8958277Y-15812636D02*
X8948753Y-15793588D01*
X8948753Y-15793588D02*
X8939229Y-15755493D01*
X8939229Y-15755493D02*
X8939229Y-15707874D01*
X8939229Y-15707874D02*
X8948753Y-15669779D01*
X8948753Y-15669779D02*
X8958277Y-15650731D01*
X8958277Y-15650731D02*
X8967801Y-15641208D01*
X8967801Y-15641208D02*
X8986848Y-15631684D01*
X9120182Y-15631684D02*
X9243991Y-15631684D01*
X9243991Y-15631684D02*
X9177325Y-15707874D01*
X9177325Y-15707874D02*
X9205896Y-15707874D01*
X9205896Y-15707874D02*
X9224944Y-15717398D01*
X9224944Y-15717398D02*
X9234468Y-15726922D01*
X9234468Y-15726922D02*
X9243991Y-15745969D01*
X9243991Y-15745969D02*
X9243991Y-15793588D01*
X9243991Y-15793588D02*
X9234468Y-15812636D01*
X9234468Y-15812636D02*
X9224944Y-15822160D01*
X9224944Y-15822160D02*
X9205896Y-15831684D01*
X9205896Y-15831684D02*
X9148753Y-15831684D01*
X9148753Y-15831684D02*
X9129706Y-15822160D01*
X9129706Y-15822160D02*
X9120182Y-15812636D01*
X9310658Y-15631684D02*
X9434468Y-15631684D01*
X9434468Y-15631684D02*
X9367801Y-15707874D01*
X9367801Y-15707874D02*
X9396372Y-15707874D01*
X9396372Y-15707874D02*
X9415420Y-15717398D01*
X9415420Y-15717398D02*
X9424944Y-15726922D01*
X9424944Y-15726922D02*
X9434468Y-15745969D01*
X9434468Y-15745969D02*
X9434468Y-15793588D01*
X9434468Y-15793588D02*
X9424944Y-15812636D01*
X9424944Y-15812636D02*
X9415420Y-15822160D01*
X9415420Y-15822160D02*
X9396372Y-15831684D01*
X9396372Y-15831684D02*
X9339229Y-15831684D01*
X9339229Y-15831684D02*
X9320182Y-15822160D01*
X9320182Y-15822160D02*
X9310658Y-15812636D01*
X9624944Y-15831684D02*
X9510658Y-15831684D01*
X9567801Y-15831684D02*
X9567801Y-15631684D01*
X9567801Y-15631684D02*
X9548753Y-15660255D01*
X9548753Y-15660255D02*
X9529706Y-15679303D01*
X9529706Y-15679303D02*
X9510658Y-15688827D01*
X9701134Y-15631684D02*
X9701134Y-15669779D01*
X9777325Y-15631684D02*
X9777325Y-15669779D01*
X10072563Y-15907874D02*
X10063039Y-15898350D01*
X10063039Y-15898350D02*
X10043991Y-15869779D01*
X10043991Y-15869779D02*
X10034468Y-15850731D01*
X10034468Y-15850731D02*
X10024944Y-15822160D01*
X10024944Y-15822160D02*
X10015420Y-15774541D01*
X10015420Y-15774541D02*
X10015420Y-15736446D01*
X10015420Y-15736446D02*
X10024944Y-15688827D01*
X10024944Y-15688827D02*
X10034468Y-15660255D01*
X10034468Y-15660255D02*
X10043991Y-15641208D01*
X10043991Y-15641208D02*
X10063039Y-15612636D01*
X10063039Y-15612636D02*
X10072563Y-15603112D01*
X10129706Y-15631684D02*
X10263039Y-15631684D01*
X10263039Y-15631684D02*
X10177325Y-15831684D01*
X10367801Y-15717398D02*
X10348753Y-15707874D01*
X10348753Y-15707874D02*
X10339230Y-15698350D01*
X10339230Y-15698350D02*
X10329706Y-15679303D01*
X10329706Y-15679303D02*
X10329706Y-15669779D01*
X10329706Y-15669779D02*
X10339230Y-15650731D01*
X10339230Y-15650731D02*
X10348753Y-15641208D01*
X10348753Y-15641208D02*
X10367801Y-15631684D01*
X10367801Y-15631684D02*
X10405896Y-15631684D01*
X10405896Y-15631684D02*
X10424944Y-15641208D01*
X10424944Y-15641208D02*
X10434468Y-15650731D01*
X10434468Y-15650731D02*
X10443991Y-15669779D01*
X10443991Y-15669779D02*
X10443991Y-15679303D01*
X10443991Y-15679303D02*
X10434468Y-15698350D01*
X10434468Y-15698350D02*
X10424944Y-15707874D01*
X10424944Y-15707874D02*
X10405896Y-15717398D01*
X10405896Y-15717398D02*
X10367801Y-15717398D01*
X10367801Y-15717398D02*
X10348753Y-15726922D01*
X10348753Y-15726922D02*
X10339230Y-15736446D01*
X10339230Y-15736446D02*
X10329706Y-15755493D01*
X10329706Y-15755493D02*
X10329706Y-15793588D01*
X10329706Y-15793588D02*
X10339230Y-15812636D01*
X10339230Y-15812636D02*
X10348753Y-15822160D01*
X10348753Y-15822160D02*
X10367801Y-15831684D01*
X10367801Y-15831684D02*
X10405896Y-15831684D01*
X10405896Y-15831684D02*
X10424944Y-15822160D01*
X10424944Y-15822160D02*
X10434468Y-15812636D01*
X10434468Y-15812636D02*
X10443991Y-15793588D01*
X10443991Y-15793588D02*
X10443991Y-15755493D01*
X10443991Y-15755493D02*
X10434468Y-15736446D01*
X10434468Y-15736446D02*
X10424944Y-15726922D01*
X10424944Y-15726922D02*
X10405896Y-15717398D01*
X10682087Y-15831684D02*
X10682087Y-15631684D01*
X10767801Y-15831684D02*
X10767801Y-15726922D01*
X10767801Y-15726922D02*
X10758277Y-15707874D01*
X10758277Y-15707874D02*
X10739230Y-15698350D01*
X10739230Y-15698350D02*
X10710658Y-15698350D01*
X10710658Y-15698350D02*
X10691611Y-15707874D01*
X10691611Y-15707874D02*
X10682087Y-15717398D01*
X10891611Y-15831684D02*
X10872563Y-15822160D01*
X10872563Y-15822160D02*
X10863039Y-15812636D01*
X10863039Y-15812636D02*
X10853515Y-15793588D01*
X10853515Y-15793588D02*
X10853515Y-15736446D01*
X10853515Y-15736446D02*
X10863039Y-15717398D01*
X10863039Y-15717398D02*
X10872563Y-15707874D01*
X10872563Y-15707874D02*
X10891611Y-15698350D01*
X10891611Y-15698350D02*
X10920182Y-15698350D01*
X10920182Y-15698350D02*
X10939230Y-15707874D01*
X10939230Y-15707874D02*
X10948753Y-15717398D01*
X10948753Y-15717398D02*
X10958277Y-15736446D01*
X10958277Y-15736446D02*
X10958277Y-15793588D01*
X10958277Y-15793588D02*
X10948753Y-15812636D01*
X10948753Y-15812636D02*
X10939230Y-15822160D01*
X10939230Y-15822160D02*
X10920182Y-15831684D01*
X10920182Y-15831684D02*
X10891611Y-15831684D01*
X11072563Y-15831684D02*
X11053515Y-15822160D01*
X11053515Y-15822160D02*
X11043992Y-15803112D01*
X11043992Y-15803112D02*
X11043992Y-15631684D01*
X11224944Y-15822160D02*
X11205896Y-15831684D01*
X11205896Y-15831684D02*
X11167801Y-15831684D01*
X11167801Y-15831684D02*
X11148753Y-15822160D01*
X11148753Y-15822160D02*
X11139230Y-15803112D01*
X11139230Y-15803112D02*
X11139230Y-15726922D01*
X11139230Y-15726922D02*
X11148753Y-15707874D01*
X11148753Y-15707874D02*
X11167801Y-15698350D01*
X11167801Y-15698350D02*
X11205896Y-15698350D01*
X11205896Y-15698350D02*
X11224944Y-15707874D01*
X11224944Y-15707874D02*
X11234468Y-15726922D01*
X11234468Y-15726922D02*
X11234468Y-15745969D01*
X11234468Y-15745969D02*
X11139230Y-15765017D01*
X11310658Y-15822160D02*
X11329706Y-15831684D01*
X11329706Y-15831684D02*
X11367801Y-15831684D01*
X11367801Y-15831684D02*
X11386849Y-15822160D01*
X11386849Y-15822160D02*
X11396372Y-15803112D01*
X11396372Y-15803112D02*
X11396372Y-15793588D01*
X11396372Y-15793588D02*
X11386849Y-15774541D01*
X11386849Y-15774541D02*
X11367801Y-15765017D01*
X11367801Y-15765017D02*
X11339230Y-15765017D01*
X11339230Y-15765017D02*
X11320182Y-15755493D01*
X11320182Y-15755493D02*
X11310658Y-15736446D01*
X11310658Y-15736446D02*
X11310658Y-15726922D01*
X11310658Y-15726922D02*
X11320182Y-15707874D01*
X11320182Y-15707874D02*
X11339230Y-15698350D01*
X11339230Y-15698350D02*
X11367801Y-15698350D01*
X11367801Y-15698350D02*
X11386849Y-15707874D01*
X11463039Y-15907874D02*
X11472563Y-15898350D01*
X11472563Y-15898350D02*
X11491611Y-15869779D01*
X11491611Y-15869779D02*
X11501134Y-15850731D01*
X11501134Y-15850731D02*
X11510658Y-15822160D01*
X11510658Y-15822160D02*
X11520182Y-15774541D01*
X11520182Y-15774541D02*
X11520182Y-15736446D01*
X11520182Y-15736446D02*
X11510658Y-15688827D01*
X11510658Y-15688827D02*
X11501134Y-15660255D01*
X11501134Y-15660255D02*
X11491611Y-15641208D01*
X11491611Y-15641208D02*
X11472563Y-15612636D01*
X11472563Y-15612636D02*
X11463039Y-15603112D01*
D14*
X6452500Y-16049200D02*
X6497500Y-16004200D01*
X6452500Y-15959200D01*
X6407500Y-16004200D01*
X6452500Y-16049200D01*
D11*
X6796372Y-15895684D02*
X6815420Y-15895684D01*
X6815420Y-15895684D02*
X6834467Y-15905208D01*
X6834467Y-15905208D02*
X6843991Y-15914731D01*
X6843991Y-15914731D02*
X6853515Y-15933779D01*
X6853515Y-15933779D02*
X6863039Y-15971874D01*
X6863039Y-15971874D02*
X6863039Y-16019493D01*
X6863039Y-16019493D02*
X6853515Y-16057588D01*
X6853515Y-16057588D02*
X6843991Y-16076636D01*
X6843991Y-16076636D02*
X6834467Y-16086160D01*
X6834467Y-16086160D02*
X6815420Y-16095684D01*
X6815420Y-16095684D02*
X6796372Y-16095684D01*
X6796372Y-16095684D02*
X6777324Y-16086160D01*
X6777324Y-16086160D02*
X6767801Y-16076636D01*
X6767801Y-16076636D02*
X6758277Y-16057588D01*
X6758277Y-16057588D02*
X6748753Y-16019493D01*
X6748753Y-16019493D02*
X6748753Y-15971874D01*
X6748753Y-15971874D02*
X6758277Y-15933779D01*
X6758277Y-15933779D02*
X6767801Y-15914731D01*
X6767801Y-15914731D02*
X6777324Y-15905208D01*
X6777324Y-15905208D02*
X6796372Y-15895684D01*
X6948753Y-16076636D02*
X6958277Y-16086160D01*
X6958277Y-16086160D02*
X6948753Y-16095684D01*
X6948753Y-16095684D02*
X6939229Y-16086160D01*
X6939229Y-16086160D02*
X6948753Y-16076636D01*
X6948753Y-16076636D02*
X6948753Y-16095684D01*
X7053515Y-16095684D02*
X7091610Y-16095684D01*
X7091610Y-16095684D02*
X7110658Y-16086160D01*
X7110658Y-16086160D02*
X7120182Y-16076636D01*
X7120182Y-16076636D02*
X7139229Y-16048065D01*
X7139229Y-16048065D02*
X7148753Y-16009969D01*
X7148753Y-16009969D02*
X7148753Y-15933779D01*
X7148753Y-15933779D02*
X7139229Y-15914731D01*
X7139229Y-15914731D02*
X7129705Y-15905208D01*
X7129705Y-15905208D02*
X7110658Y-15895684D01*
X7110658Y-15895684D02*
X7072562Y-15895684D01*
X7072562Y-15895684D02*
X7053515Y-15905208D01*
X7053515Y-15905208D02*
X7043991Y-15914731D01*
X7043991Y-15914731D02*
X7034467Y-15933779D01*
X7034467Y-15933779D02*
X7034467Y-15981398D01*
X7034467Y-15981398D02*
X7043991Y-16000446D01*
X7043991Y-16000446D02*
X7053515Y-16009969D01*
X7053515Y-16009969D02*
X7072562Y-16019493D01*
X7072562Y-16019493D02*
X7110658Y-16019493D01*
X7110658Y-16019493D02*
X7129705Y-16009969D01*
X7129705Y-16009969D02*
X7139229Y-16000446D01*
X7139229Y-16000446D02*
X7148753Y-15981398D01*
X7272562Y-15895684D02*
X7291610Y-15895684D01*
X7291610Y-15895684D02*
X7310658Y-15905208D01*
X7310658Y-15905208D02*
X7320182Y-15914731D01*
X7320182Y-15914731D02*
X7329705Y-15933779D01*
X7329705Y-15933779D02*
X7339229Y-15971874D01*
X7339229Y-15971874D02*
X7339229Y-16019493D01*
X7339229Y-16019493D02*
X7329705Y-16057588D01*
X7329705Y-16057588D02*
X7320182Y-16076636D01*
X7320182Y-16076636D02*
X7310658Y-16086160D01*
X7310658Y-16086160D02*
X7291610Y-16095684D01*
X7291610Y-16095684D02*
X7272562Y-16095684D01*
X7272562Y-16095684D02*
X7253515Y-16086160D01*
X7253515Y-16086160D02*
X7243991Y-16076636D01*
X7243991Y-16076636D02*
X7234467Y-16057588D01*
X7234467Y-16057588D02*
X7224943Y-16019493D01*
X7224943Y-16019493D02*
X7224943Y-15971874D01*
X7224943Y-15971874D02*
X7234467Y-15933779D01*
X7234467Y-15933779D02*
X7243991Y-15914731D01*
X7243991Y-15914731D02*
X7253515Y-15905208D01*
X7253515Y-15905208D02*
X7272562Y-15895684D01*
X7463039Y-15895684D02*
X7482086Y-15895684D01*
X7482086Y-15895684D02*
X7501134Y-15905208D01*
X7501134Y-15905208D02*
X7510658Y-15914731D01*
X7510658Y-15914731D02*
X7520182Y-15933779D01*
X7520182Y-15933779D02*
X7529705Y-15971874D01*
X7529705Y-15971874D02*
X7529705Y-16019493D01*
X7529705Y-16019493D02*
X7520182Y-16057588D01*
X7520182Y-16057588D02*
X7510658Y-16076636D01*
X7510658Y-16076636D02*
X7501134Y-16086160D01*
X7501134Y-16086160D02*
X7482086Y-16095684D01*
X7482086Y-16095684D02*
X7463039Y-16095684D01*
X7463039Y-16095684D02*
X7443991Y-16086160D01*
X7443991Y-16086160D02*
X7434467Y-16076636D01*
X7434467Y-16076636D02*
X7424943Y-16057588D01*
X7424943Y-16057588D02*
X7415420Y-16019493D01*
X7415420Y-16019493D02*
X7415420Y-15971874D01*
X7415420Y-15971874D02*
X7424943Y-15933779D01*
X7424943Y-15933779D02*
X7434467Y-15914731D01*
X7434467Y-15914731D02*
X7443991Y-15905208D01*
X7443991Y-15905208D02*
X7463039Y-15895684D01*
X7615420Y-16095684D02*
X7615420Y-15962350D01*
X7615420Y-15981398D02*
X7624943Y-15971874D01*
X7624943Y-15971874D02*
X7643991Y-15962350D01*
X7643991Y-15962350D02*
X7672563Y-15962350D01*
X7672563Y-15962350D02*
X7691610Y-15971874D01*
X7691610Y-15971874D02*
X7701134Y-15990922D01*
X7701134Y-15990922D02*
X7701134Y-16095684D01*
X7701134Y-15990922D02*
X7710658Y-15971874D01*
X7710658Y-15971874D02*
X7729705Y-15962350D01*
X7729705Y-15962350D02*
X7758277Y-15962350D01*
X7758277Y-15962350D02*
X7777324Y-15971874D01*
X7777324Y-15971874D02*
X7786848Y-15990922D01*
X7786848Y-15990922D02*
X7786848Y-16095684D01*
X7882086Y-16095684D02*
X7882086Y-15962350D01*
X7882086Y-15981398D02*
X7891610Y-15971874D01*
X7891610Y-15971874D02*
X7910658Y-15962350D01*
X7910658Y-15962350D02*
X7939229Y-15962350D01*
X7939229Y-15962350D02*
X7958277Y-15971874D01*
X7958277Y-15971874D02*
X7967801Y-15990922D01*
X7967801Y-15990922D02*
X7967801Y-16095684D01*
X7967801Y-15990922D02*
X7977324Y-15971874D01*
X7977324Y-15971874D02*
X7996372Y-15962350D01*
X7996372Y-15962350D02*
X8024943Y-15962350D01*
X8024943Y-15962350D02*
X8043991Y-15971874D01*
X8043991Y-15971874D02*
X8053515Y-15990922D01*
X8053515Y-15990922D02*
X8053515Y-16095684D01*
X8443991Y-15886160D02*
X8272563Y-16143303D01*
X8701134Y-15895684D02*
X8720182Y-15895684D01*
X8720182Y-15895684D02*
X8739229Y-15905208D01*
X8739229Y-15905208D02*
X8748753Y-15914731D01*
X8748753Y-15914731D02*
X8758277Y-15933779D01*
X8758277Y-15933779D02*
X8767801Y-15971874D01*
X8767801Y-15971874D02*
X8767801Y-16019493D01*
X8767801Y-16019493D02*
X8758277Y-16057588D01*
X8758277Y-16057588D02*
X8748753Y-16076636D01*
X8748753Y-16076636D02*
X8739229Y-16086160D01*
X8739229Y-16086160D02*
X8720182Y-16095684D01*
X8720182Y-16095684D02*
X8701134Y-16095684D01*
X8701134Y-16095684D02*
X8682087Y-16086160D01*
X8682087Y-16086160D02*
X8672563Y-16076636D01*
X8672563Y-16076636D02*
X8663039Y-16057588D01*
X8663039Y-16057588D02*
X8653515Y-16019493D01*
X8653515Y-16019493D02*
X8653515Y-15971874D01*
X8653515Y-15971874D02*
X8663039Y-15933779D01*
X8663039Y-15933779D02*
X8672563Y-15914731D01*
X8672563Y-15914731D02*
X8682087Y-15905208D01*
X8682087Y-15905208D02*
X8701134Y-15895684D01*
X8853515Y-16076636D02*
X8863039Y-16086160D01*
X8863039Y-16086160D02*
X8853515Y-16095684D01*
X8853515Y-16095684D02*
X8843991Y-16086160D01*
X8843991Y-16086160D02*
X8853515Y-16076636D01*
X8853515Y-16076636D02*
X8853515Y-16095684D01*
X8986848Y-15895684D02*
X9005896Y-15895684D01*
X9005896Y-15895684D02*
X9024944Y-15905208D01*
X9024944Y-15905208D02*
X9034468Y-15914731D01*
X9034468Y-15914731D02*
X9043991Y-15933779D01*
X9043991Y-15933779D02*
X9053515Y-15971874D01*
X9053515Y-15971874D02*
X9053515Y-16019493D01*
X9053515Y-16019493D02*
X9043991Y-16057588D01*
X9043991Y-16057588D02*
X9034468Y-16076636D01*
X9034468Y-16076636D02*
X9024944Y-16086160D01*
X9024944Y-16086160D02*
X9005896Y-16095684D01*
X9005896Y-16095684D02*
X8986848Y-16095684D01*
X8986848Y-16095684D02*
X8967801Y-16086160D01*
X8967801Y-16086160D02*
X8958277Y-16076636D01*
X8958277Y-16076636D02*
X8948753Y-16057588D01*
X8948753Y-16057588D02*
X8939229Y-16019493D01*
X8939229Y-16019493D02*
X8939229Y-15971874D01*
X8939229Y-15971874D02*
X8948753Y-15933779D01*
X8948753Y-15933779D02*
X8958277Y-15914731D01*
X8958277Y-15914731D02*
X8967801Y-15905208D01*
X8967801Y-15905208D02*
X8986848Y-15895684D01*
X9120182Y-15895684D02*
X9243991Y-15895684D01*
X9243991Y-15895684D02*
X9177325Y-15971874D01*
X9177325Y-15971874D02*
X9205896Y-15971874D01*
X9205896Y-15971874D02*
X9224944Y-15981398D01*
X9224944Y-15981398D02*
X9234468Y-15990922D01*
X9234468Y-15990922D02*
X9243991Y-16009969D01*
X9243991Y-16009969D02*
X9243991Y-16057588D01*
X9243991Y-16057588D02*
X9234468Y-16076636D01*
X9234468Y-16076636D02*
X9224944Y-16086160D01*
X9224944Y-16086160D02*
X9205896Y-16095684D01*
X9205896Y-16095684D02*
X9148753Y-16095684D01*
X9148753Y-16095684D02*
X9129706Y-16086160D01*
X9129706Y-16086160D02*
X9120182Y-16076636D01*
X9424944Y-15895684D02*
X9329706Y-15895684D01*
X9329706Y-15895684D02*
X9320182Y-15990922D01*
X9320182Y-15990922D02*
X9329706Y-15981398D01*
X9329706Y-15981398D02*
X9348753Y-15971874D01*
X9348753Y-15971874D02*
X9396372Y-15971874D01*
X9396372Y-15971874D02*
X9415420Y-15981398D01*
X9415420Y-15981398D02*
X9424944Y-15990922D01*
X9424944Y-15990922D02*
X9434468Y-16009969D01*
X9434468Y-16009969D02*
X9434468Y-16057588D01*
X9434468Y-16057588D02*
X9424944Y-16076636D01*
X9424944Y-16076636D02*
X9415420Y-16086160D01*
X9415420Y-16086160D02*
X9396372Y-16095684D01*
X9396372Y-16095684D02*
X9348753Y-16095684D01*
X9348753Y-16095684D02*
X9329706Y-16086160D01*
X9329706Y-16086160D02*
X9320182Y-16076636D01*
X9605896Y-15962350D02*
X9605896Y-16095684D01*
X9558277Y-15886160D02*
X9510658Y-16029017D01*
X9510658Y-16029017D02*
X9634468Y-16029017D01*
X9701134Y-15895684D02*
X9701134Y-15933779D01*
X9777325Y-15895684D02*
X9777325Y-15933779D01*
X10072563Y-16171874D02*
X10063039Y-16162350D01*
X10063039Y-16162350D02*
X10043991Y-16133779D01*
X10043991Y-16133779D02*
X10034468Y-16114731D01*
X10034468Y-16114731D02*
X10024944Y-16086160D01*
X10024944Y-16086160D02*
X10015420Y-16038541D01*
X10015420Y-16038541D02*
X10015420Y-16000446D01*
X10015420Y-16000446D02*
X10024944Y-15952827D01*
X10024944Y-15952827D02*
X10034468Y-15924255D01*
X10034468Y-15924255D02*
X10043991Y-15905208D01*
X10043991Y-15905208D02*
X10063039Y-15876636D01*
X10063039Y-15876636D02*
X10072563Y-15867112D01*
X10158277Y-16095684D02*
X10196372Y-16095684D01*
X10196372Y-16095684D02*
X10215420Y-16086160D01*
X10215420Y-16086160D02*
X10224944Y-16076636D01*
X10224944Y-16076636D02*
X10243991Y-16048065D01*
X10243991Y-16048065D02*
X10253515Y-16009969D01*
X10253515Y-16009969D02*
X10253515Y-15933779D01*
X10253515Y-15933779D02*
X10243991Y-15914731D01*
X10243991Y-15914731D02*
X10234468Y-15905208D01*
X10234468Y-15905208D02*
X10215420Y-15895684D01*
X10215420Y-15895684D02*
X10177325Y-15895684D01*
X10177325Y-15895684D02*
X10158277Y-15905208D01*
X10158277Y-15905208D02*
X10148753Y-15914731D01*
X10148753Y-15914731D02*
X10139230Y-15933779D01*
X10139230Y-15933779D02*
X10139230Y-15981398D01*
X10139230Y-15981398D02*
X10148753Y-16000446D01*
X10148753Y-16000446D02*
X10158277Y-16009969D01*
X10158277Y-16009969D02*
X10177325Y-16019493D01*
X10177325Y-16019493D02*
X10215420Y-16019493D01*
X10215420Y-16019493D02*
X10234468Y-16009969D01*
X10234468Y-16009969D02*
X10243991Y-16000446D01*
X10243991Y-16000446D02*
X10253515Y-15981398D01*
X10424944Y-15895684D02*
X10386849Y-15895684D01*
X10386849Y-15895684D02*
X10367801Y-15905208D01*
X10367801Y-15905208D02*
X10358277Y-15914731D01*
X10358277Y-15914731D02*
X10339230Y-15943303D01*
X10339230Y-15943303D02*
X10329706Y-15981398D01*
X10329706Y-15981398D02*
X10329706Y-16057588D01*
X10329706Y-16057588D02*
X10339230Y-16076636D01*
X10339230Y-16076636D02*
X10348753Y-16086160D01*
X10348753Y-16086160D02*
X10367801Y-16095684D01*
X10367801Y-16095684D02*
X10405896Y-16095684D01*
X10405896Y-16095684D02*
X10424944Y-16086160D01*
X10424944Y-16086160D02*
X10434468Y-16076636D01*
X10434468Y-16076636D02*
X10443991Y-16057588D01*
X10443991Y-16057588D02*
X10443991Y-16009969D01*
X10443991Y-16009969D02*
X10434468Y-15990922D01*
X10434468Y-15990922D02*
X10424944Y-15981398D01*
X10424944Y-15981398D02*
X10405896Y-15971874D01*
X10405896Y-15971874D02*
X10367801Y-15971874D01*
X10367801Y-15971874D02*
X10348753Y-15981398D01*
X10348753Y-15981398D02*
X10339230Y-15990922D01*
X10339230Y-15990922D02*
X10329706Y-16009969D01*
X10682087Y-16095684D02*
X10682087Y-15895684D01*
X10767801Y-16095684D02*
X10767801Y-15990922D01*
X10767801Y-15990922D02*
X10758277Y-15971874D01*
X10758277Y-15971874D02*
X10739230Y-15962350D01*
X10739230Y-15962350D02*
X10710658Y-15962350D01*
X10710658Y-15962350D02*
X10691611Y-15971874D01*
X10691611Y-15971874D02*
X10682087Y-15981398D01*
X10891611Y-16095684D02*
X10872563Y-16086160D01*
X10872563Y-16086160D02*
X10863039Y-16076636D01*
X10863039Y-16076636D02*
X10853515Y-16057588D01*
X10853515Y-16057588D02*
X10853515Y-16000446D01*
X10853515Y-16000446D02*
X10863039Y-15981398D01*
X10863039Y-15981398D02*
X10872563Y-15971874D01*
X10872563Y-15971874D02*
X10891611Y-15962350D01*
X10891611Y-15962350D02*
X10920182Y-15962350D01*
X10920182Y-15962350D02*
X10939230Y-15971874D01*
X10939230Y-15971874D02*
X10948753Y-15981398D01*
X10948753Y-15981398D02*
X10958277Y-16000446D01*
X10958277Y-16000446D02*
X10958277Y-16057588D01*
X10958277Y-16057588D02*
X10948753Y-16076636D01*
X10948753Y-16076636D02*
X10939230Y-16086160D01*
X10939230Y-16086160D02*
X10920182Y-16095684D01*
X10920182Y-16095684D02*
X10891611Y-16095684D01*
X11072563Y-16095684D02*
X11053515Y-16086160D01*
X11053515Y-16086160D02*
X11043992Y-16067112D01*
X11043992Y-16067112D02*
X11043992Y-15895684D01*
X11224944Y-16086160D02*
X11205896Y-16095684D01*
X11205896Y-16095684D02*
X11167801Y-16095684D01*
X11167801Y-16095684D02*
X11148753Y-16086160D01*
X11148753Y-16086160D02*
X11139230Y-16067112D01*
X11139230Y-16067112D02*
X11139230Y-15990922D01*
X11139230Y-15990922D02*
X11148753Y-15971874D01*
X11148753Y-15971874D02*
X11167801Y-15962350D01*
X11167801Y-15962350D02*
X11205896Y-15962350D01*
X11205896Y-15962350D02*
X11224944Y-15971874D01*
X11224944Y-15971874D02*
X11234468Y-15990922D01*
X11234468Y-15990922D02*
X11234468Y-16009969D01*
X11234468Y-16009969D02*
X11139230Y-16029017D01*
X11310658Y-16086160D02*
X11329706Y-16095684D01*
X11329706Y-16095684D02*
X11367801Y-16095684D01*
X11367801Y-16095684D02*
X11386849Y-16086160D01*
X11386849Y-16086160D02*
X11396372Y-16067112D01*
X11396372Y-16067112D02*
X11396372Y-16057588D01*
X11396372Y-16057588D02*
X11386849Y-16038541D01*
X11386849Y-16038541D02*
X11367801Y-16029017D01*
X11367801Y-16029017D02*
X11339230Y-16029017D01*
X11339230Y-16029017D02*
X11320182Y-16019493D01*
X11320182Y-16019493D02*
X11310658Y-16000446D01*
X11310658Y-16000446D02*
X11310658Y-15990922D01*
X11310658Y-15990922D02*
X11320182Y-15971874D01*
X11320182Y-15971874D02*
X11339230Y-15962350D01*
X11339230Y-15962350D02*
X11367801Y-15962350D01*
X11367801Y-15962350D02*
X11386849Y-15971874D01*
X11463039Y-16171874D02*
X11472563Y-16162350D01*
X11472563Y-16162350D02*
X11491611Y-16133779D01*
X11491611Y-16133779D02*
X11501134Y-16114731D01*
X11501134Y-16114731D02*
X11510658Y-16086160D01*
X11510658Y-16086160D02*
X11520182Y-16038541D01*
X11520182Y-16038541D02*
X11520182Y-16000446D01*
X11520182Y-16000446D02*
X11510658Y-15952827D01*
X11510658Y-15952827D02*
X11501134Y-15924255D01*
X11501134Y-15924255D02*
X11491611Y-15905208D01*
X11491611Y-15905208D02*
X11472563Y-15876636D01*
X11472563Y-15876636D02*
X11463039Y-15867112D01*
D15*
X6387500Y-16213200D02*
X6497500Y-16323200D01*
X6497500Y-16213200D02*
X6387500Y-16323200D01*
X6497500Y-16268200D02*
G75*
G03*
X6497500Y-16268200I-55000J0D01*
G01*
D11*
X6863039Y-16359684D02*
X6748753Y-16359684D01*
X6805896Y-16359684D02*
X6805896Y-16159684D01*
X6805896Y-16159684D02*
X6786848Y-16188255D01*
X6786848Y-16188255D02*
X6767801Y-16207303D01*
X6767801Y-16207303D02*
X6748753Y-16216827D01*
X6948753Y-16340636D02*
X6958277Y-16350160D01*
X6958277Y-16350160D02*
X6948753Y-16359684D01*
X6948753Y-16359684D02*
X6939229Y-16350160D01*
X6939229Y-16350160D02*
X6948753Y-16340636D01*
X6948753Y-16340636D02*
X6948753Y-16359684D01*
X7148753Y-16359684D02*
X7034467Y-16359684D01*
X7091610Y-16359684D02*
X7091610Y-16159684D01*
X7091610Y-16159684D02*
X7072562Y-16188255D01*
X7072562Y-16188255D02*
X7053515Y-16207303D01*
X7053515Y-16207303D02*
X7034467Y-16216827D01*
X7272562Y-16159684D02*
X7291610Y-16159684D01*
X7291610Y-16159684D02*
X7310658Y-16169208D01*
X7310658Y-16169208D02*
X7320182Y-16178731D01*
X7320182Y-16178731D02*
X7329705Y-16197779D01*
X7329705Y-16197779D02*
X7339229Y-16235874D01*
X7339229Y-16235874D02*
X7339229Y-16283493D01*
X7339229Y-16283493D02*
X7329705Y-16321588D01*
X7329705Y-16321588D02*
X7320182Y-16340636D01*
X7320182Y-16340636D02*
X7310658Y-16350160D01*
X7310658Y-16350160D02*
X7291610Y-16359684D01*
X7291610Y-16359684D02*
X7272562Y-16359684D01*
X7272562Y-16359684D02*
X7253515Y-16350160D01*
X7253515Y-16350160D02*
X7243991Y-16340636D01*
X7243991Y-16340636D02*
X7234467Y-16321588D01*
X7234467Y-16321588D02*
X7224943Y-16283493D01*
X7224943Y-16283493D02*
X7224943Y-16235874D01*
X7224943Y-16235874D02*
X7234467Y-16197779D01*
X7234467Y-16197779D02*
X7243991Y-16178731D01*
X7243991Y-16178731D02*
X7253515Y-16169208D01*
X7253515Y-16169208D02*
X7272562Y-16159684D01*
X7463039Y-16159684D02*
X7482086Y-16159684D01*
X7482086Y-16159684D02*
X7501134Y-16169208D01*
X7501134Y-16169208D02*
X7510658Y-16178731D01*
X7510658Y-16178731D02*
X7520182Y-16197779D01*
X7520182Y-16197779D02*
X7529705Y-16235874D01*
X7529705Y-16235874D02*
X7529705Y-16283493D01*
X7529705Y-16283493D02*
X7520182Y-16321588D01*
X7520182Y-16321588D02*
X7510658Y-16340636D01*
X7510658Y-16340636D02*
X7501134Y-16350160D01*
X7501134Y-16350160D02*
X7482086Y-16359684D01*
X7482086Y-16359684D02*
X7463039Y-16359684D01*
X7463039Y-16359684D02*
X7443991Y-16350160D01*
X7443991Y-16350160D02*
X7434467Y-16340636D01*
X7434467Y-16340636D02*
X7424943Y-16321588D01*
X7424943Y-16321588D02*
X7415420Y-16283493D01*
X7415420Y-16283493D02*
X7415420Y-16235874D01*
X7415420Y-16235874D02*
X7424943Y-16197779D01*
X7424943Y-16197779D02*
X7434467Y-16178731D01*
X7434467Y-16178731D02*
X7443991Y-16169208D01*
X7443991Y-16169208D02*
X7463039Y-16159684D01*
X7615420Y-16359684D02*
X7615420Y-16226350D01*
X7615420Y-16245398D02*
X7624943Y-16235874D01*
X7624943Y-16235874D02*
X7643991Y-16226350D01*
X7643991Y-16226350D02*
X7672563Y-16226350D01*
X7672563Y-16226350D02*
X7691610Y-16235874D01*
X7691610Y-16235874D02*
X7701134Y-16254922D01*
X7701134Y-16254922D02*
X7701134Y-16359684D01*
X7701134Y-16254922D02*
X7710658Y-16235874D01*
X7710658Y-16235874D02*
X7729705Y-16226350D01*
X7729705Y-16226350D02*
X7758277Y-16226350D01*
X7758277Y-16226350D02*
X7777324Y-16235874D01*
X7777324Y-16235874D02*
X7786848Y-16254922D01*
X7786848Y-16254922D02*
X7786848Y-16359684D01*
X7882086Y-16359684D02*
X7882086Y-16226350D01*
X7882086Y-16245398D02*
X7891610Y-16235874D01*
X7891610Y-16235874D02*
X7910658Y-16226350D01*
X7910658Y-16226350D02*
X7939229Y-16226350D01*
X7939229Y-16226350D02*
X7958277Y-16235874D01*
X7958277Y-16235874D02*
X7967801Y-16254922D01*
X7967801Y-16254922D02*
X7967801Y-16359684D01*
X7967801Y-16254922D02*
X7977324Y-16235874D01*
X7977324Y-16235874D02*
X7996372Y-16226350D01*
X7996372Y-16226350D02*
X8024943Y-16226350D01*
X8024943Y-16226350D02*
X8043991Y-16235874D01*
X8043991Y-16235874D02*
X8053515Y-16254922D01*
X8053515Y-16254922D02*
X8053515Y-16359684D01*
X8443991Y-16150160D02*
X8272563Y-16407303D01*
X8701134Y-16159684D02*
X8720182Y-16159684D01*
X8720182Y-16159684D02*
X8739229Y-16169208D01*
X8739229Y-16169208D02*
X8748753Y-16178731D01*
X8748753Y-16178731D02*
X8758277Y-16197779D01*
X8758277Y-16197779D02*
X8767801Y-16235874D01*
X8767801Y-16235874D02*
X8767801Y-16283493D01*
X8767801Y-16283493D02*
X8758277Y-16321588D01*
X8758277Y-16321588D02*
X8748753Y-16340636D01*
X8748753Y-16340636D02*
X8739229Y-16350160D01*
X8739229Y-16350160D02*
X8720182Y-16359684D01*
X8720182Y-16359684D02*
X8701134Y-16359684D01*
X8701134Y-16359684D02*
X8682087Y-16350160D01*
X8682087Y-16350160D02*
X8672563Y-16340636D01*
X8672563Y-16340636D02*
X8663039Y-16321588D01*
X8663039Y-16321588D02*
X8653515Y-16283493D01*
X8653515Y-16283493D02*
X8653515Y-16235874D01*
X8653515Y-16235874D02*
X8663039Y-16197779D01*
X8663039Y-16197779D02*
X8672563Y-16178731D01*
X8672563Y-16178731D02*
X8682087Y-16169208D01*
X8682087Y-16169208D02*
X8701134Y-16159684D01*
X8853515Y-16340636D02*
X8863039Y-16350160D01*
X8863039Y-16350160D02*
X8853515Y-16359684D01*
X8853515Y-16359684D02*
X8843991Y-16350160D01*
X8843991Y-16350160D02*
X8853515Y-16340636D01*
X8853515Y-16340636D02*
X8853515Y-16359684D01*
X8986848Y-16159684D02*
X9005896Y-16159684D01*
X9005896Y-16159684D02*
X9024944Y-16169208D01*
X9024944Y-16169208D02*
X9034468Y-16178731D01*
X9034468Y-16178731D02*
X9043991Y-16197779D01*
X9043991Y-16197779D02*
X9053515Y-16235874D01*
X9053515Y-16235874D02*
X9053515Y-16283493D01*
X9053515Y-16283493D02*
X9043991Y-16321588D01*
X9043991Y-16321588D02*
X9034468Y-16340636D01*
X9034468Y-16340636D02*
X9024944Y-16350160D01*
X9024944Y-16350160D02*
X9005896Y-16359684D01*
X9005896Y-16359684D02*
X8986848Y-16359684D01*
X8986848Y-16359684D02*
X8967801Y-16350160D01*
X8967801Y-16350160D02*
X8958277Y-16340636D01*
X8958277Y-16340636D02*
X8948753Y-16321588D01*
X8948753Y-16321588D02*
X8939229Y-16283493D01*
X8939229Y-16283493D02*
X8939229Y-16235874D01*
X8939229Y-16235874D02*
X8948753Y-16197779D01*
X8948753Y-16197779D02*
X8958277Y-16178731D01*
X8958277Y-16178731D02*
X8967801Y-16169208D01*
X8967801Y-16169208D02*
X8986848Y-16159684D01*
X9224944Y-16226350D02*
X9224944Y-16359684D01*
X9177325Y-16150160D02*
X9129706Y-16293017D01*
X9129706Y-16293017D02*
X9253515Y-16293017D01*
X9310658Y-16159684D02*
X9434468Y-16159684D01*
X9434468Y-16159684D02*
X9367801Y-16235874D01*
X9367801Y-16235874D02*
X9396372Y-16235874D01*
X9396372Y-16235874D02*
X9415420Y-16245398D01*
X9415420Y-16245398D02*
X9424944Y-16254922D01*
X9424944Y-16254922D02*
X9434468Y-16273969D01*
X9434468Y-16273969D02*
X9434468Y-16321588D01*
X9434468Y-16321588D02*
X9424944Y-16340636D01*
X9424944Y-16340636D02*
X9415420Y-16350160D01*
X9415420Y-16350160D02*
X9396372Y-16359684D01*
X9396372Y-16359684D02*
X9339229Y-16359684D01*
X9339229Y-16359684D02*
X9320182Y-16350160D01*
X9320182Y-16350160D02*
X9310658Y-16340636D01*
X9501134Y-16159684D02*
X9624944Y-16159684D01*
X9624944Y-16159684D02*
X9558277Y-16235874D01*
X9558277Y-16235874D02*
X9586849Y-16235874D01*
X9586849Y-16235874D02*
X9605896Y-16245398D01*
X9605896Y-16245398D02*
X9615420Y-16254922D01*
X9615420Y-16254922D02*
X9624944Y-16273969D01*
X9624944Y-16273969D02*
X9624944Y-16321588D01*
X9624944Y-16321588D02*
X9615420Y-16340636D01*
X9615420Y-16340636D02*
X9605896Y-16350160D01*
X9605896Y-16350160D02*
X9586849Y-16359684D01*
X9586849Y-16359684D02*
X9529706Y-16359684D01*
X9529706Y-16359684D02*
X9510658Y-16350160D01*
X9510658Y-16350160D02*
X9501134Y-16340636D01*
X9701134Y-16159684D02*
X9701134Y-16197779D01*
X9777325Y-16159684D02*
X9777325Y-16197779D01*
X10072563Y-16435874D02*
X10063039Y-16426350D01*
X10063039Y-16426350D02*
X10043991Y-16397779D01*
X10043991Y-16397779D02*
X10034468Y-16378731D01*
X10034468Y-16378731D02*
X10024944Y-16350160D01*
X10024944Y-16350160D02*
X10015420Y-16302541D01*
X10015420Y-16302541D02*
X10015420Y-16264446D01*
X10015420Y-16264446D02*
X10024944Y-16216827D01*
X10024944Y-16216827D02*
X10034468Y-16188255D01*
X10034468Y-16188255D02*
X10043991Y-16169208D01*
X10043991Y-16169208D02*
X10063039Y-16140636D01*
X10063039Y-16140636D02*
X10072563Y-16131112D01*
X10234468Y-16226350D02*
X10234468Y-16359684D01*
X10186849Y-16150160D02*
X10139230Y-16293017D01*
X10139230Y-16293017D02*
X10263039Y-16293017D01*
X10320182Y-16159684D02*
X10453515Y-16159684D01*
X10453515Y-16159684D02*
X10367801Y-16359684D01*
X10682087Y-16359684D02*
X10682087Y-16159684D01*
X10767801Y-16359684D02*
X10767801Y-16254922D01*
X10767801Y-16254922D02*
X10758277Y-16235874D01*
X10758277Y-16235874D02*
X10739230Y-16226350D01*
X10739230Y-16226350D02*
X10710658Y-16226350D01*
X10710658Y-16226350D02*
X10691611Y-16235874D01*
X10691611Y-16235874D02*
X10682087Y-16245398D01*
X10891611Y-16359684D02*
X10872563Y-16350160D01*
X10872563Y-16350160D02*
X10863039Y-16340636D01*
X10863039Y-16340636D02*
X10853515Y-16321588D01*
X10853515Y-16321588D02*
X10853515Y-16264446D01*
X10853515Y-16264446D02*
X10863039Y-16245398D01*
X10863039Y-16245398D02*
X10872563Y-16235874D01*
X10872563Y-16235874D02*
X10891611Y-16226350D01*
X10891611Y-16226350D02*
X10920182Y-16226350D01*
X10920182Y-16226350D02*
X10939230Y-16235874D01*
X10939230Y-16235874D02*
X10948753Y-16245398D01*
X10948753Y-16245398D02*
X10958277Y-16264446D01*
X10958277Y-16264446D02*
X10958277Y-16321588D01*
X10958277Y-16321588D02*
X10948753Y-16340636D01*
X10948753Y-16340636D02*
X10939230Y-16350160D01*
X10939230Y-16350160D02*
X10920182Y-16359684D01*
X10920182Y-16359684D02*
X10891611Y-16359684D01*
X11072563Y-16359684D02*
X11053515Y-16350160D01*
X11053515Y-16350160D02*
X11043992Y-16331112D01*
X11043992Y-16331112D02*
X11043992Y-16159684D01*
X11224944Y-16350160D02*
X11205896Y-16359684D01*
X11205896Y-16359684D02*
X11167801Y-16359684D01*
X11167801Y-16359684D02*
X11148753Y-16350160D01*
X11148753Y-16350160D02*
X11139230Y-16331112D01*
X11139230Y-16331112D02*
X11139230Y-16254922D01*
X11139230Y-16254922D02*
X11148753Y-16235874D01*
X11148753Y-16235874D02*
X11167801Y-16226350D01*
X11167801Y-16226350D02*
X11205896Y-16226350D01*
X11205896Y-16226350D02*
X11224944Y-16235874D01*
X11224944Y-16235874D02*
X11234468Y-16254922D01*
X11234468Y-16254922D02*
X11234468Y-16273969D01*
X11234468Y-16273969D02*
X11139230Y-16293017D01*
X11310658Y-16350160D02*
X11329706Y-16359684D01*
X11329706Y-16359684D02*
X11367801Y-16359684D01*
X11367801Y-16359684D02*
X11386849Y-16350160D01*
X11386849Y-16350160D02*
X11396372Y-16331112D01*
X11396372Y-16331112D02*
X11396372Y-16321588D01*
X11396372Y-16321588D02*
X11386849Y-16302541D01*
X11386849Y-16302541D02*
X11367801Y-16293017D01*
X11367801Y-16293017D02*
X11339230Y-16293017D01*
X11339230Y-16293017D02*
X11320182Y-16283493D01*
X11320182Y-16283493D02*
X11310658Y-16264446D01*
X11310658Y-16264446D02*
X11310658Y-16254922D01*
X11310658Y-16254922D02*
X11320182Y-16235874D01*
X11320182Y-16235874D02*
X11339230Y-16226350D01*
X11339230Y-16226350D02*
X11367801Y-16226350D01*
X11367801Y-16226350D02*
X11386849Y-16235874D01*
X11463039Y-16435874D02*
X11472563Y-16426350D01*
X11472563Y-16426350D02*
X11491611Y-16397779D01*
X11491611Y-16397779D02*
X11501134Y-16378731D01*
X11501134Y-16378731D02*
X11510658Y-16350160D01*
X11510658Y-16350160D02*
X11520182Y-16302541D01*
X11520182Y-16302541D02*
X11520182Y-16264446D01*
X11520182Y-16264446D02*
X11510658Y-16216827D01*
X11510658Y-16216827D02*
X11501134Y-16188255D01*
X11501134Y-16188255D02*
X11491611Y-16169208D01*
X11491611Y-16169208D02*
X11472563Y-16140636D01*
X11472563Y-16140636D02*
X11463039Y-16131112D01*
D16*
X6377500Y-16472200D02*
X6497500Y-16592200D01*
X6497500Y-16472200D02*
X6377500Y-16592200D01*
X6437500Y-16472200D02*
X6437500Y-16592200D01*
X6377500Y-16532200D02*
X6497500Y-16532200D01*
D11*
X6863039Y-16623684D02*
X6748753Y-16623684D01*
X6805896Y-16623684D02*
X6805896Y-16423684D01*
X6805896Y-16423684D02*
X6786848Y-16452255D01*
X6786848Y-16452255D02*
X6767801Y-16471303D01*
X6767801Y-16471303D02*
X6748753Y-16480827D01*
X6948753Y-16604636D02*
X6958277Y-16614160D01*
X6958277Y-16614160D02*
X6948753Y-16623684D01*
X6948753Y-16623684D02*
X6939229Y-16614160D01*
X6939229Y-16614160D02*
X6948753Y-16604636D01*
X6948753Y-16604636D02*
X6948753Y-16623684D01*
X7034467Y-16442731D02*
X7043991Y-16433208D01*
X7043991Y-16433208D02*
X7063039Y-16423684D01*
X7063039Y-16423684D02*
X7110658Y-16423684D01*
X7110658Y-16423684D02*
X7129705Y-16433208D01*
X7129705Y-16433208D02*
X7139229Y-16442731D01*
X7139229Y-16442731D02*
X7148753Y-16461779D01*
X7148753Y-16461779D02*
X7148753Y-16480827D01*
X7148753Y-16480827D02*
X7139229Y-16509398D01*
X7139229Y-16509398D02*
X7024943Y-16623684D01*
X7024943Y-16623684D02*
X7148753Y-16623684D01*
X7272562Y-16423684D02*
X7291610Y-16423684D01*
X7291610Y-16423684D02*
X7310658Y-16433208D01*
X7310658Y-16433208D02*
X7320182Y-16442731D01*
X7320182Y-16442731D02*
X7329705Y-16461779D01*
X7329705Y-16461779D02*
X7339229Y-16499874D01*
X7339229Y-16499874D02*
X7339229Y-16547493D01*
X7339229Y-16547493D02*
X7329705Y-16585588D01*
X7329705Y-16585588D02*
X7320182Y-16604636D01*
X7320182Y-16604636D02*
X7310658Y-16614160D01*
X7310658Y-16614160D02*
X7291610Y-16623684D01*
X7291610Y-16623684D02*
X7272562Y-16623684D01*
X7272562Y-16623684D02*
X7253515Y-16614160D01*
X7253515Y-16614160D02*
X7243991Y-16604636D01*
X7243991Y-16604636D02*
X7234467Y-16585588D01*
X7234467Y-16585588D02*
X7224943Y-16547493D01*
X7224943Y-16547493D02*
X7224943Y-16499874D01*
X7224943Y-16499874D02*
X7234467Y-16461779D01*
X7234467Y-16461779D02*
X7243991Y-16442731D01*
X7243991Y-16442731D02*
X7253515Y-16433208D01*
X7253515Y-16433208D02*
X7272562Y-16423684D01*
X7463039Y-16423684D02*
X7482086Y-16423684D01*
X7482086Y-16423684D02*
X7501134Y-16433208D01*
X7501134Y-16433208D02*
X7510658Y-16442731D01*
X7510658Y-16442731D02*
X7520182Y-16461779D01*
X7520182Y-16461779D02*
X7529705Y-16499874D01*
X7529705Y-16499874D02*
X7529705Y-16547493D01*
X7529705Y-16547493D02*
X7520182Y-16585588D01*
X7520182Y-16585588D02*
X7510658Y-16604636D01*
X7510658Y-16604636D02*
X7501134Y-16614160D01*
X7501134Y-16614160D02*
X7482086Y-16623684D01*
X7482086Y-16623684D02*
X7463039Y-16623684D01*
X7463039Y-16623684D02*
X7443991Y-16614160D01*
X7443991Y-16614160D02*
X7434467Y-16604636D01*
X7434467Y-16604636D02*
X7424943Y-16585588D01*
X7424943Y-16585588D02*
X7415420Y-16547493D01*
X7415420Y-16547493D02*
X7415420Y-16499874D01*
X7415420Y-16499874D02*
X7424943Y-16461779D01*
X7424943Y-16461779D02*
X7434467Y-16442731D01*
X7434467Y-16442731D02*
X7443991Y-16433208D01*
X7443991Y-16433208D02*
X7463039Y-16423684D01*
X7615420Y-16623684D02*
X7615420Y-16490350D01*
X7615420Y-16509398D02*
X7624943Y-16499874D01*
X7624943Y-16499874D02*
X7643991Y-16490350D01*
X7643991Y-16490350D02*
X7672563Y-16490350D01*
X7672563Y-16490350D02*
X7691610Y-16499874D01*
X7691610Y-16499874D02*
X7701134Y-16518922D01*
X7701134Y-16518922D02*
X7701134Y-16623684D01*
X7701134Y-16518922D02*
X7710658Y-16499874D01*
X7710658Y-16499874D02*
X7729705Y-16490350D01*
X7729705Y-16490350D02*
X7758277Y-16490350D01*
X7758277Y-16490350D02*
X7777324Y-16499874D01*
X7777324Y-16499874D02*
X7786848Y-16518922D01*
X7786848Y-16518922D02*
X7786848Y-16623684D01*
X7882086Y-16623684D02*
X7882086Y-16490350D01*
X7882086Y-16509398D02*
X7891610Y-16499874D01*
X7891610Y-16499874D02*
X7910658Y-16490350D01*
X7910658Y-16490350D02*
X7939229Y-16490350D01*
X7939229Y-16490350D02*
X7958277Y-16499874D01*
X7958277Y-16499874D02*
X7967801Y-16518922D01*
X7967801Y-16518922D02*
X7967801Y-16623684D01*
X7967801Y-16518922D02*
X7977324Y-16499874D01*
X7977324Y-16499874D02*
X7996372Y-16490350D01*
X7996372Y-16490350D02*
X8024943Y-16490350D01*
X8024943Y-16490350D02*
X8043991Y-16499874D01*
X8043991Y-16499874D02*
X8053515Y-16518922D01*
X8053515Y-16518922D02*
X8053515Y-16623684D01*
X8443991Y-16414160D02*
X8272563Y-16671303D01*
X8701134Y-16423684D02*
X8720182Y-16423684D01*
X8720182Y-16423684D02*
X8739229Y-16433208D01*
X8739229Y-16433208D02*
X8748753Y-16442731D01*
X8748753Y-16442731D02*
X8758277Y-16461779D01*
X8758277Y-16461779D02*
X8767801Y-16499874D01*
X8767801Y-16499874D02*
X8767801Y-16547493D01*
X8767801Y-16547493D02*
X8758277Y-16585588D01*
X8758277Y-16585588D02*
X8748753Y-16604636D01*
X8748753Y-16604636D02*
X8739229Y-16614160D01*
X8739229Y-16614160D02*
X8720182Y-16623684D01*
X8720182Y-16623684D02*
X8701134Y-16623684D01*
X8701134Y-16623684D02*
X8682087Y-16614160D01*
X8682087Y-16614160D02*
X8672563Y-16604636D01*
X8672563Y-16604636D02*
X8663039Y-16585588D01*
X8663039Y-16585588D02*
X8653515Y-16547493D01*
X8653515Y-16547493D02*
X8653515Y-16499874D01*
X8653515Y-16499874D02*
X8663039Y-16461779D01*
X8663039Y-16461779D02*
X8672563Y-16442731D01*
X8672563Y-16442731D02*
X8682087Y-16433208D01*
X8682087Y-16433208D02*
X8701134Y-16423684D01*
X8853515Y-16604636D02*
X8863039Y-16614160D01*
X8863039Y-16614160D02*
X8853515Y-16623684D01*
X8853515Y-16623684D02*
X8843991Y-16614160D01*
X8843991Y-16614160D02*
X8853515Y-16604636D01*
X8853515Y-16604636D02*
X8853515Y-16623684D01*
X8986848Y-16423684D02*
X9005896Y-16423684D01*
X9005896Y-16423684D02*
X9024944Y-16433208D01*
X9024944Y-16433208D02*
X9034468Y-16442731D01*
X9034468Y-16442731D02*
X9043991Y-16461779D01*
X9043991Y-16461779D02*
X9053515Y-16499874D01*
X9053515Y-16499874D02*
X9053515Y-16547493D01*
X9053515Y-16547493D02*
X9043991Y-16585588D01*
X9043991Y-16585588D02*
X9034468Y-16604636D01*
X9034468Y-16604636D02*
X9024944Y-16614160D01*
X9024944Y-16614160D02*
X9005896Y-16623684D01*
X9005896Y-16623684D02*
X8986848Y-16623684D01*
X8986848Y-16623684D02*
X8967801Y-16614160D01*
X8967801Y-16614160D02*
X8958277Y-16604636D01*
X8958277Y-16604636D02*
X8948753Y-16585588D01*
X8948753Y-16585588D02*
X8939229Y-16547493D01*
X8939229Y-16547493D02*
X8939229Y-16499874D01*
X8939229Y-16499874D02*
X8948753Y-16461779D01*
X8948753Y-16461779D02*
X8958277Y-16442731D01*
X8958277Y-16442731D02*
X8967801Y-16433208D01*
X8967801Y-16433208D02*
X8986848Y-16423684D01*
X9224944Y-16490350D02*
X9224944Y-16623684D01*
X9177325Y-16414160D02*
X9129706Y-16557017D01*
X9129706Y-16557017D02*
X9253515Y-16557017D01*
X9310658Y-16423684D02*
X9443991Y-16423684D01*
X9443991Y-16423684D02*
X9358277Y-16623684D01*
X9510658Y-16442731D02*
X9520182Y-16433208D01*
X9520182Y-16433208D02*
X9539229Y-16423684D01*
X9539229Y-16423684D02*
X9586849Y-16423684D01*
X9586849Y-16423684D02*
X9605896Y-16433208D01*
X9605896Y-16433208D02*
X9615420Y-16442731D01*
X9615420Y-16442731D02*
X9624944Y-16461779D01*
X9624944Y-16461779D02*
X9624944Y-16480827D01*
X9624944Y-16480827D02*
X9615420Y-16509398D01*
X9615420Y-16509398D02*
X9501134Y-16623684D01*
X9501134Y-16623684D02*
X9624944Y-16623684D01*
X9701134Y-16423684D02*
X9701134Y-16461779D01*
X9777325Y-16423684D02*
X9777325Y-16461779D01*
X10072563Y-16699874D02*
X10063039Y-16690350D01*
X10063039Y-16690350D02*
X10043991Y-16661779D01*
X10043991Y-16661779D02*
X10034468Y-16642731D01*
X10034468Y-16642731D02*
X10024944Y-16614160D01*
X10024944Y-16614160D02*
X10015420Y-16566541D01*
X10015420Y-16566541D02*
X10015420Y-16528446D01*
X10015420Y-16528446D02*
X10024944Y-16480827D01*
X10024944Y-16480827D02*
X10034468Y-16452255D01*
X10034468Y-16452255D02*
X10043991Y-16433208D01*
X10043991Y-16433208D02*
X10063039Y-16404636D01*
X10063039Y-16404636D02*
X10072563Y-16395112D01*
X10253515Y-16623684D02*
X10139230Y-16623684D01*
X10196372Y-16623684D02*
X10196372Y-16423684D01*
X10196372Y-16423684D02*
X10177325Y-16452255D01*
X10177325Y-16452255D02*
X10158277Y-16471303D01*
X10158277Y-16471303D02*
X10139230Y-16480827D01*
X10491611Y-16623684D02*
X10491611Y-16423684D01*
X10577325Y-16623684D02*
X10577325Y-16518922D01*
X10577325Y-16518922D02*
X10567801Y-16499874D01*
X10567801Y-16499874D02*
X10548753Y-16490350D01*
X10548753Y-16490350D02*
X10520182Y-16490350D01*
X10520182Y-16490350D02*
X10501134Y-16499874D01*
X10501134Y-16499874D02*
X10491611Y-16509398D01*
X10701134Y-16623684D02*
X10682087Y-16614160D01*
X10682087Y-16614160D02*
X10672563Y-16604636D01*
X10672563Y-16604636D02*
X10663039Y-16585588D01*
X10663039Y-16585588D02*
X10663039Y-16528446D01*
X10663039Y-16528446D02*
X10672563Y-16509398D01*
X10672563Y-16509398D02*
X10682087Y-16499874D01*
X10682087Y-16499874D02*
X10701134Y-16490350D01*
X10701134Y-16490350D02*
X10729706Y-16490350D01*
X10729706Y-16490350D02*
X10748753Y-16499874D01*
X10748753Y-16499874D02*
X10758277Y-16509398D01*
X10758277Y-16509398D02*
X10767801Y-16528446D01*
X10767801Y-16528446D02*
X10767801Y-16585588D01*
X10767801Y-16585588D02*
X10758277Y-16604636D01*
X10758277Y-16604636D02*
X10748753Y-16614160D01*
X10748753Y-16614160D02*
X10729706Y-16623684D01*
X10729706Y-16623684D02*
X10701134Y-16623684D01*
X10882087Y-16623684D02*
X10863039Y-16614160D01*
X10863039Y-16614160D02*
X10853515Y-16595112D01*
X10853515Y-16595112D02*
X10853515Y-16423684D01*
X11034468Y-16614160D02*
X11015420Y-16623684D01*
X11015420Y-16623684D02*
X10977325Y-16623684D01*
X10977325Y-16623684D02*
X10958277Y-16614160D01*
X10958277Y-16614160D02*
X10948753Y-16595112D01*
X10948753Y-16595112D02*
X10948753Y-16518922D01*
X10948753Y-16518922D02*
X10958277Y-16499874D01*
X10958277Y-16499874D02*
X10977325Y-16490350D01*
X10977325Y-16490350D02*
X11015420Y-16490350D01*
X11015420Y-16490350D02*
X11034468Y-16499874D01*
X11034468Y-16499874D02*
X11043992Y-16518922D01*
X11043992Y-16518922D02*
X11043992Y-16537969D01*
X11043992Y-16537969D02*
X10948753Y-16557017D01*
X11110658Y-16699874D02*
X11120182Y-16690350D01*
X11120182Y-16690350D02*
X11139230Y-16661779D01*
X11139230Y-16661779D02*
X11148753Y-16642731D01*
X11148753Y-16642731D02*
X11158277Y-16614160D01*
X11158277Y-16614160D02*
X11167801Y-16566541D01*
X11167801Y-16566541D02*
X11167801Y-16528446D01*
X11167801Y-16528446D02*
X11158277Y-16480827D01*
X11158277Y-16480827D02*
X11148753Y-16452255D01*
X11148753Y-16452255D02*
X11139230Y-16433208D01*
X11139230Y-16433208D02*
X11120182Y-16404636D01*
X11120182Y-16404636D02*
X11110658Y-16395112D01*
D17*
X6370500Y-16732700D02*
X6497500Y-16859700D01*
X6497500Y-16732700D02*
X6370500Y-16859700D01*
X6478902Y-16841102D02*
X6478902Y-16751298D01*
X6389098Y-16751298D01*
X6389098Y-16841102D01*
X6478902Y-16841102D01*
D11*
X6863039Y-16887684D02*
X6748753Y-16887684D01*
X6805896Y-16887684D02*
X6805896Y-16687684D01*
X6805896Y-16687684D02*
X6786848Y-16716255D01*
X6786848Y-16716255D02*
X6767801Y-16735303D01*
X6767801Y-16735303D02*
X6748753Y-16744827D01*
X6948753Y-16868636D02*
X6958277Y-16878160D01*
X6958277Y-16878160D02*
X6948753Y-16887684D01*
X6948753Y-16887684D02*
X6939229Y-16878160D01*
X6939229Y-16878160D02*
X6948753Y-16868636D01*
X6948753Y-16868636D02*
X6948753Y-16887684D01*
X7034467Y-16706731D02*
X7043991Y-16697208D01*
X7043991Y-16697208D02*
X7063039Y-16687684D01*
X7063039Y-16687684D02*
X7110658Y-16687684D01*
X7110658Y-16687684D02*
X7129705Y-16697208D01*
X7129705Y-16697208D02*
X7139229Y-16706731D01*
X7139229Y-16706731D02*
X7148753Y-16725779D01*
X7148753Y-16725779D02*
X7148753Y-16744827D01*
X7148753Y-16744827D02*
X7139229Y-16773398D01*
X7139229Y-16773398D02*
X7024943Y-16887684D01*
X7024943Y-16887684D02*
X7148753Y-16887684D01*
X7215420Y-16687684D02*
X7348753Y-16687684D01*
X7348753Y-16687684D02*
X7263039Y-16887684D01*
X7463039Y-16687684D02*
X7482086Y-16687684D01*
X7482086Y-16687684D02*
X7501134Y-16697208D01*
X7501134Y-16697208D02*
X7510658Y-16706731D01*
X7510658Y-16706731D02*
X7520182Y-16725779D01*
X7520182Y-16725779D02*
X7529705Y-16763874D01*
X7529705Y-16763874D02*
X7529705Y-16811493D01*
X7529705Y-16811493D02*
X7520182Y-16849589D01*
X7520182Y-16849589D02*
X7510658Y-16868636D01*
X7510658Y-16868636D02*
X7501134Y-16878160D01*
X7501134Y-16878160D02*
X7482086Y-16887684D01*
X7482086Y-16887684D02*
X7463039Y-16887684D01*
X7463039Y-16887684D02*
X7443991Y-16878160D01*
X7443991Y-16878160D02*
X7434467Y-16868636D01*
X7434467Y-16868636D02*
X7424943Y-16849589D01*
X7424943Y-16849589D02*
X7415420Y-16811493D01*
X7415420Y-16811493D02*
X7415420Y-16763874D01*
X7415420Y-16763874D02*
X7424943Y-16725779D01*
X7424943Y-16725779D02*
X7434467Y-16706731D01*
X7434467Y-16706731D02*
X7443991Y-16697208D01*
X7443991Y-16697208D02*
X7463039Y-16687684D01*
X7615420Y-16887684D02*
X7615420Y-16754350D01*
X7615420Y-16773398D02*
X7624943Y-16763874D01*
X7624943Y-16763874D02*
X7643991Y-16754350D01*
X7643991Y-16754350D02*
X7672563Y-16754350D01*
X7672563Y-16754350D02*
X7691610Y-16763874D01*
X7691610Y-16763874D02*
X7701134Y-16782922D01*
X7701134Y-16782922D02*
X7701134Y-16887684D01*
X7701134Y-16782922D02*
X7710658Y-16763874D01*
X7710658Y-16763874D02*
X7729705Y-16754350D01*
X7729705Y-16754350D02*
X7758277Y-16754350D01*
X7758277Y-16754350D02*
X7777324Y-16763874D01*
X7777324Y-16763874D02*
X7786848Y-16782922D01*
X7786848Y-16782922D02*
X7786848Y-16887684D01*
X7882086Y-16887684D02*
X7882086Y-16754350D01*
X7882086Y-16773398D02*
X7891610Y-16763874D01*
X7891610Y-16763874D02*
X7910658Y-16754350D01*
X7910658Y-16754350D02*
X7939229Y-16754350D01*
X7939229Y-16754350D02*
X7958277Y-16763874D01*
X7958277Y-16763874D02*
X7967801Y-16782922D01*
X7967801Y-16782922D02*
X7967801Y-16887684D01*
X7967801Y-16782922D02*
X7977324Y-16763874D01*
X7977324Y-16763874D02*
X7996372Y-16754350D01*
X7996372Y-16754350D02*
X8024943Y-16754350D01*
X8024943Y-16754350D02*
X8043991Y-16763874D01*
X8043991Y-16763874D02*
X8053515Y-16782922D01*
X8053515Y-16782922D02*
X8053515Y-16887684D01*
X8443991Y-16678160D02*
X8272563Y-16935303D01*
X8701134Y-16687684D02*
X8720182Y-16687684D01*
X8720182Y-16687684D02*
X8739229Y-16697208D01*
X8739229Y-16697208D02*
X8748753Y-16706731D01*
X8748753Y-16706731D02*
X8758277Y-16725779D01*
X8758277Y-16725779D02*
X8767801Y-16763874D01*
X8767801Y-16763874D02*
X8767801Y-16811493D01*
X8767801Y-16811493D02*
X8758277Y-16849589D01*
X8758277Y-16849589D02*
X8748753Y-16868636D01*
X8748753Y-16868636D02*
X8739229Y-16878160D01*
X8739229Y-16878160D02*
X8720182Y-16887684D01*
X8720182Y-16887684D02*
X8701134Y-16887684D01*
X8701134Y-16887684D02*
X8682087Y-16878160D01*
X8682087Y-16878160D02*
X8672563Y-16868636D01*
X8672563Y-16868636D02*
X8663039Y-16849589D01*
X8663039Y-16849589D02*
X8653515Y-16811493D01*
X8653515Y-16811493D02*
X8653515Y-16763874D01*
X8653515Y-16763874D02*
X8663039Y-16725779D01*
X8663039Y-16725779D02*
X8672563Y-16706731D01*
X8672563Y-16706731D02*
X8682087Y-16697208D01*
X8682087Y-16697208D02*
X8701134Y-16687684D01*
X8853515Y-16868636D02*
X8863039Y-16878160D01*
X8863039Y-16878160D02*
X8853515Y-16887684D01*
X8853515Y-16887684D02*
X8843991Y-16878160D01*
X8843991Y-16878160D02*
X8853515Y-16868636D01*
X8853515Y-16868636D02*
X8853515Y-16887684D01*
X8986848Y-16687684D02*
X9005896Y-16687684D01*
X9005896Y-16687684D02*
X9024944Y-16697208D01*
X9024944Y-16697208D02*
X9034468Y-16706731D01*
X9034468Y-16706731D02*
X9043991Y-16725779D01*
X9043991Y-16725779D02*
X9053515Y-16763874D01*
X9053515Y-16763874D02*
X9053515Y-16811493D01*
X9053515Y-16811493D02*
X9043991Y-16849589D01*
X9043991Y-16849589D02*
X9034468Y-16868636D01*
X9034468Y-16868636D02*
X9024944Y-16878160D01*
X9024944Y-16878160D02*
X9005896Y-16887684D01*
X9005896Y-16887684D02*
X8986848Y-16887684D01*
X8986848Y-16887684D02*
X8967801Y-16878160D01*
X8967801Y-16878160D02*
X8958277Y-16868636D01*
X8958277Y-16868636D02*
X8948753Y-16849589D01*
X8948753Y-16849589D02*
X8939229Y-16811493D01*
X8939229Y-16811493D02*
X8939229Y-16763874D01*
X8939229Y-16763874D02*
X8948753Y-16725779D01*
X8948753Y-16725779D02*
X8958277Y-16706731D01*
X8958277Y-16706731D02*
X8967801Y-16697208D01*
X8967801Y-16697208D02*
X8986848Y-16687684D01*
X9234468Y-16687684D02*
X9139229Y-16687684D01*
X9139229Y-16687684D02*
X9129706Y-16782922D01*
X9129706Y-16782922D02*
X9139229Y-16773398D01*
X9139229Y-16773398D02*
X9158277Y-16763874D01*
X9158277Y-16763874D02*
X9205896Y-16763874D01*
X9205896Y-16763874D02*
X9224944Y-16773398D01*
X9224944Y-16773398D02*
X9234468Y-16782922D01*
X9234468Y-16782922D02*
X9243991Y-16801970D01*
X9243991Y-16801970D02*
X9243991Y-16849589D01*
X9243991Y-16849589D02*
X9234468Y-16868636D01*
X9234468Y-16868636D02*
X9224944Y-16878160D01*
X9224944Y-16878160D02*
X9205896Y-16887684D01*
X9205896Y-16887684D02*
X9158277Y-16887684D01*
X9158277Y-16887684D02*
X9139229Y-16878160D01*
X9139229Y-16878160D02*
X9129706Y-16868636D01*
X9367801Y-16687684D02*
X9386849Y-16687684D01*
X9386849Y-16687684D02*
X9405896Y-16697208D01*
X9405896Y-16697208D02*
X9415420Y-16706731D01*
X9415420Y-16706731D02*
X9424944Y-16725779D01*
X9424944Y-16725779D02*
X9434468Y-16763874D01*
X9434468Y-16763874D02*
X9434468Y-16811493D01*
X9434468Y-16811493D02*
X9424944Y-16849589D01*
X9424944Y-16849589D02*
X9415420Y-16868636D01*
X9415420Y-16868636D02*
X9405896Y-16878160D01*
X9405896Y-16878160D02*
X9386849Y-16887684D01*
X9386849Y-16887684D02*
X9367801Y-16887684D01*
X9367801Y-16887684D02*
X9348753Y-16878160D01*
X9348753Y-16878160D02*
X9339229Y-16868636D01*
X9339229Y-16868636D02*
X9329706Y-16849589D01*
X9329706Y-16849589D02*
X9320182Y-16811493D01*
X9320182Y-16811493D02*
X9320182Y-16763874D01*
X9320182Y-16763874D02*
X9329706Y-16725779D01*
X9329706Y-16725779D02*
X9339229Y-16706731D01*
X9339229Y-16706731D02*
X9348753Y-16697208D01*
X9348753Y-16697208D02*
X9367801Y-16687684D01*
X9558277Y-16687684D02*
X9577325Y-16687684D01*
X9577325Y-16687684D02*
X9596372Y-16697208D01*
X9596372Y-16697208D02*
X9605896Y-16706731D01*
X9605896Y-16706731D02*
X9615420Y-16725779D01*
X9615420Y-16725779D02*
X9624944Y-16763874D01*
X9624944Y-16763874D02*
X9624944Y-16811493D01*
X9624944Y-16811493D02*
X9615420Y-16849589D01*
X9615420Y-16849589D02*
X9605896Y-16868636D01*
X9605896Y-16868636D02*
X9596372Y-16878160D01*
X9596372Y-16878160D02*
X9577325Y-16887684D01*
X9577325Y-16887684D02*
X9558277Y-16887684D01*
X9558277Y-16887684D02*
X9539229Y-16878160D01*
X9539229Y-16878160D02*
X9529706Y-16868636D01*
X9529706Y-16868636D02*
X9520182Y-16849589D01*
X9520182Y-16849589D02*
X9510658Y-16811493D01*
X9510658Y-16811493D02*
X9510658Y-16763874D01*
X9510658Y-16763874D02*
X9520182Y-16725779D01*
X9520182Y-16725779D02*
X9529706Y-16706731D01*
X9529706Y-16706731D02*
X9539229Y-16697208D01*
X9539229Y-16697208D02*
X9558277Y-16687684D01*
X9701134Y-16687684D02*
X9701134Y-16725779D01*
X9777325Y-16687684D02*
X9777325Y-16725779D01*
X10072563Y-16963874D02*
X10063039Y-16954350D01*
X10063039Y-16954350D02*
X10043991Y-16925779D01*
X10043991Y-16925779D02*
X10034468Y-16906731D01*
X10034468Y-16906731D02*
X10024944Y-16878160D01*
X10024944Y-16878160D02*
X10015420Y-16830541D01*
X10015420Y-16830541D02*
X10015420Y-16792446D01*
X10015420Y-16792446D02*
X10024944Y-16744827D01*
X10024944Y-16744827D02*
X10034468Y-16716255D01*
X10034468Y-16716255D02*
X10043991Y-16697208D01*
X10043991Y-16697208D02*
X10063039Y-16668636D01*
X10063039Y-16668636D02*
X10072563Y-16659112D01*
X10139230Y-16706731D02*
X10148753Y-16697208D01*
X10148753Y-16697208D02*
X10167801Y-16687684D01*
X10167801Y-16687684D02*
X10215420Y-16687684D01*
X10215420Y-16687684D02*
X10234468Y-16697208D01*
X10234468Y-16697208D02*
X10243991Y-16706731D01*
X10243991Y-16706731D02*
X10253515Y-16725779D01*
X10253515Y-16725779D02*
X10253515Y-16744827D01*
X10253515Y-16744827D02*
X10243991Y-16773398D01*
X10243991Y-16773398D02*
X10129706Y-16887684D01*
X10129706Y-16887684D02*
X10253515Y-16887684D01*
X10491611Y-16887684D02*
X10491611Y-16687684D01*
X10577325Y-16887684D02*
X10577325Y-16782922D01*
X10577325Y-16782922D02*
X10567801Y-16763874D01*
X10567801Y-16763874D02*
X10548753Y-16754350D01*
X10548753Y-16754350D02*
X10520182Y-16754350D01*
X10520182Y-16754350D02*
X10501134Y-16763874D01*
X10501134Y-16763874D02*
X10491611Y-16773398D01*
X10701134Y-16887684D02*
X10682087Y-16878160D01*
X10682087Y-16878160D02*
X10672563Y-16868636D01*
X10672563Y-16868636D02*
X10663039Y-16849589D01*
X10663039Y-16849589D02*
X10663039Y-16792446D01*
X10663039Y-16792446D02*
X10672563Y-16773398D01*
X10672563Y-16773398D02*
X10682087Y-16763874D01*
X10682087Y-16763874D02*
X10701134Y-16754350D01*
X10701134Y-16754350D02*
X10729706Y-16754350D01*
X10729706Y-16754350D02*
X10748753Y-16763874D01*
X10748753Y-16763874D02*
X10758277Y-16773398D01*
X10758277Y-16773398D02*
X10767801Y-16792446D01*
X10767801Y-16792446D02*
X10767801Y-16849589D01*
X10767801Y-16849589D02*
X10758277Y-16868636D01*
X10758277Y-16868636D02*
X10748753Y-16878160D01*
X10748753Y-16878160D02*
X10729706Y-16887684D01*
X10729706Y-16887684D02*
X10701134Y-16887684D01*
X10882087Y-16887684D02*
X10863039Y-16878160D01*
X10863039Y-16878160D02*
X10853515Y-16859112D01*
X10853515Y-16859112D02*
X10853515Y-16687684D01*
X11034468Y-16878160D02*
X11015420Y-16887684D01*
X11015420Y-16887684D02*
X10977325Y-16887684D01*
X10977325Y-16887684D02*
X10958277Y-16878160D01*
X10958277Y-16878160D02*
X10948753Y-16859112D01*
X10948753Y-16859112D02*
X10948753Y-16782922D01*
X10948753Y-16782922D02*
X10958277Y-16763874D01*
X10958277Y-16763874D02*
X10977325Y-16754350D01*
X10977325Y-16754350D02*
X11015420Y-16754350D01*
X11015420Y-16754350D02*
X11034468Y-16763874D01*
X11034468Y-16763874D02*
X11043992Y-16782922D01*
X11043992Y-16782922D02*
X11043992Y-16801970D01*
X11043992Y-16801970D02*
X10948753Y-16821017D01*
X11120182Y-16878160D02*
X11139230Y-16887684D01*
X11139230Y-16887684D02*
X11177325Y-16887684D01*
X11177325Y-16887684D02*
X11196372Y-16878160D01*
X11196372Y-16878160D02*
X11205896Y-16859112D01*
X11205896Y-16859112D02*
X11205896Y-16849589D01*
X11205896Y-16849589D02*
X11196372Y-16830541D01*
X11196372Y-16830541D02*
X11177325Y-16821017D01*
X11177325Y-16821017D02*
X11148753Y-16821017D01*
X11148753Y-16821017D02*
X11129706Y-16811493D01*
X11129706Y-16811493D02*
X11120182Y-16792446D01*
X11120182Y-16792446D02*
X11120182Y-16782922D01*
X11120182Y-16782922D02*
X11129706Y-16763874D01*
X11129706Y-16763874D02*
X11148753Y-16754350D01*
X11148753Y-16754350D02*
X11177325Y-16754350D01*
X11177325Y-16754350D02*
X11196372Y-16763874D01*
X11272563Y-16963874D02*
X11282087Y-16954350D01*
X11282087Y-16954350D02*
X11301134Y-16925779D01*
X11301134Y-16925779D02*
X11310658Y-16906731D01*
X11310658Y-16906731D02*
X11320182Y-16878160D01*
X11320182Y-16878160D02*
X11329706Y-16830541D01*
X11329706Y-16830541D02*
X11329706Y-16792446D01*
X11329706Y-16792446D02*
X11320182Y-16744827D01*
X11320182Y-16744827D02*
X11310658Y-16716255D01*
X11310658Y-16716255D02*
X11301134Y-16697208D01*
X11301134Y-16697208D02*
X11282087Y-16668636D01*
X11282087Y-16668636D02*
X11272563Y-16659112D01*
D18*
X6367500Y-16995200D02*
X6497500Y-17125200D01*
X6497500Y-16995200D02*
X6367500Y-17125200D01*
X6432500Y-17125200D02*
X6497500Y-17060200D01*
X6432500Y-16995200D01*
X6367500Y-17060200D01*
X6432500Y-17125200D01*
D11*
X6863039Y-17151684D02*
X6748753Y-17151684D01*
X6805896Y-17151684D02*
X6805896Y-16951684D01*
X6805896Y-16951684D02*
X6786848Y-16980255D01*
X6786848Y-16980255D02*
X6767801Y-16999303D01*
X6767801Y-16999303D02*
X6748753Y-17008827D01*
X6948753Y-17132636D02*
X6958277Y-17142160D01*
X6958277Y-17142160D02*
X6948753Y-17151684D01*
X6948753Y-17151684D02*
X6939229Y-17142160D01*
X6939229Y-17142160D02*
X6948753Y-17132636D01*
X6948753Y-17132636D02*
X6948753Y-17151684D01*
X7024943Y-16951684D02*
X7148753Y-16951684D01*
X7148753Y-16951684D02*
X7082086Y-17027874D01*
X7082086Y-17027874D02*
X7110658Y-17027874D01*
X7110658Y-17027874D02*
X7129705Y-17037398D01*
X7129705Y-17037398D02*
X7139229Y-17046922D01*
X7139229Y-17046922D02*
X7148753Y-17065970D01*
X7148753Y-17065970D02*
X7148753Y-17113589D01*
X7148753Y-17113589D02*
X7139229Y-17132636D01*
X7139229Y-17132636D02*
X7129705Y-17142160D01*
X7129705Y-17142160D02*
X7110658Y-17151684D01*
X7110658Y-17151684D02*
X7053515Y-17151684D01*
X7053515Y-17151684D02*
X7034467Y-17142160D01*
X7034467Y-17142160D02*
X7024943Y-17132636D01*
X7272562Y-16951684D02*
X7291610Y-16951684D01*
X7291610Y-16951684D02*
X7310658Y-16961208D01*
X7310658Y-16961208D02*
X7320182Y-16970731D01*
X7320182Y-16970731D02*
X7329705Y-16989779D01*
X7329705Y-16989779D02*
X7339229Y-17027874D01*
X7339229Y-17027874D02*
X7339229Y-17075493D01*
X7339229Y-17075493D02*
X7329705Y-17113589D01*
X7329705Y-17113589D02*
X7320182Y-17132636D01*
X7320182Y-17132636D02*
X7310658Y-17142160D01*
X7310658Y-17142160D02*
X7291610Y-17151684D01*
X7291610Y-17151684D02*
X7272562Y-17151684D01*
X7272562Y-17151684D02*
X7253515Y-17142160D01*
X7253515Y-17142160D02*
X7243991Y-17132636D01*
X7243991Y-17132636D02*
X7234467Y-17113589D01*
X7234467Y-17113589D02*
X7224943Y-17075493D01*
X7224943Y-17075493D02*
X7224943Y-17027874D01*
X7224943Y-17027874D02*
X7234467Y-16989779D01*
X7234467Y-16989779D02*
X7243991Y-16970731D01*
X7243991Y-16970731D02*
X7253515Y-16961208D01*
X7253515Y-16961208D02*
X7272562Y-16951684D01*
X7463039Y-16951684D02*
X7482086Y-16951684D01*
X7482086Y-16951684D02*
X7501134Y-16961208D01*
X7501134Y-16961208D02*
X7510658Y-16970731D01*
X7510658Y-16970731D02*
X7520182Y-16989779D01*
X7520182Y-16989779D02*
X7529705Y-17027874D01*
X7529705Y-17027874D02*
X7529705Y-17075493D01*
X7529705Y-17075493D02*
X7520182Y-17113589D01*
X7520182Y-17113589D02*
X7510658Y-17132636D01*
X7510658Y-17132636D02*
X7501134Y-17142160D01*
X7501134Y-17142160D02*
X7482086Y-17151684D01*
X7482086Y-17151684D02*
X7463039Y-17151684D01*
X7463039Y-17151684D02*
X7443991Y-17142160D01*
X7443991Y-17142160D02*
X7434467Y-17132636D01*
X7434467Y-17132636D02*
X7424943Y-17113589D01*
X7424943Y-17113589D02*
X7415420Y-17075493D01*
X7415420Y-17075493D02*
X7415420Y-17027874D01*
X7415420Y-17027874D02*
X7424943Y-16989779D01*
X7424943Y-16989779D02*
X7434467Y-16970731D01*
X7434467Y-16970731D02*
X7443991Y-16961208D01*
X7443991Y-16961208D02*
X7463039Y-16951684D01*
X7615420Y-17151684D02*
X7615420Y-17018350D01*
X7615420Y-17037398D02*
X7624943Y-17027874D01*
X7624943Y-17027874D02*
X7643991Y-17018350D01*
X7643991Y-17018350D02*
X7672563Y-17018350D01*
X7672563Y-17018350D02*
X7691610Y-17027874D01*
X7691610Y-17027874D02*
X7701134Y-17046922D01*
X7701134Y-17046922D02*
X7701134Y-17151684D01*
X7701134Y-17046922D02*
X7710658Y-17027874D01*
X7710658Y-17027874D02*
X7729705Y-17018350D01*
X7729705Y-17018350D02*
X7758277Y-17018350D01*
X7758277Y-17018350D02*
X7777324Y-17027874D01*
X7777324Y-17027874D02*
X7786848Y-17046922D01*
X7786848Y-17046922D02*
X7786848Y-17151684D01*
X7882086Y-17151684D02*
X7882086Y-17018350D01*
X7882086Y-17037398D02*
X7891610Y-17027874D01*
X7891610Y-17027874D02*
X7910658Y-17018350D01*
X7910658Y-17018350D02*
X7939229Y-17018350D01*
X7939229Y-17018350D02*
X7958277Y-17027874D01*
X7958277Y-17027874D02*
X7967801Y-17046922D01*
X7967801Y-17046922D02*
X7967801Y-17151684D01*
X7967801Y-17046922D02*
X7977324Y-17027874D01*
X7977324Y-17027874D02*
X7996372Y-17018350D01*
X7996372Y-17018350D02*
X8024943Y-17018350D01*
X8024943Y-17018350D02*
X8043991Y-17027874D01*
X8043991Y-17027874D02*
X8053515Y-17046922D01*
X8053515Y-17046922D02*
X8053515Y-17151684D01*
X8443991Y-16942160D02*
X8272563Y-17199303D01*
X8701134Y-16951684D02*
X8720182Y-16951684D01*
X8720182Y-16951684D02*
X8739229Y-16961208D01*
X8739229Y-16961208D02*
X8748753Y-16970731D01*
X8748753Y-16970731D02*
X8758277Y-16989779D01*
X8758277Y-16989779D02*
X8767801Y-17027874D01*
X8767801Y-17027874D02*
X8767801Y-17075493D01*
X8767801Y-17075493D02*
X8758277Y-17113589D01*
X8758277Y-17113589D02*
X8748753Y-17132636D01*
X8748753Y-17132636D02*
X8739229Y-17142160D01*
X8739229Y-17142160D02*
X8720182Y-17151684D01*
X8720182Y-17151684D02*
X8701134Y-17151684D01*
X8701134Y-17151684D02*
X8682087Y-17142160D01*
X8682087Y-17142160D02*
X8672563Y-17132636D01*
X8672563Y-17132636D02*
X8663039Y-17113589D01*
X8663039Y-17113589D02*
X8653515Y-17075493D01*
X8653515Y-17075493D02*
X8653515Y-17027874D01*
X8653515Y-17027874D02*
X8663039Y-16989779D01*
X8663039Y-16989779D02*
X8672563Y-16970731D01*
X8672563Y-16970731D02*
X8682087Y-16961208D01*
X8682087Y-16961208D02*
X8701134Y-16951684D01*
X8853515Y-17132636D02*
X8863039Y-17142160D01*
X8863039Y-17142160D02*
X8853515Y-17151684D01*
X8853515Y-17151684D02*
X8843991Y-17142160D01*
X8843991Y-17142160D02*
X8853515Y-17132636D01*
X8853515Y-17132636D02*
X8853515Y-17151684D01*
X8986848Y-16951684D02*
X9005896Y-16951684D01*
X9005896Y-16951684D02*
X9024944Y-16961208D01*
X9024944Y-16961208D02*
X9034468Y-16970731D01*
X9034468Y-16970731D02*
X9043991Y-16989779D01*
X9043991Y-16989779D02*
X9053515Y-17027874D01*
X9053515Y-17027874D02*
X9053515Y-17075493D01*
X9053515Y-17075493D02*
X9043991Y-17113589D01*
X9043991Y-17113589D02*
X9034468Y-17132636D01*
X9034468Y-17132636D02*
X9024944Y-17142160D01*
X9024944Y-17142160D02*
X9005896Y-17151684D01*
X9005896Y-17151684D02*
X8986848Y-17151684D01*
X8986848Y-17151684D02*
X8967801Y-17142160D01*
X8967801Y-17142160D02*
X8958277Y-17132636D01*
X8958277Y-17132636D02*
X8948753Y-17113589D01*
X8948753Y-17113589D02*
X8939229Y-17075493D01*
X8939229Y-17075493D02*
X8939229Y-17027874D01*
X8939229Y-17027874D02*
X8948753Y-16989779D01*
X8948753Y-16989779D02*
X8958277Y-16970731D01*
X8958277Y-16970731D02*
X8967801Y-16961208D01*
X8967801Y-16961208D02*
X8986848Y-16951684D01*
X9234468Y-16951684D02*
X9139229Y-16951684D01*
X9139229Y-16951684D02*
X9129706Y-17046922D01*
X9129706Y-17046922D02*
X9139229Y-17037398D01*
X9139229Y-17037398D02*
X9158277Y-17027874D01*
X9158277Y-17027874D02*
X9205896Y-17027874D01*
X9205896Y-17027874D02*
X9224944Y-17037398D01*
X9224944Y-17037398D02*
X9234468Y-17046922D01*
X9234468Y-17046922D02*
X9243991Y-17065970D01*
X9243991Y-17065970D02*
X9243991Y-17113589D01*
X9243991Y-17113589D02*
X9234468Y-17132636D01*
X9234468Y-17132636D02*
X9224944Y-17142160D01*
X9224944Y-17142160D02*
X9205896Y-17151684D01*
X9205896Y-17151684D02*
X9158277Y-17151684D01*
X9158277Y-17151684D02*
X9139229Y-17142160D01*
X9139229Y-17142160D02*
X9129706Y-17132636D01*
X9434468Y-17151684D02*
X9320182Y-17151684D01*
X9377325Y-17151684D02*
X9377325Y-16951684D01*
X9377325Y-16951684D02*
X9358277Y-16980255D01*
X9358277Y-16980255D02*
X9339229Y-16999303D01*
X9339229Y-16999303D02*
X9320182Y-17008827D01*
X9510658Y-16970731D02*
X9520182Y-16961208D01*
X9520182Y-16961208D02*
X9539229Y-16951684D01*
X9539229Y-16951684D02*
X9586849Y-16951684D01*
X9586849Y-16951684D02*
X9605896Y-16961208D01*
X9605896Y-16961208D02*
X9615420Y-16970731D01*
X9615420Y-16970731D02*
X9624944Y-16989779D01*
X9624944Y-16989779D02*
X9624944Y-17008827D01*
X9624944Y-17008827D02*
X9615420Y-17037398D01*
X9615420Y-17037398D02*
X9501134Y-17151684D01*
X9501134Y-17151684D02*
X9624944Y-17151684D01*
X9701134Y-16951684D02*
X9701134Y-16989779D01*
X9777325Y-16951684D02*
X9777325Y-16989779D01*
X10072563Y-17227874D02*
X10063039Y-17218350D01*
X10063039Y-17218350D02*
X10043991Y-17189779D01*
X10043991Y-17189779D02*
X10034468Y-17170731D01*
X10034468Y-17170731D02*
X10024944Y-17142160D01*
X10024944Y-17142160D02*
X10015420Y-17094541D01*
X10015420Y-17094541D02*
X10015420Y-17056446D01*
X10015420Y-17056446D02*
X10024944Y-17008827D01*
X10024944Y-17008827D02*
X10034468Y-16980255D01*
X10034468Y-16980255D02*
X10043991Y-16961208D01*
X10043991Y-16961208D02*
X10063039Y-16932636D01*
X10063039Y-16932636D02*
X10072563Y-16923112D01*
X10234468Y-17018350D02*
X10234468Y-17151684D01*
X10186849Y-16942160D02*
X10139230Y-17085017D01*
X10139230Y-17085017D02*
X10263039Y-17085017D01*
X10491611Y-17151684D02*
X10491611Y-16951684D01*
X10577325Y-17151684D02*
X10577325Y-17046922D01*
X10577325Y-17046922D02*
X10567801Y-17027874D01*
X10567801Y-17027874D02*
X10548753Y-17018350D01*
X10548753Y-17018350D02*
X10520182Y-17018350D01*
X10520182Y-17018350D02*
X10501134Y-17027874D01*
X10501134Y-17027874D02*
X10491611Y-17037398D01*
X10701134Y-17151684D02*
X10682087Y-17142160D01*
X10682087Y-17142160D02*
X10672563Y-17132636D01*
X10672563Y-17132636D02*
X10663039Y-17113589D01*
X10663039Y-17113589D02*
X10663039Y-17056446D01*
X10663039Y-17056446D02*
X10672563Y-17037398D01*
X10672563Y-17037398D02*
X10682087Y-17027874D01*
X10682087Y-17027874D02*
X10701134Y-17018350D01*
X10701134Y-17018350D02*
X10729706Y-17018350D01*
X10729706Y-17018350D02*
X10748753Y-17027874D01*
X10748753Y-17027874D02*
X10758277Y-17037398D01*
X10758277Y-17037398D02*
X10767801Y-17056446D01*
X10767801Y-17056446D02*
X10767801Y-17113589D01*
X10767801Y-17113589D02*
X10758277Y-17132636D01*
X10758277Y-17132636D02*
X10748753Y-17142160D01*
X10748753Y-17142160D02*
X10729706Y-17151684D01*
X10729706Y-17151684D02*
X10701134Y-17151684D01*
X10882087Y-17151684D02*
X10863039Y-17142160D01*
X10863039Y-17142160D02*
X10853515Y-17123112D01*
X10853515Y-17123112D02*
X10853515Y-16951684D01*
X11034468Y-17142160D02*
X11015420Y-17151684D01*
X11015420Y-17151684D02*
X10977325Y-17151684D01*
X10977325Y-17151684D02*
X10958277Y-17142160D01*
X10958277Y-17142160D02*
X10948753Y-17123112D01*
X10948753Y-17123112D02*
X10948753Y-17046922D01*
X10948753Y-17046922D02*
X10958277Y-17027874D01*
X10958277Y-17027874D02*
X10977325Y-17018350D01*
X10977325Y-17018350D02*
X11015420Y-17018350D01*
X11015420Y-17018350D02*
X11034468Y-17027874D01*
X11034468Y-17027874D02*
X11043992Y-17046922D01*
X11043992Y-17046922D02*
X11043992Y-17065970D01*
X11043992Y-17065970D02*
X10948753Y-17085017D01*
X11120182Y-17142160D02*
X11139230Y-17151684D01*
X11139230Y-17151684D02*
X11177325Y-17151684D01*
X11177325Y-17151684D02*
X11196372Y-17142160D01*
X11196372Y-17142160D02*
X11205896Y-17123112D01*
X11205896Y-17123112D02*
X11205896Y-17113589D01*
X11205896Y-17113589D02*
X11196372Y-17094541D01*
X11196372Y-17094541D02*
X11177325Y-17085017D01*
X11177325Y-17085017D02*
X11148753Y-17085017D01*
X11148753Y-17085017D02*
X11129706Y-17075493D01*
X11129706Y-17075493D02*
X11120182Y-17056446D01*
X11120182Y-17056446D02*
X11120182Y-17046922D01*
X11120182Y-17046922D02*
X11129706Y-17027874D01*
X11129706Y-17027874D02*
X11148753Y-17018350D01*
X11148753Y-17018350D02*
X11177325Y-17018350D01*
X11177325Y-17018350D02*
X11196372Y-17027874D01*
X11272563Y-17227874D02*
X11282087Y-17218350D01*
X11282087Y-17218350D02*
X11301134Y-17189779D01*
X11301134Y-17189779D02*
X11310658Y-17170731D01*
X11310658Y-17170731D02*
X11320182Y-17142160D01*
X11320182Y-17142160D02*
X11329706Y-17094541D01*
X11329706Y-17094541D02*
X11329706Y-17056446D01*
X11329706Y-17056446D02*
X11320182Y-17008827D01*
X11320182Y-17008827D02*
X11310658Y-16980255D01*
X11310658Y-16980255D02*
X11301134Y-16961208D01*
X11301134Y-16961208D02*
X11282087Y-16932636D01*
X11282087Y-16932636D02*
X11272563Y-16923112D01*
X6397500Y-17224200D02*
X6397500Y-17424200D01*
X6297500Y-17324200D02*
X6497500Y-17324200D01*
X6497500Y-17324200D02*
G75*
G03*
X6497500Y-17324200I-100000J0D01*
G01*
X6739229Y-17215684D02*
X6863039Y-17215684D01*
X6863039Y-17215684D02*
X6796372Y-17291874D01*
X6796372Y-17291874D02*
X6824943Y-17291874D01*
X6824943Y-17291874D02*
X6843991Y-17301398D01*
X6843991Y-17301398D02*
X6853515Y-17310922D01*
X6853515Y-17310922D02*
X6863039Y-17329970D01*
X6863039Y-17329970D02*
X6863039Y-17377589D01*
X6863039Y-17377589D02*
X6853515Y-17396636D01*
X6853515Y-17396636D02*
X6843991Y-17406160D01*
X6843991Y-17406160D02*
X6824943Y-17415684D01*
X6824943Y-17415684D02*
X6767801Y-17415684D01*
X6767801Y-17415684D02*
X6748753Y-17406160D01*
X6748753Y-17406160D02*
X6739229Y-17396636D01*
X6948753Y-17396636D02*
X6958277Y-17406160D01*
X6958277Y-17406160D02*
X6948753Y-17415684D01*
X6948753Y-17415684D02*
X6939229Y-17406160D01*
X6939229Y-17406160D02*
X6948753Y-17396636D01*
X6948753Y-17396636D02*
X6948753Y-17415684D01*
X7139229Y-17215684D02*
X7043991Y-17215684D01*
X7043991Y-17215684D02*
X7034467Y-17310922D01*
X7034467Y-17310922D02*
X7043991Y-17301398D01*
X7043991Y-17301398D02*
X7063039Y-17291874D01*
X7063039Y-17291874D02*
X7110658Y-17291874D01*
X7110658Y-17291874D02*
X7129705Y-17301398D01*
X7129705Y-17301398D02*
X7139229Y-17310922D01*
X7139229Y-17310922D02*
X7148753Y-17329970D01*
X7148753Y-17329970D02*
X7148753Y-17377589D01*
X7148753Y-17377589D02*
X7139229Y-17396636D01*
X7139229Y-17396636D02*
X7129705Y-17406160D01*
X7129705Y-17406160D02*
X7110658Y-17415684D01*
X7110658Y-17415684D02*
X7063039Y-17415684D01*
X7063039Y-17415684D02*
X7043991Y-17406160D01*
X7043991Y-17406160D02*
X7034467Y-17396636D01*
X7272562Y-17215684D02*
X7291610Y-17215684D01*
X7291610Y-17215684D02*
X7310658Y-17225208D01*
X7310658Y-17225208D02*
X7320182Y-17234731D01*
X7320182Y-17234731D02*
X7329705Y-17253779D01*
X7329705Y-17253779D02*
X7339229Y-17291874D01*
X7339229Y-17291874D02*
X7339229Y-17339493D01*
X7339229Y-17339493D02*
X7329705Y-17377589D01*
X7329705Y-17377589D02*
X7320182Y-17396636D01*
X7320182Y-17396636D02*
X7310658Y-17406160D01*
X7310658Y-17406160D02*
X7291610Y-17415684D01*
X7291610Y-17415684D02*
X7272562Y-17415684D01*
X7272562Y-17415684D02*
X7253515Y-17406160D01*
X7253515Y-17406160D02*
X7243991Y-17396636D01*
X7243991Y-17396636D02*
X7234467Y-17377589D01*
X7234467Y-17377589D02*
X7224943Y-17339493D01*
X7224943Y-17339493D02*
X7224943Y-17291874D01*
X7224943Y-17291874D02*
X7234467Y-17253779D01*
X7234467Y-17253779D02*
X7243991Y-17234731D01*
X7243991Y-17234731D02*
X7253515Y-17225208D01*
X7253515Y-17225208D02*
X7272562Y-17215684D01*
X7463039Y-17215684D02*
X7482086Y-17215684D01*
X7482086Y-17215684D02*
X7501134Y-17225208D01*
X7501134Y-17225208D02*
X7510658Y-17234731D01*
X7510658Y-17234731D02*
X7520182Y-17253779D01*
X7520182Y-17253779D02*
X7529705Y-17291874D01*
X7529705Y-17291874D02*
X7529705Y-17339493D01*
X7529705Y-17339493D02*
X7520182Y-17377589D01*
X7520182Y-17377589D02*
X7510658Y-17396636D01*
X7510658Y-17396636D02*
X7501134Y-17406160D01*
X7501134Y-17406160D02*
X7482086Y-17415684D01*
X7482086Y-17415684D02*
X7463039Y-17415684D01*
X7463039Y-17415684D02*
X7443991Y-17406160D01*
X7443991Y-17406160D02*
X7434467Y-17396636D01*
X7434467Y-17396636D02*
X7424943Y-17377589D01*
X7424943Y-17377589D02*
X7415420Y-17339493D01*
X7415420Y-17339493D02*
X7415420Y-17291874D01*
X7415420Y-17291874D02*
X7424943Y-17253779D01*
X7424943Y-17253779D02*
X7434467Y-17234731D01*
X7434467Y-17234731D02*
X7443991Y-17225208D01*
X7443991Y-17225208D02*
X7463039Y-17215684D01*
X7615420Y-17415684D02*
X7615420Y-17282350D01*
X7615420Y-17301398D02*
X7624943Y-17291874D01*
X7624943Y-17291874D02*
X7643991Y-17282350D01*
X7643991Y-17282350D02*
X7672563Y-17282350D01*
X7672563Y-17282350D02*
X7691610Y-17291874D01*
X7691610Y-17291874D02*
X7701134Y-17310922D01*
X7701134Y-17310922D02*
X7701134Y-17415684D01*
X7701134Y-17310922D02*
X7710658Y-17291874D01*
X7710658Y-17291874D02*
X7729705Y-17282350D01*
X7729705Y-17282350D02*
X7758277Y-17282350D01*
X7758277Y-17282350D02*
X7777324Y-17291874D01*
X7777324Y-17291874D02*
X7786848Y-17310922D01*
X7786848Y-17310922D02*
X7786848Y-17415684D01*
X7882086Y-17415684D02*
X7882086Y-17282350D01*
X7882086Y-17301398D02*
X7891610Y-17291874D01*
X7891610Y-17291874D02*
X7910658Y-17282350D01*
X7910658Y-17282350D02*
X7939229Y-17282350D01*
X7939229Y-17282350D02*
X7958277Y-17291874D01*
X7958277Y-17291874D02*
X7967801Y-17310922D01*
X7967801Y-17310922D02*
X7967801Y-17415684D01*
X7967801Y-17310922D02*
X7977324Y-17291874D01*
X7977324Y-17291874D02*
X7996372Y-17282350D01*
X7996372Y-17282350D02*
X8024943Y-17282350D01*
X8024943Y-17282350D02*
X8043991Y-17291874D01*
X8043991Y-17291874D02*
X8053515Y-17310922D01*
X8053515Y-17310922D02*
X8053515Y-17415684D01*
X8443991Y-17206160D02*
X8272563Y-17463303D01*
X8701134Y-17215684D02*
X8720182Y-17215684D01*
X8720182Y-17215684D02*
X8739229Y-17225208D01*
X8739229Y-17225208D02*
X8748753Y-17234731D01*
X8748753Y-17234731D02*
X8758277Y-17253779D01*
X8758277Y-17253779D02*
X8767801Y-17291874D01*
X8767801Y-17291874D02*
X8767801Y-17339493D01*
X8767801Y-17339493D02*
X8758277Y-17377589D01*
X8758277Y-17377589D02*
X8748753Y-17396636D01*
X8748753Y-17396636D02*
X8739229Y-17406160D01*
X8739229Y-17406160D02*
X8720182Y-17415684D01*
X8720182Y-17415684D02*
X8701134Y-17415684D01*
X8701134Y-17415684D02*
X8682087Y-17406160D01*
X8682087Y-17406160D02*
X8672563Y-17396636D01*
X8672563Y-17396636D02*
X8663039Y-17377589D01*
X8663039Y-17377589D02*
X8653515Y-17339493D01*
X8653515Y-17339493D02*
X8653515Y-17291874D01*
X8653515Y-17291874D02*
X8663039Y-17253779D01*
X8663039Y-17253779D02*
X8672563Y-17234731D01*
X8672563Y-17234731D02*
X8682087Y-17225208D01*
X8682087Y-17225208D02*
X8701134Y-17215684D01*
X8853515Y-17396636D02*
X8863039Y-17406160D01*
X8863039Y-17406160D02*
X8853515Y-17415684D01*
X8853515Y-17415684D02*
X8843991Y-17406160D01*
X8843991Y-17406160D02*
X8853515Y-17396636D01*
X8853515Y-17396636D02*
X8853515Y-17415684D01*
X9053515Y-17415684D02*
X8939229Y-17415684D01*
X8996372Y-17415684D02*
X8996372Y-17215684D01*
X8996372Y-17215684D02*
X8977325Y-17244255D01*
X8977325Y-17244255D02*
X8958277Y-17263303D01*
X8958277Y-17263303D02*
X8939229Y-17272827D01*
X9120182Y-17215684D02*
X9243991Y-17215684D01*
X9243991Y-17215684D02*
X9177325Y-17291874D01*
X9177325Y-17291874D02*
X9205896Y-17291874D01*
X9205896Y-17291874D02*
X9224944Y-17301398D01*
X9224944Y-17301398D02*
X9234468Y-17310922D01*
X9234468Y-17310922D02*
X9243991Y-17329970D01*
X9243991Y-17329970D02*
X9243991Y-17377589D01*
X9243991Y-17377589D02*
X9234468Y-17396636D01*
X9234468Y-17396636D02*
X9224944Y-17406160D01*
X9224944Y-17406160D02*
X9205896Y-17415684D01*
X9205896Y-17415684D02*
X9148753Y-17415684D01*
X9148753Y-17415684D02*
X9129706Y-17406160D01*
X9129706Y-17406160D02*
X9120182Y-17396636D01*
X9310658Y-17215684D02*
X9443991Y-17215684D01*
X9443991Y-17215684D02*
X9358277Y-17415684D01*
X9548753Y-17301398D02*
X9529706Y-17291874D01*
X9529706Y-17291874D02*
X9520182Y-17282350D01*
X9520182Y-17282350D02*
X9510658Y-17263303D01*
X9510658Y-17263303D02*
X9510658Y-17253779D01*
X9510658Y-17253779D02*
X9520182Y-17234731D01*
X9520182Y-17234731D02*
X9529706Y-17225208D01*
X9529706Y-17225208D02*
X9548753Y-17215684D01*
X9548753Y-17215684D02*
X9586849Y-17215684D01*
X9586849Y-17215684D02*
X9605896Y-17225208D01*
X9605896Y-17225208D02*
X9615420Y-17234731D01*
X9615420Y-17234731D02*
X9624944Y-17253779D01*
X9624944Y-17253779D02*
X9624944Y-17263303D01*
X9624944Y-17263303D02*
X9615420Y-17282350D01*
X9615420Y-17282350D02*
X9605896Y-17291874D01*
X9605896Y-17291874D02*
X9586849Y-17301398D01*
X9586849Y-17301398D02*
X9548753Y-17301398D01*
X9548753Y-17301398D02*
X9529706Y-17310922D01*
X9529706Y-17310922D02*
X9520182Y-17320446D01*
X9520182Y-17320446D02*
X9510658Y-17339493D01*
X9510658Y-17339493D02*
X9510658Y-17377589D01*
X9510658Y-17377589D02*
X9520182Y-17396636D01*
X9520182Y-17396636D02*
X9529706Y-17406160D01*
X9529706Y-17406160D02*
X9548753Y-17415684D01*
X9548753Y-17415684D02*
X9586849Y-17415684D01*
X9586849Y-17415684D02*
X9605896Y-17406160D01*
X9605896Y-17406160D02*
X9615420Y-17396636D01*
X9615420Y-17396636D02*
X9624944Y-17377589D01*
X9624944Y-17377589D02*
X9624944Y-17339493D01*
X9624944Y-17339493D02*
X9615420Y-17320446D01*
X9615420Y-17320446D02*
X9605896Y-17310922D01*
X9605896Y-17310922D02*
X9586849Y-17301398D01*
X9701134Y-17215684D02*
X9701134Y-17253779D01*
X9777325Y-17215684D02*
X9777325Y-17253779D01*
X10072563Y-17491874D02*
X10063039Y-17482350D01*
X10063039Y-17482350D02*
X10043991Y-17453779D01*
X10043991Y-17453779D02*
X10034468Y-17434731D01*
X10034468Y-17434731D02*
X10024944Y-17406160D01*
X10024944Y-17406160D02*
X10015420Y-17358541D01*
X10015420Y-17358541D02*
X10015420Y-17320446D01*
X10015420Y-17320446D02*
X10024944Y-17272827D01*
X10024944Y-17272827D02*
X10034468Y-17244255D01*
X10034468Y-17244255D02*
X10043991Y-17225208D01*
X10043991Y-17225208D02*
X10063039Y-17196636D01*
X10063039Y-17196636D02*
X10072563Y-17187112D01*
X10234468Y-17282350D02*
X10234468Y-17415684D01*
X10186849Y-17206160D02*
X10139230Y-17349017D01*
X10139230Y-17349017D02*
X10263039Y-17349017D01*
X10491611Y-17415684D02*
X10491611Y-17215684D01*
X10577325Y-17415684D02*
X10577325Y-17310922D01*
X10577325Y-17310922D02*
X10567801Y-17291874D01*
X10567801Y-17291874D02*
X10548753Y-17282350D01*
X10548753Y-17282350D02*
X10520182Y-17282350D01*
X10520182Y-17282350D02*
X10501134Y-17291874D01*
X10501134Y-17291874D02*
X10491611Y-17301398D01*
X10701134Y-17415684D02*
X10682087Y-17406160D01*
X10682087Y-17406160D02*
X10672563Y-17396636D01*
X10672563Y-17396636D02*
X10663039Y-17377589D01*
X10663039Y-17377589D02*
X10663039Y-17320446D01*
X10663039Y-17320446D02*
X10672563Y-17301398D01*
X10672563Y-17301398D02*
X10682087Y-17291874D01*
X10682087Y-17291874D02*
X10701134Y-17282350D01*
X10701134Y-17282350D02*
X10729706Y-17282350D01*
X10729706Y-17282350D02*
X10748753Y-17291874D01*
X10748753Y-17291874D02*
X10758277Y-17301398D01*
X10758277Y-17301398D02*
X10767801Y-17320446D01*
X10767801Y-17320446D02*
X10767801Y-17377589D01*
X10767801Y-17377589D02*
X10758277Y-17396636D01*
X10758277Y-17396636D02*
X10748753Y-17406160D01*
X10748753Y-17406160D02*
X10729706Y-17415684D01*
X10729706Y-17415684D02*
X10701134Y-17415684D01*
X10882087Y-17415684D02*
X10863039Y-17406160D01*
X10863039Y-17406160D02*
X10853515Y-17387112D01*
X10853515Y-17387112D02*
X10853515Y-17215684D01*
X11034468Y-17406160D02*
X11015420Y-17415684D01*
X11015420Y-17415684D02*
X10977325Y-17415684D01*
X10977325Y-17415684D02*
X10958277Y-17406160D01*
X10958277Y-17406160D02*
X10948753Y-17387112D01*
X10948753Y-17387112D02*
X10948753Y-17310922D01*
X10948753Y-17310922D02*
X10958277Y-17291874D01*
X10958277Y-17291874D02*
X10977325Y-17282350D01*
X10977325Y-17282350D02*
X11015420Y-17282350D01*
X11015420Y-17282350D02*
X11034468Y-17291874D01*
X11034468Y-17291874D02*
X11043992Y-17310922D01*
X11043992Y-17310922D02*
X11043992Y-17329970D01*
X11043992Y-17329970D02*
X10948753Y-17349017D01*
X11120182Y-17406160D02*
X11139230Y-17415684D01*
X11139230Y-17415684D02*
X11177325Y-17415684D01*
X11177325Y-17415684D02*
X11196372Y-17406160D01*
X11196372Y-17406160D02*
X11205896Y-17387112D01*
X11205896Y-17387112D02*
X11205896Y-17377589D01*
X11205896Y-17377589D02*
X11196372Y-17358541D01*
X11196372Y-17358541D02*
X11177325Y-17349017D01*
X11177325Y-17349017D02*
X11148753Y-17349017D01*
X11148753Y-17349017D02*
X11129706Y-17339493D01*
X11129706Y-17339493D02*
X11120182Y-17320446D01*
X11120182Y-17320446D02*
X11120182Y-17310922D01*
X11120182Y-17310922D02*
X11129706Y-17291874D01*
X11129706Y-17291874D02*
X11148753Y-17282350D01*
X11148753Y-17282350D02*
X11177325Y-17282350D01*
X11177325Y-17282350D02*
X11196372Y-17291874D01*
X11272563Y-17491874D02*
X11282087Y-17482350D01*
X11282087Y-17482350D02*
X11301134Y-17453779D01*
X11301134Y-17453779D02*
X11310658Y-17434731D01*
X11310658Y-17434731D02*
X11320182Y-17406160D01*
X11320182Y-17406160D02*
X11329706Y-17358541D01*
X11329706Y-17358541D02*
X11329706Y-17320446D01*
X11329706Y-17320446D02*
X11320182Y-17272827D01*
X11320182Y-17272827D02*
X11310658Y-17244255D01*
X11310658Y-17244255D02*
X11301134Y-17225208D01*
X11301134Y-17225208D02*
X11282087Y-17196636D01*
X11282087Y-17196636D02*
X11272563Y-17187112D01*
M02*
