%TF.GenerationSoftware,KiCad,Pcbnew,7.0.5-0*%
%TF.CreationDate,2023-07-07T16:59:40-04:00*%
%TF.ProjectId,nixie,6e697869-652e-46b6-9963-61645f706362,rev?*%
%TF.SameCoordinates,Original*%
%TF.FileFunction,Copper,L4,Bot*%
%TF.FilePolarity,Positive*%
%FSLAX46Y46*%
G04 Gerber Fmt 4.6, Leading zero omitted, Abs format (unit mm)*
G04 Created by KiCad (PCBNEW 7.0.5-0) date 2023-07-07 16:59:40*
%MOMM*%
%LPD*%
G01*
G04 APERTURE LIST*
%TA.AperFunction,ComponentPad*%
%ADD10C,0.800000*%
%TD*%
%TA.AperFunction,ComponentPad*%
%ADD11C,7.000000*%
%TD*%
%TA.AperFunction,ComponentPad*%
%ADD12R,1.650000X1.650000*%
%TD*%
%TA.AperFunction,ComponentPad*%
%ADD13C,1.650000*%
%TD*%
%TA.AperFunction,ComponentPad*%
%ADD14R,1.400000X1.400000*%
%TD*%
%TA.AperFunction,ComponentPad*%
%ADD15C,1.400000*%
%TD*%
%TA.AperFunction,ComponentPad*%
%ADD16O,1.600000X3.200000*%
%TD*%
%TA.AperFunction,ComponentPad*%
%ADD17O,3.200000X1.600000*%
%TD*%
%TA.AperFunction,ComponentPad*%
%ADD18O,2.316000X2.316000*%
%TD*%
%TA.AperFunction,ComponentPad*%
%ADD19C,2.316000*%
%TD*%
%TA.AperFunction,SMDPad,CuDef*%
%ADD20R,1.300000X1.500000*%
%TD*%
%TA.AperFunction,SMDPad,CuDef*%
%ADD21R,1.500000X1.300000*%
%TD*%
%TA.AperFunction,ComponentPad*%
%ADD22C,1.348000*%
%TD*%
%TA.AperFunction,ComponentPad*%
%ADD23C,1.950000*%
%TD*%
%TA.AperFunction,SMDPad,CuDef*%
%ADD24R,3.500000X1.600000*%
%TD*%
%TA.AperFunction,SMDPad,CuDef*%
%ADD25R,9.750000X12.200000*%
%TD*%
%TA.AperFunction,ViaPad*%
%ADD26C,0.800000*%
%TD*%
%TA.AperFunction,ViaPad*%
%ADD27C,2.300000*%
%TD*%
%TA.AperFunction,ViaPad*%
%ADD28C,0.500000*%
%TD*%
%TA.AperFunction,ViaPad*%
%ADD29C,0.600000*%
%TD*%
%TA.AperFunction,Conductor*%
%ADD30C,0.508000*%
%TD*%
%TA.AperFunction,Conductor*%
%ADD31C,0.812800*%
%TD*%
%TA.AperFunction,Conductor*%
%ADD32C,0.381000*%
%TD*%
%TA.AperFunction,Conductor*%
%ADD33C,0.254000*%
%TD*%
G04 APERTURE END LIST*
D10*
%TO.P,H2,1*%
%TO.N,N/C*%
X67375000Y-138400000D03*
X68143845Y-136543845D03*
X68143845Y-140256155D03*
X70000000Y-135775000D03*
D11*
X70000000Y-138400000D03*
D10*
X70000000Y-141025000D03*
X71856155Y-136543845D03*
X71856155Y-140256155D03*
X72625000Y-138400000D03*
%TD*%
%TO.P,H3,1*%
%TO.N,N/C*%
X239875000Y-82200000D03*
X240643845Y-80343845D03*
X240643845Y-84056155D03*
X242500000Y-79575000D03*
D11*
X242500000Y-82200000D03*
D10*
X242500000Y-84825000D03*
X244356155Y-80343845D03*
X244356155Y-84056155D03*
X245125000Y-82200000D03*
%TD*%
D12*
%TO.P,J1,1,1*%
%TO.N,/RX*%
X70000000Y-119460000D03*
D13*
%TO.P,J1,2,2*%
%TO.N,/TX*%
X70000000Y-122000000D03*
%TO.P,J1,3,3*%
%TO.N,+3V3*%
X70000000Y-124540000D03*
%TO.P,J1,4,4*%
%TO.N,GND*%
X70000000Y-127080000D03*
%TD*%
D14*
%TO.P,IC3,1,8*%
%TO.N,/N38*%
X134126600Y-110037000D03*
D15*
%TO.P,IC3,2,9*%
%TO.N,/N39*%
X136666600Y-110037000D03*
%TO.P,IC3,3,A*%
%TO.N,/A3*%
X139206600Y-110037000D03*
%TO.P,IC3,4,D*%
%TO.N,/D3*%
X141746600Y-110037000D03*
%TO.P,IC3,5,VCC*%
%TO.N,+5V*%
X144286600Y-110037000D03*
%TO.P,IC3,6,B*%
%TO.N,/B3*%
X146826600Y-110037000D03*
%TO.P,IC3,7,C*%
%TO.N,/C3*%
X149366600Y-110037000D03*
%TO.P,IC3,8,2*%
%TO.N,/N32*%
X151906600Y-110037000D03*
%TO.P,IC3,9,3*%
%TO.N,/N33*%
X151906600Y-102417000D03*
%TO.P,IC3,10,7*%
%TO.N,/N37*%
X149366600Y-102417000D03*
%TO.P,IC3,11,6*%
%TO.N,/N36*%
X146826600Y-102417000D03*
%TO.P,IC3,12,GND*%
%TO.N,GND*%
X144286600Y-102417000D03*
%TO.P,IC3,13,4*%
%TO.N,/N34*%
X141746600Y-102417000D03*
%TO.P,IC3,14,5*%
%TO.N,/N35*%
X139206600Y-102417000D03*
%TO.P,IC3,15,1*%
%TO.N,/N31*%
X136666600Y-102417000D03*
%TO.P,IC3,16,0*%
%TO.N,/N30*%
X134126600Y-102417000D03*
%TD*%
D10*
%TO.P,H1,1*%
%TO.N,N/C*%
X67375000Y-82375000D03*
X68143845Y-80518845D03*
X68143845Y-84231155D03*
X70000000Y-79750000D03*
D11*
X70000000Y-82375000D03*
D10*
X70000000Y-85000000D03*
X71856155Y-80518845D03*
X71856155Y-84231155D03*
X72625000Y-82375000D03*
%TD*%
%TO.P,H4,1*%
%TO.N,N/C*%
X239875000Y-138400000D03*
X240643845Y-136543845D03*
X240643845Y-140256155D03*
X242500000Y-135775000D03*
D11*
X242500000Y-138400000D03*
D10*
X242500000Y-141025000D03*
X244356155Y-136543845D03*
X244356155Y-140256155D03*
X245125000Y-138400000D03*
%TD*%
D16*
%TO.P,Pi1,3V3,3V3*%
%TO.N,+3V3*%
X114780000Y-136800000D03*
%TO.P,Pi1,3V3_EN,3V3_EN*%
%TO.N,unconnected-(U$1-Pad3V3_EN)*%
X117320000Y-136800000D03*
%TO.P,Pi1,ADC_VREF,ADC_VREF*%
%TO.N,unconnected-(U$1-PadADC_VREF)*%
X112240000Y-136800000D03*
%TO.P,Pi1,AGND,AGND*%
%TO.N,GND*%
X107160000Y-136800000D03*
%TO.P,Pi1,GND@1,GND*%
X119860000Y-117420000D03*
%TO.P,Pi1,GND@2,GND*%
X107160000Y-117420000D03*
%TO.P,Pi1,GND@3,GND*%
X94460000Y-117420000D03*
%TO.P,Pi1,GND@4,GND*%
X81760000Y-117420000D03*
D17*
%TO.P,Pi1,GND@5,GND*%
X76110000Y-127110000D03*
D16*
%TO.P,Pi1,GND@6,GND*%
X81760000Y-136800000D03*
%TO.P,Pi1,GND@7,GND*%
X94460000Y-136800000D03*
%TO.P,Pi1,GND@8,GND*%
X119860000Y-136800000D03*
%TO.P,Pi1,GP0,GP0*%
%TO.N,/RX*%
X124940000Y-117420000D03*
%TO.P,Pi1,GP1,GP1*%
%TO.N,/TX*%
X122400000Y-117420000D03*
%TO.P,Pi1,GP2,GP2*%
%TO.N,/RST*%
X117320000Y-117420000D03*
%TO.P,Pi1,GP3,GP3*%
%TO.N,unconnected-(U$1-PadGP3)*%
X114780000Y-117420000D03*
%TO.P,Pi1,GP4,GP4*%
%TO.N,/C2*%
X112240000Y-117420000D03*
%TO.P,Pi1,GP5,GP5*%
%TO.N,/B2*%
X109700000Y-117420000D03*
%TO.P,Pi1,GP6,GP6*%
%TO.N,/D2*%
X104620000Y-117420000D03*
%TO.P,Pi1,GP7,GP7*%
%TO.N,/A2*%
X102080000Y-117420000D03*
%TO.P,Pi1,GP8,GP8*%
%TO.N,unconnected-(U$1-PadGP8)*%
X99540000Y-117420000D03*
%TO.P,Pi1,GP9,GP9*%
%TO.N,unconnected-(U$1-PadGP9)*%
X97000000Y-117420000D03*
%TO.P,Pi1,GP10,GP10*%
%TO.N,/C1*%
X91920000Y-117420000D03*
%TO.P,Pi1,GP11,GP11*%
%TO.N,/B1*%
X89380000Y-117420000D03*
%TO.P,Pi1,GP12,GP12*%
%TO.N,/D1*%
X86840000Y-117420000D03*
%TO.P,Pi1,GP13,GP13*%
%TO.N,/A1*%
X84300000Y-117420000D03*
%TO.P,Pi1,GP14,GP14*%
%TO.N,/SDA1*%
X79220000Y-117420000D03*
%TO.P,Pi1,GP15,GP15*%
%TO.N,/SCL1*%
X76680000Y-117420000D03*
%TO.P,Pi1,GP16,GP16*%
%TO.N,/S6*%
X76680000Y-136800000D03*
%TO.P,Pi1,GP17,GP17*%
%TO.N,/S5*%
X79220000Y-136800000D03*
%TO.P,Pi1,GP18,GP18*%
%TO.N,/S4*%
X84300000Y-136800000D03*
%TO.P,Pi1,GP19,GP19*%
%TO.N,/S3*%
X86840000Y-136800000D03*
%TO.P,Pi1,GP20,GP20*%
%TO.N,/S2*%
X89380000Y-136800000D03*
%TO.P,Pi1,GP21,GP21*%
%TO.N,/S1*%
X91920000Y-136800000D03*
%TO.P,Pi1,GP22,GP22*%
%TO.N,unconnected-(U$1-PadGP22)*%
X97000000Y-136800000D03*
%TO.P,Pi1,GP26_A0,GP26_A0*%
%TO.N,unconnected-(U$1-PadGP26_A0)*%
X102080000Y-136800000D03*
%TO.P,Pi1,GP27_A1,GP27_A1*%
%TO.N,unconnected-(U$1-PadGP27_A1)*%
X104620000Y-136800000D03*
%TO.P,Pi1,GP28_A2,GP28_A2*%
%TO.N,unconnected-(U$1-PadGP28_A2)*%
X109700000Y-136800000D03*
%TO.P,Pi1,RUN,RUN*%
%TO.N,unconnected-(U$1-PadRUN)*%
X99540000Y-136800000D03*
D17*
%TO.P,Pi1,SWCLK,SWCLK*%
%TO.N,unconnected-(U$1-PadSWCLK)*%
X76110000Y-124570000D03*
%TO.P,Pi1,SWDIO,SWDIO*%
%TO.N,unconnected-(U$1-PadSWDIO)*%
X76110000Y-129650000D03*
D16*
%TO.P,Pi1,VBUS,VBUS*%
%TO.N,unconnected-(U$1-PadVBUS)*%
X124940000Y-136800000D03*
%TO.P,Pi1,VSYS,VSYS*%
%TO.N,+5V*%
X122400000Y-136800000D03*
%TD*%
D18*
%TO.P,BAT1,+,+*%
%TO.N,Net-(IC6-VBAT)*%
X190900000Y-114930000D03*
D19*
%TO.P,BAT1,-,-*%
%TO.N,GND*%
X190900000Y-135430000D03*
%TD*%
D14*
%TO.P,IC8,1,8*%
%TO.N,/N68*%
X220266000Y-110037000D03*
D15*
%TO.P,IC8,2,9*%
%TO.N,/N69*%
X222806000Y-110037000D03*
%TO.P,IC8,3,A*%
%TO.N,/A6*%
X225346000Y-110037000D03*
%TO.P,IC8,4,D*%
%TO.N,/D6*%
X227886000Y-110037000D03*
%TO.P,IC8,5,VCC*%
%TO.N,+5V*%
X230426000Y-110037000D03*
%TO.P,IC8,6,B*%
%TO.N,/B6*%
X232966000Y-110037000D03*
%TO.P,IC8,7,C*%
%TO.N,/C6*%
X235506000Y-110037000D03*
%TO.P,IC8,8,2*%
%TO.N,/N62*%
X238046000Y-110037000D03*
%TO.P,IC8,9,3*%
%TO.N,/N63*%
X238046000Y-102417000D03*
%TO.P,IC8,10,7*%
%TO.N,/N67*%
X235506000Y-102417000D03*
%TO.P,IC8,11,6*%
%TO.N,/N66*%
X232966000Y-102417000D03*
%TO.P,IC8,12,GND*%
%TO.N,GND*%
X230426000Y-102417000D03*
%TO.P,IC8,13,4*%
%TO.N,/N64*%
X227886000Y-102417000D03*
%TO.P,IC8,14,5*%
%TO.N,/N65*%
X225346000Y-102417000D03*
%TO.P,IC8,15,1*%
%TO.N,/N61*%
X222806000Y-102417000D03*
%TO.P,IC8,16,0*%
%TO.N,/N60*%
X220266000Y-102417000D03*
%TD*%
D14*
%TO.P,IC7,1,8*%
%TO.N,/N58*%
X195226000Y-110037000D03*
D15*
%TO.P,IC7,2,9*%
%TO.N,/N59*%
X197766000Y-110037000D03*
%TO.P,IC7,3,A*%
%TO.N,/A5*%
X200306000Y-110037000D03*
%TO.P,IC7,4,D*%
%TO.N,/D5*%
X202846000Y-110037000D03*
%TO.P,IC7,5,VCC*%
%TO.N,+5V*%
X205386000Y-110037000D03*
%TO.P,IC7,6,B*%
%TO.N,/B5*%
X207926000Y-110037000D03*
%TO.P,IC7,7,C*%
%TO.N,/C5*%
X210466000Y-110037000D03*
%TO.P,IC7,8,2*%
%TO.N,/N52*%
X213006000Y-110037000D03*
%TO.P,IC7,9,3*%
%TO.N,/N53*%
X213006000Y-102417000D03*
%TO.P,IC7,10,7*%
%TO.N,/N57*%
X210466000Y-102417000D03*
%TO.P,IC7,11,6*%
%TO.N,/N56*%
X207926000Y-102417000D03*
%TO.P,IC7,12,GND*%
%TO.N,GND*%
X205386000Y-102417000D03*
%TO.P,IC7,13,4*%
%TO.N,/N54*%
X202846000Y-102417000D03*
%TO.P,IC7,14,5*%
%TO.N,/N55*%
X200306000Y-102417000D03*
%TO.P,IC7,15,1*%
%TO.N,/N51*%
X197766000Y-102417000D03*
%TO.P,IC7,16,0*%
%TO.N,/N50*%
X195226000Y-102417000D03*
%TD*%
D14*
%TO.P,IC4,1,8*%
%TO.N,/N48*%
X159188600Y-110017000D03*
D15*
%TO.P,IC4,2,9*%
%TO.N,/N49*%
X161728600Y-110017000D03*
%TO.P,IC4,3,A*%
%TO.N,/A4*%
X164268600Y-110017000D03*
%TO.P,IC4,4,D*%
%TO.N,/D4*%
X166808600Y-110017000D03*
%TO.P,IC4,5,VCC*%
%TO.N,+5V*%
X169348600Y-110017000D03*
%TO.P,IC4,6,B*%
%TO.N,/B4*%
X171888600Y-110017000D03*
%TO.P,IC4,7,C*%
%TO.N,/C4*%
X174428600Y-110017000D03*
%TO.P,IC4,8,2*%
%TO.N,/N42*%
X176968600Y-110017000D03*
%TO.P,IC4,9,3*%
%TO.N,/N43*%
X176968600Y-102397000D03*
%TO.P,IC4,10,7*%
%TO.N,/N47*%
X174428600Y-102397000D03*
%TO.P,IC4,11,6*%
%TO.N,/N46*%
X171888600Y-102397000D03*
%TO.P,IC4,12,GND*%
%TO.N,GND*%
X169348600Y-102397000D03*
%TO.P,IC4,13,4*%
%TO.N,/N44*%
X166808600Y-102397000D03*
%TO.P,IC4,14,5*%
%TO.N,/N45*%
X164268600Y-102397000D03*
%TO.P,IC4,15,1*%
%TO.N,/N41*%
X161728600Y-102397000D03*
%TO.P,IC4,16,0*%
%TO.N,/N40*%
X159188600Y-102397000D03*
%TD*%
D14*
%TO.P,IC2,1,8*%
%TO.N,/N28*%
X98764600Y-110037000D03*
D15*
%TO.P,IC2,2,9*%
%TO.N,/N29*%
X101304600Y-110037000D03*
%TO.P,IC2,3,A*%
%TO.N,/A2*%
X103844600Y-110037000D03*
%TO.P,IC2,4,D*%
%TO.N,/D2*%
X106384600Y-110037000D03*
%TO.P,IC2,5,VCC*%
%TO.N,+5V*%
X108924600Y-110037000D03*
%TO.P,IC2,6,B*%
%TO.N,/B2*%
X111464600Y-110037000D03*
%TO.P,IC2,7,C*%
%TO.N,/C2*%
X114004600Y-110037000D03*
%TO.P,IC2,8,2*%
%TO.N,/N22*%
X116544600Y-110037000D03*
%TO.P,IC2,9,3*%
%TO.N,/N23*%
X116544600Y-102417000D03*
%TO.P,IC2,10,7*%
%TO.N,/N27*%
X114004600Y-102417000D03*
%TO.P,IC2,11,6*%
%TO.N,/N26*%
X111464600Y-102417000D03*
%TO.P,IC2,12,GND*%
%TO.N,GND*%
X108924600Y-102417000D03*
%TO.P,IC2,13,4*%
%TO.N,/N24*%
X106384600Y-102417000D03*
%TO.P,IC2,14,5*%
%TO.N,/N25*%
X103844600Y-102417000D03*
%TO.P,IC2,15,1*%
%TO.N,/N21*%
X101304600Y-102417000D03*
%TO.P,IC2,16,0*%
%TO.N,/N20*%
X98764600Y-102417000D03*
%TD*%
D14*
%TO.P,IC1,1,8*%
%TO.N,/N18*%
X73682600Y-110037000D03*
D15*
%TO.P,IC1,2,9*%
%TO.N,/N19*%
X76222600Y-110037000D03*
%TO.P,IC1,3,A*%
%TO.N,/A1*%
X78762600Y-110037000D03*
%TO.P,IC1,4,D*%
%TO.N,/D1*%
X81302600Y-110037000D03*
%TO.P,IC1,5,VCC*%
%TO.N,+5V*%
X83842600Y-110037000D03*
%TO.P,IC1,6,B*%
%TO.N,/B1*%
X86382600Y-110037000D03*
%TO.P,IC1,7,C*%
%TO.N,/C1*%
X88922600Y-110037000D03*
%TO.P,IC1,8,2*%
%TO.N,/N12*%
X91462600Y-110037000D03*
%TO.P,IC1,9,3*%
%TO.N,/N13*%
X91462600Y-102417000D03*
%TO.P,IC1,10,7*%
%TO.N,/N17*%
X88922600Y-102417000D03*
%TO.P,IC1,11,6*%
%TO.N,/N16*%
X86382600Y-102417000D03*
%TO.P,IC1,12,GND*%
%TO.N,GND*%
X83842600Y-102417000D03*
%TO.P,IC1,13,4*%
%TO.N,/N14*%
X81302600Y-102417000D03*
%TO.P,IC1,14,5*%
%TO.N,/N15*%
X78762600Y-102417000D03*
%TO.P,IC1,15,1*%
%TO.N,/N11*%
X76222600Y-102417000D03*
%TO.P,IC1,16,0*%
%TO.N,/N10*%
X73682600Y-102417000D03*
%TD*%
D20*
%TO.P,C6,1,1*%
%TO.N,+5V*%
X122450000Y-133000000D03*
%TO.P,C6,2,2*%
%TO.N,GND*%
X120550000Y-133000000D03*
%TD*%
D21*
%TO.P,C7,1,1*%
%TO.N,+5V*%
X165500000Y-125350000D03*
%TO.P,C7,2,2*%
%TO.N,GND*%
X165500000Y-127250000D03*
%TD*%
D22*
%TO.P,N6,0,0*%
%TO.N,/N60*%
X223895200Y-93252400D03*
%TO.P,N6,1,1*%
%TO.N,/N61*%
X234083600Y-93252400D03*
%TO.P,N6,2,2*%
%TO.N,/N62*%
X235134200Y-90482200D03*
%TO.P,N6,3,3*%
%TO.N,/N63*%
X234777100Y-87541100D03*
%TO.P,N6,4,4*%
%TO.N,/N64*%
X233094100Y-85102900D03*
%TO.P,N6,5,5*%
%TO.N,/N65*%
X230470700Y-83726000D03*
%TO.P,N6,6,6*%
%TO.N,/N66*%
X227508100Y-83726000D03*
%TO.P,N6,7,7*%
%TO.N,/N67*%
X224884700Y-85102900D03*
%TO.P,N6,8,8*%
%TO.N,/N68*%
X223201700Y-87541100D03*
%TO.P,N6,9,9*%
%TO.N,/N69*%
X222844600Y-90482200D03*
%TO.P,N6,A,A*%
%TO.N,/170V6*%
X228989400Y-95926000D03*
%TO.P,N6,LHDP,LHDP*%
%TO.N,unconnected-(N6-PadLHDP)*%
X226112800Y-95217000D03*
%TO.P,N6,RHDP,RHDP*%
%TO.N,unconnected-(N6-PadRHDP)*%
X231866000Y-95217000D03*
%TD*%
D21*
%TO.P,C1,1,1*%
%TO.N,+5V*%
X83842600Y-107567000D03*
%TO.P,C1,2,2*%
%TO.N,GND*%
X83842600Y-105667000D03*
%TD*%
%TO.P,C4,1,1*%
%TO.N,+5V*%
X169300000Y-107517000D03*
%TO.P,C4,2,2*%
%TO.N,GND*%
X169300000Y-105617000D03*
%TD*%
%TO.P,C9,1,1*%
%TO.N,+5V*%
X230434000Y-107517000D03*
%TO.P,C9,2,2*%
%TO.N,GND*%
X230434000Y-105617000D03*
%TD*%
D23*
%TO.P,J4,1,1*%
%TO.N,+12V*%
X225000000Y-137600000D03*
%TO.P,J4,2,2*%
%TO.N,GND*%
X227540000Y-137600000D03*
%TD*%
D24*
%TO.P,IC9,1,INPUT*%
%TO.N,+12V*%
X225000000Y-126000000D03*
D25*
%TO.P,IC9,2,GND*%
%TO.N,GND*%
X235276000Y-123460000D03*
D24*
%TO.P,IC9,3,OUTPUT*%
%TO.N,+5V*%
X225000000Y-120920000D03*
%TD*%
D21*
%TO.P,C2,1,1*%
%TO.N,+5V*%
X108934000Y-107667000D03*
%TO.P,C2,2,2*%
%TO.N,GND*%
X108934000Y-105767000D03*
%TD*%
D22*
%TO.P,N4,0,0*%
%TO.N,/N40*%
X162750400Y-93233300D03*
%TO.P,N4,1,1*%
%TO.N,/N41*%
X172938800Y-93233300D03*
%TO.P,N4,2,2*%
%TO.N,/N42*%
X173989400Y-90463100D03*
%TO.P,N4,3,3*%
%TO.N,/N43*%
X173632300Y-87522000D03*
%TO.P,N4,4,4*%
%TO.N,/N44*%
X171949300Y-85083800D03*
%TO.P,N4,5,5*%
%TO.N,/N45*%
X169325900Y-83706900D03*
%TO.P,N4,6,6*%
%TO.N,/N46*%
X166363300Y-83706900D03*
%TO.P,N4,7,7*%
%TO.N,/N47*%
X163739900Y-85083800D03*
%TO.P,N4,8,8*%
%TO.N,/N48*%
X162056900Y-87522000D03*
%TO.P,N4,9,9*%
%TO.N,/N49*%
X161699800Y-90463100D03*
%TO.P,N4,A,A*%
%TO.N,/170V4*%
X167844600Y-95906900D03*
%TO.P,N4,LHDP,LHDP*%
%TO.N,unconnected-(N4-PadLHDP)*%
X164968000Y-95197900D03*
%TO.P,N4,RHDP,RHDP*%
%TO.N,unconnected-(N4-PadRHDP)*%
X170721200Y-95197900D03*
%TD*%
D21*
%TO.P,R3,1,1*%
%TO.N,/170V3*%
X152534000Y-97100000D03*
%TO.P,R3,2,2*%
%TO.N,VCC*%
X152534000Y-99000000D03*
%TD*%
%TO.P,C3,1,1*%
%TO.N,+5V*%
X144300000Y-107517000D03*
%TO.P,C3,2,2*%
%TO.N,GND*%
X144300000Y-105617000D03*
%TD*%
%TO.P,C5,1,1*%
%TO.N,+5V*%
X134200000Y-123450000D03*
%TO.P,C5,2,2*%
%TO.N,GND*%
X134200000Y-121550000D03*
%TD*%
%TO.P,R8,1,1*%
%TO.N,/170V6*%
X239334000Y-97100000D03*
%TO.P,R8,2,2*%
%TO.N,VCC*%
X239334000Y-99000000D03*
%TD*%
%TO.P,R2,1,1*%
%TO.N,/170V2*%
X117534000Y-97100000D03*
%TO.P,R2,2,2*%
%TO.N,VCC*%
X117534000Y-99000000D03*
%TD*%
%TO.P,C10,1,1*%
%TO.N,+12V*%
X219238000Y-126010000D03*
%TO.P,C10,2,2*%
%TO.N,GND*%
X219238000Y-127910000D03*
%TD*%
%TO.P,R4,1,1*%
%TO.N,/170V4*%
X177834000Y-97100000D03*
%TO.P,R4,2,2*%
%TO.N,VCC*%
X177834000Y-99000000D03*
%TD*%
%TO.P,R7,1,1*%
%TO.N,/170V5*%
X213534000Y-97100000D03*
%TO.P,R7,2,2*%
%TO.N,VCC*%
X213534000Y-99000000D03*
%TD*%
%TO.P,R1,1,1*%
%TO.N,/170V1*%
X92000000Y-97100000D03*
%TO.P,R1,2,2*%
%TO.N,VCC*%
X92000000Y-99000000D03*
%TD*%
D23*
%TO.P,J3,1,1*%
%TO.N,VCC*%
X210000000Y-137500000D03*
%TO.P,J3,2,2*%
%TO.N,GND*%
X212540000Y-137500000D03*
%TD*%
D22*
%TO.P,N5,0,0*%
%TO.N,/N50*%
X198506000Y-93233300D03*
%TO.P,N5,1,1*%
%TO.N,/N51*%
X208694400Y-93233300D03*
%TO.P,N5,2,2*%
%TO.N,/N52*%
X209745000Y-90463100D03*
%TO.P,N5,3,3*%
%TO.N,/N53*%
X209387900Y-87522000D03*
%TO.P,N5,4,4*%
%TO.N,/N54*%
X207704900Y-85083800D03*
%TO.P,N5,5,5*%
%TO.N,/N55*%
X205081500Y-83706900D03*
%TO.P,N5,6,6*%
%TO.N,/N56*%
X202118900Y-83706900D03*
%TO.P,N5,7,7*%
%TO.N,/N57*%
X199495500Y-85083800D03*
%TO.P,N5,8,8*%
%TO.N,/N58*%
X197812500Y-87522000D03*
%TO.P,N5,9,9*%
%TO.N,/N59*%
X197455400Y-90463100D03*
%TO.P,N5,A,A*%
%TO.N,/170V5*%
X203600200Y-95906900D03*
%TO.P,N5,LHDP,LHDP*%
%TO.N,unconnected-(N5-PadLHDP)*%
X200723600Y-95197900D03*
%TO.P,N5,RHDP,RHDP*%
%TO.N,unconnected-(N5-PadRHDP)*%
X206476800Y-95197900D03*
%TD*%
D21*
%TO.P,C11,1,1*%
%TO.N,+5V*%
X219538000Y-120910000D03*
%TO.P,C11,2,2*%
%TO.N,GND*%
X219538000Y-122810000D03*
%TD*%
%TO.P,C8,1,1*%
%TO.N,+5V*%
X205434000Y-107467000D03*
%TO.P,C8,2,2*%
%TO.N,GND*%
X205434000Y-105567000D03*
%TD*%
D22*
%TO.P,N3,0,0*%
%TO.N,/N30*%
X137428600Y-93233300D03*
%TO.P,N3,1,1*%
%TO.N,/N31*%
X147617000Y-93233300D03*
%TO.P,N3,2,2*%
%TO.N,/N32*%
X148667600Y-90463100D03*
%TO.P,N3,3,3*%
%TO.N,/N33*%
X148310500Y-87522000D03*
%TO.P,N3,4,4*%
%TO.N,/N34*%
X146627500Y-85083800D03*
%TO.P,N3,5,5*%
%TO.N,/N35*%
X144004100Y-83706900D03*
%TO.P,N3,6,6*%
%TO.N,/N36*%
X141041500Y-83706900D03*
%TO.P,N3,7,7*%
%TO.N,/N37*%
X138418100Y-85083800D03*
%TO.P,N3,8,8*%
%TO.N,/N38*%
X136735100Y-87522000D03*
%TO.P,N3,9,9*%
%TO.N,/N39*%
X136378000Y-90463100D03*
%TO.P,N3,A,A*%
%TO.N,/170V3*%
X142522800Y-95906900D03*
%TO.P,N3,LHDP,LHDP*%
%TO.N,unconnected-(N3-PadLHDP)*%
X139646200Y-95197900D03*
%TO.P,N3,RHDP,RHDP*%
%TO.N,unconnected-(N3-PadRHDP)*%
X145399400Y-95197900D03*
%TD*%
%TO.P,N1,0,0*%
%TO.N,/N10*%
X76984600Y-93233300D03*
%TO.P,N1,1,1*%
%TO.N,/N11*%
X87173000Y-93233300D03*
%TO.P,N1,2,2*%
%TO.N,/N12*%
X88223600Y-90463100D03*
%TO.P,N1,3,3*%
%TO.N,/N13*%
X87866500Y-87522000D03*
%TO.P,N1,4,4*%
%TO.N,/N14*%
X86183500Y-85083800D03*
%TO.P,N1,5,5*%
%TO.N,/N15*%
X83560100Y-83706900D03*
%TO.P,N1,6,6*%
%TO.N,/N16*%
X80597500Y-83706900D03*
%TO.P,N1,7,7*%
%TO.N,/N17*%
X77974100Y-85083800D03*
%TO.P,N1,8,8*%
%TO.N,/N18*%
X76291100Y-87522000D03*
%TO.P,N1,9,9*%
%TO.N,/N19*%
X75934000Y-90463100D03*
%TO.P,N1,A,A*%
%TO.N,/170V1*%
X82078800Y-95906900D03*
%TO.P,N1,LHDP,LHDP*%
%TO.N,unconnected-(N1-PadLHDP)*%
X79202200Y-95197900D03*
%TO.P,N1,RHDP,RHDP*%
%TO.N,unconnected-(N1-PadRHDP)*%
X84955400Y-95197900D03*
%TD*%
%TO.P,N2,0,0*%
%TO.N,/N20*%
X102306400Y-93233300D03*
%TO.P,N2,1,1*%
%TO.N,/N21*%
X112494800Y-93233300D03*
%TO.P,N2,2,2*%
%TO.N,/N22*%
X113545400Y-90463100D03*
%TO.P,N2,3,3*%
%TO.N,/N23*%
X113188300Y-87522000D03*
%TO.P,N2,4,4*%
%TO.N,/N24*%
X111505300Y-85083800D03*
%TO.P,N2,5,5*%
%TO.N,/N25*%
X108881900Y-83706900D03*
%TO.P,N2,6,6*%
%TO.N,/N26*%
X105919300Y-83706900D03*
%TO.P,N2,7,7*%
%TO.N,/N27*%
X103295900Y-85083800D03*
%TO.P,N2,8,8*%
%TO.N,/N28*%
X101612900Y-87522000D03*
%TO.P,N2,9,9*%
%TO.N,/N29*%
X101255800Y-90463100D03*
%TO.P,N2,A,A*%
%TO.N,/170V2*%
X107400600Y-95906900D03*
%TO.P,N2,LHDP,LHDP*%
%TO.N,unconnected-(N2-PadLHDP)*%
X104524000Y-95197900D03*
%TO.P,N2,RHDP,RHDP*%
%TO.N,unconnected-(N2-PadRHDP)*%
X110277200Y-95197900D03*
%TD*%
D26*
%TO.N,GND*%
X236303099Y-106381234D03*
X200000000Y-105900000D03*
X211200000Y-106000000D03*
X176200000Y-105700000D03*
X163700000Y-106200000D03*
X116000000Y-105600000D03*
X79800000Y-106600000D03*
X88000000Y-105600000D03*
X97400000Y-131900000D03*
X66900000Y-134000000D03*
X237400000Y-139900000D03*
X203065248Y-114954434D03*
X207200000Y-115700000D03*
X194300000Y-133200000D03*
X194100000Y-138700000D03*
X241700000Y-108800000D03*
X240700000Y-112500000D03*
X229100000Y-91900000D03*
X229100000Y-94000000D03*
X203500000Y-91600000D03*
X203700000Y-93800000D03*
X164600000Y-92000000D03*
X173000000Y-95400000D03*
X139600000Y-91600000D03*
X104586407Y-91953744D03*
X110300000Y-91600000D03*
X94300000Y-85600000D03*
X129300000Y-88400000D03*
X217700000Y-88900000D03*
X214200000Y-88800000D03*
X182800000Y-88400000D03*
X187200000Y-88700000D03*
X184600000Y-97400000D03*
X154700000Y-94100000D03*
X156800000Y-85800000D03*
X153300000Y-88400000D03*
X138300000Y-106200000D03*
X162006631Y-79153211D03*
X169400000Y-79300000D03*
X186700000Y-79500000D03*
X243600000Y-89200000D03*
X215600000Y-106100000D03*
X221500000Y-106000000D03*
X165800000Y-140000000D03*
X173700000Y-140200000D03*
X78600000Y-90000000D03*
X84944654Y-91362073D03*
X92600000Y-88700000D03*
X112500000Y-100200000D03*
X118200000Y-92500000D03*
X118400000Y-87900000D03*
X150400000Y-105800000D03*
X146200000Y-114200000D03*
X123600000Y-127200000D03*
X136600000Y-128900000D03*
X157500000Y-114400000D03*
X153400000Y-112500000D03*
X214600000Y-85800000D03*
X217600000Y-116400000D03*
X213800000Y-117400000D03*
X213700000Y-114000000D03*
X220000000Y-114400000D03*
X185800000Y-115100000D03*
X197700000Y-114500000D03*
X177100000Y-112700000D03*
X181600000Y-110600000D03*
X186800000Y-110300000D03*
X187000000Y-100900000D03*
X186800000Y-104400000D03*
X183000000Y-102600000D03*
X153700000Y-86200000D03*
X139900000Y-79600000D03*
X148200000Y-80100000D03*
X155100000Y-82100000D03*
X160400000Y-81200000D03*
X176500000Y-81900000D03*
X180700000Y-83000000D03*
X190500000Y-83200000D03*
X195600000Y-82300000D03*
X214099539Y-82395528D03*
X219442935Y-82566062D03*
X240600000Y-87900000D03*
X245600000Y-91700000D03*
X245400000Y-99600000D03*
X245800000Y-106900000D03*
X246100000Y-112800000D03*
X246000000Y-118500000D03*
X246400000Y-125700000D03*
X245800000Y-133600000D03*
X235200000Y-141400000D03*
X217300000Y-139300000D03*
X191400000Y-139300000D03*
X199200000Y-137400000D03*
X198200000Y-133200000D03*
X200039688Y-140835748D03*
X205200000Y-138300000D03*
X220500000Y-137400000D03*
X216700000Y-135700000D03*
X190200000Y-128200000D03*
X195600000Y-127700000D03*
X201500000Y-127900000D03*
X209700000Y-127700000D03*
X178800000Y-126300000D03*
X183000000Y-125600000D03*
X186400000Y-132000000D03*
X184700000Y-136400000D03*
X182200000Y-141000000D03*
X177800000Y-139500000D03*
X178045903Y-136356483D03*
X169100000Y-135200000D03*
X161500000Y-135300000D03*
X153200000Y-135200000D03*
X149000000Y-123700000D03*
X152600000Y-123700000D03*
X154500000Y-127400000D03*
X145100000Y-135500000D03*
X137400000Y-135300000D03*
X128200000Y-136200000D03*
X105100000Y-131800000D03*
X110100000Y-131700000D03*
X89600000Y-131300000D03*
X67900000Y-110000000D03*
X66900000Y-104500000D03*
X66800000Y-99600000D03*
X66900000Y-94500000D03*
X66700000Y-89000000D03*
X94749079Y-82373610D03*
X97700000Y-82700000D03*
X91158587Y-82804469D03*
X92300000Y-86000000D03*
X129000000Y-85800000D03*
X125724732Y-83994689D03*
X128750866Y-83187721D03*
X132400000Y-83600000D03*
X133100000Y-79800000D03*
X125700000Y-79600000D03*
X122500000Y-81600000D03*
X123200000Y-84700000D03*
X117100000Y-82900000D03*
X118700000Y-85600000D03*
X122800000Y-87800000D03*
X127100000Y-89100000D03*
X123700000Y-92600000D03*
X127400000Y-92500000D03*
X127200000Y-96000000D03*
X124600000Y-96200000D03*
X131400000Y-111000000D03*
X127600000Y-110100000D03*
X123900000Y-101100000D03*
X127300000Y-101900000D03*
X125500000Y-104800000D03*
X124800000Y-111000000D03*
X118900000Y-111000000D03*
X97400000Y-112300000D03*
X93400000Y-111600000D03*
X74300000Y-112900000D03*
X67600000Y-113000000D03*
X71198870Y-131671092D03*
X74100000Y-141700000D03*
X111100000Y-142300000D03*
X116800000Y-142100000D03*
X124000000Y-142100000D03*
X102300000Y-142000000D03*
X91300000Y-142200000D03*
X80400000Y-142200000D03*
X80200000Y-131000000D03*
X84600000Y-129300000D03*
X89200000Y-129200000D03*
X94200000Y-129300000D03*
X100700000Y-130100000D03*
X107800000Y-128500000D03*
X113600000Y-128500000D03*
X117800000Y-128800000D03*
X119100000Y-123600000D03*
X116100000Y-124100000D03*
X109600000Y-124000000D03*
X103900000Y-124000000D03*
X95600000Y-123800000D03*
X89500000Y-123900000D03*
X82300000Y-123900000D03*
X73600000Y-117300000D03*
X128000000Y-117900000D03*
X129000000Y-120200000D03*
X138078439Y-118984504D03*
X136700000Y-116600000D03*
X132900000Y-116300000D03*
X165500000Y-128900000D03*
X215800000Y-128100000D03*
X241800000Y-116600000D03*
X159800000Y-126500000D03*
X174100000Y-130400000D03*
X134200000Y-118500000D03*
X137600000Y-126300000D03*
D27*
X235300000Y-134600000D03*
D26*
X241700000Y-128100000D03*
X237700000Y-115700000D03*
X215800000Y-125300000D03*
D28*
%TO.N,Net-(IC6-VBAT)*%
X143400000Y-127200000D03*
%TO.N,+5V*%
X163900000Y-125350000D03*
X128500000Y-123600000D03*
D29*
X132800000Y-123700000D03*
D28*
%TO.N,/N15*%
X80700000Y-93800000D03*
%TO.N,/N14*%
X78800000Y-91700000D03*
%TO.N,/N16*%
X83400000Y-87800000D03*
X83400000Y-93800000D03*
%TO.N,/N12*%
X93100000Y-90400000D03*
%TO.N,/N25*%
X106000000Y-93800000D03*
%TO.N,/N24*%
X108700000Y-93800000D03*
%TO.N,/N27*%
X95900000Y-85200000D03*
%TO.N,/N22*%
X119700000Y-90500000D03*
%TO.N,/N29*%
X118100000Y-104400000D03*
X118000000Y-89100000D03*
X121200000Y-100400000D03*
X110900000Y-89100000D03*
%TO.N,/N28*%
X94400000Y-87522000D03*
%TO.N,/N35*%
X141200000Y-93800000D03*
%TO.N,/N34*%
X143800000Y-93700000D03*
%TO.N,/N32*%
X153600000Y-90400000D03*
%TO.N,/N39*%
X129600000Y-90500000D03*
%TO.N,/N38*%
X131300000Y-87500000D03*
%TO.N,/N45*%
X166600000Y-93800000D03*
%TO.N,/N44*%
X169200000Y-93700000D03*
%TO.N,/N42*%
X179500000Y-90500000D03*
%TO.N,/N49*%
X155800000Y-90400000D03*
%TO.N,/N48*%
X156700000Y-87500000D03*
%TO.N,/RST*%
X167100000Y-129700000D03*
%TO.N,/S4*%
X157600000Y-137100000D03*
%TO.N,/SCL1*%
X128400000Y-112400000D03*
%TO.N,/SDA1*%
X145000000Y-127700000D03*
X115100000Y-114400000D03*
X165600000Y-130400000D03*
%TO.N,/N52*%
X214500000Y-90500000D03*
%TO.N,/N54*%
X205100000Y-93700000D03*
%TO.N,/N55*%
X202300000Y-93700000D03*
%TO.N,/N58*%
X192100000Y-87600000D03*
%TO.N,/N59*%
X190000000Y-90500000D03*
%TO.N,/N62*%
X241900000Y-90500000D03*
%TO.N,/N64*%
X230500000Y-93700000D03*
%TO.N,/N65*%
X227700000Y-93700000D03*
%TO.N,/N67*%
X221000000Y-104700000D03*
X215600000Y-104700000D03*
%TO.N,/N69*%
X217100000Y-90500000D03*
%TO.N,/S5*%
X166000000Y-137200000D03*
%TO.N,/S6*%
X173700000Y-137200000D03*
%TD*%
D30*
%TO.N,VCC*%
X210000000Y-137500000D02*
X210000000Y-139600000D01*
X244000000Y-101000000D02*
X242000000Y-99000000D01*
X210000000Y-139600000D02*
X211800000Y-141400000D01*
X240500000Y-133000000D02*
X242400000Y-133000000D01*
X232100000Y-141400000D02*
X240500000Y-133000000D01*
X211800000Y-141400000D02*
X232100000Y-141400000D01*
X242400000Y-133000000D02*
X244000000Y-131400000D01*
X244000000Y-131400000D02*
X244000000Y-101000000D01*
X242000000Y-99000000D02*
X239334000Y-99000000D01*
X213534000Y-99000000D02*
X239334000Y-99000000D01*
X152534000Y-99000000D02*
X117534000Y-99000000D01*
X177834000Y-99000000D02*
X152534000Y-99000000D01*
X177834000Y-99000000D02*
X213534000Y-99000000D01*
X92000000Y-99000000D02*
X117534000Y-99000000D01*
D31*
%TO.N,GND*%
X83842600Y-105667000D02*
X83842600Y-102417000D01*
X120200000Y-135660000D02*
X119860000Y-136000000D01*
X205434000Y-105567000D02*
X205434000Y-102465000D01*
X230434000Y-102425000D02*
X230426000Y-102417000D01*
X108934000Y-105767000D02*
X108934000Y-102426400D01*
D30*
X219538000Y-122810000D02*
X216890000Y-122810000D01*
D31*
X144300000Y-105617000D02*
X144300000Y-102430400D01*
X169300000Y-105617000D02*
X169300000Y-102445600D01*
X235276000Y-134576000D02*
X235276000Y-123460000D01*
X235300000Y-134600000D02*
X235276000Y-134576000D01*
D32*
X134200000Y-118500000D02*
X134200000Y-121550000D01*
X219048000Y-128100000D02*
X219238000Y-127910000D01*
D31*
X120550000Y-133000000D02*
X120200000Y-133350000D01*
X205434000Y-102465000D02*
X205386000Y-102417000D01*
X120200000Y-133350000D02*
X120200000Y-135660000D01*
X108934000Y-102426400D02*
X108924600Y-102417000D01*
D30*
X216890000Y-122810000D02*
X215800000Y-123900000D01*
X215800000Y-128100000D02*
X219048000Y-128100000D01*
D31*
X144300000Y-102430400D02*
X144286600Y-102417000D01*
D32*
X165500000Y-127250000D02*
X165500000Y-128900000D01*
D31*
X169300000Y-102445600D02*
X169348600Y-102397000D01*
D30*
X215800000Y-123900000D02*
X215800000Y-125300000D01*
D31*
X230434000Y-105617000D02*
X230434000Y-102425000D01*
D32*
%TO.N,Net-(IC6-VBAT)*%
X143400000Y-127900000D02*
X143400000Y-127200000D01*
X179100000Y-132000000D02*
X147500000Y-132000000D01*
X147500000Y-132000000D02*
X143400000Y-127900000D01*
X190900000Y-120200000D02*
X179100000Y-132000000D01*
X190900000Y-114930000D02*
X190900000Y-120200000D01*
D31*
%TO.N,+5V*%
X128500000Y-133000000D02*
X127900000Y-133000000D01*
X226300000Y-116400000D02*
X221500000Y-116400000D01*
X144150000Y-107667000D02*
X144300000Y-107517000D01*
X230434000Y-110029000D02*
X230426000Y-110037000D01*
X108934000Y-107667000D02*
X83942600Y-107667000D01*
X169300000Y-107517000D02*
X169300000Y-109968400D01*
X108934000Y-107667000D02*
X108934000Y-110027600D01*
X205434000Y-109989000D02*
X205386000Y-110037000D01*
D32*
X165500000Y-123600000D02*
X165500000Y-125350000D01*
D31*
X169300000Y-107517000D02*
X205384000Y-107517000D01*
X230426000Y-112274000D02*
X226300000Y-116400000D01*
D32*
X169348600Y-110017000D02*
X169348600Y-119751400D01*
D31*
X230384000Y-107467000D02*
X230434000Y-107517000D01*
X225000000Y-120920000D02*
X219548000Y-120920000D01*
X122450000Y-133000000D02*
X122450000Y-135950000D01*
X188200000Y-125600000D02*
X180800000Y-133000000D01*
X219538000Y-118362000D02*
X219538000Y-120910000D01*
D32*
X128500000Y-132400000D02*
X128500000Y-133000000D01*
D31*
X180800000Y-133000000D02*
X129100000Y-133000000D01*
D32*
X128500000Y-132400000D02*
X127900000Y-133000000D01*
D31*
X215990000Y-120910000D02*
X211300000Y-125600000D01*
X108934000Y-110027600D02*
X108924600Y-110037000D01*
D32*
X169348600Y-119751400D02*
X165500000Y-123600000D01*
D31*
X144300000Y-107517000D02*
X169300000Y-107517000D01*
X205384000Y-107517000D02*
X205434000Y-107467000D01*
X83942600Y-107667000D02*
X83842600Y-107567000D01*
D32*
X128500000Y-132400000D02*
X129100000Y-133000000D01*
X133950000Y-123700000D02*
X134200000Y-123450000D01*
D31*
X169300000Y-109968400D02*
X169348600Y-110017000D01*
X122450000Y-135950000D02*
X122400000Y-136000000D01*
X144300000Y-107517000D02*
X144300000Y-110023600D01*
X221500000Y-116400000D02*
X219538000Y-118362000D01*
X83842600Y-107567000D02*
X83842600Y-110037000D01*
X211300000Y-125600000D02*
X188200000Y-125600000D01*
X129100000Y-133000000D02*
X128500000Y-133000000D01*
X108934000Y-107667000D02*
X144150000Y-107667000D01*
X230426000Y-110037000D02*
X230426000Y-112274000D01*
X219538000Y-120910000D02*
X215990000Y-120910000D01*
D32*
X132800000Y-123700000D02*
X133950000Y-123700000D01*
D31*
X205434000Y-107467000D02*
X205434000Y-109989000D01*
X205434000Y-107467000D02*
X230384000Y-107467000D01*
D32*
X128500000Y-123600000D02*
X128500000Y-132400000D01*
D31*
X230434000Y-107517000D02*
X230434000Y-110029000D01*
X127900000Y-133000000D02*
X122450000Y-133000000D01*
X144300000Y-110023600D02*
X144286600Y-110037000D01*
D32*
X163900000Y-125350000D02*
X165500000Y-125350000D01*
D33*
%TO.N,/N15*%
X80700000Y-93800000D02*
X80700000Y-89100000D01*
X80700000Y-89100000D02*
X83560100Y-86239900D01*
X83560100Y-86239900D02*
X83560100Y-83706900D01*
%TO.N,/N14*%
X78739002Y-93660998D02*
X76700000Y-95700000D01*
X80200000Y-99600000D02*
X81302600Y-100702600D01*
X81302600Y-100702600D02*
X81302600Y-102417000D01*
X78739002Y-91760998D02*
X78739002Y-93660998D01*
X78800000Y-91700000D02*
X78739002Y-91760998D01*
X76700000Y-98000000D02*
X78300000Y-99600000D01*
X78300000Y-99600000D02*
X80200000Y-99600000D01*
X76700000Y-95700000D02*
X76700000Y-98000000D01*
%TO.N,/N16*%
X83400000Y-93800000D02*
X83400000Y-87800000D01*
%TO.N,/N12*%
X93100000Y-90400000D02*
X93036900Y-90463100D01*
X93036900Y-90463100D02*
X88223600Y-90463100D01*
%TO.N,/N19*%
X71636900Y-90463100D02*
X75934000Y-90463100D01*
X71200000Y-90900000D02*
X71636900Y-90463100D01*
X71200000Y-104500000D02*
X71200000Y-90900000D01*
X76222600Y-110037000D02*
X76222600Y-107522600D01*
X76222600Y-107522600D02*
X74300000Y-105600000D01*
X74300000Y-105600000D02*
X72300000Y-105600000D01*
X72300000Y-105600000D02*
X71200000Y-104500000D01*
%TO.N,/N18*%
X70178000Y-87522000D02*
X76291100Y-87522000D01*
X68800000Y-88900000D02*
X70178000Y-87522000D01*
X73682600Y-110037000D02*
X72137000Y-110037000D01*
X68800000Y-106700000D02*
X68800000Y-88900000D01*
X72137000Y-110037000D02*
X68800000Y-106700000D01*
%TO.N,/N25*%
X106000000Y-93800000D02*
X106000000Y-88500000D01*
X108881900Y-85618100D02*
X108881900Y-83706900D01*
X106000000Y-88500000D02*
X108881900Y-85618100D01*
%TO.N,/N24*%
X111505300Y-86994700D02*
X111505300Y-85083800D01*
X108700000Y-93800000D02*
X108700000Y-89800000D01*
X108700000Y-89800000D02*
X111505300Y-86994700D01*
%TO.N,/N27*%
X95900000Y-85200000D02*
X96016200Y-85083800D01*
X96016200Y-85083800D02*
X103295900Y-85083800D01*
%TO.N,/N22*%
X119663100Y-90463100D02*
X113545400Y-90463100D01*
X119700000Y-90500000D02*
X119663100Y-90463100D01*
%TO.N,/N29*%
X118100000Y-104400000D02*
X119400000Y-104400000D01*
X119400000Y-104400000D02*
X121200000Y-102600000D01*
X121200000Y-102600000D02*
X121200000Y-100400000D01*
X118000000Y-89100000D02*
X110900000Y-89100000D01*
%TO.N,/N28*%
X94400000Y-87522000D02*
X101612900Y-87522000D01*
%TO.N,/N35*%
X141200000Y-91400000D02*
X144004100Y-88595900D01*
X141200000Y-93800000D02*
X141200000Y-91400000D01*
X144004100Y-88595900D02*
X144004100Y-83706900D01*
%TO.N,/N34*%
X143800000Y-91100000D02*
X146627500Y-88272500D01*
X143800000Y-93700000D02*
X143800000Y-91100000D01*
X146627500Y-88272500D02*
X146627500Y-85083800D01*
%TO.N,/N32*%
X153536900Y-90463100D02*
X148667600Y-90463100D01*
X153600000Y-90400000D02*
X153536900Y-90463100D01*
%TO.N,/N39*%
X129600000Y-90500000D02*
X129636900Y-90463100D01*
X129636900Y-90463100D02*
X136378000Y-90463100D01*
%TO.N,/N38*%
X131322000Y-87522000D02*
X136735100Y-87522000D01*
X131300000Y-87500000D02*
X131322000Y-87522000D01*
%TO.N,/N45*%
X169200000Y-83832800D02*
X169325900Y-83706900D01*
X166600000Y-93800000D02*
X166600000Y-88700000D01*
X169200000Y-86100000D02*
X169200000Y-83832800D01*
X166600000Y-88700000D02*
X169200000Y-86100000D01*
%TO.N,/N44*%
X169200000Y-93700000D02*
X169200000Y-89800000D01*
X171949300Y-87050700D02*
X171949300Y-85083800D01*
X169200000Y-89800000D02*
X171949300Y-87050700D01*
%TO.N,/N42*%
X179500000Y-90500000D02*
X179463100Y-90463100D01*
X179463100Y-90463100D02*
X173989400Y-90463100D01*
%TO.N,/N49*%
X155863100Y-90463100D02*
X161699800Y-90463100D01*
X155800000Y-90400000D02*
X155863100Y-90463100D01*
%TO.N,/N48*%
X156700000Y-87500000D02*
X156722000Y-87522000D01*
X156722000Y-87522000D02*
X162056900Y-87522000D01*
D31*
%TO.N,+12V*%
X224938000Y-137360000D02*
X224938000Y-126062000D01*
X224938000Y-126062000D02*
X225000000Y-126000000D01*
X225000000Y-126000000D02*
X219248000Y-126000000D01*
X219248000Y-126000000D02*
X219238000Y-126010000D01*
D33*
%TO.N,/RST*%
X152300000Y-129800000D02*
X135900000Y-113400000D01*
X135900000Y-113400000D02*
X118700000Y-113400000D01*
X167100000Y-129700000D02*
X167000000Y-129800000D01*
X167000000Y-129800000D02*
X152300000Y-129800000D01*
X118700000Y-113400000D02*
X117320000Y-114780000D01*
X117320000Y-114780000D02*
X117320000Y-118220000D01*
D30*
%TO.N,/170V1*%
X91600000Y-97500000D02*
X82800000Y-97500000D01*
X92000000Y-97100000D02*
X91600000Y-97500000D01*
X82800000Y-97500000D02*
X82078800Y-96778800D01*
X82078800Y-96778800D02*
X82078800Y-95906900D01*
%TO.N,/170V2*%
X117134000Y-97500000D02*
X108000000Y-97500000D01*
X117534000Y-97100000D02*
X117134000Y-97500000D01*
X107400600Y-96900600D02*
X107400600Y-95906900D01*
X108000000Y-97500000D02*
X107400600Y-96900600D01*
%TO.N,/170V3*%
X152534000Y-97100000D02*
X152134000Y-97500000D01*
X142522800Y-97022800D02*
X142522800Y-95906900D01*
X143000000Y-97500000D02*
X142522800Y-97022800D01*
X152134000Y-97500000D02*
X143000000Y-97500000D01*
%TO.N,/170V4*%
X177834000Y-97100000D02*
X177434000Y-97500000D01*
X177434000Y-97500000D02*
X168400000Y-97500000D01*
X167844600Y-96944600D02*
X167844600Y-95906900D01*
X168400000Y-97500000D02*
X167844600Y-96944600D01*
D33*
%TO.N,/S4*%
X84700000Y-139300000D02*
X154600000Y-139300000D01*
X84300000Y-136000000D02*
X84300000Y-138900000D01*
X154600000Y-139300000D02*
X156800000Y-137100000D01*
X84300000Y-138900000D02*
X84700000Y-139300000D01*
X156800000Y-137100000D02*
X157600000Y-137100000D01*
%TO.N,/SCL1*%
X116500000Y-113400000D02*
X117400000Y-112500000D01*
X76680000Y-115020000D02*
X78300000Y-113400000D01*
X78300000Y-113400000D02*
X116500000Y-113400000D01*
X128300000Y-112500000D02*
X128400000Y-112400000D01*
X117400000Y-112500000D02*
X128300000Y-112500000D01*
X76680000Y-118220000D02*
X76680000Y-115020000D01*
%TO.N,/SDA1*%
X165600000Y-130400000D02*
X165600000Y-130900000D01*
X165300000Y-131200000D02*
X148900000Y-131200000D01*
X165600000Y-130900000D02*
X165300000Y-131200000D01*
X79220000Y-118220000D02*
X79220000Y-115280000D01*
X148900000Y-131200000D02*
X145400000Y-127700000D01*
X80100000Y-114400000D02*
X115100000Y-114400000D01*
X145400000Y-127700000D02*
X145000000Y-127700000D01*
X79220000Y-115280000D02*
X80100000Y-114400000D01*
%TO.N,/N52*%
X214463100Y-90463100D02*
X209745000Y-90463100D01*
X214500000Y-90500000D02*
X214463100Y-90463100D01*
%TO.N,/N54*%
X205100000Y-93700000D02*
X205100000Y-89700000D01*
X207704900Y-87095100D02*
X207704900Y-85083800D01*
X205100000Y-89700000D02*
X207704900Y-87095100D01*
%TO.N,/N55*%
X202300000Y-93700000D02*
X202300000Y-89600000D01*
X202300000Y-89600000D02*
X205081500Y-86818500D01*
X205081500Y-86818500D02*
X205081500Y-83706900D01*
%TO.N,/N58*%
X192178000Y-87522000D02*
X197812500Y-87522000D01*
X192100000Y-87600000D02*
X192178000Y-87522000D01*
%TO.N,/N59*%
X190000000Y-90500000D02*
X190036900Y-90463100D01*
X190036900Y-90463100D02*
X197455400Y-90463100D01*
D32*
%TO.N,/170V5*%
X213534000Y-97100000D02*
X213134000Y-97500000D01*
X203600200Y-96900200D02*
X203600200Y-95906900D01*
X204200000Y-97500000D02*
X203600200Y-96900200D01*
X213134000Y-97500000D02*
X204200000Y-97500000D01*
D33*
%TO.N,/N62*%
X241900000Y-90500000D02*
X241882200Y-90482200D01*
X241882200Y-90482200D02*
X235134200Y-90482200D01*
%TO.N,/N64*%
X230500000Y-89900000D02*
X233094100Y-87305900D01*
X233094100Y-87305900D02*
X233094100Y-85102900D01*
X230500000Y-93700000D02*
X230500000Y-89900000D01*
%TO.N,/N65*%
X227700000Y-93700000D02*
X227700000Y-89100000D01*
X227700000Y-89100000D02*
X230470700Y-86329300D01*
X230470700Y-86329300D02*
X230470700Y-83726000D01*
%TO.N,/N67*%
X221000000Y-104700000D02*
X215600000Y-104700000D01*
%TO.N,/N69*%
X217100000Y-90500000D02*
X217117800Y-90482200D01*
X217117800Y-90482200D02*
X222844600Y-90482200D01*
D30*
%TO.N,/170V6*%
X229600000Y-97500000D02*
X228989400Y-96889400D01*
X228989400Y-96889400D02*
X228989400Y-95926000D01*
X238934000Y-97500000D02*
X229600000Y-97500000D01*
X239334000Y-97100000D02*
X238934000Y-97500000D01*
D33*
%TO.N,/TX*%
X122400000Y-120300000D02*
X120700000Y-122000000D01*
X120700000Y-122000000D02*
X70000000Y-122000000D01*
X122400000Y-118220000D02*
X122400000Y-120300000D01*
%TO.N,/S5*%
X157300000Y-140100000D02*
X158800000Y-138600000D01*
X163900000Y-138600000D02*
X165300000Y-137200000D01*
X79220000Y-138820000D02*
X80500000Y-140100000D01*
X158800000Y-138600000D02*
X163900000Y-138600000D01*
X165300000Y-137200000D02*
X166000000Y-137200000D01*
X79220000Y-136000000D02*
X79220000Y-138820000D01*
X80500000Y-140100000D02*
X157300000Y-140100000D01*
%TO.N,/S6*%
X76680000Y-138980000D02*
X78600000Y-140900000D01*
X76680000Y-136000000D02*
X76680000Y-138980000D01*
X172600000Y-137800000D02*
X173200000Y-137200000D01*
X170900000Y-140900000D02*
X172600000Y-139200000D01*
X173200000Y-137200000D02*
X173700000Y-137200000D01*
X172600000Y-139200000D02*
X172600000Y-137800000D01*
X78600000Y-140900000D02*
X170900000Y-140900000D01*
%TD*%
M02*
