%TF.GenerationSoftware,KiCad,Pcbnew,7.0.5-0*%
%TF.CreationDate,2023-07-08T10:36:10-04:00*%
%TF.ProjectId,nixie,6e697869-652e-46b6-9963-61645f706362,rev?*%
%TF.SameCoordinates,Original*%
%TF.FileFunction,Drillmap*%
%TF.FilePolarity,Positive*%
%FSLAX45Y45*%
G04 Gerber Fmt 4.5, Leading zero omitted, Abs format (unit mm)*
G04 Created by KiCad (PCBNEW 7.0.5-0) date 2023-07-08 10:36:10*
%MOMM*%
%LPD*%
G01*
G04 APERTURE LIST*
%ADD10C,0.050000*%
%ADD11C,0.200000*%
G04 APERTURE END LIST*
D10*
X24750000Y-14305700D02*
X24750000Y-7782210D01*
X6500000Y-14305700D02*
X24750000Y-14305700D01*
X24750000Y-7782210D02*
X6500000Y-7782210D01*
X6500000Y-7782210D02*
X6500000Y-14305700D01*
D11*
X6758277Y-14619684D02*
X6758277Y-14419684D01*
X6758277Y-14419684D02*
X6805896Y-14419684D01*
X6805896Y-14419684D02*
X6834467Y-14429208D01*
X6834467Y-14429208D02*
X6853515Y-14448255D01*
X6853515Y-14448255D02*
X6863039Y-14467303D01*
X6863039Y-14467303D02*
X6872562Y-14505398D01*
X6872562Y-14505398D02*
X6872562Y-14533969D01*
X6872562Y-14533969D02*
X6863039Y-14572065D01*
X6863039Y-14572065D02*
X6853515Y-14591112D01*
X6853515Y-14591112D02*
X6834467Y-14610160D01*
X6834467Y-14610160D02*
X6805896Y-14619684D01*
X6805896Y-14619684D02*
X6758277Y-14619684D01*
X6958277Y-14619684D02*
X6958277Y-14486350D01*
X6958277Y-14524446D02*
X6967801Y-14505398D01*
X6967801Y-14505398D02*
X6977324Y-14495874D01*
X6977324Y-14495874D02*
X6996372Y-14486350D01*
X6996372Y-14486350D02*
X7015420Y-14486350D01*
X7082086Y-14619684D02*
X7082086Y-14486350D01*
X7082086Y-14419684D02*
X7072562Y-14429208D01*
X7072562Y-14429208D02*
X7082086Y-14438731D01*
X7082086Y-14438731D02*
X7091610Y-14429208D01*
X7091610Y-14429208D02*
X7082086Y-14419684D01*
X7082086Y-14419684D02*
X7082086Y-14438731D01*
X7205896Y-14619684D02*
X7186848Y-14610160D01*
X7186848Y-14610160D02*
X7177324Y-14591112D01*
X7177324Y-14591112D02*
X7177324Y-14419684D01*
X7310658Y-14619684D02*
X7291610Y-14610160D01*
X7291610Y-14610160D02*
X7282086Y-14591112D01*
X7282086Y-14591112D02*
X7282086Y-14419684D01*
X7539229Y-14619684D02*
X7539229Y-14419684D01*
X7539229Y-14419684D02*
X7605896Y-14562541D01*
X7605896Y-14562541D02*
X7672562Y-14419684D01*
X7672562Y-14419684D02*
X7672562Y-14619684D01*
X7853515Y-14619684D02*
X7853515Y-14514922D01*
X7853515Y-14514922D02*
X7843991Y-14495874D01*
X7843991Y-14495874D02*
X7824943Y-14486350D01*
X7824943Y-14486350D02*
X7786848Y-14486350D01*
X7786848Y-14486350D02*
X7767801Y-14495874D01*
X7853515Y-14610160D02*
X7834467Y-14619684D01*
X7834467Y-14619684D02*
X7786848Y-14619684D01*
X7786848Y-14619684D02*
X7767801Y-14610160D01*
X7767801Y-14610160D02*
X7758277Y-14591112D01*
X7758277Y-14591112D02*
X7758277Y-14572065D01*
X7758277Y-14572065D02*
X7767801Y-14553017D01*
X7767801Y-14553017D02*
X7786848Y-14543493D01*
X7786848Y-14543493D02*
X7834467Y-14543493D01*
X7834467Y-14543493D02*
X7853515Y-14533969D01*
X7948753Y-14486350D02*
X7948753Y-14686350D01*
X7948753Y-14495874D02*
X7967801Y-14486350D01*
X7967801Y-14486350D02*
X8005896Y-14486350D01*
X8005896Y-14486350D02*
X8024943Y-14495874D01*
X8024943Y-14495874D02*
X8034467Y-14505398D01*
X8034467Y-14505398D02*
X8043991Y-14524446D01*
X8043991Y-14524446D02*
X8043991Y-14581588D01*
X8043991Y-14581588D02*
X8034467Y-14600636D01*
X8034467Y-14600636D02*
X8024943Y-14610160D01*
X8024943Y-14610160D02*
X8005896Y-14619684D01*
X8005896Y-14619684D02*
X7967801Y-14619684D01*
X7967801Y-14619684D02*
X7948753Y-14610160D01*
X8129705Y-14600636D02*
X8139229Y-14610160D01*
X8139229Y-14610160D02*
X8129705Y-14619684D01*
X8129705Y-14619684D02*
X8120182Y-14610160D01*
X8120182Y-14610160D02*
X8129705Y-14600636D01*
X8129705Y-14600636D02*
X8129705Y-14619684D01*
X8129705Y-14495874D02*
X8139229Y-14505398D01*
X8139229Y-14505398D02*
X8129705Y-14514922D01*
X8129705Y-14514922D02*
X8120182Y-14505398D01*
X8120182Y-14505398D02*
X8129705Y-14495874D01*
X8129705Y-14495874D02*
X8129705Y-14514922D01*
M02*
