%TF.GenerationSoftware,KiCad,Pcbnew,7.0.5-0*%
%TF.CreationDate,2023-07-08T10:36:07-04:00*%
%TF.ProjectId,nixie,6e697869-652e-46b6-9963-61645f706362,rev?*%
%TF.SameCoordinates,Original*%
%TF.FileFunction,Soldermask,Top*%
%TF.FilePolarity,Negative*%
%FSLAX46Y46*%
G04 Gerber Fmt 4.6, Leading zero omitted, Abs format (unit mm)*
G04 Created by KiCad (PCBNEW 7.0.5-0) date 2023-07-08 10:36:07*
%MOMM*%
%LPD*%
G01*
G04 APERTURE LIST*
G04 Aperture macros list*
%AMRoundRect*
0 Rectangle with rounded corners*
0 $1 Rounding radius*
0 $2 $3 $4 $5 $6 $7 $8 $9 X,Y pos of 4 corners*
0 Add a 4 corners polygon primitive as box body*
4,1,4,$2,$3,$4,$5,$6,$7,$8,$9,$2,$3,0*
0 Add four circle primitives for the rounded corners*
1,1,$1+$1,$2,$3*
1,1,$1+$1,$4,$5*
1,1,$1+$1,$6,$7*
1,1,$1+$1,$8,$9*
0 Add four rect primitives between the rounded corners*
20,1,$1+$1,$2,$3,$4,$5,0*
20,1,$1+$1,$4,$5,$6,$7,0*
20,1,$1+$1,$6,$7,$8,$9,0*
20,1,$1+$1,$8,$9,$2,$3,0*%
G04 Aperture macros list end*
%ADD10R,1.550000X1.000000*%
%ADD11C,1.950000*%
%ADD12R,1.650000X1.650000*%
%ADD13C,1.650000*%
%ADD14C,0.800000*%
%ADD15C,7.000000*%
%ADD16RoundRect,0.101600X-0.962500X-0.325000X0.962500X-0.325000X0.962500X0.325000X-0.962500X0.325000X0*%
%ADD17RoundRect,0.101600X0.650000X0.750000X-0.650000X0.750000X-0.650000X-0.750000X0.650000X-0.750000X0*%
%ADD18RoundRect,0.101600X-0.650000X-0.750000X0.650000X-0.750000X0.650000X0.750000X-0.650000X0.750000X0*%
%ADD19RoundRect,0.101600X-0.700000X-0.700000X0.700000X-0.700000X0.700000X0.700000X-0.700000X0.700000X0*%
%ADD20C,1.603200*%
%ADD21O,1.803200X3.403200*%
%ADD22O,3.403200X1.803200*%
%ADD23O,2.519200X2.519200*%
%ADD24C,2.519200*%
%ADD25R,1.850000X0.650000*%
%ADD26C,1.551200*%
G04 APERTURE END LIST*
D10*
%TO.C,S6*%
X176000000Y-137000000D03*
X170750000Y-137000000D03*
X170750000Y-140200000D03*
X176000000Y-140200000D03*
%TD*%
%TO.C,S5*%
X168000000Y-137000000D03*
X162750000Y-137000000D03*
X162750000Y-140200000D03*
X168000000Y-140200000D03*
%TD*%
%TO.C,S4*%
X160000000Y-137000000D03*
X154750000Y-137000000D03*
X154750000Y-140200000D03*
X160000000Y-140200000D03*
%TD*%
%TO.C,S3*%
X152000000Y-137000000D03*
X146750000Y-137000000D03*
X146750000Y-140200000D03*
X152000000Y-140200000D03*
%TD*%
%TO.C,S1*%
X136000000Y-137000000D03*
X130750000Y-137000000D03*
X130750000Y-140200000D03*
X136000000Y-140200000D03*
%TD*%
D11*
%TO.C,J4*%
X225000000Y-137600000D03*
X227540000Y-137600000D03*
%TD*%
%TO.C,J3*%
X210000000Y-137500000D03*
X212540000Y-137500000D03*
%TD*%
D12*
%TO.C,J1*%
X70000000Y-119460000D03*
D13*
X70000000Y-122000000D03*
X70000000Y-124540000D03*
X70000000Y-127080000D03*
%TD*%
D14*
%TO.C,H2*%
X67375000Y-138400000D03*
X68143845Y-136543845D03*
X68143845Y-140256155D03*
X70000000Y-135775000D03*
D15*
X70000000Y-138400000D03*
D14*
X70000000Y-141025000D03*
X71856155Y-136543845D03*
X71856155Y-140256155D03*
X72625000Y-138400000D03*
%TD*%
D16*
%TO.C,IC6*%
X131000000Y-122380000D03*
X131000000Y-123650000D03*
X131000000Y-124920000D03*
X131000000Y-126190000D03*
X131000000Y-127460000D03*
X131000000Y-128730000D03*
X131000000Y-130000000D03*
X131000000Y-131270000D03*
X140424000Y-131270000D03*
X140424000Y-130000000D03*
X140424000Y-128730000D03*
X140424000Y-127460000D03*
X140424000Y-126190000D03*
X140424000Y-124920000D03*
X140424000Y-123650000D03*
X140424000Y-122380000D03*
%TD*%
D17*
%TO.C,R9*%
X158900000Y-130445000D03*
X157000000Y-130445000D03*
%TD*%
D14*
%TO.C,H3*%
X239875000Y-82200000D03*
X240643845Y-80343845D03*
X240643845Y-84056155D03*
X242500000Y-79575000D03*
D15*
X242500000Y-82200000D03*
D14*
X242500000Y-84825000D03*
X244356155Y-80343845D03*
X244356155Y-84056155D03*
X245125000Y-82200000D03*
%TD*%
D18*
%TO.C,R5*%
X144298000Y-122000000D03*
X146198000Y-122000000D03*
%TD*%
D19*
%TO.C,IC3*%
X134126600Y-110037000D03*
D20*
X136666600Y-110037000D03*
X139206600Y-110037000D03*
X141746600Y-110037000D03*
X144286600Y-110037000D03*
X146826600Y-110037000D03*
X149366600Y-110037000D03*
X151906600Y-110037000D03*
X151906600Y-102417000D03*
X149366600Y-102417000D03*
X146826600Y-102417000D03*
X144286600Y-102417000D03*
X141746600Y-102417000D03*
X139206600Y-102417000D03*
X136666600Y-102417000D03*
X134126600Y-102417000D03*
%TD*%
D14*
%TO.C,H1*%
X67375000Y-82375000D03*
X68143845Y-80518845D03*
X68143845Y-84231155D03*
X70000000Y-79750000D03*
D15*
X70000000Y-82375000D03*
D14*
X70000000Y-85000000D03*
X71856155Y-80518845D03*
X71856155Y-84231155D03*
X72625000Y-82375000D03*
%TD*%
%TO.C,H4*%
X239875000Y-138400000D03*
X240643845Y-136543845D03*
X240643845Y-140256155D03*
X242500000Y-135775000D03*
D15*
X242500000Y-138400000D03*
D14*
X242500000Y-141025000D03*
X244356155Y-136543845D03*
X244356155Y-140256155D03*
X245125000Y-138400000D03*
%TD*%
D21*
%TO.C,P1*%
X114780000Y-136800000D03*
X117320000Y-136800000D03*
X112240000Y-136800000D03*
X107160000Y-136800000D03*
X119860000Y-117420000D03*
X107160000Y-117420000D03*
X94460000Y-117420000D03*
X81760000Y-117420000D03*
D22*
X76110000Y-127110000D03*
D21*
X81760000Y-136800000D03*
X94460000Y-136800000D03*
X119860000Y-136800000D03*
X124940000Y-117420000D03*
X122400000Y-117420000D03*
X117320000Y-117420000D03*
X114780000Y-117420000D03*
X112240000Y-117420000D03*
X109700000Y-117420000D03*
X104620000Y-117420000D03*
X102080000Y-117420000D03*
X99540000Y-117420000D03*
X97000000Y-117420000D03*
X91920000Y-117420000D03*
X89380000Y-117420000D03*
X86840000Y-117420000D03*
X84300000Y-117420000D03*
X79220000Y-117420000D03*
X76680000Y-117420000D03*
X76680000Y-136800000D03*
X79220000Y-136800000D03*
X84300000Y-136800000D03*
X86840000Y-136800000D03*
X89380000Y-136800000D03*
X91920000Y-136800000D03*
X97000000Y-136800000D03*
X102080000Y-136800000D03*
X104620000Y-136800000D03*
X109700000Y-136800000D03*
X99540000Y-136800000D03*
D22*
X76110000Y-124570000D03*
X76110000Y-129650000D03*
D21*
X124940000Y-136800000D03*
X122400000Y-136800000D03*
%TD*%
D23*
%TO.C,BAT1*%
X190900000Y-114930000D03*
D24*
X190900000Y-135430000D03*
%TD*%
D17*
%TO.C,R10*%
X158866000Y-128245000D03*
X156966000Y-128245000D03*
%TD*%
D19*
%TO.C,IC8*%
X220266000Y-110037000D03*
D20*
X222806000Y-110037000D03*
X225346000Y-110037000D03*
X227886000Y-110037000D03*
X230426000Y-110037000D03*
X232966000Y-110037000D03*
X235506000Y-110037000D03*
X238046000Y-110037000D03*
X238046000Y-102417000D03*
X235506000Y-102417000D03*
X232966000Y-102417000D03*
X230426000Y-102417000D03*
X227886000Y-102417000D03*
X225346000Y-102417000D03*
X222806000Y-102417000D03*
X220266000Y-102417000D03*
%TD*%
D19*
%TO.C,IC7*%
X195226000Y-110037000D03*
D20*
X197766000Y-110037000D03*
X200306000Y-110037000D03*
X202846000Y-110037000D03*
X205386000Y-110037000D03*
X207926000Y-110037000D03*
X210466000Y-110037000D03*
X213006000Y-110037000D03*
X213006000Y-102417000D03*
X210466000Y-102417000D03*
X207926000Y-102417000D03*
X205386000Y-102417000D03*
X202846000Y-102417000D03*
X200306000Y-102417000D03*
X197766000Y-102417000D03*
X195226000Y-102417000D03*
%TD*%
D25*
%TO.C,IC5*%
X162000000Y-115190000D03*
X162000000Y-116460000D03*
X162000000Y-117730000D03*
X162000000Y-119000000D03*
X162000000Y-120270000D03*
X162000000Y-121540000D03*
X162000000Y-122810000D03*
X162000000Y-124080000D03*
X162000000Y-125350000D03*
X162000000Y-126620000D03*
X162000000Y-127890000D03*
X162000000Y-129160000D03*
X162000000Y-130430000D03*
X162000000Y-131700000D03*
X171350000Y-131700000D03*
X171350000Y-130430000D03*
X171350000Y-129160000D03*
X171350000Y-127890000D03*
X171350000Y-126620000D03*
X171350000Y-125350000D03*
X171350000Y-124080000D03*
X171350000Y-122810000D03*
X171350000Y-121540000D03*
X171350000Y-120270000D03*
X171350000Y-119000000D03*
X171350000Y-117730000D03*
X171350000Y-116460000D03*
X171350000Y-115190000D03*
%TD*%
D18*
%TO.C,R11*%
X174550000Y-127900000D03*
X176450000Y-127900000D03*
%TD*%
D10*
%TO.C,S2*%
X144000000Y-137000000D03*
X138750000Y-137000000D03*
X138750000Y-140200000D03*
X144000000Y-140200000D03*
%TD*%
D19*
%TO.C,IC4*%
X159188600Y-110017000D03*
D20*
X161728600Y-110017000D03*
X164268600Y-110017000D03*
X166808600Y-110017000D03*
X169348600Y-110017000D03*
X171888600Y-110017000D03*
X174428600Y-110017000D03*
X176968600Y-110017000D03*
X176968600Y-102397000D03*
X174428600Y-102397000D03*
X171888600Y-102397000D03*
X169348600Y-102397000D03*
X166808600Y-102397000D03*
X164268600Y-102397000D03*
X161728600Y-102397000D03*
X159188600Y-102397000D03*
%TD*%
D19*
%TO.C,IC2*%
X98764600Y-110037000D03*
D20*
X101304600Y-110037000D03*
X103844600Y-110037000D03*
X106384600Y-110037000D03*
X108924600Y-110037000D03*
X111464600Y-110037000D03*
X114004600Y-110037000D03*
X116544600Y-110037000D03*
X116544600Y-102417000D03*
X114004600Y-102417000D03*
X111464600Y-102417000D03*
X108924600Y-102417000D03*
X106384600Y-102417000D03*
X103844600Y-102417000D03*
X101304600Y-102417000D03*
X98764600Y-102417000D03*
%TD*%
D18*
%TO.C,R6*%
X144298000Y-124000000D03*
X146198000Y-124000000D03*
%TD*%
D19*
%TO.C,IC1*%
X73682600Y-110037000D03*
D20*
X76222600Y-110037000D03*
X78762600Y-110037000D03*
X81302600Y-110037000D03*
X83842600Y-110037000D03*
X86382600Y-110037000D03*
X88922600Y-110037000D03*
X91462600Y-110037000D03*
X91462600Y-102417000D03*
X88922600Y-102417000D03*
X86382600Y-102417000D03*
X83842600Y-102417000D03*
X81302600Y-102417000D03*
X78762600Y-102417000D03*
X76222600Y-102417000D03*
X73682600Y-102417000D03*
%TD*%
D26*
%TO.C,N6*%
X223895200Y-93252400D03*
X234083600Y-93252400D03*
X235134200Y-90482200D03*
X234777100Y-87541100D03*
X233094100Y-85102900D03*
X230470700Y-83726000D03*
X227508100Y-83726000D03*
X224884700Y-85102900D03*
X223201700Y-87541100D03*
X222844600Y-90482200D03*
X228989400Y-95926000D03*
X226112800Y-95217000D03*
X231866000Y-95217000D03*
%TD*%
%TO.C,N4*%
X162750400Y-93233300D03*
X172938800Y-93233300D03*
X173989400Y-90463100D03*
X173632300Y-87522000D03*
X171949300Y-85083800D03*
X169325900Y-83706900D03*
X166363300Y-83706900D03*
X163739900Y-85083800D03*
X162056900Y-87522000D03*
X161699800Y-90463100D03*
X167844600Y-95906900D03*
X164968000Y-95197900D03*
X170721200Y-95197900D03*
%TD*%
%TO.C,N5*%
X198506000Y-93233300D03*
X208694400Y-93233300D03*
X209745000Y-90463100D03*
X209387900Y-87522000D03*
X207704900Y-85083800D03*
X205081500Y-83706900D03*
X202118900Y-83706900D03*
X199495500Y-85083800D03*
X197812500Y-87522000D03*
X197455400Y-90463100D03*
X203600200Y-95906900D03*
X200723600Y-95197900D03*
X206476800Y-95197900D03*
%TD*%
%TO.C,N3*%
X137428600Y-93233300D03*
X147617000Y-93233300D03*
X148667600Y-90463100D03*
X148310500Y-87522000D03*
X146627500Y-85083800D03*
X144004100Y-83706900D03*
X141041500Y-83706900D03*
X138418100Y-85083800D03*
X136735100Y-87522000D03*
X136378000Y-90463100D03*
X142522800Y-95906900D03*
X139646200Y-95197900D03*
X145399400Y-95197900D03*
%TD*%
%TO.C,N1*%
X76984600Y-93233300D03*
X87173000Y-93233300D03*
X88223600Y-90463100D03*
X87866500Y-87522000D03*
X86183500Y-85083800D03*
X83560100Y-83706900D03*
X80597500Y-83706900D03*
X77974100Y-85083800D03*
X76291100Y-87522000D03*
X75934000Y-90463100D03*
X82078800Y-95906900D03*
X79202200Y-95197900D03*
X84955400Y-95197900D03*
%TD*%
%TO.C,N2*%
X102306400Y-93233300D03*
X112494800Y-93233300D03*
X113545400Y-90463100D03*
X113188300Y-87522000D03*
X111505300Y-85083800D03*
X108881900Y-83706900D03*
X105919300Y-83706900D03*
X103295900Y-85083800D03*
X101612900Y-87522000D03*
X101255800Y-90463100D03*
X107400600Y-95906900D03*
X104524000Y-95197900D03*
X110277200Y-95197900D03*
%TD*%
M02*
