%TF.GenerationSoftware,KiCad,Pcbnew,7.0.5-0*%
%TF.CreationDate,2023-07-08T10:36:07-04:00*%
%TF.ProjectId,nixie,6e697869-652e-46b6-9963-61645f706362,rev?*%
%TF.SameCoordinates,Original*%
%TF.FileFunction,Copper,L1,Top*%
%TF.FilePolarity,Positive*%
%FSLAX46Y46*%
G04 Gerber Fmt 4.6, Leading zero omitted, Abs format (unit mm)*
G04 Created by KiCad (PCBNEW 7.0.5-0) date 2023-07-08 10:36:07*
%MOMM*%
%LPD*%
G01*
G04 APERTURE LIST*
%TA.AperFunction,SMDPad,CuDef*%
%ADD10R,1.550000X1.000000*%
%TD*%
%TA.AperFunction,ComponentPad*%
%ADD11C,1.950000*%
%TD*%
%TA.AperFunction,ComponentPad*%
%ADD12R,1.650000X1.650000*%
%TD*%
%TA.AperFunction,ComponentPad*%
%ADD13C,1.650000*%
%TD*%
%TA.AperFunction,ComponentPad*%
%ADD14C,0.800000*%
%TD*%
%TA.AperFunction,ComponentPad*%
%ADD15C,7.000000*%
%TD*%
%TA.AperFunction,SMDPad,CuDef*%
%ADD16R,1.925000X0.650000*%
%TD*%
%TA.AperFunction,SMDPad,CuDef*%
%ADD17R,1.300000X1.500000*%
%TD*%
%TA.AperFunction,ComponentPad*%
%ADD18R,1.400000X1.400000*%
%TD*%
%TA.AperFunction,ComponentPad*%
%ADD19C,1.400000*%
%TD*%
%TA.AperFunction,ComponentPad*%
%ADD20O,1.600000X3.200000*%
%TD*%
%TA.AperFunction,ComponentPad*%
%ADD21O,3.200000X1.600000*%
%TD*%
%TA.AperFunction,ComponentPad*%
%ADD22O,2.316000X2.316000*%
%TD*%
%TA.AperFunction,ComponentPad*%
%ADD23C,2.316000*%
%TD*%
%TA.AperFunction,SMDPad,CuDef*%
%ADD24R,1.850000X0.650000*%
%TD*%
%TA.AperFunction,ComponentPad*%
%ADD25C,1.348000*%
%TD*%
%TA.AperFunction,ViaPad*%
%ADD26C,0.800000*%
%TD*%
%TA.AperFunction,ViaPad*%
%ADD27C,2.300000*%
%TD*%
%TA.AperFunction,ViaPad*%
%ADD28C,0.500000*%
%TD*%
%TA.AperFunction,ViaPad*%
%ADD29C,0.600000*%
%TD*%
%TA.AperFunction,Conductor*%
%ADD30C,0.200000*%
%TD*%
%TA.AperFunction,Conductor*%
%ADD31C,0.254000*%
%TD*%
%TA.AperFunction,Conductor*%
%ADD32C,0.381000*%
%TD*%
%TA.AperFunction,Conductor*%
%ADD33C,0.508000*%
%TD*%
G04 APERTURE END LIST*
D10*
%TO.P,S6,1,1*%
%TO.N,/S6*%
X176000000Y-137000000D03*
%TO.P,S6,2,2*%
%TO.N,unconnected-(S6-Pad2)*%
X170750000Y-137000000D03*
%TO.P,S6,3,3*%
%TO.N,unconnected-(S6-Pad3)*%
X170750000Y-140200000D03*
%TO.P,S6,4,4*%
%TO.N,+3V3*%
X176000000Y-140200000D03*
%TD*%
%TO.P,S5,1,1*%
%TO.N,/S5*%
X168000000Y-137000000D03*
%TO.P,S5,2,2*%
%TO.N,unconnected-(S5-Pad2)*%
X162750000Y-137000000D03*
%TO.P,S5,3,3*%
%TO.N,unconnected-(S5-Pad3)*%
X162750000Y-140200000D03*
%TO.P,S5,4,4*%
%TO.N,+3V3*%
X168000000Y-140200000D03*
%TD*%
%TO.P,S4,1,1*%
%TO.N,/S4*%
X160000000Y-137000000D03*
%TO.P,S4,2,2*%
%TO.N,unconnected-(S4-Pad2)*%
X154750000Y-137000000D03*
%TO.P,S4,3,3*%
%TO.N,unconnected-(S4-Pad3)*%
X154750000Y-140200000D03*
%TO.P,S4,4,4*%
%TO.N,+3V3*%
X160000000Y-140200000D03*
%TD*%
%TO.P,S3,1,1*%
%TO.N,/S3*%
X152000000Y-137000000D03*
%TO.P,S3,2,2*%
%TO.N,unconnected-(S3-Pad2)*%
X146750000Y-137000000D03*
%TO.P,S3,3,3*%
%TO.N,unconnected-(S3-Pad3)*%
X146750000Y-140200000D03*
%TO.P,S3,4,4*%
%TO.N,+3V3*%
X152000000Y-140200000D03*
%TD*%
%TO.P,S1,1,1*%
%TO.N,/S1*%
X136000000Y-137000000D03*
%TO.P,S1,2,2*%
%TO.N,unconnected-(S1-Pad2)*%
X130750000Y-137000000D03*
%TO.P,S1,3,3*%
%TO.N,unconnected-(S1-Pad3)*%
X130750000Y-140200000D03*
%TO.P,S1,4,4*%
%TO.N,+3V3*%
X136000000Y-140200000D03*
%TD*%
D11*
%TO.P,J4,1,1*%
%TO.N,+12V*%
X225000000Y-137600000D03*
%TO.P,J4,2,2*%
%TO.N,GND*%
X227540000Y-137600000D03*
%TD*%
%TO.P,J3,1,1*%
%TO.N,VCC*%
X210000000Y-137500000D03*
%TO.P,J3,2,2*%
%TO.N,GND*%
X212540000Y-137500000D03*
%TD*%
D12*
%TO.P,J1,1,1*%
%TO.N,/RX*%
X70000000Y-119460000D03*
D13*
%TO.P,J1,2,2*%
%TO.N,/TX*%
X70000000Y-122000000D03*
%TO.P,J1,3,3*%
%TO.N,+3V3*%
X70000000Y-124540000D03*
%TO.P,J1,4,4*%
%TO.N,GND*%
X70000000Y-127080000D03*
%TD*%
D14*
%TO.P,H2,1*%
%TO.N,N/C*%
X67375000Y-138400000D03*
X68143845Y-136543845D03*
X68143845Y-140256155D03*
X70000000Y-135775000D03*
D15*
X70000000Y-138400000D03*
D14*
X70000000Y-141025000D03*
X71856155Y-136543845D03*
X71856155Y-140256155D03*
X72625000Y-138400000D03*
%TD*%
D16*
%TO.P,IC6,1,32KHZ*%
%TO.N,unconnected-(IC6-32KHZ-Pad1)*%
X131000000Y-122380000D03*
%TO.P,IC6,2,VCC*%
%TO.N,+5V*%
X131000000Y-123650000D03*
%TO.P,IC6,3,~{INT}/SQW*%
%TO.N,unconnected-(IC6-~{INT}{slash}SQW-Pad3)*%
X131000000Y-124920000D03*
%TO.P,IC6,4,~{RST}*%
%TO.N,/RSTC*%
X131000000Y-126190000D03*
%TO.P,IC6,5,N.C._1*%
%TO.N,unconnected-(IC6-N.C._1-Pad5)*%
X131000000Y-127460000D03*
%TO.P,IC6,6,N.C._2*%
%TO.N,unconnected-(IC6-N.C._2-Pad6)*%
X131000000Y-128730000D03*
%TO.P,IC6,7,N.C._3*%
%TO.N,unconnected-(IC6-N.C._3-Pad7)*%
X131000000Y-130000000D03*
%TO.P,IC6,8,N.C._4*%
%TO.N,unconnected-(IC6-N.C._4-Pad8)*%
X131000000Y-131270000D03*
%TO.P,IC6,9,N.C._5*%
%TO.N,unconnected-(IC6-N.C._5-Pad9)*%
X140424000Y-131270000D03*
%TO.P,IC6,10,N.C._6*%
%TO.N,unconnected-(IC6-N.C._6-Pad10)*%
X140424000Y-130000000D03*
%TO.P,IC6,11,N.C._7*%
%TO.N,unconnected-(IC6-N.C._7-Pad11)*%
X140424000Y-128730000D03*
%TO.P,IC6,12,N.C._8*%
%TO.N,unconnected-(IC6-N.C._8-Pad12)*%
X140424000Y-127460000D03*
%TO.P,IC6,13,GND*%
%TO.N,GND*%
X140424000Y-126190000D03*
%TO.P,IC6,14,VBAT*%
%TO.N,Net-(IC6-VBAT)*%
X140424000Y-124920000D03*
%TO.P,IC6,15,SDA*%
%TO.N,/SDA1*%
X140424000Y-123650000D03*
%TO.P,IC6,16,SCL*%
%TO.N,/SCL1*%
X140424000Y-122380000D03*
%TD*%
D17*
%TO.P,R9,1,1*%
%TO.N,/SDA1*%
X158900000Y-130445000D03*
%TO.P,R9,2,2*%
%TO.N,+3V3*%
X157000000Y-130445000D03*
%TD*%
D14*
%TO.P,H3,1*%
%TO.N,N/C*%
X239875000Y-82200000D03*
X240643845Y-80343845D03*
X240643845Y-84056155D03*
X242500000Y-79575000D03*
D15*
X242500000Y-82200000D03*
D14*
X242500000Y-84825000D03*
X244356155Y-80343845D03*
X244356155Y-84056155D03*
X245125000Y-82200000D03*
%TD*%
D17*
%TO.P,R5,1,1*%
%TO.N,/SCL1*%
X144298000Y-122000000D03*
%TO.P,R5,2,2*%
%TO.N,+3V3*%
X146198000Y-122000000D03*
%TD*%
D18*
%TO.P,IC3,1,8*%
%TO.N,/N38*%
X134126600Y-110037000D03*
D19*
%TO.P,IC3,2,9*%
%TO.N,/N39*%
X136666600Y-110037000D03*
%TO.P,IC3,3,A*%
%TO.N,/A3*%
X139206600Y-110037000D03*
%TO.P,IC3,4,D*%
%TO.N,/D3*%
X141746600Y-110037000D03*
%TO.P,IC3,5,VCC*%
%TO.N,+5V*%
X144286600Y-110037000D03*
%TO.P,IC3,6,B*%
%TO.N,/B3*%
X146826600Y-110037000D03*
%TO.P,IC3,7,C*%
%TO.N,/C3*%
X149366600Y-110037000D03*
%TO.P,IC3,8,2*%
%TO.N,/N32*%
X151906600Y-110037000D03*
%TO.P,IC3,9,3*%
%TO.N,/N33*%
X151906600Y-102417000D03*
%TO.P,IC3,10,7*%
%TO.N,/N37*%
X149366600Y-102417000D03*
%TO.P,IC3,11,6*%
%TO.N,/N36*%
X146826600Y-102417000D03*
%TO.P,IC3,12,GND*%
%TO.N,GND*%
X144286600Y-102417000D03*
%TO.P,IC3,13,4*%
%TO.N,/N34*%
X141746600Y-102417000D03*
%TO.P,IC3,14,5*%
%TO.N,/N35*%
X139206600Y-102417000D03*
%TO.P,IC3,15,1*%
%TO.N,/N31*%
X136666600Y-102417000D03*
%TO.P,IC3,16,0*%
%TO.N,/N30*%
X134126600Y-102417000D03*
%TD*%
D14*
%TO.P,H1,1*%
%TO.N,N/C*%
X67375000Y-82375000D03*
X68143845Y-80518845D03*
X68143845Y-84231155D03*
X70000000Y-79750000D03*
D15*
X70000000Y-82375000D03*
D14*
X70000000Y-85000000D03*
X71856155Y-80518845D03*
X71856155Y-84231155D03*
X72625000Y-82375000D03*
%TD*%
%TO.P,H4,1*%
%TO.N,N/C*%
X239875000Y-138400000D03*
X240643845Y-136543845D03*
X240643845Y-140256155D03*
X242500000Y-135775000D03*
D15*
X242500000Y-138400000D03*
D14*
X242500000Y-141025000D03*
X244356155Y-136543845D03*
X244356155Y-140256155D03*
X245125000Y-138400000D03*
%TD*%
D20*
%TO.P,P1,3V3,3V3*%
%TO.N,+3V3*%
X114780000Y-136800000D03*
%TO.P,P1,3V3_EN,3V3_EN*%
%TO.N,unconnected-(P1-Pad3V3_EN)*%
X117320000Y-136800000D03*
%TO.P,P1,ADC_VREF,ADC_VREF*%
%TO.N,unconnected-(P1-PadADC_VREF)*%
X112240000Y-136800000D03*
%TO.P,P1,AGND,AGND*%
%TO.N,GND*%
X107160000Y-136800000D03*
%TO.P,P1,GND@1,GND*%
X119860000Y-117420000D03*
%TO.P,P1,GND@2,GND*%
X107160000Y-117420000D03*
%TO.P,P1,GND@3,GND*%
X94460000Y-117420000D03*
%TO.P,P1,GND@4,GND*%
X81760000Y-117420000D03*
D21*
%TO.P,P1,GND@5,GND*%
X76110000Y-127110000D03*
D20*
%TO.P,P1,GND@6,GND*%
X81760000Y-136800000D03*
%TO.P,P1,GND@7,GND*%
X94460000Y-136800000D03*
%TO.P,P1,GND@8,GND*%
X119860000Y-136800000D03*
%TO.P,P1,GP0,GP0*%
%TO.N,/RX*%
X124940000Y-117420000D03*
%TO.P,P1,GP1,GP1*%
%TO.N,/TX*%
X122400000Y-117420000D03*
%TO.P,P1,GP2,GP2*%
%TO.N,/RSTIO*%
X117320000Y-117420000D03*
%TO.P,P1,GP3,GP3*%
%TO.N,/RSTC*%
X114780000Y-117420000D03*
%TO.P,P1,GP4,GP4*%
%TO.N,/C2*%
X112240000Y-117420000D03*
%TO.P,P1,GP5,GP5*%
%TO.N,/B2*%
X109700000Y-117420000D03*
%TO.P,P1,GP6,GP6*%
%TO.N,/D2*%
X104620000Y-117420000D03*
%TO.P,P1,GP7,GP7*%
%TO.N,/A2*%
X102080000Y-117420000D03*
%TO.P,P1,GP8,GP8*%
%TO.N,unconnected-(P1-PadGP8)*%
X99540000Y-117420000D03*
%TO.P,P1,GP9,GP9*%
%TO.N,unconnected-(P1-PadGP9)*%
X97000000Y-117420000D03*
%TO.P,P1,GP10,GP10*%
%TO.N,/C1*%
X91920000Y-117420000D03*
%TO.P,P1,GP11,GP11*%
%TO.N,/B1*%
X89380000Y-117420000D03*
%TO.P,P1,GP12,GP12*%
%TO.N,/D1*%
X86840000Y-117420000D03*
%TO.P,P1,GP13,GP13*%
%TO.N,/A1*%
X84300000Y-117420000D03*
%TO.P,P1,GP14,GP14*%
%TO.N,/SDA1*%
X79220000Y-117420000D03*
%TO.P,P1,GP15,GP15*%
%TO.N,/SCL1*%
X76680000Y-117420000D03*
%TO.P,P1,GP16,GP16*%
%TO.N,/S6*%
X76680000Y-136800000D03*
%TO.P,P1,GP17,GP17*%
%TO.N,/S5*%
X79220000Y-136800000D03*
%TO.P,P1,GP18,GP18*%
%TO.N,/S4*%
X84300000Y-136800000D03*
%TO.P,P1,GP19,GP19*%
%TO.N,/S3*%
X86840000Y-136800000D03*
%TO.P,P1,GP20,GP20*%
%TO.N,/S2*%
X89380000Y-136800000D03*
%TO.P,P1,GP21,GP21*%
%TO.N,/S1*%
X91920000Y-136800000D03*
%TO.P,P1,GP22,GP22*%
%TO.N,unconnected-(P1-PadGP22)*%
X97000000Y-136800000D03*
%TO.P,P1,GP26_A0,GP26_A0*%
%TO.N,unconnected-(P1-PadGP26_A0)*%
X102080000Y-136800000D03*
%TO.P,P1,GP27_A1,GP27_A1*%
%TO.N,unconnected-(P1-PadGP27_A1)*%
X104620000Y-136800000D03*
%TO.P,P1,GP28_A2,GP28_A2*%
%TO.N,unconnected-(P1-PadGP28_A2)*%
X109700000Y-136800000D03*
%TO.P,P1,RUN,RUN*%
%TO.N,unconnected-(P1-PadRUN)*%
X99540000Y-136800000D03*
D21*
%TO.P,P1,SWCLK,SWCLK*%
%TO.N,unconnected-(P1-PadSWCLK)*%
X76110000Y-124570000D03*
%TO.P,P1,SWDIO,SWDIO*%
%TO.N,unconnected-(P1-PadSWDIO)*%
X76110000Y-129650000D03*
D20*
%TO.P,P1,VBUS,VBUS*%
%TO.N,unconnected-(P1-PadVBUS)*%
X124940000Y-136800000D03*
%TO.P,P1,VSYS,VSYS*%
%TO.N,+5V*%
X122400000Y-136800000D03*
%TD*%
D22*
%TO.P,BAT1,+,+*%
%TO.N,Net-(IC6-VBAT)*%
X190900000Y-114930000D03*
D23*
%TO.P,BAT1,-,-*%
%TO.N,GND*%
X190900000Y-135430000D03*
%TD*%
D17*
%TO.P,R10,1,1*%
%TO.N,/SCL1*%
X158866000Y-128245000D03*
%TO.P,R10,2,2*%
%TO.N,+3V3*%
X156966000Y-128245000D03*
%TD*%
D18*
%TO.P,IC8,1,8*%
%TO.N,/N68*%
X220266000Y-110037000D03*
D19*
%TO.P,IC8,2,9*%
%TO.N,/N69*%
X222806000Y-110037000D03*
%TO.P,IC8,3,A*%
%TO.N,/A6*%
X225346000Y-110037000D03*
%TO.P,IC8,4,D*%
%TO.N,/D6*%
X227886000Y-110037000D03*
%TO.P,IC8,5,VCC*%
%TO.N,+5V*%
X230426000Y-110037000D03*
%TO.P,IC8,6,B*%
%TO.N,/B6*%
X232966000Y-110037000D03*
%TO.P,IC8,7,C*%
%TO.N,/C6*%
X235506000Y-110037000D03*
%TO.P,IC8,8,2*%
%TO.N,/N62*%
X238046000Y-110037000D03*
%TO.P,IC8,9,3*%
%TO.N,/N63*%
X238046000Y-102417000D03*
%TO.P,IC8,10,7*%
%TO.N,/N67*%
X235506000Y-102417000D03*
%TO.P,IC8,11,6*%
%TO.N,/N66*%
X232966000Y-102417000D03*
%TO.P,IC8,12,GND*%
%TO.N,GND*%
X230426000Y-102417000D03*
%TO.P,IC8,13,4*%
%TO.N,/N64*%
X227886000Y-102417000D03*
%TO.P,IC8,14,5*%
%TO.N,/N65*%
X225346000Y-102417000D03*
%TO.P,IC8,15,1*%
%TO.N,/N61*%
X222806000Y-102417000D03*
%TO.P,IC8,16,0*%
%TO.N,/N60*%
X220266000Y-102417000D03*
%TD*%
D18*
%TO.P,IC7,1,8*%
%TO.N,/N58*%
X195226000Y-110037000D03*
D19*
%TO.P,IC7,2,9*%
%TO.N,/N59*%
X197766000Y-110037000D03*
%TO.P,IC7,3,A*%
%TO.N,/A5*%
X200306000Y-110037000D03*
%TO.P,IC7,4,D*%
%TO.N,/D5*%
X202846000Y-110037000D03*
%TO.P,IC7,5,VCC*%
%TO.N,+5V*%
X205386000Y-110037000D03*
%TO.P,IC7,6,B*%
%TO.N,/B5*%
X207926000Y-110037000D03*
%TO.P,IC7,7,C*%
%TO.N,/C5*%
X210466000Y-110037000D03*
%TO.P,IC7,8,2*%
%TO.N,/N52*%
X213006000Y-110037000D03*
%TO.P,IC7,9,3*%
%TO.N,/N53*%
X213006000Y-102417000D03*
%TO.P,IC7,10,7*%
%TO.N,/N57*%
X210466000Y-102417000D03*
%TO.P,IC7,11,6*%
%TO.N,/N56*%
X207926000Y-102417000D03*
%TO.P,IC7,12,GND*%
%TO.N,GND*%
X205386000Y-102417000D03*
%TO.P,IC7,13,4*%
%TO.N,/N54*%
X202846000Y-102417000D03*
%TO.P,IC7,14,5*%
%TO.N,/N55*%
X200306000Y-102417000D03*
%TO.P,IC7,15,1*%
%TO.N,/N51*%
X197766000Y-102417000D03*
%TO.P,IC7,16,0*%
%TO.N,/N50*%
X195226000Y-102417000D03*
%TD*%
D24*
%TO.P,IC5,1,GPB0*%
%TO.N,/A4*%
X162000000Y-115190000D03*
%TO.P,IC5,2,GPB1*%
%TO.N,/D4*%
X162000000Y-116460000D03*
%TO.P,IC5,3,GPB2*%
%TO.N,/B4*%
X162000000Y-117730000D03*
%TO.P,IC5,4,GPB3*%
%TO.N,/C4*%
X162000000Y-119000000D03*
%TO.P,IC5,5,GPB4*%
%TO.N,/C3*%
X162000000Y-120270000D03*
%TO.P,IC5,6,GPB5*%
%TO.N,/B3*%
X162000000Y-121540000D03*
%TO.P,IC5,7,GPB6*%
%TO.N,/D3*%
X162000000Y-122810000D03*
%TO.P,IC5,8,GPB7*%
%TO.N,/A3*%
X162000000Y-124080000D03*
%TO.P,IC5,9,VDD*%
%TO.N,+5V*%
X162000000Y-125350000D03*
%TO.P,IC5,10,VSS*%
%TO.N,GND*%
X162000000Y-126620000D03*
%TO.P,IC5,11,NC_1*%
%TO.N,unconnected-(IC5-NC_1-Pad11)*%
X162000000Y-127890000D03*
%TO.P,IC5,12,SCL*%
%TO.N,/SCL1*%
X162000000Y-129160000D03*
%TO.P,IC5,13,SDA*%
%TO.N,/SDA1*%
X162000000Y-130430000D03*
%TO.P,IC5,14,NC_2*%
%TO.N,unconnected-(IC5-NC_2-Pad14)*%
X162000000Y-131700000D03*
%TO.P,IC5,15,A0*%
%TO.N,GND*%
X171350000Y-131700000D03*
%TO.P,IC5,16,A1*%
X171350000Y-130430000D03*
%TO.P,IC5,17,A2*%
X171350000Y-129160000D03*
%TO.P,IC5,18,~{RESET}*%
%TO.N,/RSTIO*%
X171350000Y-127890000D03*
%TO.P,IC5,19,INTB*%
%TO.N,unconnected-(IC5-INTB-Pad19)*%
X171350000Y-126620000D03*
%TO.P,IC5,20,INTA*%
%TO.N,unconnected-(IC5-INTA-Pad20)*%
X171350000Y-125350000D03*
%TO.P,IC5,21,GPA0*%
%TO.N,/C6*%
X171350000Y-124080000D03*
%TO.P,IC5,22,GPA1*%
%TO.N,/B6*%
X171350000Y-122810000D03*
%TO.P,IC5,23,GPA2*%
%TO.N,/D6*%
X171350000Y-121540000D03*
%TO.P,IC5,24,GPA3*%
%TO.N,/A6*%
X171350000Y-120270000D03*
%TO.P,IC5,25,GPA4*%
%TO.N,/C5*%
X171350000Y-119000000D03*
%TO.P,IC5,26,GPA5*%
%TO.N,/B5*%
X171350000Y-117730000D03*
%TO.P,IC5,27,GPA6*%
%TO.N,/D5*%
X171350000Y-116460000D03*
%TO.P,IC5,28,GPA7*%
%TO.N,/A5*%
X171350000Y-115190000D03*
%TD*%
D17*
%TO.P,R11,1,1*%
%TO.N,/RSTIO*%
X174550000Y-127900000D03*
%TO.P,R11,2,2*%
%TO.N,+3V3*%
X176450000Y-127900000D03*
%TD*%
D10*
%TO.P,S2,1,1*%
%TO.N,/S2*%
X144000000Y-137000000D03*
%TO.P,S2,2,2*%
%TO.N,unconnected-(S2-Pad2)*%
X138750000Y-137000000D03*
%TO.P,S2,3,3*%
%TO.N,unconnected-(S2-Pad3)*%
X138750000Y-140200000D03*
%TO.P,S2,4,4*%
%TO.N,+3V3*%
X144000000Y-140200000D03*
%TD*%
D18*
%TO.P,IC4,1,8*%
%TO.N,/N48*%
X159188600Y-110017000D03*
D19*
%TO.P,IC4,2,9*%
%TO.N,/N49*%
X161728600Y-110017000D03*
%TO.P,IC4,3,A*%
%TO.N,/A4*%
X164268600Y-110017000D03*
%TO.P,IC4,4,D*%
%TO.N,/D4*%
X166808600Y-110017000D03*
%TO.P,IC4,5,VCC*%
%TO.N,+5V*%
X169348600Y-110017000D03*
%TO.P,IC4,6,B*%
%TO.N,/B4*%
X171888600Y-110017000D03*
%TO.P,IC4,7,C*%
%TO.N,/C4*%
X174428600Y-110017000D03*
%TO.P,IC4,8,2*%
%TO.N,/N42*%
X176968600Y-110017000D03*
%TO.P,IC4,9,3*%
%TO.N,/N43*%
X176968600Y-102397000D03*
%TO.P,IC4,10,7*%
%TO.N,/N47*%
X174428600Y-102397000D03*
%TO.P,IC4,11,6*%
%TO.N,/N46*%
X171888600Y-102397000D03*
%TO.P,IC4,12,GND*%
%TO.N,GND*%
X169348600Y-102397000D03*
%TO.P,IC4,13,4*%
%TO.N,/N44*%
X166808600Y-102397000D03*
%TO.P,IC4,14,5*%
%TO.N,/N45*%
X164268600Y-102397000D03*
%TO.P,IC4,15,1*%
%TO.N,/N41*%
X161728600Y-102397000D03*
%TO.P,IC4,16,0*%
%TO.N,/N40*%
X159188600Y-102397000D03*
%TD*%
D18*
%TO.P,IC2,1,8*%
%TO.N,/N28*%
X98764600Y-110037000D03*
D19*
%TO.P,IC2,2,9*%
%TO.N,/N29*%
X101304600Y-110037000D03*
%TO.P,IC2,3,A*%
%TO.N,/A2*%
X103844600Y-110037000D03*
%TO.P,IC2,4,D*%
%TO.N,/D2*%
X106384600Y-110037000D03*
%TO.P,IC2,5,VCC*%
%TO.N,+5V*%
X108924600Y-110037000D03*
%TO.P,IC2,6,B*%
%TO.N,/B2*%
X111464600Y-110037000D03*
%TO.P,IC2,7,C*%
%TO.N,/C2*%
X114004600Y-110037000D03*
%TO.P,IC2,8,2*%
%TO.N,/N22*%
X116544600Y-110037000D03*
%TO.P,IC2,9,3*%
%TO.N,/N23*%
X116544600Y-102417000D03*
%TO.P,IC2,10,7*%
%TO.N,/N27*%
X114004600Y-102417000D03*
%TO.P,IC2,11,6*%
%TO.N,/N26*%
X111464600Y-102417000D03*
%TO.P,IC2,12,GND*%
%TO.N,GND*%
X108924600Y-102417000D03*
%TO.P,IC2,13,4*%
%TO.N,/N24*%
X106384600Y-102417000D03*
%TO.P,IC2,14,5*%
%TO.N,/N25*%
X103844600Y-102417000D03*
%TO.P,IC2,15,1*%
%TO.N,/N21*%
X101304600Y-102417000D03*
%TO.P,IC2,16,0*%
%TO.N,/N20*%
X98764600Y-102417000D03*
%TD*%
D17*
%TO.P,R6,1,1*%
%TO.N,/SDA1*%
X144298000Y-124000000D03*
%TO.P,R6,2,2*%
%TO.N,+3V3*%
X146198000Y-124000000D03*
%TD*%
D18*
%TO.P,IC1,1,8*%
%TO.N,/N18*%
X73682600Y-110037000D03*
D19*
%TO.P,IC1,2,9*%
%TO.N,/N19*%
X76222600Y-110037000D03*
%TO.P,IC1,3,A*%
%TO.N,/A1*%
X78762600Y-110037000D03*
%TO.P,IC1,4,D*%
%TO.N,/D1*%
X81302600Y-110037000D03*
%TO.P,IC1,5,VCC*%
%TO.N,+5V*%
X83842600Y-110037000D03*
%TO.P,IC1,6,B*%
%TO.N,/B1*%
X86382600Y-110037000D03*
%TO.P,IC1,7,C*%
%TO.N,/C1*%
X88922600Y-110037000D03*
%TO.P,IC1,8,2*%
%TO.N,/N12*%
X91462600Y-110037000D03*
%TO.P,IC1,9,3*%
%TO.N,/N13*%
X91462600Y-102417000D03*
%TO.P,IC1,10,7*%
%TO.N,/N17*%
X88922600Y-102417000D03*
%TO.P,IC1,11,6*%
%TO.N,/N16*%
X86382600Y-102417000D03*
%TO.P,IC1,12,GND*%
%TO.N,GND*%
X83842600Y-102417000D03*
%TO.P,IC1,13,4*%
%TO.N,/N14*%
X81302600Y-102417000D03*
%TO.P,IC1,14,5*%
%TO.N,/N15*%
X78762600Y-102417000D03*
%TO.P,IC1,15,1*%
%TO.N,/N11*%
X76222600Y-102417000D03*
%TO.P,IC1,16,0*%
%TO.N,/N10*%
X73682600Y-102417000D03*
%TD*%
D25*
%TO.P,N6,0,0*%
%TO.N,/N60*%
X223895200Y-93252400D03*
%TO.P,N6,1,1*%
%TO.N,/N61*%
X234083600Y-93252400D03*
%TO.P,N6,2,2*%
%TO.N,/N62*%
X235134200Y-90482200D03*
%TO.P,N6,3,3*%
%TO.N,/N63*%
X234777100Y-87541100D03*
%TO.P,N6,4,4*%
%TO.N,/N64*%
X233094100Y-85102900D03*
%TO.P,N6,5,5*%
%TO.N,/N65*%
X230470700Y-83726000D03*
%TO.P,N6,6,6*%
%TO.N,/N66*%
X227508100Y-83726000D03*
%TO.P,N6,7,7*%
%TO.N,/N67*%
X224884700Y-85102900D03*
%TO.P,N6,8,8*%
%TO.N,/N68*%
X223201700Y-87541100D03*
%TO.P,N6,9,9*%
%TO.N,/N69*%
X222844600Y-90482200D03*
%TO.P,N6,A,A*%
%TO.N,/170V6*%
X228989400Y-95926000D03*
%TO.P,N6,LHDP,LHDP*%
%TO.N,unconnected-(N6-PadLHDP)*%
X226112800Y-95217000D03*
%TO.P,N6,RHDP,RHDP*%
%TO.N,unconnected-(N6-PadRHDP)*%
X231866000Y-95217000D03*
%TD*%
%TO.P,N4,0,0*%
%TO.N,/N40*%
X162750400Y-93233300D03*
%TO.P,N4,1,1*%
%TO.N,/N41*%
X172938800Y-93233300D03*
%TO.P,N4,2,2*%
%TO.N,/N42*%
X173989400Y-90463100D03*
%TO.P,N4,3,3*%
%TO.N,/N43*%
X173632300Y-87522000D03*
%TO.P,N4,4,4*%
%TO.N,/N44*%
X171949300Y-85083800D03*
%TO.P,N4,5,5*%
%TO.N,/N45*%
X169325900Y-83706900D03*
%TO.P,N4,6,6*%
%TO.N,/N46*%
X166363300Y-83706900D03*
%TO.P,N4,7,7*%
%TO.N,/N47*%
X163739900Y-85083800D03*
%TO.P,N4,8,8*%
%TO.N,/N48*%
X162056900Y-87522000D03*
%TO.P,N4,9,9*%
%TO.N,/N49*%
X161699800Y-90463100D03*
%TO.P,N4,A,A*%
%TO.N,/170V4*%
X167844600Y-95906900D03*
%TO.P,N4,LHDP,LHDP*%
%TO.N,unconnected-(N4-PadLHDP)*%
X164968000Y-95197900D03*
%TO.P,N4,RHDP,RHDP*%
%TO.N,unconnected-(N4-PadRHDP)*%
X170721200Y-95197900D03*
%TD*%
%TO.P,N5,0,0*%
%TO.N,/N50*%
X198506000Y-93233300D03*
%TO.P,N5,1,1*%
%TO.N,/N51*%
X208694400Y-93233300D03*
%TO.P,N5,2,2*%
%TO.N,/N52*%
X209745000Y-90463100D03*
%TO.P,N5,3,3*%
%TO.N,/N53*%
X209387900Y-87522000D03*
%TO.P,N5,4,4*%
%TO.N,/N54*%
X207704900Y-85083800D03*
%TO.P,N5,5,5*%
%TO.N,/N55*%
X205081500Y-83706900D03*
%TO.P,N5,6,6*%
%TO.N,/N56*%
X202118900Y-83706900D03*
%TO.P,N5,7,7*%
%TO.N,/N57*%
X199495500Y-85083800D03*
%TO.P,N5,8,8*%
%TO.N,/N58*%
X197812500Y-87522000D03*
%TO.P,N5,9,9*%
%TO.N,/N59*%
X197455400Y-90463100D03*
%TO.P,N5,A,A*%
%TO.N,/170V5*%
X203600200Y-95906900D03*
%TO.P,N5,LHDP,LHDP*%
%TO.N,unconnected-(N5-PadLHDP)*%
X200723600Y-95197900D03*
%TO.P,N5,RHDP,RHDP*%
%TO.N,unconnected-(N5-PadRHDP)*%
X206476800Y-95197900D03*
%TD*%
%TO.P,N3,0,0*%
%TO.N,/N30*%
X137428600Y-93233300D03*
%TO.P,N3,1,1*%
%TO.N,/N31*%
X147617000Y-93233300D03*
%TO.P,N3,2,2*%
%TO.N,/N32*%
X148667600Y-90463100D03*
%TO.P,N3,3,3*%
%TO.N,/N33*%
X148310500Y-87522000D03*
%TO.P,N3,4,4*%
%TO.N,/N34*%
X146627500Y-85083800D03*
%TO.P,N3,5,5*%
%TO.N,/N35*%
X144004100Y-83706900D03*
%TO.P,N3,6,6*%
%TO.N,/N36*%
X141041500Y-83706900D03*
%TO.P,N3,7,7*%
%TO.N,/N37*%
X138418100Y-85083800D03*
%TO.P,N3,8,8*%
%TO.N,/N38*%
X136735100Y-87522000D03*
%TO.P,N3,9,9*%
%TO.N,/N39*%
X136378000Y-90463100D03*
%TO.P,N3,A,A*%
%TO.N,/170V3*%
X142522800Y-95906900D03*
%TO.P,N3,LHDP,LHDP*%
%TO.N,unconnected-(N3-PadLHDP)*%
X139646200Y-95197900D03*
%TO.P,N3,RHDP,RHDP*%
%TO.N,unconnected-(N3-PadRHDP)*%
X145399400Y-95197900D03*
%TD*%
%TO.P,N1,0,0*%
%TO.N,/N10*%
X76984600Y-93233300D03*
%TO.P,N1,1,1*%
%TO.N,/N11*%
X87173000Y-93233300D03*
%TO.P,N1,2,2*%
%TO.N,/N12*%
X88223600Y-90463100D03*
%TO.P,N1,3,3*%
%TO.N,/N13*%
X87866500Y-87522000D03*
%TO.P,N1,4,4*%
%TO.N,/N14*%
X86183500Y-85083800D03*
%TO.P,N1,5,5*%
%TO.N,/N15*%
X83560100Y-83706900D03*
%TO.P,N1,6,6*%
%TO.N,/N16*%
X80597500Y-83706900D03*
%TO.P,N1,7,7*%
%TO.N,/N17*%
X77974100Y-85083800D03*
%TO.P,N1,8,8*%
%TO.N,/N18*%
X76291100Y-87522000D03*
%TO.P,N1,9,9*%
%TO.N,/N19*%
X75934000Y-90463100D03*
%TO.P,N1,A,A*%
%TO.N,/170V1*%
X82078800Y-95906900D03*
%TO.P,N1,LHDP,LHDP*%
%TO.N,unconnected-(N1-PadLHDP)*%
X79202200Y-95197900D03*
%TO.P,N1,RHDP,RHDP*%
%TO.N,unconnected-(N1-PadRHDP)*%
X84955400Y-95197900D03*
%TD*%
%TO.P,N2,0,0*%
%TO.N,/N20*%
X102306400Y-93233300D03*
%TO.P,N2,1,1*%
%TO.N,/N21*%
X112494800Y-93233300D03*
%TO.P,N2,2,2*%
%TO.N,/N22*%
X113545400Y-90463100D03*
%TO.P,N2,3,3*%
%TO.N,/N23*%
X113188300Y-87522000D03*
%TO.P,N2,4,4*%
%TO.N,/N24*%
X111505300Y-85083800D03*
%TO.P,N2,5,5*%
%TO.N,/N25*%
X108881900Y-83706900D03*
%TO.P,N2,6,6*%
%TO.N,/N26*%
X105919300Y-83706900D03*
%TO.P,N2,7,7*%
%TO.N,/N27*%
X103295900Y-85083800D03*
%TO.P,N2,8,8*%
%TO.N,/N28*%
X101612900Y-87522000D03*
%TO.P,N2,9,9*%
%TO.N,/N29*%
X101255800Y-90463100D03*
%TO.P,N2,A,A*%
%TO.N,/170V2*%
X107400600Y-95906900D03*
%TO.P,N2,LHDP,LHDP*%
%TO.N,unconnected-(N2-PadLHDP)*%
X104524000Y-95197900D03*
%TO.P,N2,RHDP,RHDP*%
%TO.N,unconnected-(N2-PadRHDP)*%
X110277200Y-95197900D03*
%TD*%
D26*
%TO.N,GND*%
X155100000Y-87900000D03*
X190400000Y-88600000D03*
X191200000Y-86000000D03*
X178800000Y-89200000D03*
X181200000Y-94200000D03*
X122600000Y-105600000D03*
X210000000Y-118300000D03*
X131500000Y-142100000D03*
X75200000Y-81600000D03*
X235800000Y-81300000D03*
X237753550Y-113601939D03*
X231800000Y-136800000D03*
X202400000Y-137200000D03*
X84000000Y-132000000D03*
X86600000Y-126400000D03*
X116001574Y-131456674D03*
X124205003Y-129228638D03*
X124100000Y-124300000D03*
X128200000Y-122300000D03*
X105100000Y-131800000D03*
X165500000Y-128900000D03*
X229100000Y-94000000D03*
X94200000Y-129300000D03*
X80200000Y-131000000D03*
X217300000Y-139300000D03*
X118200000Y-92500000D03*
X216700000Y-135700000D03*
X67900000Y-110000000D03*
X183000000Y-102600000D03*
X145100000Y-135500000D03*
X154500000Y-127400000D03*
X138300000Y-106200000D03*
X190200000Y-128200000D03*
X163700000Y-106200000D03*
X185800000Y-115100000D03*
X214600000Y-85800000D03*
X190500000Y-83200000D03*
X109600000Y-124000000D03*
X71198870Y-131671092D03*
X180700000Y-83000000D03*
X178800000Y-126300000D03*
X199200000Y-137400000D03*
X186700000Y-79500000D03*
X122500000Y-81600000D03*
X104586407Y-91953744D03*
X245400000Y-99600000D03*
X209700000Y-127700000D03*
X173000000Y-95400000D03*
X118400000Y-87900000D03*
X243600000Y-89200000D03*
X123900000Y-101100000D03*
X200000000Y-105900000D03*
X89200000Y-129200000D03*
X137400000Y-135300000D03*
X67600000Y-113000000D03*
X245800000Y-133600000D03*
X119100000Y-123600000D03*
X220000000Y-114400000D03*
X237400000Y-139900000D03*
X215800000Y-128100000D03*
X127300000Y-101900000D03*
X195600000Y-127700000D03*
X213800000Y-117400000D03*
X214200000Y-88800000D03*
X91300000Y-142200000D03*
X123200000Y-84700000D03*
X241800000Y-116600000D03*
X93400000Y-111600000D03*
X127400000Y-92500000D03*
X129300000Y-88400000D03*
X97400000Y-131900000D03*
X97700000Y-82700000D03*
X195600000Y-82300000D03*
X177100000Y-112700000D03*
X201500000Y-127900000D03*
X169100000Y-135200000D03*
X89600000Y-131300000D03*
X194100000Y-138700000D03*
X110100000Y-131700000D03*
X236303099Y-106381234D03*
X133100000Y-79800000D03*
X184700000Y-136400000D03*
X183000000Y-125600000D03*
X246400000Y-125700000D03*
X176500000Y-81900000D03*
X186800000Y-104400000D03*
X245600000Y-91700000D03*
X160400000Y-81200000D03*
X177800000Y-139500000D03*
X159800000Y-126500000D03*
X174100000Y-130400000D03*
X129000000Y-85800000D03*
X124000000Y-142100000D03*
X89500000Y-123900000D03*
X134200000Y-118500000D03*
X203500000Y-91600000D03*
X124600000Y-96200000D03*
X229100000Y-91900000D03*
X211200000Y-106000000D03*
X92600000Y-88700000D03*
X91158587Y-82804469D03*
X220500000Y-137400000D03*
X117800000Y-128800000D03*
X235200000Y-141400000D03*
X213700000Y-114000000D03*
X187000000Y-100900000D03*
X118900000Y-111000000D03*
X207200000Y-115700000D03*
X125700000Y-79600000D03*
X154700000Y-94100000D03*
X103900000Y-124000000D03*
X149000000Y-123700000D03*
X127600000Y-110100000D03*
X137600000Y-126300000D03*
X100700000Y-130100000D03*
X117100000Y-82900000D03*
X66900000Y-134000000D03*
X148200000Y-80100000D03*
X123700000Y-92600000D03*
X79800000Y-106600000D03*
X132400000Y-83600000D03*
X116100000Y-124100000D03*
X139900000Y-79600000D03*
X214099539Y-82395528D03*
X123600000Y-127200000D03*
X156800000Y-85800000D03*
X132900000Y-116300000D03*
X84600000Y-129300000D03*
X240600000Y-87900000D03*
X111100000Y-142300000D03*
X92300000Y-86000000D03*
X173700000Y-140200000D03*
X161500000Y-135300000D03*
X74300000Y-112900000D03*
X217700000Y-88900000D03*
X246000000Y-118500000D03*
X240700000Y-112500000D03*
X95600000Y-123800000D03*
X88000000Y-105600000D03*
X205200000Y-138300000D03*
X194300000Y-133200000D03*
D27*
X235300000Y-134600000D03*
D26*
X129000000Y-120200000D03*
X73600000Y-117300000D03*
X94300000Y-85600000D03*
X203700000Y-93800000D03*
X184600000Y-97400000D03*
X169400000Y-79300000D03*
X66700000Y-89000000D03*
X94749079Y-82373610D03*
X136600000Y-128900000D03*
X110300000Y-91600000D03*
X153400000Y-112500000D03*
X116800000Y-142100000D03*
X97400000Y-112300000D03*
X162006631Y-79153211D03*
X203065248Y-114954434D03*
X241700000Y-128100000D03*
X165800000Y-140000000D03*
X246100000Y-112800000D03*
X182800000Y-88400000D03*
X182200000Y-141000000D03*
X66900000Y-104500000D03*
X127200000Y-96000000D03*
X146200000Y-114200000D03*
X80400000Y-142200000D03*
X139600000Y-91600000D03*
X107800000Y-128500000D03*
X116000000Y-105600000D03*
X187200000Y-88700000D03*
X112500000Y-100200000D03*
X153300000Y-88400000D03*
X186400000Y-132000000D03*
X219442935Y-82566062D03*
X176200000Y-105700000D03*
X153200000Y-135200000D03*
X197700000Y-114500000D03*
X128750866Y-83187721D03*
X217600000Y-116400000D03*
X215600000Y-106100000D03*
X113600000Y-128500000D03*
X128000000Y-117900000D03*
X131400000Y-111000000D03*
X237700000Y-115700000D03*
X221500000Y-106000000D03*
X102300000Y-142000000D03*
X125724732Y-83994689D03*
X164600000Y-92000000D03*
X153700000Y-86200000D03*
X241700000Y-108800000D03*
X157500000Y-114400000D03*
X82300000Y-123900000D03*
X66900000Y-94500000D03*
X155100000Y-82100000D03*
X127100000Y-89100000D03*
X181600000Y-110600000D03*
X138078439Y-118984504D03*
X136700000Y-116600000D03*
X152600000Y-123700000D03*
X124800000Y-111000000D03*
X191400000Y-139300000D03*
X186800000Y-110300000D03*
X245800000Y-106900000D03*
X198200000Y-133200000D03*
X178045903Y-136356483D03*
X200039688Y-140835748D03*
X74100000Y-141700000D03*
X125500000Y-104800000D03*
X66800000Y-99600000D03*
X118700000Y-85600000D03*
X215800000Y-125300000D03*
X84944654Y-91362073D03*
X150400000Y-105800000D03*
X122800000Y-87800000D03*
X78600000Y-90000000D03*
X128200000Y-136200000D03*
D28*
%TO.N,Net-(IC6-VBAT)*%
X143400000Y-127200000D03*
%TO.N,+5V*%
X163900000Y-125350000D03*
X128500000Y-123600000D03*
D29*
X132800000Y-123700000D03*
D28*
%TO.N,/N15*%
X80700000Y-93800000D03*
%TO.N,/N14*%
X78800000Y-91700000D03*
%TO.N,/N16*%
X83400000Y-87800000D03*
X83400000Y-93800000D03*
%TO.N,/N12*%
X93100000Y-90400000D03*
%TO.N,/N25*%
X106000000Y-93800000D03*
%TO.N,/N24*%
X108700000Y-93800000D03*
%TO.N,/N27*%
X95900000Y-85200000D03*
%TO.N,/N22*%
X119700000Y-90500000D03*
%TO.N,/N29*%
X118100000Y-104400000D03*
X118000000Y-89100000D03*
X121200000Y-100400000D03*
X110900000Y-89100000D03*
%TO.N,/N28*%
X94400000Y-87522000D03*
%TO.N,/N35*%
X141200000Y-93800000D03*
%TO.N,/N34*%
X143800000Y-93700000D03*
%TO.N,/N32*%
X153600000Y-90400000D03*
%TO.N,/N39*%
X129600000Y-90500000D03*
%TO.N,/N38*%
X131300000Y-87500000D03*
%TO.N,/N45*%
X166600000Y-93800000D03*
%TO.N,/N44*%
X169200000Y-93700000D03*
%TO.N,/N42*%
X179500000Y-90500000D03*
%TO.N,/N49*%
X155800000Y-90400000D03*
%TO.N,/N48*%
X156700000Y-87500000D03*
%TO.N,/RSTIO*%
X167100000Y-129700000D03*
%TO.N,/S4*%
X157600000Y-137100000D03*
%TO.N,/SCL1*%
X128400000Y-112400000D03*
%TO.N,/SDA1*%
X145000000Y-127700000D03*
X115100000Y-114200000D03*
X165600000Y-130400000D03*
%TO.N,/N52*%
X214500000Y-90500000D03*
%TO.N,/N54*%
X205100000Y-93700000D03*
%TO.N,/N55*%
X202300000Y-93700000D03*
%TO.N,/N58*%
X192100000Y-87600000D03*
%TO.N,/N59*%
X190000000Y-90500000D03*
%TO.N,/N62*%
X241900000Y-90500000D03*
%TO.N,/N64*%
X230500000Y-93700000D03*
%TO.N,/N65*%
X227700000Y-93700000D03*
%TO.N,/N67*%
X221000000Y-104700000D03*
X215600000Y-104700000D03*
%TO.N,/N69*%
X217100000Y-90500000D03*
%TO.N,/S5*%
X166000000Y-137200000D03*
%TO.N,/S6*%
X173700000Y-137200000D03*
%TD*%
D30*
%TO.N,/RSTC*%
X114780000Y-115420000D02*
X115300000Y-114900000D01*
X115300000Y-114900000D02*
X125500000Y-114900000D01*
X125500000Y-114900000D02*
X126800000Y-116200000D01*
X114780000Y-118220000D02*
X114780000Y-115420000D01*
X128290000Y-126190000D02*
X131000000Y-126190000D01*
X126800000Y-116200000D02*
X126800000Y-124700000D01*
X126800000Y-124700000D02*
X128290000Y-126190000D01*
D31*
%TO.N,/SDA1*%
X115100000Y-114200000D02*
X126400000Y-114200000D01*
X135850000Y-123650000D02*
X140424000Y-123650000D01*
X126400000Y-114200000D02*
X135850000Y-123650000D01*
D32*
%TO.N,GND*%
X171350000Y-129160000D02*
X171350000Y-130430000D01*
X171350000Y-130430000D02*
X171350000Y-131700000D01*
X171350000Y-130430000D02*
X174070000Y-130430000D01*
X137600000Y-126300000D02*
X140314000Y-126300000D01*
X162000000Y-126620000D02*
X159920000Y-126620000D01*
X140314000Y-126300000D02*
X140424000Y-126190000D01*
X159920000Y-126620000D02*
X159800000Y-126500000D01*
%TO.N,Net-(IC6-VBAT)*%
X143400000Y-127200000D02*
X143400000Y-126100000D01*
X142220000Y-124920000D02*
X140424000Y-124920000D01*
X143400000Y-126100000D02*
X142220000Y-124920000D01*
%TO.N,+5V*%
X131000000Y-123650000D02*
X132700000Y-123650000D01*
X132700000Y-123650000D02*
X132750000Y-123650000D01*
X128550000Y-123650000D02*
X128500000Y-123600000D01*
X132750000Y-123650000D02*
X132800000Y-123700000D01*
X131000000Y-123650000D02*
X128550000Y-123650000D01*
X163900000Y-125350000D02*
X162000000Y-125350000D01*
D31*
%TO.N,/N13*%
X90122000Y-87522000D02*
X87866500Y-87522000D01*
X91462600Y-102417000D02*
X91462600Y-88862600D01*
X91462600Y-88862600D02*
X90122000Y-87522000D01*
%TO.N,/N10*%
X73682600Y-95117400D02*
X75566700Y-93233300D01*
X73682600Y-102417000D02*
X73682600Y-95117400D01*
X75566700Y-93233300D02*
X76984600Y-93233300D01*
%TO.N,/N11*%
X79500000Y-93000000D02*
X86939700Y-93000000D01*
X76222600Y-102417000D02*
X76222600Y-96277400D01*
X76222600Y-96277400D02*
X79500000Y-93000000D01*
X86939700Y-93000000D02*
X87173000Y-93233300D01*
%TO.N,/N15*%
X78762600Y-97937400D02*
X78762600Y-102417000D01*
X80700000Y-93800000D02*
X80700000Y-96000000D01*
X80700000Y-96000000D02*
X78762600Y-97937400D01*
%TO.N,/N14*%
X81600000Y-91700000D02*
X86183500Y-87116500D01*
X86183500Y-87116500D02*
X86183500Y-85083800D01*
X78800000Y-91700000D02*
X81600000Y-91700000D01*
%TO.N,/N16*%
X83400000Y-93800000D02*
X83400000Y-95879788D01*
X82000000Y-87800000D02*
X80597500Y-86397500D01*
X86382600Y-98862388D02*
X86382600Y-102417000D01*
X80597500Y-86397500D02*
X80597500Y-83706900D01*
X83400000Y-87800000D02*
X82000000Y-87800000D01*
X83400000Y-95879788D02*
X86382600Y-98862388D01*
%TO.N,/N17*%
X74916200Y-85083800D02*
X77974100Y-85083800D01*
X88200000Y-104200000D02*
X72600000Y-104200000D01*
X70300000Y-89700000D02*
X74916200Y-85083800D01*
X72600000Y-104200000D02*
X70300000Y-101900000D01*
X88922600Y-102417000D02*
X88922600Y-103477400D01*
X70300000Y-101900000D02*
X70300000Y-89700000D01*
X88922600Y-103477400D02*
X88200000Y-104200000D01*
%TO.N,/N12*%
X93100000Y-106300000D02*
X91462600Y-107937400D01*
X91462600Y-107937400D02*
X91462600Y-110037000D01*
X93100000Y-90400000D02*
X93100000Y-106300000D01*
%TO.N,/C1*%
X88922600Y-110037000D02*
X88922600Y-112122600D01*
X91920000Y-115120000D02*
X91920000Y-118220000D01*
X88922600Y-112122600D02*
X91920000Y-115120000D01*
%TO.N,/B1*%
X86382600Y-110037000D02*
X86382600Y-112382600D01*
X89380000Y-115380000D02*
X89380000Y-118220000D01*
X86382600Y-112382600D02*
X89380000Y-115380000D01*
%TO.N,/D1*%
X82200000Y-112700000D02*
X84100000Y-112700000D01*
X81302600Y-111802600D02*
X82200000Y-112700000D01*
X86840000Y-115440000D02*
X86840000Y-118220000D01*
X81302600Y-110037000D02*
X81302600Y-111802600D01*
X84100000Y-112700000D02*
X86840000Y-115440000D01*
%TO.N,/A1*%
X78762600Y-111662600D02*
X80800000Y-113700000D01*
X84300000Y-115150000D02*
X84300000Y-118220000D01*
X82850000Y-113700000D02*
X84300000Y-115150000D01*
X78762600Y-110037000D02*
X78762600Y-111662600D01*
X80800000Y-113700000D02*
X82850000Y-113700000D01*
%TO.N,/N23*%
X115022000Y-87522000D02*
X113188300Y-87522000D01*
X116544600Y-89044600D02*
X115022000Y-87522000D01*
X116544600Y-102417000D02*
X116544600Y-89044600D01*
%TO.N,/N20*%
X100266700Y-93233300D02*
X102306400Y-93233300D01*
X98764600Y-102417000D02*
X98764600Y-94735400D01*
X98764600Y-94735400D02*
X100266700Y-93233300D01*
%TO.N,/N21*%
X112161500Y-92900000D02*
X112494800Y-93233300D01*
X101304600Y-96395400D02*
X104800000Y-92900000D01*
X101304600Y-102417000D02*
X101304600Y-96395400D01*
X104800000Y-92900000D02*
X112161500Y-92900000D01*
%TO.N,/N25*%
X106000000Y-93800000D02*
X106000000Y-96700000D01*
X106000000Y-96700000D02*
X103844600Y-98855400D01*
X103844600Y-98855400D02*
X103844600Y-102417000D01*
%TO.N,/N24*%
X108700000Y-97700000D02*
X106384600Y-100015400D01*
X106384600Y-100015400D02*
X106384600Y-102417000D01*
X108700000Y-93800000D02*
X108700000Y-97700000D01*
%TO.N,/N26*%
X110650000Y-104500000D02*
X98300000Y-104500000D01*
X100693100Y-83706900D02*
X105919300Y-83706900D01*
X97400000Y-103600000D02*
X97400000Y-87000000D01*
X111464600Y-102417000D02*
X111464600Y-103685400D01*
X98300000Y-104500000D02*
X97400000Y-103600000D01*
X111464600Y-103685400D02*
X110650000Y-104500000D01*
X97400000Y-87000000D02*
X100693100Y-83706900D01*
%TO.N,/N27*%
X95900000Y-104600000D02*
X95900000Y-85200000D01*
X112900000Y-105900000D02*
X97200000Y-105900000D01*
X97200000Y-105900000D02*
X95900000Y-104600000D01*
X114004600Y-102417000D02*
X114004600Y-104795400D01*
X114004600Y-104795400D02*
X112900000Y-105900000D01*
%TO.N,/N22*%
X118063000Y-110037000D02*
X119700000Y-108400000D01*
X119700000Y-108400000D02*
X119700000Y-90500000D01*
X116544600Y-110037000D02*
X118063000Y-110037000D01*
%TO.N,/C2*%
X112240000Y-114560000D02*
X112240000Y-118220000D01*
X114004600Y-112795400D02*
X112240000Y-114560000D01*
X114004600Y-110037000D02*
X114004600Y-112795400D01*
%TO.N,/B2*%
X111464600Y-110037000D02*
X111464600Y-112435400D01*
X111464600Y-112435400D02*
X109700000Y-114200000D01*
X109700000Y-114200000D02*
X109700000Y-118220000D01*
%TO.N,/D2*%
X106384600Y-112815400D02*
X104620000Y-114580000D01*
X104620000Y-114580000D02*
X104620000Y-118220000D01*
X106384600Y-110037000D02*
X106384600Y-112815400D01*
%TO.N,/A2*%
X103844600Y-110037000D02*
X103844600Y-112435400D01*
X102080000Y-114200000D02*
X102080000Y-118220000D01*
X103844600Y-112435400D02*
X102080000Y-114200000D01*
%TO.N,/N29*%
X101304600Y-110037000D02*
X101304600Y-108295400D01*
X110900000Y-89100000D02*
X106900000Y-89100000D01*
X101304600Y-108295400D02*
X102700000Y-106900000D01*
X105536900Y-90463100D02*
X101255800Y-90463100D01*
X116600000Y-106900000D02*
X118100000Y-105400000D01*
X102700000Y-106900000D02*
X116600000Y-106900000D01*
X106900000Y-89100000D02*
X105536900Y-90463100D01*
X119800000Y-89100000D02*
X118000000Y-89100000D01*
X121200000Y-100400000D02*
X121200000Y-90500000D01*
X118100000Y-105400000D02*
X118100000Y-104400000D01*
X121200000Y-90500000D02*
X119800000Y-89100000D01*
%TO.N,/N28*%
X94400000Y-108700000D02*
X95737000Y-110037000D01*
X94400000Y-87522000D02*
X94400000Y-108700000D01*
X95737000Y-110037000D02*
X98764600Y-110037000D01*
%TO.N,/N33*%
X151906600Y-102417000D02*
X151906600Y-89506600D01*
X149922000Y-87522000D02*
X148310500Y-87522000D01*
X151906600Y-89506600D02*
X149922000Y-87522000D01*
%TO.N,/N30*%
X134126600Y-102417000D02*
X134126600Y-94973400D01*
X135866700Y-93233300D02*
X137428600Y-93233300D01*
X134126600Y-94973400D02*
X135866700Y-93233300D01*
%TO.N,/N31*%
X140000000Y-92800000D02*
X147183700Y-92800000D01*
X136666600Y-96133400D02*
X140000000Y-92800000D01*
X147183700Y-92800000D02*
X147617000Y-93233300D01*
X136666600Y-102417000D02*
X136666600Y-96133400D01*
%TO.N,/N35*%
X141200000Y-98600000D02*
X139206600Y-100593400D01*
X139206600Y-100593400D02*
X139206600Y-102417000D01*
X141200000Y-93800000D02*
X141200000Y-98600000D01*
%TO.N,/N34*%
X141746600Y-100653400D02*
X141746600Y-102417000D01*
X143800000Y-98600000D02*
X141746600Y-100653400D01*
X143800000Y-93700000D02*
X143800000Y-98600000D01*
%TO.N,/N36*%
X149600000Y-93100000D02*
X148200000Y-91700000D01*
X146826600Y-102417000D02*
X146826600Y-97273400D01*
X146826600Y-97273400D02*
X149600000Y-94500000D01*
X141041500Y-90441500D02*
X141041500Y-83706900D01*
X148200000Y-91700000D02*
X142300000Y-91700000D01*
X149600000Y-94500000D02*
X149600000Y-93100000D01*
X142300000Y-91700000D02*
X141041500Y-90441500D01*
%TO.N,/N37*%
X149366600Y-102417000D02*
X149366600Y-104033400D01*
X133500000Y-105000000D02*
X132600000Y-104100000D01*
X149366600Y-104033400D02*
X148400000Y-105000000D01*
X132600000Y-88200000D02*
X135716200Y-85083800D01*
X132600000Y-104100000D02*
X132600000Y-88200000D01*
X148400000Y-105000000D02*
X133500000Y-105000000D01*
X135716200Y-85083800D02*
X138418100Y-85083800D01*
%TO.N,/N32*%
X151906600Y-110037000D02*
X151906600Y-107493400D01*
X151906600Y-107493400D02*
X153600000Y-105800000D01*
X153600000Y-105800000D02*
X153600000Y-90400000D01*
%TO.N,/C3*%
X162000000Y-120270000D02*
X160170000Y-120270000D01*
X149366600Y-112766600D02*
X149366600Y-110037000D01*
X152700000Y-116100000D02*
X149366600Y-112766600D01*
X156000000Y-116100000D02*
X152700000Y-116100000D01*
X160170000Y-120270000D02*
X156000000Y-116100000D01*
%TO.N,/B3*%
X159240000Y-121540000D02*
X155000000Y-117300000D01*
X151100000Y-117300000D02*
X146826600Y-113026600D01*
X155000000Y-117300000D02*
X151100000Y-117300000D01*
X162000000Y-121540000D02*
X159240000Y-121540000D01*
X146826600Y-113026600D02*
X146826600Y-110037000D01*
%TO.N,/D3*%
X147200000Y-118500000D02*
X141746600Y-113046600D01*
X141746600Y-113046600D02*
X141746600Y-110037000D01*
X154000000Y-118500000D02*
X147200000Y-118500000D01*
X162000000Y-122810000D02*
X158310000Y-122810000D01*
X158310000Y-122810000D02*
X154000000Y-118500000D01*
%TO.N,/A3*%
X144900000Y-119600000D02*
X139206600Y-113906600D01*
X139206600Y-113906600D02*
X139206600Y-110037000D01*
X153300000Y-119600000D02*
X144900000Y-119600000D01*
X157780000Y-124080000D02*
X153300000Y-119600000D01*
X162000000Y-124080000D02*
X157780000Y-124080000D01*
%TO.N,/N39*%
X129600000Y-111200000D02*
X129600000Y-90500000D01*
X130700000Y-112300000D02*
X129600000Y-111200000D01*
X136000000Y-112300000D02*
X130700000Y-112300000D01*
X136666600Y-110037000D02*
X136666600Y-111633400D01*
X136666600Y-111633400D02*
X136000000Y-112300000D01*
%TO.N,/N38*%
X131300000Y-109100000D02*
X131300000Y-87500000D01*
X134126600Y-110037000D02*
X132237000Y-110037000D01*
X132237000Y-110037000D02*
X131300000Y-109100000D01*
%TO.N,/N43*%
X175622000Y-87522000D02*
X173632300Y-87522000D01*
X176968600Y-102397000D02*
X176968600Y-88868600D01*
X176968600Y-88868600D02*
X175622000Y-87522000D01*
%TO.N,/N40*%
X159188600Y-94811400D02*
X160766700Y-93233300D01*
X160766700Y-93233300D02*
X162750400Y-93233300D01*
X159188600Y-102397000D02*
X159188600Y-94811400D01*
%TO.N,/N41*%
X161728600Y-102397000D02*
X161728600Y-96371400D01*
X172605500Y-92900000D02*
X172938800Y-93233300D01*
X161728600Y-96371400D02*
X165200000Y-92900000D01*
X165200000Y-92900000D02*
X172605500Y-92900000D01*
%TO.N,/N45*%
X166500000Y-93900000D02*
X166500000Y-97900000D01*
X164268600Y-100131400D02*
X164268600Y-102397000D01*
X166600000Y-93800000D02*
X166500000Y-93900000D01*
X166500000Y-97900000D02*
X164268600Y-100131400D01*
%TO.N,/N44*%
X166808600Y-100691400D02*
X166808600Y-102397000D01*
X169200000Y-93700000D02*
X169200000Y-98300000D01*
X169200000Y-98300000D02*
X166808600Y-100691400D01*
%TO.N,/N46*%
X171888600Y-98611400D02*
X175100000Y-95400000D01*
X169100000Y-91800000D02*
X166363300Y-89063300D01*
X175100000Y-93000000D02*
X173900000Y-91800000D01*
X171888600Y-102397000D02*
X171888600Y-98611400D01*
X166363300Y-89063300D02*
X166363300Y-83706900D01*
X175100000Y-95400000D02*
X175100000Y-93000000D01*
X173900000Y-91800000D02*
X169100000Y-91800000D01*
%TO.N,/N47*%
X174428600Y-102397000D02*
X174428600Y-104171400D01*
X160116200Y-85083800D02*
X163739900Y-85083800D01*
X173600000Y-105000000D02*
X158800000Y-105000000D01*
X157800000Y-104000000D02*
X157800000Y-87400000D01*
X174428600Y-104171400D02*
X173600000Y-105000000D01*
X158800000Y-105000000D02*
X157800000Y-104000000D01*
X157800000Y-87400000D02*
X160116200Y-85083800D01*
%TO.N,/N42*%
X176968600Y-110017000D02*
X178483000Y-110017000D01*
X178483000Y-110017000D02*
X179500000Y-109000000D01*
X179500000Y-109000000D02*
X179500000Y-90500000D01*
%TO.N,/C4*%
X174428600Y-112271400D02*
X174428600Y-110017000D01*
X172800000Y-113900000D02*
X174428600Y-112271400D01*
X162000000Y-119000000D02*
X164500000Y-119000000D01*
X169600000Y-113900000D02*
X172800000Y-113900000D01*
X164500000Y-119000000D02*
X169600000Y-113900000D01*
%TO.N,/B4*%
X171888600Y-111711400D02*
X171888600Y-110017000D01*
X162000000Y-117730000D02*
X163870000Y-117730000D01*
X168800000Y-112800000D02*
X170800000Y-112800000D01*
X170800000Y-112800000D02*
X171888600Y-111711400D01*
X163870000Y-117730000D02*
X168800000Y-112800000D01*
%TO.N,/D4*%
X166808600Y-113091400D02*
X166808600Y-110017000D01*
X162000000Y-116460000D02*
X163440000Y-116460000D01*
X163440000Y-116460000D02*
X166808600Y-113091400D01*
%TO.N,/A4*%
X162000000Y-113800000D02*
X164268600Y-111531400D01*
X162000000Y-115190000D02*
X162000000Y-113800000D01*
X164268600Y-111531400D02*
X164268600Y-110017000D01*
%TO.N,/N49*%
X157500000Y-112100000D02*
X155800000Y-110400000D01*
X161000000Y-112100000D02*
X157500000Y-112100000D01*
X155800000Y-110400000D02*
X155800000Y-90400000D01*
X161728600Y-110017000D02*
X161728600Y-111371400D01*
X161728600Y-111371400D02*
X161000000Y-112100000D01*
%TO.N,/N48*%
X156700000Y-87500000D02*
X156700000Y-108800000D01*
X156700000Y-108800000D02*
X157917000Y-110017000D01*
X157917000Y-110017000D02*
X159188600Y-110017000D01*
%TO.N,/RSTIO*%
X174550000Y-127900000D02*
X171360000Y-127900000D01*
X167910000Y-127890000D02*
X171350000Y-127890000D01*
X171360000Y-127900000D02*
X171350000Y-127890000D01*
X167100000Y-129700000D02*
X167100000Y-128700000D01*
X167100000Y-128700000D02*
X167910000Y-127890000D01*
%TO.N,/S1*%
X132700000Y-137900000D02*
X133600000Y-137000000D01*
X91920000Y-139120000D02*
X92300000Y-139500000D01*
X92300000Y-139500000D02*
X125400000Y-139500000D01*
X127000000Y-137900000D02*
X132700000Y-137900000D01*
X125400000Y-139500000D02*
X127000000Y-137900000D01*
X133600000Y-137000000D02*
X136000000Y-137000000D01*
X91920000Y-136000000D02*
X91920000Y-139120000D01*
D33*
%TO.N,+3V3*%
X176000000Y-141900000D02*
X176500000Y-142400000D01*
X176500000Y-133200000D02*
X177200000Y-133900000D01*
X146700000Y-133900000D02*
X146200000Y-133900000D01*
X144000000Y-142400000D02*
X143600000Y-142400000D01*
X160000000Y-142000000D02*
X159600000Y-142400000D01*
X179500000Y-141300000D02*
X178400000Y-142400000D01*
X157000000Y-130445000D02*
X157000000Y-128279000D01*
X152400000Y-142400000D02*
X152000000Y-142400000D01*
X114800000Y-133900000D02*
X114200000Y-133900000D01*
X136000000Y-141300000D02*
X136000000Y-140200000D01*
X144400000Y-142400000D02*
X144000000Y-142400000D01*
X176400000Y-133200000D02*
X175700000Y-133900000D01*
X114200000Y-133900000D02*
X70200000Y-133900000D01*
X146198000Y-133400000D02*
X146200000Y-133400000D01*
X66800000Y-125700000D02*
X67960000Y-124540000D01*
X168400000Y-142400000D02*
X168000000Y-142400000D01*
X137100000Y-142400000D02*
X136000000Y-141300000D01*
X176000000Y-142400000D02*
X175500000Y-142400000D01*
D32*
X114200000Y-133940000D02*
X114200000Y-133900000D01*
D33*
X157000000Y-133400000D02*
X157500000Y-133900000D01*
X157000000Y-128279000D02*
X156966000Y-128245000D01*
X151600000Y-142400000D02*
X151500000Y-142400000D01*
X143600000Y-142400000D02*
X137100000Y-142400000D01*
X157000000Y-133400000D02*
X156500000Y-133900000D01*
X151500000Y-142400000D02*
X144400000Y-142400000D01*
X146198000Y-124000000D02*
X146198000Y-133400000D01*
X67960000Y-124540000D02*
X70000000Y-124540000D01*
X145700000Y-133900000D02*
X115400000Y-133900000D01*
X144000000Y-142000000D02*
X143600000Y-142400000D01*
X159600000Y-142400000D02*
X159500000Y-142400000D01*
D32*
X114780000Y-134520000D02*
X114200000Y-133940000D01*
D33*
X156500000Y-133900000D02*
X157000000Y-133900000D01*
D32*
X114780000Y-134700000D02*
X114780000Y-134520000D01*
D33*
X177200000Y-133900000D02*
X178000000Y-133900000D01*
X176450000Y-133200000D02*
X176450000Y-127900000D01*
X178400000Y-142400000D02*
X176500000Y-142400000D01*
X157000000Y-133900000D02*
X157500000Y-133900000D01*
X175700000Y-133900000D02*
X176450000Y-133900000D01*
X176000000Y-141900000D02*
X176000000Y-142400000D01*
D32*
X114780000Y-133920000D02*
X114800000Y-133900000D01*
D33*
X168000000Y-142400000D02*
X167600000Y-142400000D01*
X179500000Y-135400000D02*
X179500000Y-141300000D01*
X160000000Y-140200000D02*
X160000000Y-142000000D01*
X144000000Y-142000000D02*
X144400000Y-142400000D01*
D32*
X114780000Y-136000000D02*
X114780000Y-134700000D01*
D33*
X160000000Y-142000000D02*
X160400000Y-142400000D01*
X176500000Y-142400000D02*
X176000000Y-142400000D01*
X175500000Y-142400000D02*
X168400000Y-142400000D01*
X115400000Y-133900000D02*
X114800000Y-133900000D01*
X176450000Y-133900000D02*
X177200000Y-133900000D01*
D32*
X114780000Y-134520000D02*
X115400000Y-133900000D01*
D33*
X152000000Y-142000000D02*
X151600000Y-142400000D01*
X178000000Y-133900000D02*
X179500000Y-135400000D01*
X176000000Y-141900000D02*
X175500000Y-142400000D01*
X160400000Y-142400000D02*
X160500000Y-142400000D01*
X160000000Y-142000000D02*
X160000000Y-142400000D01*
X146200000Y-133400000D02*
X145700000Y-133900000D01*
X157000000Y-130445000D02*
X157000000Y-133400000D01*
D32*
X114780000Y-134700000D02*
X114780000Y-133920000D01*
D33*
X176000000Y-140200000D02*
X176000000Y-141900000D01*
X155500000Y-133900000D02*
X146700000Y-133900000D01*
X160000000Y-142400000D02*
X159500000Y-142400000D01*
X152000000Y-140200000D02*
X152000000Y-142000000D01*
X146198000Y-133898000D02*
X146200000Y-133900000D01*
X176450000Y-133200000D02*
X176400000Y-133200000D01*
X146200000Y-133900000D02*
X145700000Y-133900000D01*
X146198000Y-133400000D02*
X146198000Y-133898000D01*
X176450000Y-133200000D02*
X176500000Y-133200000D01*
X157000000Y-133400000D02*
X157000000Y-133900000D01*
X168000000Y-140200000D02*
X168000000Y-142000000D01*
X168000000Y-142000000D02*
X168400000Y-142400000D01*
X160500000Y-142400000D02*
X160000000Y-142400000D01*
X152000000Y-142400000D02*
X151500000Y-142400000D01*
X146198000Y-122000000D02*
X146198000Y-124000000D01*
X159500000Y-142400000D02*
X152400000Y-142400000D01*
X144000000Y-142000000D02*
X144000000Y-142400000D01*
X168000000Y-142000000D02*
X167600000Y-142400000D01*
X157500000Y-133900000D02*
X175700000Y-133900000D01*
X168000000Y-142000000D02*
X168000000Y-142400000D01*
X152000000Y-142000000D02*
X152400000Y-142400000D01*
X70200000Y-133900000D02*
X66800000Y-130500000D01*
X66800000Y-130500000D02*
X66800000Y-125700000D01*
X144000000Y-140200000D02*
X144000000Y-142000000D01*
X146200000Y-133400000D02*
X146700000Y-133900000D01*
X176450000Y-133900000D02*
X176450000Y-133200000D01*
X152000000Y-142000000D02*
X152000000Y-142400000D01*
X167600000Y-142400000D02*
X160500000Y-142400000D01*
X155500000Y-133900000D02*
X156500000Y-133900000D01*
D31*
%TO.N,/S2*%
X142300000Y-137000000D02*
X144000000Y-137000000D01*
X90400000Y-140200000D02*
X125800000Y-140200000D01*
X125800000Y-140200000D02*
X127500000Y-138500000D01*
X89380000Y-139180000D02*
X90400000Y-140200000D01*
X127500000Y-138500000D02*
X140800000Y-138500000D01*
X89380000Y-136000000D02*
X89380000Y-139180000D01*
X140800000Y-138500000D02*
X142300000Y-137000000D01*
%TO.N,/S3*%
X88500000Y-140900000D02*
X126600000Y-140900000D01*
X86840000Y-139240000D02*
X88500000Y-140900000D01*
X126600000Y-140900000D02*
X128400000Y-139100000D01*
X148100000Y-139100000D02*
X150200000Y-137000000D01*
X86840000Y-136000000D02*
X86840000Y-139240000D01*
X128400000Y-139100000D02*
X148100000Y-139100000D01*
X150200000Y-137000000D02*
X152000000Y-137000000D01*
%TO.N,/S4*%
X159900000Y-137100000D02*
X160000000Y-137000000D01*
X157600000Y-137100000D02*
X159900000Y-137100000D01*
%TO.N,/SCL1*%
X136580000Y-122380000D02*
X140424000Y-122380000D01*
X160760000Y-129160000D02*
X162000000Y-129160000D01*
X128400000Y-114200000D02*
X136580000Y-122380000D01*
X152300000Y-120700000D02*
X141400000Y-120700000D01*
X158866000Y-127266000D02*
X152300000Y-120700000D01*
X141400000Y-120700000D02*
X140424000Y-121676000D01*
X158866000Y-128245000D02*
X159121000Y-128500000D01*
X158866000Y-128245000D02*
X158866000Y-127266000D01*
X160100000Y-128500000D02*
X160760000Y-129160000D01*
X128400000Y-112400000D02*
X128400000Y-114200000D01*
X159121000Y-128500000D02*
X160100000Y-128500000D01*
X140424000Y-121676000D02*
X140424000Y-122380000D01*
D32*
X143786000Y-122380000D02*
X144298000Y-121868000D01*
X140424000Y-122380000D02*
X143786000Y-122380000D01*
D31*
%TO.N,/SDA1*%
X145000000Y-127700000D02*
X144600000Y-127700000D01*
X144600000Y-127700000D02*
X144298000Y-127398000D01*
D32*
X140424000Y-123650000D02*
X143740000Y-123650000D01*
X143740000Y-123650000D02*
X144298000Y-124208000D01*
D31*
X165600000Y-130400000D02*
X162030000Y-130400000D01*
X144298000Y-127398000D02*
X144298000Y-124000000D01*
X158900000Y-130445000D02*
X161985000Y-130445000D01*
%TO.N,/N50*%
X196666700Y-93233300D02*
X198506000Y-93233300D01*
X195226000Y-94674000D02*
X196666700Y-93233300D01*
X195226000Y-102417000D02*
X195226000Y-94674000D01*
%TO.N,/N51*%
X200900000Y-92900000D02*
X208361100Y-92900000D01*
X197766000Y-102417000D02*
X197766000Y-96034000D01*
X197766000Y-96034000D02*
X200900000Y-92900000D01*
X208361100Y-92900000D02*
X208694400Y-93233300D01*
%TO.N,/N52*%
X213006000Y-110037000D02*
X213006000Y-108194000D01*
X214500000Y-106700000D02*
X214500000Y-90500000D01*
X213006000Y-108194000D02*
X214500000Y-106700000D01*
%TO.N,/N53*%
X211622000Y-87522000D02*
X209387900Y-87522000D01*
X213006000Y-102417000D02*
X213000000Y-102411000D01*
X213000000Y-88900000D02*
X211622000Y-87522000D01*
X213000000Y-102411000D02*
X213000000Y-88900000D01*
%TO.N,/N54*%
X205100000Y-93700000D02*
X205100000Y-98500000D01*
X202846000Y-100754000D02*
X202846000Y-102417000D01*
X205100000Y-98500000D02*
X202846000Y-100754000D01*
%TO.N,/N55*%
X202300000Y-98600000D02*
X200306000Y-100594000D01*
X200306000Y-100594000D02*
X200306000Y-102417000D01*
X202300000Y-93700000D02*
X202300000Y-98600000D01*
%TO.N,/N56*%
X202118900Y-86818900D02*
X202118900Y-83706900D01*
X206900000Y-91600000D02*
X202118900Y-86818900D01*
X209000000Y-91600000D02*
X206900000Y-91600000D01*
X207926000Y-102417000D02*
X207926000Y-99826000D01*
X210200000Y-94700000D02*
X210200000Y-92800000D01*
X207926000Y-99826000D02*
X207900000Y-99800000D01*
X210200000Y-92800000D02*
X209000000Y-91600000D01*
X207900000Y-99800000D02*
X207900000Y-97000000D01*
X207900000Y-97000000D02*
X210200000Y-94700000D01*
%TO.N,/N57*%
X196316200Y-85083800D02*
X199495500Y-85083800D01*
X193700000Y-104200000D02*
X193700000Y-87700000D01*
X210466000Y-103934000D02*
X209600000Y-104800000D01*
X209600000Y-104800000D02*
X194300000Y-104800000D01*
X193700000Y-87700000D02*
X196316200Y-85083800D01*
X194300000Y-104800000D02*
X193700000Y-104200000D01*
X210466000Y-102417000D02*
X210466000Y-103934000D01*
%TO.N,/N58*%
X195226000Y-110037000D02*
X193537000Y-110037000D01*
X193537000Y-110037000D02*
X192100000Y-108600000D01*
X192100000Y-108600000D02*
X192100000Y-87600000D01*
%TO.N,/N59*%
X192100000Y-111600000D02*
X190000000Y-109500000D01*
X197400000Y-111600000D02*
X192100000Y-111600000D01*
X197766000Y-111234000D02*
X197400000Y-111600000D01*
X197766000Y-110037000D02*
X197766000Y-111234000D01*
X190000000Y-109500000D02*
X190000000Y-90500000D01*
%TO.N,/N60*%
X220266000Y-95134000D02*
X222147600Y-93252400D01*
X222147600Y-93252400D02*
X223895200Y-93252400D01*
X220266000Y-102417000D02*
X220266000Y-95134000D01*
%TO.N,/N61*%
X233831200Y-93000000D02*
X234083600Y-93252400D01*
X222806000Y-96394000D02*
X226200000Y-93000000D01*
X226200000Y-93000000D02*
X233831200Y-93000000D01*
X222806000Y-102417000D02*
X222806000Y-96394000D01*
%TO.N,/N62*%
X238046000Y-110037000D02*
X238046000Y-108554000D01*
X238046000Y-108554000D02*
X241900000Y-104700000D01*
X241900000Y-104700000D02*
X241900000Y-90500000D01*
%TO.N,/N63*%
X238046000Y-102417000D02*
X238100000Y-102363000D01*
X236341100Y-87541100D02*
X234777100Y-87541100D01*
X238100000Y-102363000D02*
X238100000Y-89300000D01*
X238100000Y-89300000D02*
X236341100Y-87541100D01*
%TO.N,/N64*%
X230500000Y-97800000D02*
X227886000Y-100414000D01*
X230500000Y-93700000D02*
X230500000Y-97800000D01*
X227886000Y-100414000D02*
X227886000Y-102417000D01*
%TO.N,/N65*%
X227700000Y-93700000D02*
X227700000Y-96600000D01*
X225346000Y-98954000D02*
X225346000Y-102417000D01*
X227700000Y-96600000D02*
X225346000Y-98954000D01*
%TO.N,/N66*%
X232966000Y-102417000D02*
X232966000Y-100634000D01*
X235600000Y-92600000D02*
X234800000Y-91800000D01*
X234800000Y-91800000D02*
X233100000Y-91800000D01*
X233100000Y-91800000D02*
X227508100Y-86208100D01*
X232966000Y-100634000D02*
X235600000Y-98000000D01*
X227508100Y-86208100D02*
X227508100Y-83726000D01*
X235600000Y-98000000D02*
X235600000Y-92600000D01*
%TO.N,/N67*%
X215600000Y-104700000D02*
X215600000Y-88900000D01*
X235506000Y-103894000D02*
X234700000Y-104700000D01*
X234700000Y-104700000D02*
X221000000Y-104700000D01*
X215600000Y-88900000D02*
X219397100Y-85102900D01*
X235506000Y-102417000D02*
X235506000Y-103894000D01*
X219397100Y-85102900D02*
X224884700Y-85102900D01*
%TO.N,/N68*%
X218600000Y-109500000D02*
X218600000Y-89900000D01*
X220958900Y-87541100D02*
X223201700Y-87541100D01*
X220266000Y-110037000D02*
X219137000Y-110037000D01*
X218600000Y-89900000D02*
X220958900Y-87541100D01*
X219137000Y-110037000D02*
X218600000Y-109500000D01*
%TO.N,/N69*%
X218200000Y-112000000D02*
X217000000Y-110800000D01*
X217000000Y-90600000D02*
X217100000Y-90500000D01*
X217000000Y-110800000D02*
X217000000Y-90600000D01*
X222806000Y-111294000D02*
X222100000Y-112000000D01*
X222806000Y-110037000D02*
X222806000Y-111294000D01*
X222100000Y-112000000D02*
X218200000Y-112000000D01*
%TO.N,/C5*%
X205700000Y-119000000D02*
X210466000Y-114234000D01*
X210466000Y-114234000D02*
X210466000Y-110037000D01*
X171350000Y-119000000D02*
X205700000Y-119000000D01*
%TO.N,/B5*%
X171520000Y-117900000D02*
X171350000Y-117730000D01*
X207926000Y-110037000D02*
X207926000Y-112274000D01*
X202300000Y-117900000D02*
X171520000Y-117900000D01*
X207926000Y-112274000D02*
X202300000Y-117900000D01*
%TO.N,/D5*%
X174360000Y-116460000D02*
X174800000Y-116900000D01*
X174800000Y-116900000D02*
X199100000Y-116900000D01*
X171350000Y-116460000D02*
X174360000Y-116460000D01*
X202846000Y-113154000D02*
X202846000Y-110037000D01*
X199100000Y-116900000D02*
X202846000Y-113154000D01*
%TO.N,/A5*%
X181410000Y-115190000D02*
X184200000Y-112400000D01*
X199600000Y-112400000D02*
X200306000Y-111694000D01*
X184200000Y-112400000D02*
X199600000Y-112400000D01*
X200306000Y-111694000D02*
X200306000Y-110037000D01*
X171350000Y-115190000D02*
X181410000Y-115190000D01*
%TO.N,/C6*%
X235506000Y-115994000D02*
X235506000Y-110037000D01*
X227420000Y-124080000D02*
X235506000Y-115994000D01*
X171350000Y-124080000D02*
X227420000Y-124080000D01*
%TO.N,/B6*%
X224990000Y-122810000D02*
X232966000Y-114834000D01*
X171350000Y-122810000D02*
X224990000Y-122810000D01*
X232966000Y-114834000D02*
X232966000Y-110037000D01*
%TO.N,/D6*%
X222260000Y-121540000D02*
X227886000Y-115914000D01*
X227886000Y-115914000D02*
X227886000Y-110037000D01*
X171350000Y-121540000D02*
X222260000Y-121540000D01*
%TO.N,/A6*%
X225346000Y-114454000D02*
X225346000Y-110037000D01*
X171350000Y-120270000D02*
X219530000Y-120270000D01*
X219530000Y-120270000D02*
X225346000Y-114454000D01*
%TO.N,/RX*%
X75600000Y-121100000D02*
X73960000Y-119460000D01*
X124000000Y-121100000D02*
X75600000Y-121100000D01*
X124940000Y-118220000D02*
X124940000Y-120160000D01*
X124940000Y-120160000D02*
X124000000Y-121100000D01*
X73960000Y-119460000D02*
X70000000Y-119460000D01*
%TO.N,/S5*%
X166000000Y-137200000D02*
X167800000Y-137200000D01*
X167800000Y-137200000D02*
X168000000Y-137000000D01*
%TO.N,/S6*%
X175800000Y-137200000D02*
X176000000Y-137000000D01*
X173700000Y-137200000D02*
X175800000Y-137200000D01*
%TD*%
M02*
